ISO-10303-21;
HEADER;
FILE_DESCRIPTION(('FreeCAD Model'),'2;1');
FILE_NAME('Open CASCADE Shape Model','2026-08-16T20:38:14',(''),(''),
  'Open CASCADE STEP processor 7.8','FreeCAD','Unknown');
FILE_SCHEMA(('AUTOMOTIVE_DESIGN { 1 0 10303 214 1 1 1 1 }'));
ENDSEC;
DATA;
#1 = APPLICATION_PROTOCOL_DEFINITION('international standard',
  'automotive_design',2000,#2);
#2 = APPLICATION_CONTEXT(
  'core data for automotive mechanical design processes');
#3 = SHAPE_DEFINITION_REPRESENTATION(#4,#10);
#4 = PRODUCT_DEFINITION_SHAPE('','',#5);
#5 = PRODUCT_DEFINITION('design','',#6,#9);
#6 = PRODUCT_DEFINITION_FORMATION('','',#7);
#7 = PRODUCT('Facade','Facade','',(#8));
#8 = PRODUCT_CONTEXT('',#2,'mechanical');
#9 = PRODUCT_DEFINITION_CONTEXT('part definition',#2,'design');
#10 = ADVANCED_BREP_SHAPE_REPRESENTATION('',(#11,#15),#1357);
#11 = AXIS2_PLACEMENT_3D('',#12,#13,#14);
#12 = CARTESIAN_POINT('',(0.,0.,0.));
#13 = DIRECTION('',(0.,0.,1.));
#14 = DIRECTION('',(1.,0.,-0.));
#15 = MANIFOLD_SOLID_BREP('',#16);
#16 = CLOSED_SHELL('',(#17,#57,#88,#119,#177,#201,#218,#242,#300,#317,
    #348,#372,#396,#413,#425,#456,#480,#504,#521,#666,#723,#754,#778,
    #802,#819,#844,#869,#894,#919,#944,#969,#994,#1019,#1044,#1075,#1099
    ,#1123,#1140,#1165,#1183,#1192,#1212,#1224,#1233,#1242,#1262,#1271,
    #1280,#1289,#1314,#1339,#1348));
#17 = ADVANCED_FACE('',(#18),#52,.T.);
#18 = FACE_BOUND('',#19,.T.);
#19 = EDGE_LOOP('',(#20,#30,#38,#46));
#20 = ORIENTED_EDGE('',*,*,#21,.F.);
#21 = EDGE_CURVE('',#22,#24,#26,.T.);
#22 = VERTEX_POINT('',#23);
#23 = CARTESIAN_POINT('',(-13.9,-3.,-8.4));
#24 = VERTEX_POINT('',#25);
#25 = CARTESIAN_POINT('',(-13.9,-3.25,-8.4));
#26 = LINE('',#27,#28);
#27 = CARTESIAN_POINT('',(-13.9,-1.86517468137E-15,-8.4));
#28 = VECTOR('',#29,1.);
#29 = DIRECTION('',(0.,-1.,2.22044604925E-16));
#30 = ORIENTED_EDGE('',*,*,#31,.T.);
#31 = EDGE_CURVE('',#22,#32,#34,.T.);
#32 = VERTEX_POINT('',#33);
#33 = CARTESIAN_POINT('',(-13.9,-3.,19.4));
#34 = LINE('',#35,#36);
#35 = CARTESIAN_POINT('',(-13.9,-3.,-8.4));
#36 = VECTOR('',#37,1.);
#37 = DIRECTION('',(0.,-2.22044604925E-16,1.));
#38 = ORIENTED_EDGE('',*,*,#39,.T.);
#39 = EDGE_CURVE('',#32,#40,#42,.T.);
#40 = VERTEX_POINT('',#41);
#41 = CARTESIAN_POINT('',(-13.9,-3.25,19.4));
#42 = LINE('',#43,#44);
#43 = CARTESIAN_POINT('',(-13.9,4.307665335546E-15,19.4));
#44 = VECTOR('',#45,1.);
#45 = DIRECTION('',(0.,-1.,2.22044604925E-16));
#46 = ORIENTED_EDGE('',*,*,#47,.T.);
#47 = EDGE_CURVE('',#40,#24,#48,.T.);
#48 = LINE('',#49,#50);
#49 = CARTESIAN_POINT('',(-13.9,-3.25,19.4));
#50 = VECTOR('',#51,1.);
#51 = DIRECTION('',(0.,-2.22044604925E-16,-1.));
#52 = PLANE('',#53);
#53 = AXIS2_PLACEMENT_3D('',#54,#55,#56);
#54 = CARTESIAN_POINT('',(-13.9,4.307665335546E-15,19.4));
#55 = DIRECTION('',(1.,0.,0.));
#56 = DIRECTION('',(0.,-2.22044604925E-16,-1.));
#57 = ADVANCED_FACE('',(#58),#83,.T.);
#58 = FACE_BOUND('',#59,.T.);
#59 = EDGE_LOOP('',(#60,#70,#76,#77));
#60 = ORIENTED_EDGE('',*,*,#61,.F.);
#61 = EDGE_CURVE('',#62,#64,#66,.T.);
#62 = VERTEX_POINT('',#63);
#63 = CARTESIAN_POINT('',(13.9,-3.,-8.4));
#64 = VERTEX_POINT('',#65);
#65 = CARTESIAN_POINT('',(13.9,-3.25,-8.4));
#66 = LINE('',#67,#68);
#67 = CARTESIAN_POINT('',(13.9,-1.86517468137E-15,-8.4));
#68 = VECTOR('',#69,1.);
#69 = DIRECTION('',(0.,-1.,2.22044604925E-16));
#70 = ORIENTED_EDGE('',*,*,#71,.T.);
#71 = EDGE_CURVE('',#62,#22,#72,.T.);
#72 = LINE('',#73,#74);
#73 = CARTESIAN_POINT('',(13.9,-3.,-8.4));
#74 = VECTOR('',#75,1.);
#75 = DIRECTION('',(-1.,-0.,0.));
#76 = ORIENTED_EDGE('',*,*,#21,.T.);
#77 = ORIENTED_EDGE('',*,*,#78,.T.);
#78 = EDGE_CURVE('',#24,#64,#79,.T.);
#79 = LINE('',#80,#81);
#80 = CARTESIAN_POINT('',(-13.9,-3.25,-8.4));
#81 = VECTOR('',#82,1.);
#82 = DIRECTION('',(1.,0.,0.));
#83 = PLANE('',#84);
#84 = AXIS2_PLACEMENT_3D('',#85,#86,#87);
#85 = CARTESIAN_POINT('',(-13.9,-1.86517468137E-15,-8.4));
#86 = DIRECTION('',(0.,2.22044604925E-16,1.));
#87 = DIRECTION('',(1.,0.,0.));
#88 = ADVANCED_FACE('',(#89),#114,.T.);
#89 = FACE_BOUND('',#90,.F.);
#90 = EDGE_LOOP('',(#91,#99,#100,#108));
#91 = ORIENTED_EDGE('',*,*,#92,.F.);
#92 = EDGE_CURVE('',#22,#93,#95,.T.);
#93 = VERTEX_POINT('',#94);
#94 = CARTESIAN_POINT('',(-14.9,-2.,-9.4));
#95 = LINE('',#96,#97);
#96 = CARTESIAN_POINT('',(-9.6,-7.3,-4.1));
#97 = VECTOR('',#98,1.);
#98 = DIRECTION('',(-0.57735026919,0.57735026919,-0.57735026919));
#99 = ORIENTED_EDGE('',*,*,#31,.T.);
#100 = ORIENTED_EDGE('',*,*,#101,.T.);
#101 = EDGE_CURVE('',#32,#102,#104,.T.);
#102 = VERTEX_POINT('',#103);
#103 = CARTESIAN_POINT('',(-14.9,-2.,20.4));
#104 = LINE('',#105,#106);
#105 = CARTESIAN_POINT('',(-9.6,-7.3,15.1));
#106 = VECTOR('',#107,1.);
#107 = DIRECTION('',(-0.57735026919,0.57735026919,0.57735026919));
#108 = ORIENTED_EDGE('',*,*,#109,.F.);
#109 = EDGE_CURVE('',#93,#102,#110,.T.);
#110 = LINE('',#111,#112);
#111 = CARTESIAN_POINT('',(-14.9,-2.,-8.4));
#112 = VECTOR('',#113,1.);
#113 = DIRECTION('',(0.,-2.22044604925E-16,1.));
#114 = PLANE('',#115);
#115 = AXIS2_PLACEMENT_3D('',#116,#117,#118);
#116 = CARTESIAN_POINT('',(-14.4,-2.5,-8.4));
#117 = DIRECTION('',(0.707106781187,0.707106781187,1.570092458684E-16));
#118 = DIRECTION('',(-0.,2.22044604925E-16,-1.));
#119 = ADVANCED_FACE('',(#120,#154),#172,.T.);
#120 = FACE_BOUND('',#121,.T.);
#121 = EDGE_LOOP('',(#122,#132,#140,#148));
#122 = ORIENTED_EDGE('',*,*,#123,.T.);
#123 = EDGE_CURVE('',#124,#126,#128,.T.);
#124 = VERTEX_POINT('',#125);
#125 = CARTESIAN_POINT('',(-15.45,-3.25,21.4));
#126 = VERTEX_POINT('',#127);
#127 = CARTESIAN_POINT('',(-15.45,-3.25,-10.4));
#128 = LINE('',#129,#130);
#129 = CARTESIAN_POINT('',(-15.45,-3.25,21.4));
#130 = VECTOR('',#131,1.);
#131 = DIRECTION('',(0.,-2.22044604925E-16,-1.));
#132 = ORIENTED_EDGE('',*,*,#133,.T.);
#133 = EDGE_CURVE('',#126,#134,#136,.T.);
#134 = VERTEX_POINT('',#135);
#135 = CARTESIAN_POINT('',(18.55,-3.25,-10.4));
#136 = LINE('',#137,#138);
#137 = CARTESIAN_POINT('',(-15.45,-3.25,-10.4));
#138 = VECTOR('',#139,1.);
#139 = DIRECTION('',(1.,0.,0.));
#140 = ORIENTED_EDGE('',*,*,#141,.T.);
#141 = EDGE_CURVE('',#134,#142,#144,.T.);
#142 = VERTEX_POINT('',#143);
#143 = CARTESIAN_POINT('',(18.55,-3.25,21.4));
#144 = LINE('',#145,#146);
#145 = CARTESIAN_POINT('',(18.55,-3.25,-10.4));
#146 = VECTOR('',#147,1.);
#147 = DIRECTION('',(0.,2.22044604925E-16,1.));
#148 = ORIENTED_EDGE('',*,*,#149,.T.);
#149 = EDGE_CURVE('',#142,#124,#150,.T.);
#150 = LINE('',#151,#152);
#151 = CARTESIAN_POINT('',(18.55,-3.25,21.4));
#152 = VECTOR('',#153,1.);
#153 = DIRECTION('',(-1.,0.,0.));
#154 = FACE_BOUND('',#155,.F.);
#155 = EDGE_LOOP('',(#156,#157,#158,#166));
#156 = ORIENTED_EDGE('',*,*,#47,.T.);
#157 = ORIENTED_EDGE('',*,*,#78,.T.);
#158 = ORIENTED_EDGE('',*,*,#159,.T.);
#159 = EDGE_CURVE('',#64,#160,#162,.T.);
#160 = VERTEX_POINT('',#161);
#161 = CARTESIAN_POINT('',(13.9,-3.25,19.4));
#162 = LINE('',#163,#164);
#163 = CARTESIAN_POINT('',(13.9,-3.25,-8.4));
#164 = VECTOR('',#165,1.);
#165 = DIRECTION('',(0.,2.22044604925E-16,1.));
#166 = ORIENTED_EDGE('',*,*,#167,.T.);
#167 = EDGE_CURVE('',#160,#40,#168,.T.);
#168 = LINE('',#169,#170);
#169 = CARTESIAN_POINT('',(13.9,-3.25,19.4));
#170 = VECTOR('',#171,1.);
#171 = DIRECTION('',(-1.,0.,0.));
#172 = PLANE('',#173);
#173 = AXIS2_PLACEMENT_3D('',#174,#175,#176);
#174 = CARTESIAN_POINT('',(0.151105214958,-3.25,0.254940034588));
#175 = DIRECTION('',(0.,-1.,2.22044604925E-16));
#176 = DIRECTION('',(1.,0.,0.));
#177 = ADVANCED_FACE('',(#178),#196,.T.);
#178 = FACE_BOUND('',#179,.T.);
#179 = EDGE_LOOP('',(#180,#181,#189,#195));
#180 = ORIENTED_EDGE('',*,*,#39,.F.);
#181 = ORIENTED_EDGE('',*,*,#182,.T.);
#182 = EDGE_CURVE('',#32,#183,#185,.T.);
#183 = VERTEX_POINT('',#184);
#184 = CARTESIAN_POINT('',(13.9,-3.,19.4));
#185 = LINE('',#186,#187);
#186 = CARTESIAN_POINT('',(-13.9,-3.,19.4));
#187 = VECTOR('',#188,1.);
#188 = DIRECTION('',(1.,0.,0.));
#189 = ORIENTED_EDGE('',*,*,#190,.T.);
#190 = EDGE_CURVE('',#183,#160,#191,.T.);
#191 = LINE('',#192,#193);
#192 = CARTESIAN_POINT('',(13.9,4.307665335546E-15,19.4));
#193 = VECTOR('',#194,1.);
#194 = DIRECTION('',(0.,-1.,2.22044604925E-16));
#195 = ORIENTED_EDGE('',*,*,#167,.T.);
#196 = PLANE('',#197);
#197 = AXIS2_PLACEMENT_3D('',#198,#199,#200);
#198 = CARTESIAN_POINT('',(13.9,4.307665335546E-15,19.4));
#199 = DIRECTION('',(0.,-2.22044604925E-16,-1.));
#200 = DIRECTION('',(-1.,0.,0.));
#201 = ADVANCED_FACE('',(#202),#213,.T.);
#202 = FACE_BOUND('',#203,.T.);
#203 = EDGE_LOOP('',(#204,#205,#211,#212));
#204 = ORIENTED_EDGE('',*,*,#190,.F.);
#205 = ORIENTED_EDGE('',*,*,#206,.T.);
#206 = EDGE_CURVE('',#183,#62,#207,.T.);
#207 = LINE('',#208,#209);
#208 = CARTESIAN_POINT('',(13.9,-3.,19.4));
#209 = VECTOR('',#210,1.);
#210 = DIRECTION('',(-0.,2.22044604925E-16,-1.));
#211 = ORIENTED_EDGE('',*,*,#61,.T.);
#212 = ORIENTED_EDGE('',*,*,#159,.T.);
#213 = PLANE('',#214);
#214 = AXIS2_PLACEMENT_3D('',#215,#216,#217);
#215 = CARTESIAN_POINT('',(13.9,-1.86517468137E-15,-8.4));
#216 = DIRECTION('',(-1.,0.,0.));
#217 = DIRECTION('',(0.,2.22044604925E-16,1.));
#218 = ADVANCED_FACE('',(#219),#237,.T.);
#219 = FACE_BOUND('',#220,.F.);
#220 = EDGE_LOOP('',(#221,#229,#230,#231));
#221 = ORIENTED_EDGE('',*,*,#222,.F.);
#222 = EDGE_CURVE('',#62,#223,#225,.T.);
#223 = VERTEX_POINT('',#224);
#224 = CARTESIAN_POINT('',(14.9,-2.,-9.4));
#225 = LINE('',#226,#227);
#226 = CARTESIAN_POINT('',(9.6,-7.3,-4.1));
#227 = VECTOR('',#228,1.);
#228 = DIRECTION('',(0.57735026919,0.57735026919,-0.57735026919));
#229 = ORIENTED_EDGE('',*,*,#71,.T.);
#230 = ORIENTED_EDGE('',*,*,#92,.T.);
#231 = ORIENTED_EDGE('',*,*,#232,.F.);
#232 = EDGE_CURVE('',#223,#93,#233,.T.);
#233 = LINE('',#234,#235);
#234 = CARTESIAN_POINT('',(13.9,-2.,-9.4));
#235 = VECTOR('',#236,1.);
#236 = DIRECTION('',(-1.,-0.,0.));
#237 = PLANE('',#238);
#238 = AXIS2_PLACEMENT_3D('',#239,#240,#241);
#239 = CARTESIAN_POINT('',(13.9,-2.5,-8.9));
#240 = DIRECTION('',(0.,0.707106781187,0.707106781187));
#241 = DIRECTION('',(1.,0.,-0.));
#242 = ADVANCED_FACE('',(#243,#261),#295,.T.);
#243 = FACE_BOUND('',#244,.T.);
#244 = EDGE_LOOP('',(#245,#253,#259,#260));
#245 = ORIENTED_EDGE('',*,*,#246,.F.);
#246 = EDGE_CURVE('',#247,#223,#249,.T.);
#247 = VERTEX_POINT('',#248);
#248 = CARTESIAN_POINT('',(14.9,-2.,20.4));
#249 = LINE('',#250,#251);
#250 = CARTESIAN_POINT('',(14.9,-2.,19.4));
#251 = VECTOR('',#252,1.);
#252 = DIRECTION('',(-0.,2.22044604925E-16,-1.));
#253 = ORIENTED_EDGE('',*,*,#254,.F.);
#254 = EDGE_CURVE('',#102,#247,#255,.T.);
#255 = LINE('',#256,#257);
#256 = CARTESIAN_POINT('',(-13.9,-2.,20.4));
#257 = VECTOR('',#258,1.);
#258 = DIRECTION('',(1.,0.,0.));
#259 = ORIENTED_EDGE('',*,*,#109,.F.);
#260 = ORIENTED_EDGE('',*,*,#232,.F.);
#261 = FACE_BOUND('',#262,.T.);
#262 = EDGE_LOOP('',(#263,#273,#281,#289));
#263 = ORIENTED_EDGE('',*,*,#264,.T.);
#264 = EDGE_CURVE('',#265,#267,#269,.T.);
#265 = VERTEX_POINT('',#266);
#266 = CARTESIAN_POINT('',(-15.6,-2.,-10.1));
#267 = VERTEX_POINT('',#268);
#268 = CARTESIAN_POINT('',(-15.6,-2.,21.1));
#269 = LINE('',#270,#271);
#270 = CARTESIAN_POINT('',(-15.6,-2.,-10.1));
#271 = VECTOR('',#272,1.);
#272 = DIRECTION('',(0.,-2.22044604925E-16,1.));
#273 = ORIENTED_EDGE('',*,*,#274,.T.);
#274 = EDGE_CURVE('',#267,#275,#277,.T.);
#275 = VERTEX_POINT('',#276);
#276 = CARTESIAN_POINT('',(15.6,-2.,21.1));
#277 = LINE('',#278,#279);
#278 = CARTESIAN_POINT('',(-15.6,-2.,21.1));
#279 = VECTOR('',#280,1.);
#280 = DIRECTION('',(1.,0.,0.));
#281 = ORIENTED_EDGE('',*,*,#282,.T.);
#282 = EDGE_CURVE('',#275,#283,#285,.T.);
#283 = VERTEX_POINT('',#284);
#284 = CARTESIAN_POINT('',(15.6,-2.,-10.1));
#285 = LINE('',#286,#287);
#286 = CARTESIAN_POINT('',(15.6,-2.,21.1));
#287 = VECTOR('',#288,1.);
#288 = DIRECTION('',(0.,2.22044604925E-16,-1.));
#289 = ORIENTED_EDGE('',*,*,#290,.T.);
#290 = EDGE_CURVE('',#283,#265,#291,.T.);
#291 = LINE('',#292,#293);
#292 = CARTESIAN_POINT('',(15.6,-2.,-10.1));
#293 = VECTOR('',#294,1.);
#294 = DIRECTION('',(-1.,0.,-0.));
#295 = PLANE('',#296);
#296 = AXIS2_PLACEMENT_3D('',#297,#298,#299);
#297 = CARTESIAN_POINT('',(0.,-2.,5.5));
#298 = DIRECTION('',(0.,1.,2.22044604925E-16));
#299 = DIRECTION('',(1.,0.,0.));
#300 = ADVANCED_FACE('',(#301),#312,.T.);
#301 = FACE_BOUND('',#302,.F.);
#302 = EDGE_LOOP('',(#303,#304,#305,#311));
#303 = ORIENTED_EDGE('',*,*,#101,.F.);
#304 = ORIENTED_EDGE('',*,*,#182,.T.);
#305 = ORIENTED_EDGE('',*,*,#306,.T.);
#306 = EDGE_CURVE('',#183,#247,#307,.T.);
#307 = LINE('',#308,#309);
#308 = CARTESIAN_POINT('',(9.6,-7.3,15.1));
#309 = VECTOR('',#310,1.);
#310 = DIRECTION('',(0.57735026919,0.57735026919,0.57735026919));
#311 = ORIENTED_EDGE('',*,*,#254,.F.);
#312 = PLANE('',#313);
#313 = AXIS2_PLACEMENT_3D('',#314,#315,#316);
#314 = CARTESIAN_POINT('',(-13.9,-2.5,19.9));
#315 = DIRECTION('',(0.,0.707106781187,-0.707106781187));
#316 = DIRECTION('',(-1.,-0.,-0.));
#317 = ADVANCED_FACE('',(#318),#343,.T.);
#318 = FACE_BOUND('',#319,.T.);
#319 = EDGE_LOOP('',(#320,#321,#329,#337));
#320 = ORIENTED_EDGE('',*,*,#123,.F.);
#321 = ORIENTED_EDGE('',*,*,#322,.T.);
#322 = EDGE_CURVE('',#124,#323,#325,.T.);
#323 = VERTEX_POINT('',#324);
#324 = CARTESIAN_POINT('',(-15.45,-4.5,21.4));
#325 = LINE('',#326,#327);
#326 = CARTESIAN_POINT('',(-15.45,4.751754545396E-15,21.4));
#327 = VECTOR('',#328,1.);
#328 = DIRECTION('',(0.,-1.,2.22044604925E-16));
#329 = ORIENTED_EDGE('',*,*,#330,.T.);
#330 = EDGE_CURVE('',#323,#331,#333,.T.);
#331 = VERTEX_POINT('',#332);
#332 = CARTESIAN_POINT('',(-15.45,-4.5,-10.4));
#333 = LINE('',#334,#335);
#334 = CARTESIAN_POINT('',(-15.45,-4.5,21.4));
#335 = VECTOR('',#336,1.);
#336 = DIRECTION('',(0.,-2.22044604925E-16,-1.));
#337 = ORIENTED_EDGE('',*,*,#338,.F.);
#338 = EDGE_CURVE('',#126,#331,#339,.T.);
#339 = LINE('',#340,#341);
#340 = CARTESIAN_POINT('',(-15.45,-2.30926389122E-15,-10.4));
#341 = VECTOR('',#342,1.);
#342 = DIRECTION('',(0.,-1.,2.22044604925E-16));
#343 = PLANE('',#344);
#344 = AXIS2_PLACEMENT_3D('',#345,#346,#347);
#345 = CARTESIAN_POINT('',(-15.45,4.751754545396E-15,21.4));
#346 = DIRECTION('',(1.,0.,0.));
#347 = DIRECTION('',(0.,-2.22044604925E-16,-1.));
#348 = ADVANCED_FACE('',(#349),#367,.T.);
#349 = FACE_BOUND('',#350,.T.);
#350 = EDGE_LOOP('',(#351,#352,#353,#361));
#351 = ORIENTED_EDGE('',*,*,#133,.F.);
#352 = ORIENTED_EDGE('',*,*,#338,.T.);
#353 = ORIENTED_EDGE('',*,*,#354,.T.);
#354 = EDGE_CURVE('',#331,#355,#357,.T.);
#355 = VERTEX_POINT('',#356);
#356 = CARTESIAN_POINT('',(18.55,-4.5,-10.4));
#357 = LINE('',#358,#359);
#358 = CARTESIAN_POINT('',(-15.45,-4.5,-10.4));
#359 = VECTOR('',#360,1.);
#360 = DIRECTION('',(1.,0.,0.));
#361 = ORIENTED_EDGE('',*,*,#362,.F.);
#362 = EDGE_CURVE('',#134,#355,#363,.T.);
#363 = LINE('',#364,#365);
#364 = CARTESIAN_POINT('',(18.55,-2.30926389122E-15,-10.4));
#365 = VECTOR('',#366,1.);
#366 = DIRECTION('',(0.,-1.,2.22044604925E-16));
#367 = PLANE('',#368);
#368 = AXIS2_PLACEMENT_3D('',#369,#370,#371);
#369 = CARTESIAN_POINT('',(-15.45,-2.30926389122E-15,-10.4));
#370 = DIRECTION('',(0.,2.22044604925E-16,1.));
#371 = DIRECTION('',(1.,0.,0.));
#372 = ADVANCED_FACE('',(#373),#391,.T.);
#373 = FACE_BOUND('',#374,.T.);
#374 = EDGE_LOOP('',(#375,#376,#377,#385));
#375 = ORIENTED_EDGE('',*,*,#141,.F.);
#376 = ORIENTED_EDGE('',*,*,#362,.T.);
#377 = ORIENTED_EDGE('',*,*,#378,.T.);
#378 = EDGE_CURVE('',#355,#379,#381,.T.);
#379 = VERTEX_POINT('',#380);
#380 = CARTESIAN_POINT('',(18.55,-4.5,21.4));
#381 = LINE('',#382,#383);
#382 = CARTESIAN_POINT('',(18.55,-4.5,-10.4));
#383 = VECTOR('',#384,1.);
#384 = DIRECTION('',(0.,2.22044604925E-16,1.));
#385 = ORIENTED_EDGE('',*,*,#386,.F.);
#386 = EDGE_CURVE('',#142,#379,#387,.T.);
#387 = LINE('',#388,#389);
#388 = CARTESIAN_POINT('',(18.55,4.751754545396E-15,21.4));
#389 = VECTOR('',#390,1.);
#390 = DIRECTION('',(0.,-1.,2.22044604925E-16));
#391 = PLANE('',#392);
#392 = AXIS2_PLACEMENT_3D('',#393,#394,#395);
#393 = CARTESIAN_POINT('',(18.55,-2.30926389122E-15,-10.4));
#394 = DIRECTION('',(-1.,0.,0.));
#395 = DIRECTION('',(0.,2.22044604925E-16,1.));
#396 = ADVANCED_FACE('',(#397),#408,.T.);
#397 = FACE_BOUND('',#398,.T.);
#398 = EDGE_LOOP('',(#399,#400,#401,#407));
#399 = ORIENTED_EDGE('',*,*,#149,.F.);
#400 = ORIENTED_EDGE('',*,*,#386,.T.);
#401 = ORIENTED_EDGE('',*,*,#402,.T.);
#402 = EDGE_CURVE('',#379,#323,#403,.T.);
#403 = LINE('',#404,#405);
#404 = CARTESIAN_POINT('',(18.55,-4.5,21.4));
#405 = VECTOR('',#406,1.);
#406 = DIRECTION('',(-1.,0.,0.));
#407 = ORIENTED_EDGE('',*,*,#322,.F.);
#408 = PLANE('',#409);
#409 = AXIS2_PLACEMENT_3D('',#410,#411,#412);
#410 = CARTESIAN_POINT('',(18.55,4.751754545396E-15,21.4));
#411 = DIRECTION('',(0.,-2.22044604925E-16,-1.));
#412 = DIRECTION('',(-1.,0.,0.));
#413 = ADVANCED_FACE('',(#414),#420,.T.);
#414 = FACE_BOUND('',#415,.F.);
#415 = EDGE_LOOP('',(#416,#417,#418,#419));
#416 = ORIENTED_EDGE('',*,*,#306,.F.);
#417 = ORIENTED_EDGE('',*,*,#206,.T.);
#418 = ORIENTED_EDGE('',*,*,#222,.T.);
#419 = ORIENTED_EDGE('',*,*,#246,.F.);
#420 = PLANE('',#421);
#421 = AXIS2_PLACEMENT_3D('',#422,#423,#424);
#422 = CARTESIAN_POINT('',(14.4,-2.5,19.4));
#423 = DIRECTION('',(-0.707106781187,0.707106781187,1.570092458684E-16)
  );
#424 = DIRECTION('',(-0.,-2.22044604925E-16,1.));
#425 = ADVANCED_FACE('',(#426),#451,.F.);
#426 = FACE_BOUND('',#427,.F.);
#427 = EDGE_LOOP('',(#428,#436,#437,#445));
#428 = ORIENTED_EDGE('',*,*,#429,.T.);
#429 = EDGE_CURVE('',#430,#265,#432,.T.);
#430 = VERTEX_POINT('',#431);
#431 = CARTESIAN_POINT('',(-15.6,2.242650509743E-15,-10.1));
#432 = LINE('',#433,#434);
#433 = CARTESIAN_POINT('',(-15.6,2.242650509743E-15,-10.1));
#434 = VECTOR('',#435,1.);
#435 = DIRECTION('',(0.,-1.,-2.22044604925E-16));
#436 = ORIENTED_EDGE('',*,*,#264,.T.);
#437 = ORIENTED_EDGE('',*,*,#438,.F.);
#438 = EDGE_CURVE('',#439,#267,#441,.T.);
#439 = VERTEX_POINT('',#440);
#440 = CARTESIAN_POINT('',(-15.6,-4.685141163918E-15,21.1));
#441 = LINE('',#442,#443);
#442 = CARTESIAN_POINT('',(-15.6,-4.685141163918E-15,21.1));
#443 = VECTOR('',#444,1.);
#444 = DIRECTION('',(0.,-1.,-2.22044604925E-16));
#445 = ORIENTED_EDGE('',*,*,#446,.F.);
#446 = EDGE_CURVE('',#430,#439,#447,.T.);
#447 = LINE('',#448,#449);
#448 = CARTESIAN_POINT('',(-15.6,2.242650509743E-15,-10.1));
#449 = VECTOR('',#450,1.);
#450 = DIRECTION('',(0.,-2.22044604925E-16,1.));
#451 = PLANE('',#452);
#452 = AXIS2_PLACEMENT_3D('',#453,#454,#455);
#453 = CARTESIAN_POINT('',(-15.6,2.242650509743E-15,-10.1));
#454 = DIRECTION('',(-1.,0.,0.));
#455 = DIRECTION('',(0.,-2.22044604925E-16,1.));
#456 = ADVANCED_FACE('',(#457),#475,.F.);
#457 = FACE_BOUND('',#458,.F.);
#458 = EDGE_LOOP('',(#459,#467,#468,#469));
#459 = ORIENTED_EDGE('',*,*,#460,.T.);
#460 = EDGE_CURVE('',#461,#283,#463,.T.);
#461 = VERTEX_POINT('',#462);
#462 = CARTESIAN_POINT('',(15.6,2.242650509743E-15,-10.1));
#463 = LINE('',#464,#465);
#464 = CARTESIAN_POINT('',(15.6,2.242650509743E-15,-10.1));
#465 = VECTOR('',#466,1.);
#466 = DIRECTION('',(0.,-1.,-2.22044604925E-16));
#467 = ORIENTED_EDGE('',*,*,#290,.T.);
#468 = ORIENTED_EDGE('',*,*,#429,.F.);
#469 = ORIENTED_EDGE('',*,*,#470,.F.);
#470 = EDGE_CURVE('',#461,#430,#471,.T.);
#471 = LINE('',#472,#473);
#472 = CARTESIAN_POINT('',(15.6,2.242650509743E-15,-10.1));
#473 = VECTOR('',#474,1.);
#474 = DIRECTION('',(-1.,0.,-0.));
#475 = PLANE('',#476);
#476 = AXIS2_PLACEMENT_3D('',#477,#478,#479);
#477 = CARTESIAN_POINT('',(15.6,2.242650509743E-15,-10.1));
#478 = DIRECTION('',(0.,2.22044604925E-16,-1.));
#479 = DIRECTION('',(-1.,0.,0.));
#480 = ADVANCED_FACE('',(#481),#499,.F.);
#481 = FACE_BOUND('',#482,.F.);
#482 = EDGE_LOOP('',(#483,#484,#485,#493));
#483 = ORIENTED_EDGE('',*,*,#438,.T.);
#484 = ORIENTED_EDGE('',*,*,#274,.T.);
#485 = ORIENTED_EDGE('',*,*,#486,.F.);
#486 = EDGE_CURVE('',#487,#275,#489,.T.);
#487 = VERTEX_POINT('',#488);
#488 = CARTESIAN_POINT('',(15.6,-4.685141163918E-15,21.1));
#489 = LINE('',#490,#491);
#490 = CARTESIAN_POINT('',(15.6,-4.685141163918E-15,21.1));
#491 = VECTOR('',#492,1.);
#492 = DIRECTION('',(0.,-1.,-2.22044604925E-16));
#493 = ORIENTED_EDGE('',*,*,#494,.F.);
#494 = EDGE_CURVE('',#439,#487,#495,.T.);
#495 = LINE('',#496,#497);
#496 = CARTESIAN_POINT('',(-15.6,-4.685141163918E-15,21.1));
#497 = VECTOR('',#498,1.);
#498 = DIRECTION('',(1.,0.,0.));
#499 = PLANE('',#500);
#500 = AXIS2_PLACEMENT_3D('',#501,#502,#503);
#501 = CARTESIAN_POINT('',(-15.6,-4.685141163918E-15,21.1));
#502 = DIRECTION('',(0.,-2.22044604925E-16,1.));
#503 = DIRECTION('',(1.,0.,0.));
#504 = ADVANCED_FACE('',(#505),#516,.F.);
#505 = FACE_BOUND('',#506,.F.);
#506 = EDGE_LOOP('',(#507,#508,#509,#510));
#507 = ORIENTED_EDGE('',*,*,#486,.T.);
#508 = ORIENTED_EDGE('',*,*,#282,.T.);
#509 = ORIENTED_EDGE('',*,*,#460,.F.);
#510 = ORIENTED_EDGE('',*,*,#511,.F.);
#511 = EDGE_CURVE('',#487,#461,#512,.T.);
#512 = LINE('',#513,#514);
#513 = CARTESIAN_POINT('',(15.6,-4.685141163918E-15,21.1));
#514 = VECTOR('',#515,1.);
#515 = DIRECTION('',(0.,2.22044604925E-16,-1.));
#516 = PLANE('',#517);
#517 = AXIS2_PLACEMENT_3D('',#518,#519,#520);
#518 = CARTESIAN_POINT('',(15.6,-4.685141163918E-15,21.1));
#519 = DIRECTION('',(1.,0.,0.));
#520 = DIRECTION('',(0.,2.22044604925E-16,-1.));
#521 = ADVANCED_FACE('',(#522,#556,#567,#578,#589,#600,#611,#617,#628,
    #639,#650),#661,.T.);
#522 = FACE_BOUND('',#523,.T.);
#523 = EDGE_LOOP('',(#524,#534,#542,#550));
#524 = ORIENTED_EDGE('',*,*,#525,.T.);
#525 = EDGE_CURVE('',#526,#528,#530,.T.);
#526 = VERTEX_POINT('',#527);
#527 = CARTESIAN_POINT('',(-28.,-4.5,28.));
#528 = VERTEX_POINT('',#529);
#529 = CARTESIAN_POINT('',(-28.,-4.5,-28.));
#530 = LINE('',#531,#532);
#531 = CARTESIAN_POINT('',(-28.,-4.5,28.));
#532 = VECTOR('',#533,1.);
#533 = DIRECTION('',(0.,-2.22044604925E-16,-1.));
#534 = ORIENTED_EDGE('',*,*,#535,.T.);
#535 = EDGE_CURVE('',#528,#536,#538,.T.);
#536 = VERTEX_POINT('',#537);
#537 = CARTESIAN_POINT('',(28.,-4.5,-28.));
#538 = LINE('',#539,#540);
#539 = CARTESIAN_POINT('',(-28.,-4.5,-28.));
#540 = VECTOR('',#541,1.);
#541 = DIRECTION('',(1.,0.,0.));
#542 = ORIENTED_EDGE('',*,*,#543,.T.);
#543 = EDGE_CURVE('',#536,#544,#546,.T.);
#544 = VERTEX_POINT('',#545);
#545 = CARTESIAN_POINT('',(28.,-4.5,28.));
#546 = LINE('',#547,#548);
#547 = CARTESIAN_POINT('',(28.,-4.5,-28.));
#548 = VECTOR('',#549,1.);
#549 = DIRECTION('',(0.,2.22044604925E-16,1.));
#550 = ORIENTED_EDGE('',*,*,#551,.T.);
#551 = EDGE_CURVE('',#544,#526,#552,.T.);
#552 = LINE('',#553,#554);
#553 = CARTESIAN_POINT('',(28.,-4.5,28.));
#554 = VECTOR('',#555,1.);
#555 = DIRECTION('',(-1.,0.,0.));
#556 = FACE_BOUND('',#557,.T.);
#557 = EDGE_LOOP('',(#558));
#558 = ORIENTED_EDGE('',*,*,#559,.F.);
#559 = EDGE_CURVE('',#560,#560,#562,.T.);
#560 = VERTEX_POINT('',#561);
#561 = CARTESIAN_POINT('',(26.75,-4.5,-25.5));
#562 = CIRCLE('',#563,1.25);
#563 = AXIS2_PLACEMENT_3D('',#564,#565,#566);
#564 = CARTESIAN_POINT('',(25.5,-4.5,-25.5));
#565 = DIRECTION('',(0.,-1.,2.22044604925E-16));
#566 = DIRECTION('',(1.,0.,0.));
#567 = FACE_BOUND('',#568,.T.);
#568 = EDGE_LOOP('',(#569));
#569 = ORIENTED_EDGE('',*,*,#570,.T.);
#570 = EDGE_CURVE('',#571,#571,#573,.T.);
#571 = VERTEX_POINT('',#572);
#572 = CARTESIAN_POINT('',(21.,-4.5,-15.5));
#573 = CIRCLE('',#574,3.5);
#574 = AXIS2_PLACEMENT_3D('',#575,#576,#577);
#575 = CARTESIAN_POINT('',(17.5,-4.5,-15.5));
#576 = DIRECTION('',(0.,1.,-2.22044604925E-16));
#577 = DIRECTION('',(1.,0.,0.));
#578 = FACE_BOUND('',#579,.T.);
#579 = EDGE_LOOP('',(#580));
#580 = ORIENTED_EDGE('',*,*,#581,.F.);
#581 = EDGE_CURVE('',#582,#582,#584,.T.);
#582 = VERTEX_POINT('',#583);
#583 = CARTESIAN_POINT('',(3.55,-4.5,-15.5));
#584 = CIRCLE('',#585,3.55);
#585 = AXIS2_PLACEMENT_3D('',#586,#587,#588);
#586 = CARTESIAN_POINT('',(0.,-4.5,-15.5));
#587 = DIRECTION('',(0.,-1.,2.22044604925E-16));
#588 = DIRECTION('',(1.,0.,0.));
#589 = FACE_BOUND('',#590,.T.);
#590 = EDGE_LOOP('',(#591));
#591 = ORIENTED_EDGE('',*,*,#592,.F.);
#592 = EDGE_CURVE('',#593,#593,#595,.T.);
#593 = VERTEX_POINT('',#594);
#594 = CARTESIAN_POINT('',(21.5,-4.5,18.5));
#595 = CIRCLE('',#596,1.25);
#596 = AXIS2_PLACEMENT_3D('',#597,#598,#599);
#597 = CARTESIAN_POINT('',(20.25,-4.5,18.5));
#598 = DIRECTION('',(0.,-1.,2.22044604925E-16));
#599 = DIRECTION('',(1.,0.,0.));
#600 = FACE_BOUND('',#601,.T.);
#601 = EDGE_LOOP('',(#602));
#602 = ORIENTED_EDGE('',*,*,#603,.F.);
#603 = EDGE_CURVE('',#604,#604,#606,.T.);
#604 = VERTEX_POINT('',#605);
#605 = CARTESIAN_POINT('',(26.75,-4.5,25.5));
#606 = CIRCLE('',#607,1.25);
#607 = AXIS2_PLACEMENT_3D('',#608,#609,#610);
#608 = CARTESIAN_POINT('',(25.5,-4.5,25.5));
#609 = DIRECTION('',(0.,-1.,2.22044604925E-16));
#610 = DIRECTION('',(1.,0.,0.));
#611 = FACE_BOUND('',#612,.T.);
#612 = EDGE_LOOP('',(#613,#614,#615,#616));
#613 = ORIENTED_EDGE('',*,*,#330,.F.);
#614 = ORIENTED_EDGE('',*,*,#402,.F.);
#615 = ORIENTED_EDGE('',*,*,#378,.F.);
#616 = ORIENTED_EDGE('',*,*,#354,.F.);
#617 = FACE_BOUND('',#618,.T.);
#618 = EDGE_LOOP('',(#619));
#619 = ORIENTED_EDGE('',*,*,#620,.T.);
#620 = EDGE_CURVE('',#621,#621,#623,.T.);
#621 = VERTEX_POINT('',#622);
#622 = CARTESIAN_POINT('',(-14.,-4.5,-15.5));
#623 = CIRCLE('',#624,3.5);
#624 = AXIS2_PLACEMENT_3D('',#625,#626,#627);
#625 = CARTESIAN_POINT('',(-17.5,-4.5,-15.5));
#626 = DIRECTION('',(0.,1.,-2.22044604925E-16));
#627 = DIRECTION('',(1.,0.,0.));
#628 = FACE_BOUND('',#629,.T.);
#629 = EDGE_LOOP('',(#630));
#630 = ORIENTED_EDGE('',*,*,#631,.F.);
#631 = EDGE_CURVE('',#632,#632,#634,.T.);
#632 = VERTEX_POINT('',#633);
#633 = CARTESIAN_POINT('',(-24.25,-4.5,-25.5));
#634 = CIRCLE('',#635,1.25);
#635 = AXIS2_PLACEMENT_3D('',#636,#637,#638);
#636 = CARTESIAN_POINT('',(-25.5,-4.5,-25.5));
#637 = DIRECTION('',(0.,-1.,2.22044604925E-16));
#638 = DIRECTION('',(1.,0.,0.));
#639 = FACE_BOUND('',#640,.T.);
#640 = EDGE_LOOP('',(#641));
#641 = ORIENTED_EDGE('',*,*,#642,.F.);
#642 = EDGE_CURVE('',#643,#643,#645,.T.);
#643 = VERTEX_POINT('',#644);
#644 = CARTESIAN_POINT('',(-18.5,-4.5,18.5));
#645 = CIRCLE('',#646,1.5);
#646 = AXIS2_PLACEMENT_3D('',#647,#648,#649);
#647 = CARTESIAN_POINT('',(-20.,-4.5,18.5));
#648 = DIRECTION('',(0.,-1.,2.22044604925E-16));
#649 = DIRECTION('',(1.,0.,0.));
#650 = FACE_BOUND('',#651,.T.);
#651 = EDGE_LOOP('',(#652));
#652 = ORIENTED_EDGE('',*,*,#653,.F.);
#653 = EDGE_CURVE('',#654,#654,#656,.T.);
#654 = VERTEX_POINT('',#655);
#655 = CARTESIAN_POINT('',(-24.25,-4.5,25.5));
#656 = CIRCLE('',#657,1.25);
#657 = AXIS2_PLACEMENT_3D('',#658,#659,#660);
#658 = CARTESIAN_POINT('',(-25.5,-4.5,25.5));
#659 = DIRECTION('',(0.,-1.,2.22044604925E-16));
#660 = DIRECTION('',(1.,0.,0.));
#661 = PLANE('',#662);
#662 = AXIS2_PLACEMENT_3D('',#663,#664,#665);
#663 = CARTESIAN_POINT('',(-3.248195363475E-14,-4.5,-9.992007221626E-16)
  );
#664 = DIRECTION('',(0.,-1.,2.22044604925E-16));
#665 = DIRECTION('',(0.,2.22044604925E-16,1.));
#666 = ADVANCED_FACE('',(#667,#701,#707),#718,.T.);
#667 = FACE_BOUND('',#668,.T.);
#668 = EDGE_LOOP('',(#669,#679,#687,#695));
#669 = ORIENTED_EDGE('',*,*,#670,.F.);
#670 = EDGE_CURVE('',#671,#673,#675,.T.);
#671 = VERTEX_POINT('',#672);
#672 = CARTESIAN_POINT('',(-30.,6.661338147751E-15,30.));
#673 = VERTEX_POINT('',#674);
#674 = CARTESIAN_POINT('',(-30.,-6.661338147751E-15,-30.));
#675 = LINE('',#676,#677);
#676 = CARTESIAN_POINT('',(-30.,6.661338147751E-15,30.));
#677 = VECTOR('',#678,1.);
#678 = DIRECTION('',(0.,-2.22044604925E-16,-1.));
#679 = ORIENTED_EDGE('',*,*,#680,.F.);
#680 = EDGE_CURVE('',#681,#671,#683,.T.);
#681 = VERTEX_POINT('',#682);
#682 = CARTESIAN_POINT('',(30.,6.661338147751E-15,30.));
#683 = LINE('',#684,#685);
#684 = CARTESIAN_POINT('',(30.,6.661338147751E-15,30.));
#685 = VECTOR('',#686,1.);
#686 = DIRECTION('',(-1.,0.,0.));
#687 = ORIENTED_EDGE('',*,*,#688,.F.);
#688 = EDGE_CURVE('',#689,#681,#691,.T.);
#689 = VERTEX_POINT('',#690);
#690 = CARTESIAN_POINT('',(30.,-6.661338147751E-15,-30.));
#691 = LINE('',#692,#693);
#692 = CARTESIAN_POINT('',(30.,-6.661338147751E-15,-30.));
#693 = VECTOR('',#694,1.);
#694 = DIRECTION('',(0.,2.22044604925E-16,1.));
#695 = ORIENTED_EDGE('',*,*,#696,.F.);
#696 = EDGE_CURVE('',#673,#689,#697,.T.);
#697 = LINE('',#698,#699);
#698 = CARTESIAN_POINT('',(-30.,-6.661338147751E-15,-30.));
#699 = VECTOR('',#700,1.);
#700 = DIRECTION('',(1.,0.,0.));
#701 = FACE_BOUND('',#702,.T.);
#702 = EDGE_LOOP('',(#703,#704,#705,#706));
#703 = ORIENTED_EDGE('',*,*,#446,.F.);
#704 = ORIENTED_EDGE('',*,*,#470,.F.);
#705 = ORIENTED_EDGE('',*,*,#511,.F.);
#706 = ORIENTED_EDGE('',*,*,#494,.F.);
#707 = FACE_BOUND('',#708,.T.);
#708 = EDGE_LOOP('',(#709));
#709 = ORIENTED_EDGE('',*,*,#710,.T.);
#710 = EDGE_CURVE('',#711,#711,#713,.T.);
#711 = VERTEX_POINT('',#712);
#712 = CARTESIAN_POINT('',(3.05,-3.441691376338E-15,-15.5));
#713 = CIRCLE('',#714,3.05);
#714 = AXIS2_PLACEMENT_3D('',#715,#716,#717);
#715 = CARTESIAN_POINT('',(0.,-3.441691376338E-15,-15.5));
#716 = DIRECTION('',(0.,-1.,2.22044604925E-16));
#717 = DIRECTION('',(1.,0.,0.));
#718 = PLANE('',#719);
#719 = AXIS2_PLACEMENT_3D('',#720,#721,#722);
#720 = CARTESIAN_POINT('',(0.,0.,0.));
#721 = DIRECTION('',(0.,1.,-2.22044604925E-16));
#722 = DIRECTION('',(0.,-2.22044604925E-16,-1.));
#723 = ADVANCED_FACE('',(#724),#749,.T.);
#724 = FACE_BOUND('',#725,.T.);
#725 = EDGE_LOOP('',(#726,#727,#735,#743));
#726 = ORIENTED_EDGE('',*,*,#525,.F.);
#727 = ORIENTED_EDGE('',*,*,#728,.T.);
#728 = EDGE_CURVE('',#526,#729,#731,.T.);
#729 = VERTEX_POINT('',#730);
#730 = CARTESIAN_POINT('',(-28.,-6.,28.));
#731 = LINE('',#732,#733);
#732 = CARTESIAN_POINT('',(-28.,6.217248937901E-15,28.));
#733 = VECTOR('',#734,1.);
#734 = DIRECTION('',(0.,-1.,2.22044604925E-16));
#735 = ORIENTED_EDGE('',*,*,#736,.T.);
#736 = EDGE_CURVE('',#729,#737,#739,.T.);
#737 = VERTEX_POINT('',#738);
#738 = CARTESIAN_POINT('',(-28.,-6.,-28.));
#739 = LINE('',#740,#741);
#740 = CARTESIAN_POINT('',(-28.,-6.,28.));
#741 = VECTOR('',#742,1.);
#742 = DIRECTION('',(0.,-2.22044604925E-16,-1.));
#743 = ORIENTED_EDGE('',*,*,#744,.F.);
#744 = EDGE_CURVE('',#528,#737,#745,.T.);
#745 = LINE('',#746,#747);
#746 = CARTESIAN_POINT('',(-28.,-6.217248937901E-15,-28.));
#747 = VECTOR('',#748,1.);
#748 = DIRECTION('',(0.,-1.,2.22044604925E-16));
#749 = PLANE('',#750);
#750 = AXIS2_PLACEMENT_3D('',#751,#752,#753);
#751 = CARTESIAN_POINT('',(-28.,6.217248937901E-15,28.));
#752 = DIRECTION('',(1.,0.,0.));
#753 = DIRECTION('',(0.,-2.22044604925E-16,-1.));
#754 = ADVANCED_FACE('',(#755),#773,.T.);
#755 = FACE_BOUND('',#756,.T.);
#756 = EDGE_LOOP('',(#757,#758,#766,#772));
#757 = ORIENTED_EDGE('',*,*,#551,.F.);
#758 = ORIENTED_EDGE('',*,*,#759,.T.);
#759 = EDGE_CURVE('',#544,#760,#762,.T.);
#760 = VERTEX_POINT('',#761);
#761 = CARTESIAN_POINT('',(28.,-6.,28.));
#762 = LINE('',#763,#764);
#763 = CARTESIAN_POINT('',(28.,6.217248937901E-15,28.));
#764 = VECTOR('',#765,1.);
#765 = DIRECTION('',(0.,-1.,2.22044604925E-16));
#766 = ORIENTED_EDGE('',*,*,#767,.T.);
#767 = EDGE_CURVE('',#760,#729,#768,.T.);
#768 = LINE('',#769,#770);
#769 = CARTESIAN_POINT('',(28.,-6.,28.));
#770 = VECTOR('',#771,1.);
#771 = DIRECTION('',(-1.,0.,0.));
#772 = ORIENTED_EDGE('',*,*,#728,.F.);
#773 = PLANE('',#774);
#774 = AXIS2_PLACEMENT_3D('',#775,#776,#777);
#775 = CARTESIAN_POINT('',(28.,6.217248937901E-15,28.));
#776 = DIRECTION('',(0.,-2.22044604925E-16,-1.));
#777 = DIRECTION('',(-1.,0.,0.));
#778 = ADVANCED_FACE('',(#779),#797,.T.);
#779 = FACE_BOUND('',#780,.T.);
#780 = EDGE_LOOP('',(#781,#782,#783,#791));
#781 = ORIENTED_EDGE('',*,*,#535,.F.);
#782 = ORIENTED_EDGE('',*,*,#744,.T.);
#783 = ORIENTED_EDGE('',*,*,#784,.T.);
#784 = EDGE_CURVE('',#737,#785,#787,.T.);
#785 = VERTEX_POINT('',#786);
#786 = CARTESIAN_POINT('',(28.,-6.,-28.));
#787 = LINE('',#788,#789);
#788 = CARTESIAN_POINT('',(-28.,-6.,-28.));
#789 = VECTOR('',#790,1.);
#790 = DIRECTION('',(1.,0.,0.));
#791 = ORIENTED_EDGE('',*,*,#792,.F.);
#792 = EDGE_CURVE('',#536,#785,#793,.T.);
#793 = LINE('',#794,#795);
#794 = CARTESIAN_POINT('',(28.,-6.217248937901E-15,-28.));
#795 = VECTOR('',#796,1.);
#796 = DIRECTION('',(0.,-1.,2.22044604925E-16));
#797 = PLANE('',#798);
#798 = AXIS2_PLACEMENT_3D('',#799,#800,#801);
#799 = CARTESIAN_POINT('',(-28.,-6.217248937901E-15,-28.));
#800 = DIRECTION('',(0.,2.22044604925E-16,1.));
#801 = DIRECTION('',(1.,0.,0.));
#802 = ADVANCED_FACE('',(#803),#814,.T.);
#803 = FACE_BOUND('',#804,.T.);
#804 = EDGE_LOOP('',(#805,#806,#807,#813));
#805 = ORIENTED_EDGE('',*,*,#543,.F.);
#806 = ORIENTED_EDGE('',*,*,#792,.T.);
#807 = ORIENTED_EDGE('',*,*,#808,.T.);
#808 = EDGE_CURVE('',#785,#760,#809,.T.);
#809 = LINE('',#810,#811);
#810 = CARTESIAN_POINT('',(28.,-6.,-28.));
#811 = VECTOR('',#812,1.);
#812 = DIRECTION('',(0.,2.22044604925E-16,1.));
#813 = ORIENTED_EDGE('',*,*,#759,.F.);
#814 = PLANE('',#815);
#815 = AXIS2_PLACEMENT_3D('',#816,#817,#818);
#816 = CARTESIAN_POINT('',(28.,-6.217248937901E-15,-28.));
#817 = DIRECTION('',(-1.,0.,0.));
#818 = DIRECTION('',(0.,2.22044604925E-16,1.));
#819 = ADVANCED_FACE('',(#820),#839,.F.);
#820 = FACE_BOUND('',#821,.T.);
#821 = EDGE_LOOP('',(#822,#831,#837,#838));
#822 = ORIENTED_EDGE('',*,*,#823,.F.);
#823 = EDGE_CURVE('',#824,#824,#826,.T.);
#824 = VERTEX_POINT('',#825);
#825 = CARTESIAN_POINT('',(26.75,-1.,-25.5));
#826 = CIRCLE('',#827,1.25);
#827 = AXIS2_PLACEMENT_3D('',#828,#829,#830);
#828 = CARTESIAN_POINT('',(25.5,-1.,-25.5));
#829 = DIRECTION('',(0.,-1.,2.22044604925E-16));
#830 = DIRECTION('',(1.,0.,0.));
#831 = ORIENTED_EDGE('',*,*,#832,.T.);
#832 = EDGE_CURVE('',#824,#560,#833,.T.);
#833 = LINE('',#834,#835);
#834 = CARTESIAN_POINT('',(26.75,-5.662137425588E-15,-25.5));
#835 = VECTOR('',#836,1.);
#836 = DIRECTION('',(0.,-1.,2.22044604925E-16));
#837 = ORIENTED_EDGE('',*,*,#559,.T.);
#838 = ORIENTED_EDGE('',*,*,#832,.F.);
#839 = CYLINDRICAL_SURFACE('',#840,1.25);
#840 = AXIS2_PLACEMENT_3D('',#841,#842,#843);
#841 = CARTESIAN_POINT('',(25.5,-5.662137425588E-15,-25.5));
#842 = DIRECTION('',(0.,1.,-2.22044604925E-16));
#843 = DIRECTION('',(1.,0.,0.));
#844 = ADVANCED_FACE('',(#845),#864,.T.);
#845 = FACE_BOUND('',#846,.F.);
#846 = EDGE_LOOP('',(#847,#848,#856,#863));
#847 = ORIENTED_EDGE('',*,*,#570,.T.);
#848 = ORIENTED_EDGE('',*,*,#849,.T.);
#849 = EDGE_CURVE('',#571,#850,#852,.T.);
#850 = VERTEX_POINT('',#851);
#851 = CARTESIAN_POINT('',(21.,-12.9,-15.5));
#852 = LINE('',#853,#854);
#853 = CARTESIAN_POINT('',(21.,-3.441691376338E-15,-15.5));
#854 = VECTOR('',#855,1.);
#855 = DIRECTION('',(0.,-1.,2.22044604925E-16));
#856 = ORIENTED_EDGE('',*,*,#857,.T.);
#857 = EDGE_CURVE('',#850,#850,#858,.T.);
#858 = CIRCLE('',#859,3.5);
#859 = AXIS2_PLACEMENT_3D('',#860,#861,#862);
#860 = CARTESIAN_POINT('',(17.5,-12.9,-15.5));
#861 = DIRECTION('',(0.,-1.,2.22044604925E-16));
#862 = DIRECTION('',(1.,0.,0.));
#863 = ORIENTED_EDGE('',*,*,#849,.F.);
#864 = CYLINDRICAL_SURFACE('',#865,3.5);
#865 = AXIS2_PLACEMENT_3D('',#866,#867,#868);
#866 = CARTESIAN_POINT('',(17.5,-3.441691376338E-15,-15.5));
#867 = DIRECTION('',(0.,1.,-2.22044604925E-16));
#868 = DIRECTION('',(1.,0.,0.));
#869 = ADVANCED_FACE('',(#870),#889,.F.);
#870 = FACE_BOUND('',#871,.T.);
#871 = EDGE_LOOP('',(#872,#881,#887,#888));
#872 = ORIENTED_EDGE('',*,*,#873,.F.);
#873 = EDGE_CURVE('',#874,#874,#876,.T.);
#874 = VERTEX_POINT('',#875);
#875 = CARTESIAN_POINT('',(3.55,-1.,-15.5));
#876 = CIRCLE('',#877,3.55);
#877 = AXIS2_PLACEMENT_3D('',#878,#879,#880);
#878 = CARTESIAN_POINT('',(0.,-1.,-15.5));
#879 = DIRECTION('',(0.,-1.,2.22044604925E-16));
#880 = DIRECTION('',(1.,0.,0.));
#881 = ORIENTED_EDGE('',*,*,#882,.T.);
#882 = EDGE_CURVE('',#874,#582,#883,.T.);
#883 = LINE('',#884,#885);
#884 = CARTESIAN_POINT('',(3.55,-3.441691376338E-15,-15.5));
#885 = VECTOR('',#886,1.);
#886 = DIRECTION('',(0.,-1.,2.22044604925E-16));
#887 = ORIENTED_EDGE('',*,*,#581,.T.);
#888 = ORIENTED_EDGE('',*,*,#882,.F.);
#889 = CYLINDRICAL_SURFACE('',#890,3.55);
#890 = AXIS2_PLACEMENT_3D('',#891,#892,#893);
#891 = CARTESIAN_POINT('',(0.,-3.441691376338E-15,-15.5));
#892 = DIRECTION('',(0.,1.,-2.22044604925E-16));
#893 = DIRECTION('',(1.,0.,0.));
#894 = ADVANCED_FACE('',(#895),#914,.T.);
#895 = FACE_BOUND('',#896,.F.);
#896 = EDGE_LOOP('',(#897,#898,#906,#913));
#897 = ORIENTED_EDGE('',*,*,#592,.F.);
#898 = ORIENTED_EDGE('',*,*,#899,.T.);
#899 = EDGE_CURVE('',#593,#900,#902,.T.);
#900 = VERTEX_POINT('',#901);
#901 = CARTESIAN_POINT('',(21.5,-12.9,18.5));
#902 = LINE('',#903,#904);
#903 = CARTESIAN_POINT('',(21.5,4.107825191113E-15,18.5));
#904 = VECTOR('',#905,1.);
#905 = DIRECTION('',(0.,-1.,2.22044604925E-16));
#906 = ORIENTED_EDGE('',*,*,#907,.T.);
#907 = EDGE_CURVE('',#900,#900,#908,.T.);
#908 = CIRCLE('',#909,1.25);
#909 = AXIS2_PLACEMENT_3D('',#910,#911,#912);
#910 = CARTESIAN_POINT('',(20.25,-12.9,18.5));
#911 = DIRECTION('',(0.,-1.,2.22044604925E-16));
#912 = DIRECTION('',(1.,0.,0.));
#913 = ORIENTED_EDGE('',*,*,#899,.F.);
#914 = CYLINDRICAL_SURFACE('',#915,1.25);
#915 = AXIS2_PLACEMENT_3D('',#916,#917,#918);
#916 = CARTESIAN_POINT('',(20.25,4.107825191113E-15,18.5));
#917 = DIRECTION('',(0.,1.,-2.22044604925E-16));
#918 = DIRECTION('',(1.,0.,0.));
#919 = ADVANCED_FACE('',(#920),#939,.F.);
#920 = FACE_BOUND('',#921,.T.);
#921 = EDGE_LOOP('',(#922,#931,#937,#938));
#922 = ORIENTED_EDGE('',*,*,#923,.F.);
#923 = EDGE_CURVE('',#924,#924,#926,.T.);
#924 = VERTEX_POINT('',#925);
#925 = CARTESIAN_POINT('',(26.75,-1.,25.5));
#926 = CIRCLE('',#927,1.25);
#927 = AXIS2_PLACEMENT_3D('',#928,#929,#930);
#928 = CARTESIAN_POINT('',(25.5,-1.,25.5));
#929 = DIRECTION('',(0.,-1.,2.22044604925E-16));
#930 = DIRECTION('',(1.,0.,0.));
#931 = ORIENTED_EDGE('',*,*,#932,.T.);
#932 = EDGE_CURVE('',#924,#604,#933,.T.);
#933 = LINE('',#934,#935);
#934 = CARTESIAN_POINT('',(26.75,5.662137425588E-15,25.5));
#935 = VECTOR('',#936,1.);
#936 = DIRECTION('',(0.,-1.,2.22044604925E-16));
#937 = ORIENTED_EDGE('',*,*,#603,.T.);
#938 = ORIENTED_EDGE('',*,*,#932,.F.);
#939 = CYLINDRICAL_SURFACE('',#940,1.25);
#940 = AXIS2_PLACEMENT_3D('',#941,#942,#943);
#941 = CARTESIAN_POINT('',(25.5,5.662137425588E-15,25.5));
#942 = DIRECTION('',(0.,1.,-2.22044604925E-16));
#943 = DIRECTION('',(1.,0.,0.));
#944 = ADVANCED_FACE('',(#945),#964,.T.);
#945 = FACE_BOUND('',#946,.F.);
#946 = EDGE_LOOP('',(#947,#948,#956,#963));
#947 = ORIENTED_EDGE('',*,*,#620,.T.);
#948 = ORIENTED_EDGE('',*,*,#949,.T.);
#949 = EDGE_CURVE('',#621,#950,#952,.T.);
#950 = VERTEX_POINT('',#951);
#951 = CARTESIAN_POINT('',(-14.,-12.9,-15.5));
#952 = LINE('',#953,#954);
#953 = CARTESIAN_POINT('',(-14.,-3.441691376338E-15,-15.5));
#954 = VECTOR('',#955,1.);
#955 = DIRECTION('',(0.,-1.,2.22044604925E-16));
#956 = ORIENTED_EDGE('',*,*,#957,.T.);
#957 = EDGE_CURVE('',#950,#950,#958,.T.);
#958 = CIRCLE('',#959,3.5);
#959 = AXIS2_PLACEMENT_3D('',#960,#961,#962);
#960 = CARTESIAN_POINT('',(-17.5,-12.9,-15.5));
#961 = DIRECTION('',(0.,-1.,2.22044604925E-16));
#962 = DIRECTION('',(1.,0.,0.));
#963 = ORIENTED_EDGE('',*,*,#949,.F.);
#964 = CYLINDRICAL_SURFACE('',#965,3.5);
#965 = AXIS2_PLACEMENT_3D('',#966,#967,#968);
#966 = CARTESIAN_POINT('',(-17.5,-3.441691376338E-15,-15.5));
#967 = DIRECTION('',(0.,1.,-2.22044604925E-16));
#968 = DIRECTION('',(1.,0.,0.));
#969 = ADVANCED_FACE('',(#970),#989,.F.);
#970 = FACE_BOUND('',#971,.T.);
#971 = EDGE_LOOP('',(#972,#981,#987,#988));
#972 = ORIENTED_EDGE('',*,*,#973,.F.);
#973 = EDGE_CURVE('',#974,#974,#976,.T.);
#974 = VERTEX_POINT('',#975);
#975 = CARTESIAN_POINT('',(-24.25,-1.,-25.5));
#976 = CIRCLE('',#977,1.25);
#977 = AXIS2_PLACEMENT_3D('',#978,#979,#980);
#978 = CARTESIAN_POINT('',(-25.5,-1.,-25.5));
#979 = DIRECTION('',(0.,-1.,2.22044604925E-16));
#980 = DIRECTION('',(1.,0.,0.));
#981 = ORIENTED_EDGE('',*,*,#982,.T.);
#982 = EDGE_CURVE('',#974,#632,#983,.T.);
#983 = LINE('',#984,#985);
#984 = CARTESIAN_POINT('',(-24.25,-5.662137425588E-15,-25.5));
#985 = VECTOR('',#986,1.);
#986 = DIRECTION('',(0.,-1.,2.22044604925E-16));
#987 = ORIENTED_EDGE('',*,*,#631,.T.);
#988 = ORIENTED_EDGE('',*,*,#982,.F.);
#989 = CYLINDRICAL_SURFACE('',#990,1.25);
#990 = AXIS2_PLACEMENT_3D('',#991,#992,#993);
#991 = CARTESIAN_POINT('',(-25.5,-5.662137425588E-15,-25.5));
#992 = DIRECTION('',(0.,1.,-2.22044604925E-16));
#993 = DIRECTION('',(1.,0.,0.));
#994 = ADVANCED_FACE('',(#995),#1014,.T.);
#995 = FACE_BOUND('',#996,.F.);
#996 = EDGE_LOOP('',(#997,#998,#1006,#1013));
#997 = ORIENTED_EDGE('',*,*,#642,.F.);
#998 = ORIENTED_EDGE('',*,*,#999,.T.);
#999 = EDGE_CURVE('',#643,#1000,#1002,.T.);
#1000 = VERTEX_POINT('',#1001);
#1001 = CARTESIAN_POINT('',(-18.5,-12.9,18.5));
#1002 = LINE('',#1003,#1004);
#1003 = CARTESIAN_POINT('',(-18.5,4.107825191113E-15,18.5));
#1004 = VECTOR('',#1005,1.);
#1005 = DIRECTION('',(0.,-1.,2.22044604925E-16));
#1006 = ORIENTED_EDGE('',*,*,#1007,.T.);
#1007 = EDGE_CURVE('',#1000,#1000,#1008,.T.);
#1008 = CIRCLE('',#1009,1.5);
#1009 = AXIS2_PLACEMENT_3D('',#1010,#1011,#1012);
#1010 = CARTESIAN_POINT('',(-20.,-12.9,18.5));
#1011 = DIRECTION('',(0.,-1.,2.22044604925E-16));
#1012 = DIRECTION('',(1.,0.,0.));
#1013 = ORIENTED_EDGE('',*,*,#999,.F.);
#1014 = CYLINDRICAL_SURFACE('',#1015,1.5);
#1015 = AXIS2_PLACEMENT_3D('',#1016,#1017,#1018);
#1016 = CARTESIAN_POINT('',(-20.,4.107825191113E-15,18.5));
#1017 = DIRECTION('',(0.,1.,-2.22044604925E-16));
#1018 = DIRECTION('',(1.,0.,0.));
#1019 = ADVANCED_FACE('',(#1020),#1039,.F.);
#1020 = FACE_BOUND('',#1021,.T.);
#1021 = EDGE_LOOP('',(#1022,#1031,#1037,#1038));
#1022 = ORIENTED_EDGE('',*,*,#1023,.F.);
#1023 = EDGE_CURVE('',#1024,#1024,#1026,.T.);
#1024 = VERTEX_POINT('',#1025);
#1025 = CARTESIAN_POINT('',(-24.25,-1.,25.5));
#1026 = CIRCLE('',#1027,1.25);
#1027 = AXIS2_PLACEMENT_3D('',#1028,#1029,#1030);
#1028 = CARTESIAN_POINT('',(-25.5,-1.,25.5));
#1029 = DIRECTION('',(0.,-1.,2.22044604925E-16));
#1030 = DIRECTION('',(1.,0.,0.));
#1031 = ORIENTED_EDGE('',*,*,#1032,.T.);
#1032 = EDGE_CURVE('',#1024,#654,#1033,.T.);
#1033 = LINE('',#1034,#1035);
#1034 = CARTESIAN_POINT('',(-24.25,5.662137425588E-15,25.5));
#1035 = VECTOR('',#1036,1.);
#1036 = DIRECTION('',(0.,-1.,2.22044604925E-16));
#1037 = ORIENTED_EDGE('',*,*,#653,.T.);
#1038 = ORIENTED_EDGE('',*,*,#1032,.F.);
#1039 = CYLINDRICAL_SURFACE('',#1040,1.25);
#1040 = AXIS2_PLACEMENT_3D('',#1041,#1042,#1043);
#1041 = CARTESIAN_POINT('',(-25.5,5.662137425588E-15,25.5));
#1042 = DIRECTION('',(0.,1.,-2.22044604925E-16));
#1043 = DIRECTION('',(1.,0.,0.));
#1044 = ADVANCED_FACE('',(#1045),#1070,.F.);
#1045 = FACE_BOUND('',#1046,.F.);
#1046 = EDGE_LOOP('',(#1047,#1055,#1063,#1069));
#1047 = ORIENTED_EDGE('',*,*,#1048,.T.);
#1048 = EDGE_CURVE('',#671,#1049,#1051,.T.);
#1049 = VERTEX_POINT('',#1050);
#1050 = CARTESIAN_POINT('',(-30.,-6.,30.));
#1051 = LINE('',#1052,#1053);
#1052 = CARTESIAN_POINT('',(-30.,6.661338147751E-15,30.));
#1053 = VECTOR('',#1054,1.);
#1054 = DIRECTION('',(0.,-1.,2.22044604925E-16));
#1055 = ORIENTED_EDGE('',*,*,#1056,.T.);
#1056 = EDGE_CURVE('',#1049,#1057,#1059,.T.);
#1057 = VERTEX_POINT('',#1058);
#1058 = CARTESIAN_POINT('',(-30.,-6.,-30.));
#1059 = LINE('',#1060,#1061);
#1060 = CARTESIAN_POINT('',(-30.,-6.,30.));
#1061 = VECTOR('',#1062,1.);
#1062 = DIRECTION('',(0.,-2.22044604925E-16,-1.));
#1063 = ORIENTED_EDGE('',*,*,#1064,.F.);
#1064 = EDGE_CURVE('',#673,#1057,#1065,.T.);
#1065 = LINE('',#1066,#1067);
#1066 = CARTESIAN_POINT('',(-30.,-6.661338147751E-15,-30.));
#1067 = VECTOR('',#1068,1.);
#1068 = DIRECTION('',(0.,-1.,2.22044604925E-16));
#1069 = ORIENTED_EDGE('',*,*,#670,.F.);
#1070 = PLANE('',#1071);
#1071 = AXIS2_PLACEMENT_3D('',#1072,#1073,#1074);
#1072 = CARTESIAN_POINT('',(-30.,6.661338147751E-15,30.));
#1073 = DIRECTION('',(1.,0.,0.));
#1074 = DIRECTION('',(0.,-2.22044604925E-16,-1.));
#1075 = ADVANCED_FACE('',(#1076),#1094,.F.);
#1076 = FACE_BOUND('',#1077,.F.);
#1077 = EDGE_LOOP('',(#1078,#1086,#1092,#1093));
#1078 = ORIENTED_EDGE('',*,*,#1079,.T.);
#1079 = EDGE_CURVE('',#681,#1080,#1082,.T.);
#1080 = VERTEX_POINT('',#1081);
#1081 = CARTESIAN_POINT('',(30.,-6.,30.));
#1082 = LINE('',#1083,#1084);
#1083 = CARTESIAN_POINT('',(30.,6.661338147751E-15,30.));
#1084 = VECTOR('',#1085,1.);
#1085 = DIRECTION('',(0.,-1.,2.22044604925E-16));
#1086 = ORIENTED_EDGE('',*,*,#1087,.T.);
#1087 = EDGE_CURVE('',#1080,#1049,#1088,.T.);
#1088 = LINE('',#1089,#1090);
#1089 = CARTESIAN_POINT('',(30.,-6.,30.));
#1090 = VECTOR('',#1091,1.);
#1091 = DIRECTION('',(-1.,0.,0.));
#1092 = ORIENTED_EDGE('',*,*,#1048,.F.);
#1093 = ORIENTED_EDGE('',*,*,#680,.F.);
#1094 = PLANE('',#1095);
#1095 = AXIS2_PLACEMENT_3D('',#1096,#1097,#1098);
#1096 = CARTESIAN_POINT('',(30.,6.661338147751E-15,30.));
#1097 = DIRECTION('',(0.,-2.22044604925E-16,-1.));
#1098 = DIRECTION('',(-1.,0.,0.));
#1099 = ADVANCED_FACE('',(#1100),#1118,.F.);
#1100 = FACE_BOUND('',#1101,.F.);
#1101 = EDGE_LOOP('',(#1102,#1103,#1111,#1117));
#1102 = ORIENTED_EDGE('',*,*,#1064,.T.);
#1103 = ORIENTED_EDGE('',*,*,#1104,.T.);
#1104 = EDGE_CURVE('',#1057,#1105,#1107,.T.);
#1105 = VERTEX_POINT('',#1106);
#1106 = CARTESIAN_POINT('',(30.,-6.,-30.));
#1107 = LINE('',#1108,#1109);
#1108 = CARTESIAN_POINT('',(-30.,-6.,-30.));
#1109 = VECTOR('',#1110,1.);
#1110 = DIRECTION('',(1.,0.,0.));
#1111 = ORIENTED_EDGE('',*,*,#1112,.F.);
#1112 = EDGE_CURVE('',#689,#1105,#1113,.T.);
#1113 = LINE('',#1114,#1115);
#1114 = CARTESIAN_POINT('',(30.,-6.661338147751E-15,-30.));
#1115 = VECTOR('',#1116,1.);
#1116 = DIRECTION('',(0.,-1.,2.22044604925E-16));
#1117 = ORIENTED_EDGE('',*,*,#696,.F.);
#1118 = PLANE('',#1119);
#1119 = AXIS2_PLACEMENT_3D('',#1120,#1121,#1122);
#1120 = CARTESIAN_POINT('',(-30.,-6.661338147751E-15,-30.));
#1121 = DIRECTION('',(0.,2.22044604925E-16,1.));
#1122 = DIRECTION('',(1.,0.,0.));
#1123 = ADVANCED_FACE('',(#1124),#1135,.F.);
#1124 = FACE_BOUND('',#1125,.F.);
#1125 = EDGE_LOOP('',(#1126,#1127,#1133,#1134));
#1126 = ORIENTED_EDGE('',*,*,#1112,.T.);
#1127 = ORIENTED_EDGE('',*,*,#1128,.T.);
#1128 = EDGE_CURVE('',#1105,#1080,#1129,.T.);
#1129 = LINE('',#1130,#1131);
#1130 = CARTESIAN_POINT('',(30.,-6.,-30.));
#1131 = VECTOR('',#1132,1.);
#1132 = DIRECTION('',(0.,2.22044604925E-16,1.));
#1133 = ORIENTED_EDGE('',*,*,#1079,.F.);
#1134 = ORIENTED_EDGE('',*,*,#688,.F.);
#1135 = PLANE('',#1136);
#1136 = AXIS2_PLACEMENT_3D('',#1137,#1138,#1139);
#1137 = CARTESIAN_POINT('',(30.,-6.661338147751E-15,-30.));
#1138 = DIRECTION('',(-1.,0.,0.));
#1139 = DIRECTION('',(0.,2.22044604925E-16,1.));
#1140 = ADVANCED_FACE('',(#1141),#1160,.F.);
#1141 = FACE_BOUND('',#1142,.T.);
#1142 = EDGE_LOOP('',(#1143,#1151,#1158,#1159));
#1143 = ORIENTED_EDGE('',*,*,#1144,.T.);
#1144 = EDGE_CURVE('',#711,#1145,#1147,.T.);
#1145 = VERTEX_POINT('',#1146);
#1146 = CARTESIAN_POINT('',(3.05,-1.,-15.5));
#1147 = LINE('',#1148,#1149);
#1148 = CARTESIAN_POINT('',(3.05,-3.441691376338E-15,-15.5));
#1149 = VECTOR('',#1150,1.);
#1150 = DIRECTION('',(0.,-1.,2.22044604925E-16));
#1151 = ORIENTED_EDGE('',*,*,#1152,.T.);
#1152 = EDGE_CURVE('',#1145,#1145,#1153,.T.);
#1153 = CIRCLE('',#1154,3.05);
#1154 = AXIS2_PLACEMENT_3D('',#1155,#1156,#1157);
#1155 = CARTESIAN_POINT('',(0.,-1.,-15.5));
#1156 = DIRECTION('',(0.,-1.,2.22044604925E-16));
#1157 = DIRECTION('',(1.,0.,0.));
#1158 = ORIENTED_EDGE('',*,*,#1144,.F.);
#1159 = ORIENTED_EDGE('',*,*,#710,.F.);
#1160 = CYLINDRICAL_SURFACE('',#1161,3.05);
#1161 = AXIS2_PLACEMENT_3D('',#1162,#1163,#1164);
#1162 = CARTESIAN_POINT('',(0.,-3.441691376338E-15,-15.5));
#1163 = DIRECTION('',(0.,1.,-2.22044604925E-16));
#1164 = DIRECTION('',(1.,0.,0.));
#1165 = ADVANCED_FACE('',(#1166,#1172),#1178,.T.);
#1166 = FACE_BOUND('',#1167,.T.);
#1167 = EDGE_LOOP('',(#1168,#1169,#1170,#1171));
#1168 = ORIENTED_EDGE('',*,*,#1056,.T.);
#1169 = ORIENTED_EDGE('',*,*,#1104,.T.);
#1170 = ORIENTED_EDGE('',*,*,#1128,.T.);
#1171 = ORIENTED_EDGE('',*,*,#1087,.T.);
#1172 = FACE_BOUND('',#1173,.F.);
#1173 = EDGE_LOOP('',(#1174,#1175,#1176,#1177));
#1174 = ORIENTED_EDGE('',*,*,#736,.T.);
#1175 = ORIENTED_EDGE('',*,*,#784,.T.);
#1176 = ORIENTED_EDGE('',*,*,#808,.T.);
#1177 = ORIENTED_EDGE('',*,*,#767,.T.);
#1178 = PLANE('',#1179);
#1179 = AXIS2_PLACEMENT_3D('',#1180,#1181,#1182);
#1180 = CARTESIAN_POINT('',(0.151105214958,-6.,0.254940034588));
#1181 = DIRECTION('',(0.,-1.,2.22044604925E-16));
#1182 = DIRECTION('',(1.,0.,0.));
#1183 = ADVANCED_FACE('',(#1184),#1187,.T.);
#1184 = FACE_BOUND('',#1185,.T.);
#1185 = EDGE_LOOP('',(#1186));
#1186 = ORIENTED_EDGE('',*,*,#823,.T.);
#1187 = PLANE('',#1188);
#1188 = AXIS2_PLACEMENT_3D('',#1189,#1190,#1191);
#1189 = CARTESIAN_POINT('',(0.151105214958,-1.,0.254940034588));
#1190 = DIRECTION('',(0.,-1.,2.22044604925E-16));
#1191 = DIRECTION('',(1.,0.,0.));
#1192 = ADVANCED_FACE('',(#1193,#1196),#1207,.T.);
#1193 = FACE_BOUND('',#1194,.T.);
#1194 = EDGE_LOOP('',(#1195));
#1195 = ORIENTED_EDGE('',*,*,#857,.T.);
#1196 = FACE_BOUND('',#1197,.F.);
#1197 = EDGE_LOOP('',(#1198));
#1198 = ORIENTED_EDGE('',*,*,#1199,.T.);
#1199 = EDGE_CURVE('',#1200,#1200,#1202,.T.);
#1200 = VERTEX_POINT('',#1201);
#1201 = CARTESIAN_POINT('',(18.75,-12.9,-15.5));
#1202 = CIRCLE('',#1203,1.25);
#1203 = AXIS2_PLACEMENT_3D('',#1204,#1205,#1206);
#1204 = CARTESIAN_POINT('',(17.5,-12.9,-15.5));
#1205 = DIRECTION('',(0.,-1.,2.22044604925E-16));
#1206 = DIRECTION('',(1.,0.,0.));
#1207 = PLANE('',#1208);
#1208 = AXIS2_PLACEMENT_3D('',#1209,#1210,#1211);
#1209 = CARTESIAN_POINT('',(0.151105214958,-12.9,0.254940034588));
#1210 = DIRECTION('',(0.,-1.,2.22044604925E-16));
#1211 = DIRECTION('',(1.,0.,0.));
#1212 = ADVANCED_FACE('',(#1213,#1216),#1219,.T.);
#1213 = FACE_BOUND('',#1214,.T.);
#1214 = EDGE_LOOP('',(#1215));
#1215 = ORIENTED_EDGE('',*,*,#873,.T.);
#1216 = FACE_BOUND('',#1217,.F.);
#1217 = EDGE_LOOP('',(#1218));
#1218 = ORIENTED_EDGE('',*,*,#1152,.T.);
#1219 = PLANE('',#1220);
#1220 = AXIS2_PLACEMENT_3D('',#1221,#1222,#1223);
#1221 = CARTESIAN_POINT('',(0.151105214958,-1.,0.254940034588));
#1222 = DIRECTION('',(0.,-1.,2.22044604925E-16));
#1223 = DIRECTION('',(1.,0.,0.));
#1224 = ADVANCED_FACE('',(#1225),#1228,.T.);
#1225 = FACE_BOUND('',#1226,.T.);
#1226 = EDGE_LOOP('',(#1227));
#1227 = ORIENTED_EDGE('',*,*,#907,.T.);
#1228 = PLANE('',#1229);
#1229 = AXIS2_PLACEMENT_3D('',#1230,#1231,#1232);
#1230 = CARTESIAN_POINT('',(0.151105214958,-12.9,0.254940034588));
#1231 = DIRECTION('',(0.,-1.,2.22044604925E-16));
#1232 = DIRECTION('',(1.,0.,0.));
#1233 = ADVANCED_FACE('',(#1234),#1237,.T.);
#1234 = FACE_BOUND('',#1235,.T.);
#1235 = EDGE_LOOP('',(#1236));
#1236 = ORIENTED_EDGE('',*,*,#923,.T.);
#1237 = PLANE('',#1238);
#1238 = AXIS2_PLACEMENT_3D('',#1239,#1240,#1241);
#1239 = CARTESIAN_POINT('',(0.151105214958,-1.,0.254940034588));
#1240 = DIRECTION('',(0.,-1.,2.22044604925E-16));
#1241 = DIRECTION('',(1.,0.,0.));
#1242 = ADVANCED_FACE('',(#1243,#1246),#1257,.T.);
#1243 = FACE_BOUND('',#1244,.T.);
#1244 = EDGE_LOOP('',(#1245));
#1245 = ORIENTED_EDGE('',*,*,#957,.T.);
#1246 = FACE_BOUND('',#1247,.F.);
#1247 = EDGE_LOOP('',(#1248));
#1248 = ORIENTED_EDGE('',*,*,#1249,.T.);
#1249 = EDGE_CURVE('',#1250,#1250,#1252,.T.);
#1250 = VERTEX_POINT('',#1251);
#1251 = CARTESIAN_POINT('',(-16.25,-12.9,-15.5));
#1252 = CIRCLE('',#1253,1.25);
#1253 = AXIS2_PLACEMENT_3D('',#1254,#1255,#1256);
#1254 = CARTESIAN_POINT('',(-17.5,-12.9,-15.5));
#1255 = DIRECTION('',(0.,-1.,2.22044604925E-16));
#1256 = DIRECTION('',(1.,0.,0.));
#1257 = PLANE('',#1258);
#1258 = AXIS2_PLACEMENT_3D('',#1259,#1260,#1261);
#1259 = CARTESIAN_POINT('',(0.151105214958,-12.9,0.254940034588));
#1260 = DIRECTION('',(0.,-1.,2.22044604925E-16));
#1261 = DIRECTION('',(1.,0.,0.));
#1262 = ADVANCED_FACE('',(#1263),#1266,.T.);
#1263 = FACE_BOUND('',#1264,.T.);
#1264 = EDGE_LOOP('',(#1265));
#1265 = ORIENTED_EDGE('',*,*,#973,.T.);
#1266 = PLANE('',#1267);
#1267 = AXIS2_PLACEMENT_3D('',#1268,#1269,#1270);
#1268 = CARTESIAN_POINT('',(0.151105214958,-1.,0.254940034588));
#1269 = DIRECTION('',(0.,-1.,2.22044604925E-16));
#1270 = DIRECTION('',(1.,0.,0.));
#1271 = ADVANCED_FACE('',(#1272),#1275,.T.);
#1272 = FACE_BOUND('',#1273,.T.);
#1273 = EDGE_LOOP('',(#1274));
#1274 = ORIENTED_EDGE('',*,*,#1007,.T.);
#1275 = PLANE('',#1276);
#1276 = AXIS2_PLACEMENT_3D('',#1277,#1278,#1279);
#1277 = CARTESIAN_POINT('',(0.151105214958,-12.9,0.254940034588));
#1278 = DIRECTION('',(0.,-1.,2.22044604925E-16));
#1279 = DIRECTION('',(1.,0.,0.));
#1280 = ADVANCED_FACE('',(#1281),#1284,.T.);
#1281 = FACE_BOUND('',#1282,.T.);
#1282 = EDGE_LOOP('',(#1283));
#1283 = ORIENTED_EDGE('',*,*,#1023,.T.);
#1284 = PLANE('',#1285);
#1285 = AXIS2_PLACEMENT_3D('',#1286,#1287,#1288);
#1286 = CARTESIAN_POINT('',(0.151105214958,-1.,0.254940034588));
#1287 = DIRECTION('',(0.,-1.,2.22044604925E-16));
#1288 = DIRECTION('',(1.,0.,0.));
#1289 = ADVANCED_FACE('',(#1290),#1309,.F.);
#1290 = FACE_BOUND('',#1291,.T.);
#1291 = EDGE_LOOP('',(#1292,#1301,#1307,#1308));
#1292 = ORIENTED_EDGE('',*,*,#1293,.T.);
#1293 = EDGE_CURVE('',#1294,#1294,#1296,.T.);
#1294 = VERTEX_POINT('',#1295);
#1295 = CARTESIAN_POINT('',(18.75,-4.5,-15.5));
#1296 = CIRCLE('',#1297,1.25);
#1297 = AXIS2_PLACEMENT_3D('',#1298,#1299,#1300);
#1298 = CARTESIAN_POINT('',(17.5,-4.5,-15.5));
#1299 = DIRECTION('',(0.,1.,-2.22044604925E-16));
#1300 = DIRECTION('',(1.,0.,0.));
#1301 = ORIENTED_EDGE('',*,*,#1302,.T.);
#1302 = EDGE_CURVE('',#1294,#1200,#1303,.T.);
#1303 = LINE('',#1304,#1305);
#1304 = CARTESIAN_POINT('',(18.75,-3.441691376338E-15,-15.5));
#1305 = VECTOR('',#1306,1.);
#1306 = DIRECTION('',(0.,-1.,2.22044604925E-16));
#1307 = ORIENTED_EDGE('',*,*,#1199,.T.);
#1308 = ORIENTED_EDGE('',*,*,#1302,.F.);
#1309 = CYLINDRICAL_SURFACE('',#1310,1.25);
#1310 = AXIS2_PLACEMENT_3D('',#1311,#1312,#1313);
#1311 = CARTESIAN_POINT('',(17.5,-3.441691376338E-15,-15.5));
#1312 = DIRECTION('',(0.,1.,-2.22044604925E-16));
#1313 = DIRECTION('',(1.,0.,0.));
#1314 = ADVANCED_FACE('',(#1315),#1334,.F.);
#1315 = FACE_BOUND('',#1316,.T.);
#1316 = EDGE_LOOP('',(#1317,#1326,#1332,#1333));
#1317 = ORIENTED_EDGE('',*,*,#1318,.T.);
#1318 = EDGE_CURVE('',#1319,#1319,#1321,.T.);
#1319 = VERTEX_POINT('',#1320);
#1320 = CARTESIAN_POINT('',(-16.25,-4.5,-15.5));
#1321 = CIRCLE('',#1322,1.25);
#1322 = AXIS2_PLACEMENT_3D('',#1323,#1324,#1325);
#1323 = CARTESIAN_POINT('',(-17.5,-4.5,-15.5));
#1324 = DIRECTION('',(0.,1.,-2.22044604925E-16));
#1325 = DIRECTION('',(1.,0.,0.));
#1326 = ORIENTED_EDGE('',*,*,#1327,.T.);
#1327 = EDGE_CURVE('',#1319,#1250,#1328,.T.);
#1328 = LINE('',#1329,#1330);
#1329 = CARTESIAN_POINT('',(-16.25,-3.441691376338E-15,-15.5));
#1330 = VECTOR('',#1331,1.);
#1331 = DIRECTION('',(0.,-1.,2.22044604925E-16));
#1332 = ORIENTED_EDGE('',*,*,#1249,.T.);
#1333 = ORIENTED_EDGE('',*,*,#1327,.F.);
#1334 = CYLINDRICAL_SURFACE('',#1335,1.25);
#1335 = AXIS2_PLACEMENT_3D('',#1336,#1337,#1338);
#1336 = CARTESIAN_POINT('',(-17.5,-3.441691376338E-15,-15.5));
#1337 = DIRECTION('',(0.,1.,-2.22044604925E-16));
#1338 = DIRECTION('',(1.,0.,0.));
#1339 = ADVANCED_FACE('',(#1340),#1343,.T.);
#1340 = FACE_BOUND('',#1341,.T.);
#1341 = EDGE_LOOP('',(#1342));
#1342 = ORIENTED_EDGE('',*,*,#1293,.F.);
#1343 = PLANE('',#1344);
#1344 = AXIS2_PLACEMENT_3D('',#1345,#1346,#1347);
#1345 = CARTESIAN_POINT('',(-3.248195363475E-14,-4.5,-9.992007221626E-16
    ));
#1346 = DIRECTION('',(0.,-1.,2.22044604925E-16));
#1347 = DIRECTION('',(0.,2.22044604925E-16,1.));
#1348 = ADVANCED_FACE('',(#1349),#1352,.T.);
#1349 = FACE_BOUND('',#1350,.T.);
#1350 = EDGE_LOOP('',(#1351));
#1351 = ORIENTED_EDGE('',*,*,#1318,.F.);
#1352 = PLANE('',#1353);
#1353 = AXIS2_PLACEMENT_3D('',#1354,#1355,#1356);
#1354 = CARTESIAN_POINT('',(-3.248195363475E-14,-4.5,-9.992007221626E-16
    ));
#1355 = DIRECTION('',(0.,-1.,2.22044604925E-16));
#1356 = DIRECTION('',(0.,2.22044604925E-16,1.));
#1357 = ( GEOMETRIC_REPRESENTATION_CONTEXT(3) 
GLOBAL_UNCERTAINTY_ASSIGNED_CONTEXT((#1361)) 
GLOBAL_UNIT_ASSIGNED_CONTEXT((#1358,#1359,#1360)) REPRESENTATION_CONTEXT
('Context #1','3D Context with UNIT and UNCERTAINTY') );
#1358 = ( LENGTH_UNIT() NAMED_UNIT(*) SI_UNIT(.MILLI.,.METRE.) );
#1359 = ( NAMED_UNIT(*) PLANE_ANGLE_UNIT() SI_UNIT($,.RADIAN.) );
#1360 = ( NAMED_UNIT(*) SI_UNIT($,.STERADIAN.) SOLID_ANGLE_UNIT() );
#1361 = UNCERTAINTY_MEASURE_WITH_UNIT(LENGTH_MEASURE(1.E-07),#1358,
  'distance_accuracy_value','confusion accuracy');
#1362 = PRODUCT_RELATED_PRODUCT_CATEGORY('part',$,(#7));
#1363 = MECHANICAL_DESIGN_GEOMETRIC_PRESENTATION_REPRESENTATION('',(
    #1364),#1357);
#1364 = STYLED_ITEM('color',(#1365),#15);
#1365 = PRESENTATION_STYLE_ASSIGNMENT((#1366,#1372));
#1366 = SURFACE_STYLE_USAGE(.BOTH.,#1367);
#1367 = SURFACE_SIDE_STYLE('',(#1368));
#1368 = SURFACE_STYLE_FILL_AREA(#1369);
#1369 = FILL_AREA_STYLE('',(#1370));
#1370 = FILL_AREA_STYLE_COLOUR('',#1371);
#1371 = COLOUR_RGB('',0.678431390124,0.709803936702,0.741176476869);
#1372 = CURVE_STYLE('',#1373,POSITIVE_LENGTH_MEASURE(0.1),#1374);
#1373 = DRAUGHTING_PRE_DEFINED_CURVE_FONT('continuous');
#1374 = COLOUR_RGB('',9.803921802644E-02,9.803921802644E-02,
  9.803921802644E-02);
ENDSEC;
END-ISO-10303-21;
