ISO-10303-21;
HEADER;
FILE_DESCRIPTION(('FreeCAD Model'),'2;1');
FILE_NAME('Open CASCADE Shape Model','2026-08-16T20:21:26',(''),(''),
  'Open CASCADE STEP processor 7.8','FreeCAD','Unknown');
FILE_SCHEMA(('AUTOMOTIVE_DESIGN { 1 0 10303 214 1 1 1 1 }'));
ENDSEC;
DATA;
#1 = APPLICATION_PROTOCOL_DEFINITION('international standard',
  'automotive_design',2000,#2);
#2 = APPLICATION_CONTEXT(
  'core data for automotive mechanical design processes');
#3 = SHAPE_DEFINITION_REPRESENTATION(#4,#10);
#4 = PRODUCT_DEFINITION_SHAPE('','',#5);
#5 = PRODUCT_DEFINITION('design','',#6,#9);
#6 = PRODUCT_DEFINITION_FORMATION('','',#7);
#7 = PRODUCT('Slice.0','Slice.0','',(#8));
#8 = PRODUCT_CONTEXT('',#2,'mechanical');
#9 = PRODUCT_DEFINITION_CONTEXT('part definition',#2,'design');
#10 = ADVANCED_BREP_SHAPE_REPRESENTATION('',(#11,#15),#1655);
#11 = AXIS2_PLACEMENT_3D('',#12,#13,#14);
#12 = CARTESIAN_POINT('',(0.,0.,0.));
#13 = DIRECTION('',(0.,0.,1.));
#14 = DIRECTION('',(1.,0.,-0.));
#15 = MANIFOLD_SOLID_BREP('',#16);
#16 = CLOSED_SHELL('',(#17,#57,#88,#119,#214,#309,#321,#338,#497,#521,
    #545,#690,#707,#724,#741,#772,#796,#820,#837,#1039,#1063,#1087,#1104
    ,#1128,#1152,#1169,#1193,#1217,#1234,#1258,#1282,#1299,#1323,#1347,
    #1364,#1388,#1412,#1429,#1453,#1477,#1494,#1518,#1542,#1559,#1571,
    #1583,#1595,#1607,#1619,#1631,#1643));
#17 = ADVANCED_FACE('',(#18),#52,.F.);
#18 = FACE_BOUND('',#19,.F.);
#19 = EDGE_LOOP('',(#20,#30,#38,#46));
#20 = ORIENTED_EDGE('',*,*,#21,.T.);
#21 = EDGE_CURVE('',#22,#24,#26,.T.);
#22 = VERTEX_POINT('',#23);
#23 = CARTESIAN_POINT('',(-28.,-4.5,28.));
#24 = VERTEX_POINT('',#25);
#25 = CARTESIAN_POINT('',(-28.,-6.,28.));
#26 = LINE('',#27,#28);
#27 = CARTESIAN_POINT('',(-28.,-4.5,28.));
#28 = VECTOR('',#29,1.);
#29 = DIRECTION('',(0.,-1.,2.22044604925E-16));
#30 = ORIENTED_EDGE('',*,*,#31,.T.);
#31 = EDGE_CURVE('',#24,#32,#34,.T.);
#32 = VERTEX_POINT('',#33);
#33 = CARTESIAN_POINT('',(-28.,-6.,-28.));
#34 = LINE('',#35,#36);
#35 = CARTESIAN_POINT('',(-28.,-6.,28.));
#36 = VECTOR('',#37,1.);
#37 = DIRECTION('',(0.,-2.22044604925E-16,-1.));
#38 = ORIENTED_EDGE('',*,*,#39,.F.);
#39 = EDGE_CURVE('',#40,#32,#42,.T.);
#40 = VERTEX_POINT('',#41);
#41 = CARTESIAN_POINT('',(-28.,-4.5,-28.));
#42 = LINE('',#43,#44);
#43 = CARTESIAN_POINT('',(-28.,-4.5,-28.));
#44 = VECTOR('',#45,1.);
#45 = DIRECTION('',(0.,-1.,2.22044604925E-16));
#46 = ORIENTED_EDGE('',*,*,#47,.F.);
#47 = EDGE_CURVE('',#22,#40,#48,.T.);
#48 = LINE('',#49,#50);
#49 = CARTESIAN_POINT('',(-28.,-4.5,28.));
#50 = VECTOR('',#51,1.);
#51 = DIRECTION('',(0.,-2.22044604925E-16,-1.));
#52 = PLANE('',#53);
#53 = AXIS2_PLACEMENT_3D('',#54,#55,#56);
#54 = CARTESIAN_POINT('',(-28.,-4.5,28.));
#55 = DIRECTION('',(1.,0.,0.));
#56 = DIRECTION('',(0.,-2.22044604925E-16,-1.));
#57 = ADVANCED_FACE('',(#58),#83,.F.);
#58 = FACE_BOUND('',#59,.F.);
#59 = EDGE_LOOP('',(#60,#70,#76,#77));
#60 = ORIENTED_EDGE('',*,*,#61,.T.);
#61 = EDGE_CURVE('',#62,#64,#66,.T.);
#62 = VERTEX_POINT('',#63);
#63 = CARTESIAN_POINT('',(28.,-4.5,28.));
#64 = VERTEX_POINT('',#65);
#65 = CARTESIAN_POINT('',(28.,-6.,28.));
#66 = LINE('',#67,#68);
#67 = CARTESIAN_POINT('',(28.,-4.5,28.));
#68 = VECTOR('',#69,1.);
#69 = DIRECTION('',(0.,-1.,2.22044604925E-16));
#70 = ORIENTED_EDGE('',*,*,#71,.T.);
#71 = EDGE_CURVE('',#64,#24,#72,.T.);
#72 = LINE('',#73,#74);
#73 = CARTESIAN_POINT('',(28.,-6.,28.));
#74 = VECTOR('',#75,1.);
#75 = DIRECTION('',(-1.,0.,0.));
#76 = ORIENTED_EDGE('',*,*,#21,.F.);
#77 = ORIENTED_EDGE('',*,*,#78,.F.);
#78 = EDGE_CURVE('',#62,#22,#79,.T.);
#79 = LINE('',#80,#81);
#80 = CARTESIAN_POINT('',(28.,-4.5,28.));
#81 = VECTOR('',#82,1.);
#82 = DIRECTION('',(-1.,0.,0.));
#83 = PLANE('',#84);
#84 = AXIS2_PLACEMENT_3D('',#85,#86,#87);
#85 = CARTESIAN_POINT('',(28.,-4.5,28.));
#86 = DIRECTION('',(-0.,-2.22044604925E-16,-1.));
#87 = DIRECTION('',(-1.,0.,0.));
#88 = ADVANCED_FACE('',(#89),#114,.F.);
#89 = FACE_BOUND('',#90,.F.);
#90 = EDGE_LOOP('',(#91,#92,#100,#108));
#91 = ORIENTED_EDGE('',*,*,#39,.T.);
#92 = ORIENTED_EDGE('',*,*,#93,.T.);
#93 = EDGE_CURVE('',#32,#94,#96,.T.);
#94 = VERTEX_POINT('',#95);
#95 = CARTESIAN_POINT('',(28.,-6.,-28.));
#96 = LINE('',#97,#98);
#97 = CARTESIAN_POINT('',(-28.,-6.,-28.));
#98 = VECTOR('',#99,1.);
#99 = DIRECTION('',(1.,0.,0.));
#100 = ORIENTED_EDGE('',*,*,#101,.F.);
#101 = EDGE_CURVE('',#102,#94,#104,.T.);
#102 = VERTEX_POINT('',#103);
#103 = CARTESIAN_POINT('',(28.,-4.5,-28.));
#104 = LINE('',#105,#106);
#105 = CARTESIAN_POINT('',(28.,-4.5,-28.));
#106 = VECTOR('',#107,1.);
#107 = DIRECTION('',(0.,-1.,2.22044604925E-16));
#108 = ORIENTED_EDGE('',*,*,#109,.F.);
#109 = EDGE_CURVE('',#40,#102,#110,.T.);
#110 = LINE('',#111,#112);
#111 = CARTESIAN_POINT('',(-28.,-4.5,-28.));
#112 = VECTOR('',#113,1.);
#113 = DIRECTION('',(1.,0.,0.));
#114 = PLANE('',#115);
#115 = AXIS2_PLACEMENT_3D('',#116,#117,#118);
#116 = CARTESIAN_POINT('',(-28.,-4.5,-28.));
#117 = DIRECTION('',(0.,2.22044604925E-16,1.));
#118 = DIRECTION('',(1.,0.,0.));
#119 = ADVANCED_FACE('',(#120,#131,#142,#176,#187,#198),#209,.T.);
#120 = FACE_BOUND('',#121,.T.);
#121 = EDGE_LOOP('',(#122,#123,#124,#130));
#122 = ORIENTED_EDGE('',*,*,#47,.F.);
#123 = ORIENTED_EDGE('',*,*,#78,.F.);
#124 = ORIENTED_EDGE('',*,*,#125,.F.);
#125 = EDGE_CURVE('',#102,#62,#126,.T.);
#126 = LINE('',#127,#128);
#127 = CARTESIAN_POINT('',(28.,-4.5,-28.));
#128 = VECTOR('',#129,1.);
#129 = DIRECTION('',(0.,2.22044604925E-16,1.));
#130 = ORIENTED_EDGE('',*,*,#109,.F.);
#131 = FACE_BOUND('',#132,.T.);
#132 = EDGE_LOOP('',(#133));
#133 = ORIENTED_EDGE('',*,*,#134,.F.);
#134 = EDGE_CURVE('',#135,#135,#137,.T.);
#135 = VERTEX_POINT('',#136);
#136 = CARTESIAN_POINT('',(-27.05,-4.5,-25.5));
#137 = CIRCLE('',#138,1.55);
#138 = AXIS2_PLACEMENT_3D('',#139,#140,#141);
#139 = CARTESIAN_POINT('',(-25.5,-4.5,-25.5));
#140 = DIRECTION('',(0.,1.,-2.22044604925E-16));
#141 = DIRECTION('',(-1.,0.,0.));
#142 = FACE_BOUND('',#143,.T.);
#143 = EDGE_LOOP('',(#144,#154,#162,#170));
#144 = ORIENTED_EDGE('',*,*,#145,.T.);
#145 = EDGE_CURVE('',#146,#148,#150,.T.);
#146 = VERTEX_POINT('',#147);
#147 = CARTESIAN_POINT('',(-21.75,-4.5,-21.75));
#148 = VERTEX_POINT('',#149);
#149 = CARTESIAN_POINT('',(21.75,-4.5,-21.75));
#150 = LINE('',#151,#152);
#151 = CARTESIAN_POINT('',(-21.75,-4.5,-21.75));
#152 = VECTOR('',#153,1.);
#153 = DIRECTION('',(1.,0.,0.));
#154 = ORIENTED_EDGE('',*,*,#155,.T.);
#155 = EDGE_CURVE('',#148,#156,#158,.T.);
#156 = VERTEX_POINT('',#157);
#157 = CARTESIAN_POINT('',(21.75,-4.5,21.75));
#158 = LINE('',#159,#160);
#159 = CARTESIAN_POINT('',(21.75,-4.5,-21.75));
#160 = VECTOR('',#161,1.);
#161 = DIRECTION('',(0.,2.22044604925E-16,1.));
#162 = ORIENTED_EDGE('',*,*,#163,.T.);
#163 = EDGE_CURVE('',#156,#164,#166,.T.);
#164 = VERTEX_POINT('',#165);
#165 = CARTESIAN_POINT('',(-21.75,-4.5,21.75));
#166 = LINE('',#167,#168);
#167 = CARTESIAN_POINT('',(21.75,-4.5,21.75));
#168 = VECTOR('',#169,1.);
#169 = DIRECTION('',(-1.,0.,0.));
#170 = ORIENTED_EDGE('',*,*,#171,.T.);
#171 = EDGE_CURVE('',#164,#146,#172,.T.);
#172 = LINE('',#173,#174);
#173 = CARTESIAN_POINT('',(-21.75,-4.5,21.75));
#174 = VECTOR('',#175,1.);
#175 = DIRECTION('',(0.,-2.22044604925E-16,-1.));
#176 = FACE_BOUND('',#177,.T.);
#177 = EDGE_LOOP('',(#178));
#178 = ORIENTED_EDGE('',*,*,#179,.F.);
#179 = EDGE_CURVE('',#180,#180,#182,.T.);
#180 = VERTEX_POINT('',#181);
#181 = CARTESIAN_POINT('',(-27.05,-4.5,25.5));
#182 = CIRCLE('',#183,1.55);
#183 = AXIS2_PLACEMENT_3D('',#184,#185,#186);
#184 = CARTESIAN_POINT('',(-25.5,-4.5,25.5));
#185 = DIRECTION('',(0.,1.,-2.22044604925E-16));
#186 = DIRECTION('',(-1.,0.,0.));
#187 = FACE_BOUND('',#188,.T.);
#188 = EDGE_LOOP('',(#189));
#189 = ORIENTED_EDGE('',*,*,#190,.F.);
#190 = EDGE_CURVE('',#191,#191,#193,.T.);
#191 = VERTEX_POINT('',#192);
#192 = CARTESIAN_POINT('',(23.95,-4.5,-25.5));
#193 = CIRCLE('',#194,1.55);
#194 = AXIS2_PLACEMENT_3D('',#195,#196,#197);
#195 = CARTESIAN_POINT('',(25.5,-4.5,-25.5));
#196 = DIRECTION('',(0.,1.,-2.22044604925E-16));
#197 = DIRECTION('',(-1.,0.,0.));
#198 = FACE_BOUND('',#199,.T.);
#199 = EDGE_LOOP('',(#200));
#200 = ORIENTED_EDGE('',*,*,#201,.F.);
#201 = EDGE_CURVE('',#202,#202,#204,.T.);
#202 = VERTEX_POINT('',#203);
#203 = CARTESIAN_POINT('',(23.95,-4.5,25.5));
#204 = CIRCLE('',#205,1.55);
#205 = AXIS2_PLACEMENT_3D('',#206,#207,#208);
#206 = CARTESIAN_POINT('',(25.5,-4.5,25.5));
#207 = DIRECTION('',(0.,1.,-2.22044604925E-16));
#208 = DIRECTION('',(-1.,0.,0.));
#209 = PLANE('',#210);
#210 = AXIS2_PLACEMENT_3D('',#211,#212,#213);
#211 = CARTESIAN_POINT('',(-3.248195363475E-14,-4.5,-4.060244204343E-15)
  );
#212 = DIRECTION('',(0.,1.,0.));
#213 = DIRECTION('',(0.,0.,1.));
#214 = ADVANCED_FACE('',(#215,#226,#237,#248,#282,#293),#304,.T.);
#215 = FACE_BOUND('',#216,.T.);
#216 = EDGE_LOOP('',(#217,#218,#219,#225));
#217 = ORIENTED_EDGE('',*,*,#31,.T.);
#218 = ORIENTED_EDGE('',*,*,#93,.T.);
#219 = ORIENTED_EDGE('',*,*,#220,.T.);
#220 = EDGE_CURVE('',#94,#64,#221,.T.);
#221 = LINE('',#222,#223);
#222 = CARTESIAN_POINT('',(28.,-6.,-28.));
#223 = VECTOR('',#224,1.);
#224 = DIRECTION('',(0.,2.22044604925E-16,1.));
#225 = ORIENTED_EDGE('',*,*,#71,.T.);
#226 = FACE_BOUND('',#227,.T.);
#227 = EDGE_LOOP('',(#228));
#228 = ORIENTED_EDGE('',*,*,#229,.T.);
#229 = EDGE_CURVE('',#230,#230,#232,.T.);
#230 = VERTEX_POINT('',#231);
#231 = CARTESIAN_POINT('',(-27.05,-6.,-25.5));
#232 = CIRCLE('',#233,1.55);
#233 = AXIS2_PLACEMENT_3D('',#234,#235,#236);
#234 = CARTESIAN_POINT('',(-25.5,-6.,-25.5));
#235 = DIRECTION('',(0.,1.,-2.22044604925E-16));
#236 = DIRECTION('',(-1.,0.,0.));
#237 = FACE_BOUND('',#238,.T.);
#238 = EDGE_LOOP('',(#239));
#239 = ORIENTED_EDGE('',*,*,#240,.T.);
#240 = EDGE_CURVE('',#241,#241,#243,.T.);
#241 = VERTEX_POINT('',#242);
#242 = CARTESIAN_POINT('',(23.95,-6.,-25.5));
#243 = CIRCLE('',#244,1.55);
#244 = AXIS2_PLACEMENT_3D('',#245,#246,#247);
#245 = CARTESIAN_POINT('',(25.5,-6.,-25.5));
#246 = DIRECTION('',(0.,1.,-2.22044604925E-16));
#247 = DIRECTION('',(-1.,0.,0.));
#248 = FACE_BOUND('',#249,.T.);
#249 = EDGE_LOOP('',(#250,#260,#268,#276));
#250 = ORIENTED_EDGE('',*,*,#251,.F.);
#251 = EDGE_CURVE('',#252,#254,#256,.T.);
#252 = VERTEX_POINT('',#253);
#253 = CARTESIAN_POINT('',(-23.,-6.,23.));
#254 = VERTEX_POINT('',#255);
#255 = CARTESIAN_POINT('',(-23.,-6.,-23.));
#256 = LINE('',#257,#258);
#257 = CARTESIAN_POINT('',(-23.,-6.,23.));
#258 = VECTOR('',#259,1.);
#259 = DIRECTION('',(0.,-2.22044604925E-16,-1.));
#260 = ORIENTED_EDGE('',*,*,#261,.F.);
#261 = EDGE_CURVE('',#262,#252,#264,.T.);
#262 = VERTEX_POINT('',#263);
#263 = CARTESIAN_POINT('',(23.,-6.,23.));
#264 = LINE('',#265,#266);
#265 = CARTESIAN_POINT('',(23.,-6.,23.));
#266 = VECTOR('',#267,1.);
#267 = DIRECTION('',(-1.,0.,0.));
#268 = ORIENTED_EDGE('',*,*,#269,.F.);
#269 = EDGE_CURVE('',#270,#262,#272,.T.);
#270 = VERTEX_POINT('',#271);
#271 = CARTESIAN_POINT('',(23.,-6.,-23.));
#272 = LINE('',#273,#274);
#273 = CARTESIAN_POINT('',(23.,-6.,-23.));
#274 = VECTOR('',#275,1.);
#275 = DIRECTION('',(0.,2.22044604925E-16,1.));
#276 = ORIENTED_EDGE('',*,*,#277,.F.);
#277 = EDGE_CURVE('',#254,#270,#278,.T.);
#278 = LINE('',#279,#280);
#279 = CARTESIAN_POINT('',(-23.,-6.,-23.));
#280 = VECTOR('',#281,1.);
#281 = DIRECTION('',(1.,0.,0.));
#282 = FACE_BOUND('',#283,.T.);
#283 = EDGE_LOOP('',(#284));
#284 = ORIENTED_EDGE('',*,*,#285,.T.);
#285 = EDGE_CURVE('',#286,#286,#288,.T.);
#286 = VERTEX_POINT('',#287);
#287 = CARTESIAN_POINT('',(-27.05,-6.,25.5));
#288 = CIRCLE('',#289,1.55);
#289 = AXIS2_PLACEMENT_3D('',#290,#291,#292);
#290 = CARTESIAN_POINT('',(-25.5,-6.,25.5));
#291 = DIRECTION('',(0.,1.,-2.22044604925E-16));
#292 = DIRECTION('',(-1.,0.,0.));
#293 = FACE_BOUND('',#294,.T.);
#294 = EDGE_LOOP('',(#295));
#295 = ORIENTED_EDGE('',*,*,#296,.T.);
#296 = EDGE_CURVE('',#297,#297,#299,.T.);
#297 = VERTEX_POINT('',#298);
#298 = CARTESIAN_POINT('',(23.95,-6.,25.5));
#299 = CIRCLE('',#300,1.55);
#300 = AXIS2_PLACEMENT_3D('',#301,#302,#303);
#301 = CARTESIAN_POINT('',(25.5,-6.,25.5));
#302 = DIRECTION('',(0.,1.,-2.22044604925E-16));
#303 = DIRECTION('',(-1.,0.,0.));
#304 = PLANE('',#305);
#305 = AXIS2_PLACEMENT_3D('',#306,#307,#308);
#306 = CARTESIAN_POINT('',(0.151105214958,-6.,0.254940034588));
#307 = DIRECTION('',(0.,-1.,2.22044604925E-16));
#308 = DIRECTION('',(1.,0.,0.));
#309 = ADVANCED_FACE('',(#310),#316,.F.);
#310 = FACE_BOUND('',#311,.F.);
#311 = EDGE_LOOP('',(#312,#313,#314,#315));
#312 = ORIENTED_EDGE('',*,*,#101,.T.);
#313 = ORIENTED_EDGE('',*,*,#220,.T.);
#314 = ORIENTED_EDGE('',*,*,#61,.F.);
#315 = ORIENTED_EDGE('',*,*,#125,.F.);
#316 = PLANE('',#317);
#317 = AXIS2_PLACEMENT_3D('',#318,#319,#320);
#318 = CARTESIAN_POINT('',(28.,-4.5,-28.));
#319 = DIRECTION('',(-1.,0.,0.));
#320 = DIRECTION('',(0.,2.22044604925E-16,1.));
#321 = ADVANCED_FACE('',(#322),#333,.F.);
#322 = FACE_BOUND('',#323,.F.);
#323 = EDGE_LOOP('',(#324,#325,#331,#332));
#324 = ORIENTED_EDGE('',*,*,#134,.F.);
#325 = ORIENTED_EDGE('',*,*,#326,.T.);
#326 = EDGE_CURVE('',#135,#230,#327,.T.);
#327 = LINE('',#328,#329);
#328 = CARTESIAN_POINT('',(-27.05,-4.5,-25.5));
#329 = VECTOR('',#330,1.);
#330 = DIRECTION('',(0.,-1.,2.22044604925E-16));
#331 = ORIENTED_EDGE('',*,*,#229,.T.);
#332 = ORIENTED_EDGE('',*,*,#326,.F.);
#333 = CYLINDRICAL_SURFACE('',#334,1.55);
#334 = AXIS2_PLACEMENT_3D('',#335,#336,#337);
#335 = CARTESIAN_POINT('',(-25.5,-4.5,-25.5));
#336 = DIRECTION('',(0.,1.,-2.22044604925E-16));
#337 = DIRECTION('',(-1.,0.,0.));
#338 = ADVANCED_FACE('',(#339),#492,.T.);
#339 = FACE_BOUND('',#340,.T.);
#340 = EDGE_LOOP('',(#341,#342,#350,#358,#366,#374,#382,#390,#398,#406,
    #414,#422,#430,#438,#446,#454,#462,#470,#478,#486));
#341 = ORIENTED_EDGE('',*,*,#145,.F.);
#342 = ORIENTED_EDGE('',*,*,#343,.T.);
#343 = EDGE_CURVE('',#146,#344,#346,.T.);
#344 = VERTEX_POINT('',#345);
#345 = CARTESIAN_POINT('',(-21.75,-57.9,-21.75));
#346 = LINE('',#347,#348);
#347 = CARTESIAN_POINT('',(-21.75,-4.5,-21.75));
#348 = VECTOR('',#349,1.);
#349 = DIRECTION('',(0.,-1.,2.22044604925E-16));
#350 = ORIENTED_EDGE('',*,*,#351,.T.);
#351 = EDGE_CURVE('',#344,#352,#354,.T.);
#352 = VERTEX_POINT('',#353);
#353 = CARTESIAN_POINT('',(-8.32,-57.9,-21.75));
#354 = LINE('',#355,#356);
#355 = CARTESIAN_POINT('',(-10.875,-57.9,-21.75));
#356 = VECTOR('',#357,1.);
#357 = DIRECTION('',(1.,0.,0.));
#358 = ORIENTED_EDGE('',*,*,#359,.F.);
#359 = EDGE_CURVE('',#360,#352,#362,.T.);
#360 = VERTEX_POINT('',#361);
#361 = CARTESIAN_POINT('',(-8.32,-32.5,-21.75));
#362 = LINE('',#363,#364);
#363 = CARTESIAN_POINT('',(-8.32,-32.5,-21.75));
#364 = VECTOR('',#365,1.);
#365 = DIRECTION('',(-0.,-1.,-2.22044604925E-16));
#366 = ORIENTED_EDGE('',*,*,#367,.T.);
#367 = EDGE_CURVE('',#360,#368,#370,.T.);
#368 = VERTEX_POINT('',#369);
#369 = CARTESIAN_POINT('',(-7.32,-32.5,-21.75));
#370 = LINE('',#371,#372);
#371 = CARTESIAN_POINT('',(-8.32,-32.5,-21.75));
#372 = VECTOR('',#373,1.);
#373 = DIRECTION('',(1.,-0.,0.));
#374 = ORIENTED_EDGE('',*,*,#375,.T.);
#375 = EDGE_CURVE('',#368,#376,#378,.T.);
#376 = VERTEX_POINT('',#377);
#377 = CARTESIAN_POINT('',(-7.32,-57.9,-21.75));
#378 = LINE('',#379,#380);
#379 = CARTESIAN_POINT('',(-7.32,-32.5,-21.75));
#380 = VECTOR('',#381,1.);
#381 = DIRECTION('',(-0.,-1.,-2.22044604925E-16));
#382 = ORIENTED_EDGE('',*,*,#383,.T.);
#383 = EDGE_CURVE('',#376,#384,#386,.T.);
#384 = VERTEX_POINT('',#385);
#385 = CARTESIAN_POINT('',(-5.68,-57.9,-21.75));
#386 = LINE('',#387,#388);
#387 = CARTESIAN_POINT('',(-10.875,-57.9,-21.75));
#388 = VECTOR('',#389,1.);
#389 = DIRECTION('',(1.,0.,0.));
#390 = ORIENTED_EDGE('',*,*,#391,.F.);
#391 = EDGE_CURVE('',#392,#384,#394,.T.);
#392 = VERTEX_POINT('',#393);
#393 = CARTESIAN_POINT('',(-5.68,-32.5,-21.75));
#394 = LINE('',#395,#396);
#395 = CARTESIAN_POINT('',(-5.68,-32.5,-21.75));
#396 = VECTOR('',#397,1.);
#397 = DIRECTION('',(-0.,-1.,-2.22044604925E-16));
#398 = ORIENTED_EDGE('',*,*,#399,.T.);
#399 = EDGE_CURVE('',#392,#400,#402,.T.);
#400 = VERTEX_POINT('',#401);
#401 = CARTESIAN_POINT('',(-4.68,-32.5,-21.75));
#402 = LINE('',#403,#404);
#403 = CARTESIAN_POINT('',(-5.68,-32.5,-21.75));
#404 = VECTOR('',#405,1.);
#405 = DIRECTION('',(1.,-0.,0.));
#406 = ORIENTED_EDGE('',*,*,#407,.T.);
#407 = EDGE_CURVE('',#400,#408,#410,.T.);
#408 = VERTEX_POINT('',#409);
#409 = CARTESIAN_POINT('',(-4.68,-57.9,-21.75));
#410 = LINE('',#411,#412);
#411 = CARTESIAN_POINT('',(-4.68,-32.5,-21.75));
#412 = VECTOR('',#413,1.);
#413 = DIRECTION('',(-0.,-1.,-2.22044604925E-16));
#414 = ORIENTED_EDGE('',*,*,#415,.T.);
#415 = EDGE_CURVE('',#408,#416,#418,.T.);
#416 = VERTEX_POINT('',#417);
#417 = CARTESIAN_POINT('',(5.68,-57.9,-21.75));
#418 = LINE('',#419,#420);
#419 = CARTESIAN_POINT('',(-10.875,-57.9,-21.75));
#420 = VECTOR('',#421,1.);
#421 = DIRECTION('',(1.,0.,0.));
#422 = ORIENTED_EDGE('',*,*,#423,.F.);
#423 = EDGE_CURVE('',#424,#416,#426,.T.);
#424 = VERTEX_POINT('',#425);
#425 = CARTESIAN_POINT('',(5.68,-32.5,-21.75));
#426 = LINE('',#427,#428);
#427 = CARTESIAN_POINT('',(5.68,-32.5,-21.75));
#428 = VECTOR('',#429,1.);
#429 = DIRECTION('',(-0.,-1.,-2.22044604925E-16));
#430 = ORIENTED_EDGE('',*,*,#431,.T.);
#431 = EDGE_CURVE('',#424,#432,#434,.T.);
#432 = VERTEX_POINT('',#433);
#433 = CARTESIAN_POINT('',(6.68,-32.5,-21.75));
#434 = LINE('',#435,#436);
#435 = CARTESIAN_POINT('',(5.68,-32.5,-21.75));
#436 = VECTOR('',#437,1.);
#437 = DIRECTION('',(1.,-0.,0.));
#438 = ORIENTED_EDGE('',*,*,#439,.T.);
#439 = EDGE_CURVE('',#432,#440,#442,.T.);
#440 = VERTEX_POINT('',#441);
#441 = CARTESIAN_POINT('',(6.68,-57.9,-21.75));
#442 = LINE('',#443,#444);
#443 = CARTESIAN_POINT('',(6.68,-32.5,-21.75));
#444 = VECTOR('',#445,1.);
#445 = DIRECTION('',(-0.,-1.,-2.22044604925E-16));
#446 = ORIENTED_EDGE('',*,*,#447,.T.);
#447 = EDGE_CURVE('',#440,#448,#450,.T.);
#448 = VERTEX_POINT('',#449);
#449 = CARTESIAN_POINT('',(8.32,-57.9,-21.75));
#450 = LINE('',#451,#452);
#451 = CARTESIAN_POINT('',(-10.875,-57.9,-21.75));
#452 = VECTOR('',#453,1.);
#453 = DIRECTION('',(1.,0.,0.));
#454 = ORIENTED_EDGE('',*,*,#455,.F.);
#455 = EDGE_CURVE('',#456,#448,#458,.T.);
#456 = VERTEX_POINT('',#457);
#457 = CARTESIAN_POINT('',(8.32,-32.5,-21.75));
#458 = LINE('',#459,#460);
#459 = CARTESIAN_POINT('',(8.32,-32.5,-21.75));
#460 = VECTOR('',#461,1.);
#461 = DIRECTION('',(-0.,-1.,-2.22044604925E-16));
#462 = ORIENTED_EDGE('',*,*,#463,.T.);
#463 = EDGE_CURVE('',#456,#464,#466,.T.);
#464 = VERTEX_POINT('',#465);
#465 = CARTESIAN_POINT('',(9.32,-32.5,-21.75));
#466 = LINE('',#467,#468);
#467 = CARTESIAN_POINT('',(8.32,-32.5,-21.75));
#468 = VECTOR('',#469,1.);
#469 = DIRECTION('',(1.,-0.,0.));
#470 = ORIENTED_EDGE('',*,*,#471,.T.);
#471 = EDGE_CURVE('',#464,#472,#474,.T.);
#472 = VERTEX_POINT('',#473);
#473 = CARTESIAN_POINT('',(9.32,-57.9,-21.75));
#474 = LINE('',#475,#476);
#475 = CARTESIAN_POINT('',(9.32,-32.5,-21.75));
#476 = VECTOR('',#477,1.);
#477 = DIRECTION('',(-0.,-1.,-2.22044604925E-16));
#478 = ORIENTED_EDGE('',*,*,#479,.T.);
#479 = EDGE_CURVE('',#472,#480,#482,.T.);
#480 = VERTEX_POINT('',#481);
#481 = CARTESIAN_POINT('',(21.75,-57.9,-21.75));
#482 = LINE('',#483,#484);
#483 = CARTESIAN_POINT('',(-10.875,-57.9,-21.75));
#484 = VECTOR('',#485,1.);
#485 = DIRECTION('',(1.,0.,0.));
#486 = ORIENTED_EDGE('',*,*,#487,.F.);
#487 = EDGE_CURVE('',#148,#480,#488,.T.);
#488 = LINE('',#489,#490);
#489 = CARTESIAN_POINT('',(21.75,-4.5,-21.75));
#490 = VECTOR('',#491,1.);
#491 = DIRECTION('',(0.,-1.,2.22044604925E-16));
#492 = PLANE('',#493);
#493 = AXIS2_PLACEMENT_3D('',#494,#495,#496);
#494 = CARTESIAN_POINT('',(-21.75,-4.5,-21.75));
#495 = DIRECTION('',(0.,2.22044604925E-16,1.));
#496 = DIRECTION('',(1.,0.,0.));
#497 = ADVANCED_FACE('',(#498),#516,.T.);
#498 = FACE_BOUND('',#499,.T.);
#499 = EDGE_LOOP('',(#500,#501,#509,#515));
#500 = ORIENTED_EDGE('',*,*,#171,.F.);
#501 = ORIENTED_EDGE('',*,*,#502,.T.);
#502 = EDGE_CURVE('',#164,#503,#505,.T.);
#503 = VERTEX_POINT('',#504);
#504 = CARTESIAN_POINT('',(-21.75,-57.9,21.75));
#505 = LINE('',#506,#507);
#506 = CARTESIAN_POINT('',(-21.75,-4.5,21.75));
#507 = VECTOR('',#508,1.);
#508 = DIRECTION('',(0.,-1.,2.22044604925E-16));
#509 = ORIENTED_EDGE('',*,*,#510,.T.);
#510 = EDGE_CURVE('',#503,#344,#511,.T.);
#511 = LINE('',#512,#513);
#512 = CARTESIAN_POINT('',(-21.75,-57.9,10.875));
#513 = VECTOR('',#514,1.);
#514 = DIRECTION('',(0.,-2.22044604925E-16,-1.));
#515 = ORIENTED_EDGE('',*,*,#343,.F.);
#516 = PLANE('',#517);
#517 = AXIS2_PLACEMENT_3D('',#518,#519,#520);
#518 = CARTESIAN_POINT('',(-21.75,-4.5,21.75));
#519 = DIRECTION('',(1.,0.,0.));
#520 = DIRECTION('',(0.,-2.22044604925E-16,-1.));
#521 = ADVANCED_FACE('',(#522),#540,.T.);
#522 = FACE_BOUND('',#523,.T.);
#523 = EDGE_LOOP('',(#524,#525,#526,#534));
#524 = ORIENTED_EDGE('',*,*,#155,.F.);
#525 = ORIENTED_EDGE('',*,*,#487,.T.);
#526 = ORIENTED_EDGE('',*,*,#527,.T.);
#527 = EDGE_CURVE('',#480,#528,#530,.T.);
#528 = VERTEX_POINT('',#529);
#529 = CARTESIAN_POINT('',(21.75,-57.9,21.75));
#530 = LINE('',#531,#532);
#531 = CARTESIAN_POINT('',(21.75,-57.9,-10.875));
#532 = VECTOR('',#533,1.);
#533 = DIRECTION('',(0.,2.22044604925E-16,1.));
#534 = ORIENTED_EDGE('',*,*,#535,.F.);
#535 = EDGE_CURVE('',#156,#528,#536,.T.);
#536 = LINE('',#537,#538);
#537 = CARTESIAN_POINT('',(21.75,-4.5,21.75));
#538 = VECTOR('',#539,1.);
#539 = DIRECTION('',(0.,-1.,2.22044604925E-16));
#540 = PLANE('',#541);
#541 = AXIS2_PLACEMENT_3D('',#542,#543,#544);
#542 = CARTESIAN_POINT('',(21.75,-4.5,-21.75));
#543 = DIRECTION('',(-1.,0.,0.));
#544 = DIRECTION('',(0.,2.22044604925E-16,1.));
#545 = ADVANCED_FACE('',(#546),#685,.T.);
#546 = FACE_BOUND('',#547,.T.);
#547 = EDGE_LOOP('',(#548,#549,#550,#558,#566,#574,#582,#590,#598,#606,
    #614,#622,#630,#638,#646,#654,#662,#670,#678,#684));
#548 = ORIENTED_EDGE('',*,*,#163,.F.);
#549 = ORIENTED_EDGE('',*,*,#535,.T.);
#550 = ORIENTED_EDGE('',*,*,#551,.T.);
#551 = EDGE_CURVE('',#528,#552,#554,.T.);
#552 = VERTEX_POINT('',#553);
#553 = CARTESIAN_POINT('',(9.32,-57.9,21.75));
#554 = LINE('',#555,#556);
#555 = CARTESIAN_POINT('',(10.875,-57.9,21.75));
#556 = VECTOR('',#557,1.);
#557 = DIRECTION('',(-1.,0.,0.));
#558 = ORIENTED_EDGE('',*,*,#559,.F.);
#559 = EDGE_CURVE('',#560,#552,#562,.T.);
#560 = VERTEX_POINT('',#561);
#561 = CARTESIAN_POINT('',(9.32,-32.5,21.75));
#562 = LINE('',#563,#564);
#563 = CARTESIAN_POINT('',(9.32,-32.5,21.75));
#564 = VECTOR('',#565,1.);
#565 = DIRECTION('',(0.,-1.,2.22044604925E-16));
#566 = ORIENTED_EDGE('',*,*,#567,.F.);
#567 = EDGE_CURVE('',#568,#560,#570,.T.);
#568 = VERTEX_POINT('',#569);
#569 = CARTESIAN_POINT('',(8.32,-32.5,21.75));
#570 = LINE('',#571,#572);
#571 = CARTESIAN_POINT('',(8.32,-32.5,21.75));
#572 = VECTOR('',#573,1.);
#573 = DIRECTION('',(1.,0.,0.));
#574 = ORIENTED_EDGE('',*,*,#575,.T.);
#575 = EDGE_CURVE('',#568,#576,#578,.T.);
#576 = VERTEX_POINT('',#577);
#577 = CARTESIAN_POINT('',(8.32,-57.9,21.75));
#578 = LINE('',#579,#580);
#579 = CARTESIAN_POINT('',(8.32,-32.5,21.75));
#580 = VECTOR('',#581,1.);
#581 = DIRECTION('',(0.,-1.,2.22044604925E-16));
#582 = ORIENTED_EDGE('',*,*,#583,.T.);
#583 = EDGE_CURVE('',#576,#584,#586,.T.);
#584 = VERTEX_POINT('',#585);
#585 = CARTESIAN_POINT('',(6.68,-57.9,21.75));
#586 = LINE('',#587,#588);
#587 = CARTESIAN_POINT('',(10.875,-57.9,21.75));
#588 = VECTOR('',#589,1.);
#589 = DIRECTION('',(-1.,0.,0.));
#590 = ORIENTED_EDGE('',*,*,#591,.F.);
#591 = EDGE_CURVE('',#592,#584,#594,.T.);
#592 = VERTEX_POINT('',#593);
#593 = CARTESIAN_POINT('',(6.68,-32.5,21.75));
#594 = LINE('',#595,#596);
#595 = CARTESIAN_POINT('',(6.68,-32.5,21.75));
#596 = VECTOR('',#597,1.);
#597 = DIRECTION('',(0.,-1.,2.22044604925E-16));
#598 = ORIENTED_EDGE('',*,*,#599,.F.);
#599 = EDGE_CURVE('',#600,#592,#602,.T.);
#600 = VERTEX_POINT('',#601);
#601 = CARTESIAN_POINT('',(5.68,-32.5,21.75));
#602 = LINE('',#603,#604);
#603 = CARTESIAN_POINT('',(5.68,-32.5,21.75));
#604 = VECTOR('',#605,1.);
#605 = DIRECTION('',(1.,0.,0.));
#606 = ORIENTED_EDGE('',*,*,#607,.T.);
#607 = EDGE_CURVE('',#600,#608,#610,.T.);
#608 = VERTEX_POINT('',#609);
#609 = CARTESIAN_POINT('',(5.68,-57.9,21.75));
#610 = LINE('',#611,#612);
#611 = CARTESIAN_POINT('',(5.68,-32.5,21.75));
#612 = VECTOR('',#613,1.);
#613 = DIRECTION('',(0.,-1.,2.22044604925E-16));
#614 = ORIENTED_EDGE('',*,*,#615,.T.);
#615 = EDGE_CURVE('',#608,#616,#618,.T.);
#616 = VERTEX_POINT('',#617);
#617 = CARTESIAN_POINT('',(-4.68,-57.9,21.75));
#618 = LINE('',#619,#620);
#619 = CARTESIAN_POINT('',(10.875,-57.9,21.75));
#620 = VECTOR('',#621,1.);
#621 = DIRECTION('',(-1.,0.,0.));
#622 = ORIENTED_EDGE('',*,*,#623,.F.);
#623 = EDGE_CURVE('',#624,#616,#626,.T.);
#624 = VERTEX_POINT('',#625);
#625 = CARTESIAN_POINT('',(-4.68,-32.5,21.75));
#626 = LINE('',#627,#628);
#627 = CARTESIAN_POINT('',(-4.68,-32.5,21.75));
#628 = VECTOR('',#629,1.);
#629 = DIRECTION('',(0.,-1.,2.22044604925E-16));
#630 = ORIENTED_EDGE('',*,*,#631,.F.);
#631 = EDGE_CURVE('',#632,#624,#634,.T.);
#632 = VERTEX_POINT('',#633);
#633 = CARTESIAN_POINT('',(-5.68,-32.5,21.75));
#634 = LINE('',#635,#636);
#635 = CARTESIAN_POINT('',(-5.68,-32.5,21.75));
#636 = VECTOR('',#637,1.);
#637 = DIRECTION('',(1.,0.,0.));
#638 = ORIENTED_EDGE('',*,*,#639,.T.);
#639 = EDGE_CURVE('',#632,#640,#642,.T.);
#640 = VERTEX_POINT('',#641);
#641 = CARTESIAN_POINT('',(-5.68,-57.9,21.75));
#642 = LINE('',#643,#644);
#643 = CARTESIAN_POINT('',(-5.68,-32.5,21.75));
#644 = VECTOR('',#645,1.);
#645 = DIRECTION('',(0.,-1.,2.22044604925E-16));
#646 = ORIENTED_EDGE('',*,*,#647,.T.);
#647 = EDGE_CURVE('',#640,#648,#650,.T.);
#648 = VERTEX_POINT('',#649);
#649 = CARTESIAN_POINT('',(-7.32,-57.9,21.75));
#650 = LINE('',#651,#652);
#651 = CARTESIAN_POINT('',(10.875,-57.9,21.75));
#652 = VECTOR('',#653,1.);
#653 = DIRECTION('',(-1.,0.,0.));
#654 = ORIENTED_EDGE('',*,*,#655,.F.);
#655 = EDGE_CURVE('',#656,#648,#658,.T.);
#656 = VERTEX_POINT('',#657);
#657 = CARTESIAN_POINT('',(-7.32,-32.5,21.75));
#658 = LINE('',#659,#660);
#659 = CARTESIAN_POINT('',(-7.32,-32.5,21.75));
#660 = VECTOR('',#661,1.);
#661 = DIRECTION('',(0.,-1.,2.22044604925E-16));
#662 = ORIENTED_EDGE('',*,*,#663,.F.);
#663 = EDGE_CURVE('',#664,#656,#666,.T.);
#664 = VERTEX_POINT('',#665);
#665 = CARTESIAN_POINT('',(-8.32,-32.5,21.75));
#666 = LINE('',#667,#668);
#667 = CARTESIAN_POINT('',(-8.32,-32.5,21.75));
#668 = VECTOR('',#669,1.);
#669 = DIRECTION('',(1.,0.,0.));
#670 = ORIENTED_EDGE('',*,*,#671,.T.);
#671 = EDGE_CURVE('',#664,#672,#674,.T.);
#672 = VERTEX_POINT('',#673);
#673 = CARTESIAN_POINT('',(-8.32,-57.9,21.75));
#674 = LINE('',#675,#676);
#675 = CARTESIAN_POINT('',(-8.32,-32.5,21.75));
#676 = VECTOR('',#677,1.);
#677 = DIRECTION('',(0.,-1.,2.22044604925E-16));
#678 = ORIENTED_EDGE('',*,*,#679,.T.);
#679 = EDGE_CURVE('',#672,#503,#680,.T.);
#680 = LINE('',#681,#682);
#681 = CARTESIAN_POINT('',(10.875,-57.9,21.75));
#682 = VECTOR('',#683,1.);
#683 = DIRECTION('',(-1.,0.,0.));
#684 = ORIENTED_EDGE('',*,*,#502,.F.);
#685 = PLANE('',#686);
#686 = AXIS2_PLACEMENT_3D('',#687,#688,#689);
#687 = CARTESIAN_POINT('',(21.75,-4.5,21.75));
#688 = DIRECTION('',(-0.,-2.22044604925E-16,-1.));
#689 = DIRECTION('',(-1.,0.,0.));
#690 = ADVANCED_FACE('',(#691),#702,.F.);
#691 = FACE_BOUND('',#692,.F.);
#692 = EDGE_LOOP('',(#693,#694,#700,#701));
#693 = ORIENTED_EDGE('',*,*,#179,.F.);
#694 = ORIENTED_EDGE('',*,*,#695,.T.);
#695 = EDGE_CURVE('',#180,#286,#696,.T.);
#696 = LINE('',#697,#698);
#697 = CARTESIAN_POINT('',(-27.05,-4.5,25.5));
#698 = VECTOR('',#699,1.);
#699 = DIRECTION('',(0.,-1.,2.22044604925E-16));
#700 = ORIENTED_EDGE('',*,*,#285,.T.);
#701 = ORIENTED_EDGE('',*,*,#695,.F.);
#702 = CYLINDRICAL_SURFACE('',#703,1.55);
#703 = AXIS2_PLACEMENT_3D('',#704,#705,#706);
#704 = CARTESIAN_POINT('',(-25.5,-4.5,25.5));
#705 = DIRECTION('',(0.,1.,-2.22044604925E-16));
#706 = DIRECTION('',(-1.,0.,0.));
#707 = ADVANCED_FACE('',(#708),#719,.F.);
#708 = FACE_BOUND('',#709,.F.);
#709 = EDGE_LOOP('',(#710,#711,#717,#718));
#710 = ORIENTED_EDGE('',*,*,#190,.F.);
#711 = ORIENTED_EDGE('',*,*,#712,.T.);
#712 = EDGE_CURVE('',#191,#241,#713,.T.);
#713 = LINE('',#714,#715);
#714 = CARTESIAN_POINT('',(23.95,-4.5,-25.5));
#715 = VECTOR('',#716,1.);
#716 = DIRECTION('',(0.,-1.,2.22044604925E-16));
#717 = ORIENTED_EDGE('',*,*,#240,.T.);
#718 = ORIENTED_EDGE('',*,*,#712,.F.);
#719 = CYLINDRICAL_SURFACE('',#720,1.55);
#720 = AXIS2_PLACEMENT_3D('',#721,#722,#723);
#721 = CARTESIAN_POINT('',(25.5,-4.5,-25.5));
#722 = DIRECTION('',(0.,1.,-2.22044604925E-16));
#723 = DIRECTION('',(-1.,0.,0.));
#724 = ADVANCED_FACE('',(#725),#736,.F.);
#725 = FACE_BOUND('',#726,.F.);
#726 = EDGE_LOOP('',(#727,#728,#734,#735));
#727 = ORIENTED_EDGE('',*,*,#201,.F.);
#728 = ORIENTED_EDGE('',*,*,#729,.T.);
#729 = EDGE_CURVE('',#202,#297,#730,.T.);
#730 = LINE('',#731,#732);
#731 = CARTESIAN_POINT('',(23.95,-4.5,25.5));
#732 = VECTOR('',#733,1.);
#733 = DIRECTION('',(0.,-1.,2.22044604925E-16));
#734 = ORIENTED_EDGE('',*,*,#296,.T.);
#735 = ORIENTED_EDGE('',*,*,#729,.F.);
#736 = CYLINDRICAL_SURFACE('',#737,1.55);
#737 = AXIS2_PLACEMENT_3D('',#738,#739,#740);
#738 = CARTESIAN_POINT('',(25.5,-4.5,25.5));
#739 = DIRECTION('',(0.,1.,-2.22044604925E-16));
#740 = DIRECTION('',(-1.,0.,0.));
#741 = ADVANCED_FACE('',(#742),#767,.T.);
#742 = FACE_BOUND('',#743,.T.);
#743 = EDGE_LOOP('',(#744,#752,#753,#761));
#744 = ORIENTED_EDGE('',*,*,#745,.F.);
#745 = EDGE_CURVE('',#252,#746,#748,.T.);
#746 = VERTEX_POINT('',#747);
#747 = CARTESIAN_POINT('',(-23.,-57.9,23.));
#748 = LINE('',#749,#750);
#749 = CARTESIAN_POINT('',(-23.,-89.9,23.));
#750 = VECTOR('',#751,1.);
#751 = DIRECTION('',(0.,-1.,2.22044604925E-16));
#752 = ORIENTED_EDGE('',*,*,#251,.T.);
#753 = ORIENTED_EDGE('',*,*,#754,.T.);
#754 = EDGE_CURVE('',#254,#755,#757,.T.);
#755 = VERTEX_POINT('',#756);
#756 = CARTESIAN_POINT('',(-23.,-57.9,-23.));
#757 = LINE('',#758,#759);
#758 = CARTESIAN_POINT('',(-23.,-4.5,-23.));
#759 = VECTOR('',#760,1.);
#760 = DIRECTION('',(0.,-1.,2.22044604925E-16));
#761 = ORIENTED_EDGE('',*,*,#762,.T.);
#762 = EDGE_CURVE('',#755,#746,#763,.T.);
#763 = LINE('',#764,#765);
#764 = CARTESIAN_POINT('',(-23.,-57.9,1.144730422828E-14));
#765 = VECTOR('',#766,1.);
#766 = DIRECTION('',(0.,2.22044604925E-16,1.));
#767 = PLANE('',#768);
#768 = AXIS2_PLACEMENT_3D('',#769,#770,#771);
#769 = CARTESIAN_POINT('',(-23.,-48.95,9.050127339477E-15));
#770 = DIRECTION('',(-1.,-0.,-0.));
#771 = DIRECTION('',(0.,0.,-1.));
#772 = ADVANCED_FACE('',(#773),#791,.T.);
#773 = FACE_BOUND('',#774,.T.);
#774 = EDGE_LOOP('',(#775,#783,#784,#785));
#775 = ORIENTED_EDGE('',*,*,#776,.F.);
#776 = EDGE_CURVE('',#262,#777,#779,.T.);
#777 = VERTEX_POINT('',#778);
#778 = CARTESIAN_POINT('',(23.,-57.9,23.));
#779 = LINE('',#780,#781);
#780 = CARTESIAN_POINT('',(23.,-89.9,23.));
#781 = VECTOR('',#782,1.);
#782 = DIRECTION('',(0.,-1.,2.22044604925E-16));
#783 = ORIENTED_EDGE('',*,*,#261,.T.);
#784 = ORIENTED_EDGE('',*,*,#745,.T.);
#785 = ORIENTED_EDGE('',*,*,#786,.T.);
#786 = EDGE_CURVE('',#746,#777,#787,.T.);
#787 = LINE('',#788,#789);
#788 = CARTESIAN_POINT('',(0.,-57.9,23.));
#789 = VECTOR('',#790,1.);
#790 = DIRECTION('',(1.,0.,0.));
#791 = PLANE('',#792);
#792 = AXIS2_PLACEMENT_3D('',#793,#794,#795);
#793 = CARTESIAN_POINT('',(0.,-48.95,23.));
#794 = DIRECTION('',(0.,0.,1.));
#795 = DIRECTION('',(1.,0.,0.));
#796 = ADVANCED_FACE('',(#797),#815,.T.);
#797 = FACE_BOUND('',#798,.T.);
#798 = EDGE_LOOP('',(#799,#800,#801,#809));
#799 = ORIENTED_EDGE('',*,*,#754,.F.);
#800 = ORIENTED_EDGE('',*,*,#277,.T.);
#801 = ORIENTED_EDGE('',*,*,#802,.T.);
#802 = EDGE_CURVE('',#270,#803,#805,.T.);
#803 = VERTEX_POINT('',#804);
#804 = CARTESIAN_POINT('',(23.,-57.9,-23.));
#805 = LINE('',#806,#807);
#806 = CARTESIAN_POINT('',(23.,-4.5,-23.));
#807 = VECTOR('',#808,1.);
#808 = DIRECTION('',(0.,-1.,2.22044604925E-16));
#809 = ORIENTED_EDGE('',*,*,#810,.T.);
#810 = EDGE_CURVE('',#803,#755,#811,.T.);
#811 = LINE('',#812,#813);
#812 = CARTESIAN_POINT('',(0.,-57.9,-23.));
#813 = VECTOR('',#814,1.);
#814 = DIRECTION('',(-1.,0.,0.));
#815 = PLANE('',#816);
#816 = AXIS2_PLACEMENT_3D('',#817,#818,#819);
#817 = CARTESIAN_POINT('',(0.,-48.95,-23.));
#818 = DIRECTION('',(-0.,-0.,-1.));
#819 = DIRECTION('',(-1.,0.,0.));
#820 = ADVANCED_FACE('',(#821),#832,.T.);
#821 = FACE_BOUND('',#822,.T.);
#822 = EDGE_LOOP('',(#823,#824,#825,#826));
#823 = ORIENTED_EDGE('',*,*,#802,.F.);
#824 = ORIENTED_EDGE('',*,*,#269,.T.);
#825 = ORIENTED_EDGE('',*,*,#776,.T.);
#826 = ORIENTED_EDGE('',*,*,#827,.T.);
#827 = EDGE_CURVE('',#777,#803,#828,.T.);
#828 = LINE('',#829,#830);
#829 = CARTESIAN_POINT('',(23.,-57.9,1.123182500591E-14));
#830 = VECTOR('',#831,1.);
#831 = DIRECTION('',(0.,-2.22044604925E-16,-1.));
#832 = PLANE('',#833);
#833 = AXIS2_PLACEMENT_3D('',#834,#835,#836);
#834 = CARTESIAN_POINT('',(23.,-48.95,8.61916889474E-15));
#835 = DIRECTION('',(1.,0.,0.));
#836 = DIRECTION('',(0.,0.,1.));
#837 = ADVANCED_FACE('',(#838,#844),#1034,.T.);
#838 = FACE_BOUND('',#839,.T.);
#839 = EDGE_LOOP('',(#840,#841,#842,#843));
#840 = ORIENTED_EDGE('',*,*,#762,.F.);
#841 = ORIENTED_EDGE('',*,*,#810,.F.);
#842 = ORIENTED_EDGE('',*,*,#827,.F.);
#843 = ORIENTED_EDGE('',*,*,#786,.F.);
#844 = FACE_BOUND('',#845,.T.);
#845 = EDGE_LOOP('',(#846,#847,#848,#849,#857,#865,#871,#872,#880,#888,
    #894,#895,#903,#911,#917,#918,#926,#934,#940,#941,#942,#943,#951,
    #959,#965,#966,#974,#982,#988,#989,#997,#1005,#1011,#1012,#1020,
    #1028));
#846 = ORIENTED_EDGE('',*,*,#351,.F.);
#847 = ORIENTED_EDGE('',*,*,#510,.F.);
#848 = ORIENTED_EDGE('',*,*,#679,.F.);
#849 = ORIENTED_EDGE('',*,*,#850,.F.);
#850 = EDGE_CURVE('',#851,#672,#853,.T.);
#851 = VERTEX_POINT('',#852);
#852 = CARTESIAN_POINT('',(-8.32,-57.9,20.55));
#853 = LINE('',#854,#855);
#854 = CARTESIAN_POINT('',(-8.32,-57.9,10.275));
#855 = VECTOR('',#856,1.);
#856 = DIRECTION('',(0.,2.22044604925E-16,1.));
#857 = ORIENTED_EDGE('',*,*,#858,.F.);
#858 = EDGE_CURVE('',#859,#851,#861,.T.);
#859 = VERTEX_POINT('',#860);
#860 = CARTESIAN_POINT('',(-7.32,-57.9,20.55));
#861 = LINE('',#862,#863);
#862 = CARTESIAN_POINT('',(-3.66,-57.9,20.55));
#863 = VECTOR('',#864,1.);
#864 = DIRECTION('',(-1.,0.,0.));
#865 = ORIENTED_EDGE('',*,*,#866,.F.);
#866 = EDGE_CURVE('',#648,#859,#867,.T.);
#867 = LINE('',#868,#869);
#868 = CARTESIAN_POINT('',(-7.32,-57.9,10.875));
#869 = VECTOR('',#870,1.);
#870 = DIRECTION('',(0.,-2.22044604925E-16,-1.));
#871 = ORIENTED_EDGE('',*,*,#647,.F.);
#872 = ORIENTED_EDGE('',*,*,#873,.F.);
#873 = EDGE_CURVE('',#874,#640,#876,.T.);
#874 = VERTEX_POINT('',#875);
#875 = CARTESIAN_POINT('',(-5.68,-57.9,20.55));
#876 = LINE('',#877,#878);
#877 = CARTESIAN_POINT('',(-5.68,-57.9,10.275));
#878 = VECTOR('',#879,1.);
#879 = DIRECTION('',(0.,2.22044604925E-16,1.));
#880 = ORIENTED_EDGE('',*,*,#881,.F.);
#881 = EDGE_CURVE('',#882,#874,#884,.T.);
#882 = VERTEX_POINT('',#883);
#883 = CARTESIAN_POINT('',(-4.68,-57.9,20.55));
#884 = LINE('',#885,#886);
#885 = CARTESIAN_POINT('',(-2.34,-57.9,20.55));
#886 = VECTOR('',#887,1.);
#887 = DIRECTION('',(-1.,0.,0.));
#888 = ORIENTED_EDGE('',*,*,#889,.F.);
#889 = EDGE_CURVE('',#616,#882,#890,.T.);
#890 = LINE('',#891,#892);
#891 = CARTESIAN_POINT('',(-4.68,-57.9,10.875));
#892 = VECTOR('',#893,1.);
#893 = DIRECTION('',(0.,-2.22044604925E-16,-1.));
#894 = ORIENTED_EDGE('',*,*,#615,.F.);
#895 = ORIENTED_EDGE('',*,*,#896,.F.);
#896 = EDGE_CURVE('',#897,#608,#899,.T.);
#897 = VERTEX_POINT('',#898);
#898 = CARTESIAN_POINT('',(5.68,-57.9,20.55));
#899 = LINE('',#900,#901);
#900 = CARTESIAN_POINT('',(5.68,-57.9,10.275));
#901 = VECTOR('',#902,1.);
#902 = DIRECTION('',(0.,2.22044604925E-16,1.));
#903 = ORIENTED_EDGE('',*,*,#904,.F.);
#904 = EDGE_CURVE('',#905,#897,#907,.T.);
#905 = VERTEX_POINT('',#906);
#906 = CARTESIAN_POINT('',(6.68,-57.9,20.55));
#907 = LINE('',#908,#909);
#908 = CARTESIAN_POINT('',(3.34,-57.9,20.55));
#909 = VECTOR('',#910,1.);
#910 = DIRECTION('',(-1.,0.,0.));
#911 = ORIENTED_EDGE('',*,*,#912,.F.);
#912 = EDGE_CURVE('',#584,#905,#913,.T.);
#913 = LINE('',#914,#915);
#914 = CARTESIAN_POINT('',(6.68,-57.9,10.875));
#915 = VECTOR('',#916,1.);
#916 = DIRECTION('',(0.,-2.22044604925E-16,-1.));
#917 = ORIENTED_EDGE('',*,*,#583,.F.);
#918 = ORIENTED_EDGE('',*,*,#919,.F.);
#919 = EDGE_CURVE('',#920,#576,#922,.T.);
#920 = VERTEX_POINT('',#921);
#921 = CARTESIAN_POINT('',(8.32,-57.9,20.55));
#922 = LINE('',#923,#924);
#923 = CARTESIAN_POINT('',(8.32,-57.9,10.275));
#924 = VECTOR('',#925,1.);
#925 = DIRECTION('',(0.,2.22044604925E-16,1.));
#926 = ORIENTED_EDGE('',*,*,#927,.F.);
#927 = EDGE_CURVE('',#928,#920,#930,.T.);
#928 = VERTEX_POINT('',#929);
#929 = CARTESIAN_POINT('',(9.32,-57.9,20.55));
#930 = LINE('',#931,#932);
#931 = CARTESIAN_POINT('',(4.66,-57.9,20.55));
#932 = VECTOR('',#933,1.);
#933 = DIRECTION('',(-1.,0.,0.));
#934 = ORIENTED_EDGE('',*,*,#935,.F.);
#935 = EDGE_CURVE('',#552,#928,#936,.T.);
#936 = LINE('',#937,#938);
#937 = CARTESIAN_POINT('',(9.32,-57.9,10.875));
#938 = VECTOR('',#939,1.);
#939 = DIRECTION('',(0.,-2.22044604925E-16,-1.));
#940 = ORIENTED_EDGE('',*,*,#551,.F.);
#941 = ORIENTED_EDGE('',*,*,#527,.F.);
#942 = ORIENTED_EDGE('',*,*,#479,.F.);
#943 = ORIENTED_EDGE('',*,*,#944,.T.);
#944 = EDGE_CURVE('',#472,#945,#947,.T.);
#945 = VERTEX_POINT('',#946);
#946 = CARTESIAN_POINT('',(9.32,-57.9,-20.55));
#947 = LINE('',#948,#949);
#948 = CARTESIAN_POINT('',(9.32,-57.9,-10.875));
#949 = VECTOR('',#950,1.);
#950 = DIRECTION('',(0.,2.22044604925E-16,1.));
#951 = ORIENTED_EDGE('',*,*,#952,.T.);
#952 = EDGE_CURVE('',#945,#953,#955,.T.);
#953 = VERTEX_POINT('',#954);
#954 = CARTESIAN_POINT('',(8.32,-57.9,-20.55));
#955 = LINE('',#956,#957);
#956 = CARTESIAN_POINT('',(4.66,-57.9,-20.55));
#957 = VECTOR('',#958,1.);
#958 = DIRECTION('',(-1.,0.,0.));
#959 = ORIENTED_EDGE('',*,*,#960,.T.);
#960 = EDGE_CURVE('',#953,#448,#961,.T.);
#961 = LINE('',#962,#963);
#962 = CARTESIAN_POINT('',(8.32,-57.9,-10.275));
#963 = VECTOR('',#964,1.);
#964 = DIRECTION('',(0.,-2.22044604925E-16,-1.));
#965 = ORIENTED_EDGE('',*,*,#447,.F.);
#966 = ORIENTED_EDGE('',*,*,#967,.T.);
#967 = EDGE_CURVE('',#440,#968,#970,.T.);
#968 = VERTEX_POINT('',#969);
#969 = CARTESIAN_POINT('',(6.68,-57.9,-20.55));
#970 = LINE('',#971,#972);
#971 = CARTESIAN_POINT('',(6.68,-57.9,-10.875));
#972 = VECTOR('',#973,1.);
#973 = DIRECTION('',(0.,2.22044604925E-16,1.));
#974 = ORIENTED_EDGE('',*,*,#975,.T.);
#975 = EDGE_CURVE('',#968,#976,#978,.T.);
#976 = VERTEX_POINT('',#977);
#977 = CARTESIAN_POINT('',(5.68,-57.9,-20.55));
#978 = LINE('',#979,#980);
#979 = CARTESIAN_POINT('',(3.34,-57.9,-20.55));
#980 = VECTOR('',#981,1.);
#981 = DIRECTION('',(-1.,0.,0.));
#982 = ORIENTED_EDGE('',*,*,#983,.T.);
#983 = EDGE_CURVE('',#976,#416,#984,.T.);
#984 = LINE('',#985,#986);
#985 = CARTESIAN_POINT('',(5.68,-57.9,-10.275));
#986 = VECTOR('',#987,1.);
#987 = DIRECTION('',(0.,-2.22044604925E-16,-1.));
#988 = ORIENTED_EDGE('',*,*,#415,.F.);
#989 = ORIENTED_EDGE('',*,*,#990,.T.);
#990 = EDGE_CURVE('',#408,#991,#993,.T.);
#991 = VERTEX_POINT('',#992);
#992 = CARTESIAN_POINT('',(-4.68,-57.9,-20.55));
#993 = LINE('',#994,#995);
#994 = CARTESIAN_POINT('',(-4.68,-57.9,-10.875));
#995 = VECTOR('',#996,1.);
#996 = DIRECTION('',(0.,2.22044604925E-16,1.));
#997 = ORIENTED_EDGE('',*,*,#998,.T.);
#998 = EDGE_CURVE('',#991,#999,#1001,.T.);
#999 = VERTEX_POINT('',#1000);
#1000 = CARTESIAN_POINT('',(-5.68,-57.9,-20.55));
#1001 = LINE('',#1002,#1003);
#1002 = CARTESIAN_POINT('',(-2.34,-57.9,-20.55));
#1003 = VECTOR('',#1004,1.);
#1004 = DIRECTION('',(-1.,0.,0.));
#1005 = ORIENTED_EDGE('',*,*,#1006,.T.);
#1006 = EDGE_CURVE('',#999,#384,#1007,.T.);
#1007 = LINE('',#1008,#1009);
#1008 = CARTESIAN_POINT('',(-5.68,-57.9,-10.275));
#1009 = VECTOR('',#1010,1.);
#1010 = DIRECTION('',(0.,-2.22044604925E-16,-1.));
#1011 = ORIENTED_EDGE('',*,*,#383,.F.);
#1012 = ORIENTED_EDGE('',*,*,#1013,.T.);
#1013 = EDGE_CURVE('',#376,#1014,#1016,.T.);
#1014 = VERTEX_POINT('',#1015);
#1015 = CARTESIAN_POINT('',(-7.32,-57.9,-20.55));
#1016 = LINE('',#1017,#1018);
#1017 = CARTESIAN_POINT('',(-7.32,-57.9,-10.875));
#1018 = VECTOR('',#1019,1.);
#1019 = DIRECTION('',(0.,2.22044604925E-16,1.));
#1020 = ORIENTED_EDGE('',*,*,#1021,.T.);
#1021 = EDGE_CURVE('',#1014,#1022,#1024,.T.);
#1022 = VERTEX_POINT('',#1023);
#1023 = CARTESIAN_POINT('',(-8.32,-57.9,-20.55));
#1024 = LINE('',#1025,#1026);
#1025 = CARTESIAN_POINT('',(-3.66,-57.9,-20.55));
#1026 = VECTOR('',#1027,1.);
#1027 = DIRECTION('',(-1.,0.,0.));
#1028 = ORIENTED_EDGE('',*,*,#1029,.T.);
#1029 = EDGE_CURVE('',#1022,#352,#1030,.T.);
#1030 = LINE('',#1031,#1032);
#1031 = CARTESIAN_POINT('',(-8.32,-57.9,-10.275));
#1032 = VECTOR('',#1033,1.);
#1033 = DIRECTION('',(0.,-2.22044604925E-16,-1.));
#1034 = PLANE('',#1035);
#1035 = AXIS2_PLACEMENT_3D('',#1036,#1037,#1038);
#1036 = CARTESIAN_POINT('',(0.,-57.9,1.1857181903E-14));
#1037 = DIRECTION('',(0.,-1.,2.22044604925E-16));
#1038 = DIRECTION('',(1.,0.,0.));
#1039 = ADVANCED_FACE('',(#1040),#1058,.T.);
#1040 = FACE_BOUND('',#1041,.F.);
#1041 = EDGE_LOOP('',(#1042,#1050,#1051,#1052));
#1042 = ORIENTED_EDGE('',*,*,#1043,.F.);
#1043 = EDGE_CURVE('',#464,#1044,#1046,.T.);
#1044 = VERTEX_POINT('',#1045);
#1045 = CARTESIAN_POINT('',(9.32,-32.5,-20.55));
#1046 = LINE('',#1047,#1048);
#1047 = CARTESIAN_POINT('',(9.32,-32.5,-21.75));
#1048 = VECTOR('',#1049,1.);
#1049 = DIRECTION('',(0.,-2.22044604925E-16,1.));
#1050 = ORIENTED_EDGE('',*,*,#471,.T.);
#1051 = ORIENTED_EDGE('',*,*,#944,.T.);
#1052 = ORIENTED_EDGE('',*,*,#1053,.F.);
#1053 = EDGE_CURVE('',#1044,#945,#1054,.T.);
#1054 = LINE('',#1055,#1056);
#1055 = CARTESIAN_POINT('',(9.32,-32.5,-20.55));
#1056 = VECTOR('',#1057,1.);
#1057 = DIRECTION('',(-0.,-1.,-2.22044604925E-16));
#1058 = PLANE('',#1059);
#1059 = AXIS2_PLACEMENT_3D('',#1060,#1061,#1062);
#1060 = CARTESIAN_POINT('',(9.32,-32.5,-21.75));
#1061 = DIRECTION('',(1.,0.,0.));
#1062 = DIRECTION('',(0.,2.22044604925E-16,-1.));
#1063 = ADVANCED_FACE('',(#1064),#1082,.T.);
#1064 = FACE_BOUND('',#1065,.F.);
#1065 = EDGE_LOOP('',(#1066,#1067,#1068,#1076));
#1066 = ORIENTED_EDGE('',*,*,#463,.T.);
#1067 = ORIENTED_EDGE('',*,*,#1043,.T.);
#1068 = ORIENTED_EDGE('',*,*,#1069,.T.);
#1069 = EDGE_CURVE('',#1044,#1070,#1072,.T.);
#1070 = VERTEX_POINT('',#1071);
#1071 = CARTESIAN_POINT('',(8.32,-32.5,-20.55));
#1072 = LINE('',#1073,#1074);
#1073 = CARTESIAN_POINT('',(9.32,-32.5,-20.55));
#1074 = VECTOR('',#1075,1.);
#1075 = DIRECTION('',(-1.,0.,0.));
#1076 = ORIENTED_EDGE('',*,*,#1077,.T.);
#1077 = EDGE_CURVE('',#1070,#456,#1078,.T.);
#1078 = LINE('',#1079,#1080);
#1079 = CARTESIAN_POINT('',(8.32,-32.5,-20.55));
#1080 = VECTOR('',#1081,1.);
#1081 = DIRECTION('',(0.,2.22044604925E-16,-1.));
#1082 = PLANE('',#1083);
#1083 = AXIS2_PLACEMENT_3D('',#1084,#1085,#1086);
#1084 = CARTESIAN_POINT('',(4.365079365079E-02,-32.5,-1.846428571429));
#1085 = DIRECTION('',(0.,1.,2.22044604925E-16));
#1086 = DIRECTION('',(1.,-0.,0.));
#1087 = ADVANCED_FACE('',(#1088),#1099,.T.);
#1088 = FACE_BOUND('',#1089,.F.);
#1089 = EDGE_LOOP('',(#1090,#1091,#1097,#1098));
#1090 = ORIENTED_EDGE('',*,*,#1077,.F.);
#1091 = ORIENTED_EDGE('',*,*,#1092,.T.);
#1092 = EDGE_CURVE('',#1070,#953,#1093,.T.);
#1093 = LINE('',#1094,#1095);
#1094 = CARTESIAN_POINT('',(8.32,-32.5,-20.55));
#1095 = VECTOR('',#1096,1.);
#1096 = DIRECTION('',(-0.,-1.,-2.22044604925E-16));
#1097 = ORIENTED_EDGE('',*,*,#960,.T.);
#1098 = ORIENTED_EDGE('',*,*,#455,.F.);
#1099 = PLANE('',#1100);
#1100 = AXIS2_PLACEMENT_3D('',#1101,#1102,#1103);
#1101 = CARTESIAN_POINT('',(8.32,-32.5,-20.55));
#1102 = DIRECTION('',(-1.,-0.,-0.));
#1103 = DIRECTION('',(0.,-2.22044604925E-16,1.));
#1104 = ADVANCED_FACE('',(#1105),#1123,.T.);
#1105 = FACE_BOUND('',#1106,.F.);
#1106 = EDGE_LOOP('',(#1107,#1115,#1116,#1117));
#1107 = ORIENTED_EDGE('',*,*,#1108,.F.);
#1108 = EDGE_CURVE('',#432,#1109,#1111,.T.);
#1109 = VERTEX_POINT('',#1110);
#1110 = CARTESIAN_POINT('',(6.68,-32.5,-20.55));
#1111 = LINE('',#1112,#1113);
#1112 = CARTESIAN_POINT('',(6.68,-32.5,-21.75));
#1113 = VECTOR('',#1114,1.);
#1114 = DIRECTION('',(0.,-2.22044604925E-16,1.));
#1115 = ORIENTED_EDGE('',*,*,#439,.T.);
#1116 = ORIENTED_EDGE('',*,*,#967,.T.);
#1117 = ORIENTED_EDGE('',*,*,#1118,.F.);
#1118 = EDGE_CURVE('',#1109,#968,#1119,.T.);
#1119 = LINE('',#1120,#1121);
#1120 = CARTESIAN_POINT('',(6.68,-32.5,-20.55));
#1121 = VECTOR('',#1122,1.);
#1122 = DIRECTION('',(-0.,-1.,-2.22044604925E-16));
#1123 = PLANE('',#1124);
#1124 = AXIS2_PLACEMENT_3D('',#1125,#1126,#1127);
#1125 = CARTESIAN_POINT('',(6.68,-32.5,-21.75));
#1126 = DIRECTION('',(1.,0.,0.));
#1127 = DIRECTION('',(0.,2.22044604925E-16,-1.));
#1128 = ADVANCED_FACE('',(#1129),#1147,.T.);
#1129 = FACE_BOUND('',#1130,.F.);
#1130 = EDGE_LOOP('',(#1131,#1132,#1133,#1141));
#1131 = ORIENTED_EDGE('',*,*,#431,.T.);
#1132 = ORIENTED_EDGE('',*,*,#1108,.T.);
#1133 = ORIENTED_EDGE('',*,*,#1134,.T.);
#1134 = EDGE_CURVE('',#1109,#1135,#1137,.T.);
#1135 = VERTEX_POINT('',#1136);
#1136 = CARTESIAN_POINT('',(5.68,-32.5,-20.55));
#1137 = LINE('',#1138,#1139);
#1138 = CARTESIAN_POINT('',(6.68,-32.5,-20.55));
#1139 = VECTOR('',#1140,1.);
#1140 = DIRECTION('',(-1.,0.,0.));
#1141 = ORIENTED_EDGE('',*,*,#1142,.T.);
#1142 = EDGE_CURVE('',#1135,#424,#1143,.T.);
#1143 = LINE('',#1144,#1145);
#1144 = CARTESIAN_POINT('',(5.68,-32.5,-20.55));
#1145 = VECTOR('',#1146,1.);
#1146 = DIRECTION('',(0.,2.22044604925E-16,-1.));
#1147 = PLANE('',#1148);
#1148 = AXIS2_PLACEMENT_3D('',#1149,#1150,#1151);
#1149 = CARTESIAN_POINT('',(4.365079365079E-02,-32.5,-1.846428571429));
#1150 = DIRECTION('',(0.,1.,2.22044604925E-16));
#1151 = DIRECTION('',(1.,-0.,0.));
#1152 = ADVANCED_FACE('',(#1153),#1164,.T.);
#1153 = FACE_BOUND('',#1154,.F.);
#1154 = EDGE_LOOP('',(#1155,#1156,#1162,#1163));
#1155 = ORIENTED_EDGE('',*,*,#1142,.F.);
#1156 = ORIENTED_EDGE('',*,*,#1157,.T.);
#1157 = EDGE_CURVE('',#1135,#976,#1158,.T.);
#1158 = LINE('',#1159,#1160);
#1159 = CARTESIAN_POINT('',(5.68,-32.5,-20.55));
#1160 = VECTOR('',#1161,1.);
#1161 = DIRECTION('',(-0.,-1.,-2.22044604925E-16));
#1162 = ORIENTED_EDGE('',*,*,#983,.T.);
#1163 = ORIENTED_EDGE('',*,*,#423,.F.);
#1164 = PLANE('',#1165);
#1165 = AXIS2_PLACEMENT_3D('',#1166,#1167,#1168);
#1166 = CARTESIAN_POINT('',(5.68,-32.5,-20.55));
#1167 = DIRECTION('',(-1.,-0.,-0.));
#1168 = DIRECTION('',(0.,-2.22044604925E-16,1.));
#1169 = ADVANCED_FACE('',(#1170),#1188,.T.);
#1170 = FACE_BOUND('',#1171,.F.);
#1171 = EDGE_LOOP('',(#1172,#1180,#1181,#1182));
#1172 = ORIENTED_EDGE('',*,*,#1173,.F.);
#1173 = EDGE_CURVE('',#400,#1174,#1176,.T.);
#1174 = VERTEX_POINT('',#1175);
#1175 = CARTESIAN_POINT('',(-4.68,-32.5,-20.55));
#1176 = LINE('',#1177,#1178);
#1177 = CARTESIAN_POINT('',(-4.68,-32.5,-21.75));
#1178 = VECTOR('',#1179,1.);
#1179 = DIRECTION('',(0.,-2.22044604925E-16,1.));
#1180 = ORIENTED_EDGE('',*,*,#407,.T.);
#1181 = ORIENTED_EDGE('',*,*,#990,.T.);
#1182 = ORIENTED_EDGE('',*,*,#1183,.F.);
#1183 = EDGE_CURVE('',#1174,#991,#1184,.T.);
#1184 = LINE('',#1185,#1186);
#1185 = CARTESIAN_POINT('',(-4.68,-32.5,-20.55));
#1186 = VECTOR('',#1187,1.);
#1187 = DIRECTION('',(-0.,-1.,-2.22044604925E-16));
#1188 = PLANE('',#1189);
#1189 = AXIS2_PLACEMENT_3D('',#1190,#1191,#1192);
#1190 = CARTESIAN_POINT('',(-4.68,-32.5,-21.75));
#1191 = DIRECTION('',(1.,0.,0.));
#1192 = DIRECTION('',(0.,2.22044604925E-16,-1.));
#1193 = ADVANCED_FACE('',(#1194),#1212,.T.);
#1194 = FACE_BOUND('',#1195,.F.);
#1195 = EDGE_LOOP('',(#1196,#1197,#1198,#1206));
#1196 = ORIENTED_EDGE('',*,*,#399,.T.);
#1197 = ORIENTED_EDGE('',*,*,#1173,.T.);
#1198 = ORIENTED_EDGE('',*,*,#1199,.T.);
#1199 = EDGE_CURVE('',#1174,#1200,#1202,.T.);
#1200 = VERTEX_POINT('',#1201);
#1201 = CARTESIAN_POINT('',(-5.68,-32.5,-20.55));
#1202 = LINE('',#1203,#1204);
#1203 = CARTESIAN_POINT('',(-4.68,-32.5,-20.55));
#1204 = VECTOR('',#1205,1.);
#1205 = DIRECTION('',(-1.,0.,0.));
#1206 = ORIENTED_EDGE('',*,*,#1207,.T.);
#1207 = EDGE_CURVE('',#1200,#392,#1208,.T.);
#1208 = LINE('',#1209,#1210);
#1209 = CARTESIAN_POINT('',(-5.68,-32.5,-20.55));
#1210 = VECTOR('',#1211,1.);
#1211 = DIRECTION('',(0.,2.22044604925E-16,-1.));
#1212 = PLANE('',#1213);
#1213 = AXIS2_PLACEMENT_3D('',#1214,#1215,#1216);
#1214 = CARTESIAN_POINT('',(4.365079365079E-02,-32.5,-1.846428571429));
#1215 = DIRECTION('',(0.,1.,2.22044604925E-16));
#1216 = DIRECTION('',(1.,-0.,0.));
#1217 = ADVANCED_FACE('',(#1218),#1229,.T.);
#1218 = FACE_BOUND('',#1219,.F.);
#1219 = EDGE_LOOP('',(#1220,#1221,#1227,#1228));
#1220 = ORIENTED_EDGE('',*,*,#1207,.F.);
#1221 = ORIENTED_EDGE('',*,*,#1222,.T.);
#1222 = EDGE_CURVE('',#1200,#999,#1223,.T.);
#1223 = LINE('',#1224,#1225);
#1224 = CARTESIAN_POINT('',(-5.68,-32.5,-20.55));
#1225 = VECTOR('',#1226,1.);
#1226 = DIRECTION('',(-0.,-1.,-2.22044604925E-16));
#1227 = ORIENTED_EDGE('',*,*,#1006,.T.);
#1228 = ORIENTED_EDGE('',*,*,#391,.F.);
#1229 = PLANE('',#1230);
#1230 = AXIS2_PLACEMENT_3D('',#1231,#1232,#1233);
#1231 = CARTESIAN_POINT('',(-5.68,-32.5,-20.55));
#1232 = DIRECTION('',(-1.,-0.,-0.));
#1233 = DIRECTION('',(0.,-2.22044604925E-16,1.));
#1234 = ADVANCED_FACE('',(#1235),#1253,.T.);
#1235 = FACE_BOUND('',#1236,.F.);
#1236 = EDGE_LOOP('',(#1237,#1245,#1246,#1247));
#1237 = ORIENTED_EDGE('',*,*,#1238,.F.);
#1238 = EDGE_CURVE('',#368,#1239,#1241,.T.);
#1239 = VERTEX_POINT('',#1240);
#1240 = CARTESIAN_POINT('',(-7.32,-32.5,-20.55));
#1241 = LINE('',#1242,#1243);
#1242 = CARTESIAN_POINT('',(-7.32,-32.5,-21.75));
#1243 = VECTOR('',#1244,1.);
#1244 = DIRECTION('',(0.,-2.22044604925E-16,1.));
#1245 = ORIENTED_EDGE('',*,*,#375,.T.);
#1246 = ORIENTED_EDGE('',*,*,#1013,.T.);
#1247 = ORIENTED_EDGE('',*,*,#1248,.F.);
#1248 = EDGE_CURVE('',#1239,#1014,#1249,.T.);
#1249 = LINE('',#1250,#1251);
#1250 = CARTESIAN_POINT('',(-7.32,-32.5,-20.55));
#1251 = VECTOR('',#1252,1.);
#1252 = DIRECTION('',(-0.,-1.,-2.22044604925E-16));
#1253 = PLANE('',#1254);
#1254 = AXIS2_PLACEMENT_3D('',#1255,#1256,#1257);
#1255 = CARTESIAN_POINT('',(-7.32,-32.5,-21.75));
#1256 = DIRECTION('',(1.,0.,0.));
#1257 = DIRECTION('',(0.,2.22044604925E-16,-1.));
#1258 = ADVANCED_FACE('',(#1259),#1277,.T.);
#1259 = FACE_BOUND('',#1260,.F.);
#1260 = EDGE_LOOP('',(#1261,#1262,#1263,#1271));
#1261 = ORIENTED_EDGE('',*,*,#367,.T.);
#1262 = ORIENTED_EDGE('',*,*,#1238,.T.);
#1263 = ORIENTED_EDGE('',*,*,#1264,.T.);
#1264 = EDGE_CURVE('',#1239,#1265,#1267,.T.);
#1265 = VERTEX_POINT('',#1266);
#1266 = CARTESIAN_POINT('',(-8.32,-32.5,-20.55));
#1267 = LINE('',#1268,#1269);
#1268 = CARTESIAN_POINT('',(-7.32,-32.5,-20.55));
#1269 = VECTOR('',#1270,1.);
#1270 = DIRECTION('',(-1.,0.,0.));
#1271 = ORIENTED_EDGE('',*,*,#1272,.T.);
#1272 = EDGE_CURVE('',#1265,#360,#1273,.T.);
#1273 = LINE('',#1274,#1275);
#1274 = CARTESIAN_POINT('',(-8.32,-32.5,-20.55));
#1275 = VECTOR('',#1276,1.);
#1276 = DIRECTION('',(0.,2.22044604925E-16,-1.));
#1277 = PLANE('',#1278);
#1278 = AXIS2_PLACEMENT_3D('',#1279,#1280,#1281);
#1279 = CARTESIAN_POINT('',(4.365079365079E-02,-32.5,-1.846428571429));
#1280 = DIRECTION('',(0.,1.,2.22044604925E-16));
#1281 = DIRECTION('',(1.,-0.,0.));
#1282 = ADVANCED_FACE('',(#1283),#1294,.T.);
#1283 = FACE_BOUND('',#1284,.F.);
#1284 = EDGE_LOOP('',(#1285,#1286,#1292,#1293));
#1285 = ORIENTED_EDGE('',*,*,#1272,.F.);
#1286 = ORIENTED_EDGE('',*,*,#1287,.T.);
#1287 = EDGE_CURVE('',#1265,#1022,#1288,.T.);
#1288 = LINE('',#1289,#1290);
#1289 = CARTESIAN_POINT('',(-8.32,-32.5,-20.55));
#1290 = VECTOR('',#1291,1.);
#1291 = DIRECTION('',(-0.,-1.,-2.22044604925E-16));
#1292 = ORIENTED_EDGE('',*,*,#1029,.T.);
#1293 = ORIENTED_EDGE('',*,*,#359,.F.);
#1294 = PLANE('',#1295);
#1295 = AXIS2_PLACEMENT_3D('',#1296,#1297,#1298);
#1296 = CARTESIAN_POINT('',(-8.32,-32.5,-20.55));
#1297 = DIRECTION('',(-1.,-0.,-0.));
#1298 = DIRECTION('',(0.,-2.22044604925E-16,1.));
#1299 = ADVANCED_FACE('',(#1300),#1318,.T.);
#1300 = FACE_BOUND('',#1301,.T.);
#1301 = EDGE_LOOP('',(#1302,#1310,#1316,#1317));
#1302 = ORIENTED_EDGE('',*,*,#1303,.F.);
#1303 = EDGE_CURVE('',#1304,#664,#1306,.T.);
#1304 = VERTEX_POINT('',#1305);
#1305 = CARTESIAN_POINT('',(-8.32,-32.5,20.55));
#1306 = LINE('',#1307,#1308);
#1307 = CARTESIAN_POINT('',(-8.32,-32.5,20.55));
#1308 = VECTOR('',#1309,1.);
#1309 = DIRECTION('',(0.,2.22044604925E-16,1.));
#1310 = ORIENTED_EDGE('',*,*,#1311,.T.);
#1311 = EDGE_CURVE('',#1304,#851,#1312,.T.);
#1312 = LINE('',#1313,#1314);
#1313 = CARTESIAN_POINT('',(-8.32,-32.5,20.55));
#1314 = VECTOR('',#1315,1.);
#1315 = DIRECTION('',(0.,-1.,2.22044604925E-16));
#1316 = ORIENTED_EDGE('',*,*,#850,.T.);
#1317 = ORIENTED_EDGE('',*,*,#671,.F.);
#1318 = PLANE('',#1319);
#1319 = AXIS2_PLACEMENT_3D('',#1320,#1321,#1322);
#1320 = CARTESIAN_POINT('',(-8.32,-32.5,20.55));
#1321 = DIRECTION('',(-1.,0.,0.));
#1322 = DIRECTION('',(0.,2.22044604925E-16,1.));
#1323 = ADVANCED_FACE('',(#1324),#1342,.T.);
#1324 = FACE_BOUND('',#1325,.T.);
#1325 = EDGE_LOOP('',(#1326,#1327,#1335,#1341));
#1326 = ORIENTED_EDGE('',*,*,#663,.T.);
#1327 = ORIENTED_EDGE('',*,*,#1328,.T.);
#1328 = EDGE_CURVE('',#656,#1329,#1331,.T.);
#1329 = VERTEX_POINT('',#1330);
#1330 = CARTESIAN_POINT('',(-7.32,-32.5,20.55));
#1331 = LINE('',#1332,#1333);
#1332 = CARTESIAN_POINT('',(-7.32,-32.5,21.75));
#1333 = VECTOR('',#1334,1.);
#1334 = DIRECTION('',(0.,-2.22044604925E-16,-1.));
#1335 = ORIENTED_EDGE('',*,*,#1336,.T.);
#1336 = EDGE_CURVE('',#1329,#1304,#1337,.T.);
#1337 = LINE('',#1338,#1339);
#1338 = CARTESIAN_POINT('',(-7.32,-32.5,20.55));
#1339 = VECTOR('',#1340,1.);
#1340 = DIRECTION('',(-1.,0.,0.));
#1341 = ORIENTED_EDGE('',*,*,#1303,.T.);
#1342 = PLANE('',#1343);
#1343 = AXIS2_PLACEMENT_3D('',#1344,#1345,#1346);
#1344 = CARTESIAN_POINT('',(4.365079365079E-02,-32.5,1.846428571429));
#1345 = DIRECTION('',(0.,1.,-2.22044604925E-16));
#1346 = DIRECTION('',(-1.,0.,0.));
#1347 = ADVANCED_FACE('',(#1348),#1359,.T.);
#1348 = FACE_BOUND('',#1349,.T.);
#1349 = EDGE_LOOP('',(#1350,#1351,#1352,#1353));
#1350 = ORIENTED_EDGE('',*,*,#1328,.F.);
#1351 = ORIENTED_EDGE('',*,*,#655,.T.);
#1352 = ORIENTED_EDGE('',*,*,#866,.T.);
#1353 = ORIENTED_EDGE('',*,*,#1354,.F.);
#1354 = EDGE_CURVE('',#1329,#859,#1355,.T.);
#1355 = LINE('',#1356,#1357);
#1356 = CARTESIAN_POINT('',(-7.32,-32.5,20.55));
#1357 = VECTOR('',#1358,1.);
#1358 = DIRECTION('',(0.,-1.,2.22044604925E-16));
#1359 = PLANE('',#1360);
#1360 = AXIS2_PLACEMENT_3D('',#1361,#1362,#1363);
#1361 = CARTESIAN_POINT('',(-7.32,-32.5,21.75));
#1362 = DIRECTION('',(1.,0.,0.));
#1363 = DIRECTION('',(0.,-2.22044604925E-16,-1.));
#1364 = ADVANCED_FACE('',(#1365),#1383,.T.);
#1365 = FACE_BOUND('',#1366,.T.);
#1366 = EDGE_LOOP('',(#1367,#1375,#1381,#1382));
#1367 = ORIENTED_EDGE('',*,*,#1368,.F.);
#1368 = EDGE_CURVE('',#1369,#632,#1371,.T.);
#1369 = VERTEX_POINT('',#1370);
#1370 = CARTESIAN_POINT('',(-5.68,-32.5,20.55));
#1371 = LINE('',#1372,#1373);
#1372 = CARTESIAN_POINT('',(-5.68,-32.5,20.55));
#1373 = VECTOR('',#1374,1.);
#1374 = DIRECTION('',(0.,2.22044604925E-16,1.));
#1375 = ORIENTED_EDGE('',*,*,#1376,.T.);
#1376 = EDGE_CURVE('',#1369,#874,#1377,.T.);
#1377 = LINE('',#1378,#1379);
#1378 = CARTESIAN_POINT('',(-5.68,-32.5,20.55));
#1379 = VECTOR('',#1380,1.);
#1380 = DIRECTION('',(0.,-1.,2.22044604925E-16));
#1381 = ORIENTED_EDGE('',*,*,#873,.T.);
#1382 = ORIENTED_EDGE('',*,*,#639,.F.);
#1383 = PLANE('',#1384);
#1384 = AXIS2_PLACEMENT_3D('',#1385,#1386,#1387);
#1385 = CARTESIAN_POINT('',(-5.68,-32.5,20.55));
#1386 = DIRECTION('',(-1.,0.,0.));
#1387 = DIRECTION('',(0.,2.22044604925E-16,1.));
#1388 = ADVANCED_FACE('',(#1389),#1407,.T.);
#1389 = FACE_BOUND('',#1390,.T.);
#1390 = EDGE_LOOP('',(#1391,#1392,#1400,#1406));
#1391 = ORIENTED_EDGE('',*,*,#631,.T.);
#1392 = ORIENTED_EDGE('',*,*,#1393,.T.);
#1393 = EDGE_CURVE('',#624,#1394,#1396,.T.);
#1394 = VERTEX_POINT('',#1395);
#1395 = CARTESIAN_POINT('',(-4.68,-32.5,20.55));
#1396 = LINE('',#1397,#1398);
#1397 = CARTESIAN_POINT('',(-4.68,-32.5,21.75));
#1398 = VECTOR('',#1399,1.);
#1399 = DIRECTION('',(0.,-2.22044604925E-16,-1.));
#1400 = ORIENTED_EDGE('',*,*,#1401,.T.);
#1401 = EDGE_CURVE('',#1394,#1369,#1402,.T.);
#1402 = LINE('',#1403,#1404);
#1403 = CARTESIAN_POINT('',(-4.68,-32.5,20.55));
#1404 = VECTOR('',#1405,1.);
#1405 = DIRECTION('',(-1.,0.,0.));
#1406 = ORIENTED_EDGE('',*,*,#1368,.T.);
#1407 = PLANE('',#1408);
#1408 = AXIS2_PLACEMENT_3D('',#1409,#1410,#1411);
#1409 = CARTESIAN_POINT('',(4.365079365079E-02,-32.5,1.846428571429));
#1410 = DIRECTION('',(0.,1.,-2.22044604925E-16));
#1411 = DIRECTION('',(-1.,0.,0.));
#1412 = ADVANCED_FACE('',(#1413),#1424,.T.);
#1413 = FACE_BOUND('',#1414,.T.);
#1414 = EDGE_LOOP('',(#1415,#1416,#1417,#1418));
#1415 = ORIENTED_EDGE('',*,*,#1393,.F.);
#1416 = ORIENTED_EDGE('',*,*,#623,.T.);
#1417 = ORIENTED_EDGE('',*,*,#889,.T.);
#1418 = ORIENTED_EDGE('',*,*,#1419,.F.);
#1419 = EDGE_CURVE('',#1394,#882,#1420,.T.);
#1420 = LINE('',#1421,#1422);
#1421 = CARTESIAN_POINT('',(-4.68,-32.5,20.55));
#1422 = VECTOR('',#1423,1.);
#1423 = DIRECTION('',(0.,-1.,2.22044604925E-16));
#1424 = PLANE('',#1425);
#1425 = AXIS2_PLACEMENT_3D('',#1426,#1427,#1428);
#1426 = CARTESIAN_POINT('',(-4.68,-32.5,21.75));
#1427 = DIRECTION('',(1.,0.,0.));
#1428 = DIRECTION('',(0.,-2.22044604925E-16,-1.));
#1429 = ADVANCED_FACE('',(#1430),#1448,.T.);
#1430 = FACE_BOUND('',#1431,.T.);
#1431 = EDGE_LOOP('',(#1432,#1440,#1446,#1447));
#1432 = ORIENTED_EDGE('',*,*,#1433,.F.);
#1433 = EDGE_CURVE('',#1434,#600,#1436,.T.);
#1434 = VERTEX_POINT('',#1435);
#1435 = CARTESIAN_POINT('',(5.68,-32.5,20.55));
#1436 = LINE('',#1437,#1438);
#1437 = CARTESIAN_POINT('',(5.68,-32.5,20.55));
#1438 = VECTOR('',#1439,1.);
#1439 = DIRECTION('',(0.,2.22044604925E-16,1.));
#1440 = ORIENTED_EDGE('',*,*,#1441,.T.);
#1441 = EDGE_CURVE('',#1434,#897,#1442,.T.);
#1442 = LINE('',#1443,#1444);
#1443 = CARTESIAN_POINT('',(5.68,-32.5,20.55));
#1444 = VECTOR('',#1445,1.);
#1445 = DIRECTION('',(0.,-1.,2.22044604925E-16));
#1446 = ORIENTED_EDGE('',*,*,#896,.T.);
#1447 = ORIENTED_EDGE('',*,*,#607,.F.);
#1448 = PLANE('',#1449);
#1449 = AXIS2_PLACEMENT_3D('',#1450,#1451,#1452);
#1450 = CARTESIAN_POINT('',(5.68,-32.5,20.55));
#1451 = DIRECTION('',(-1.,0.,0.));
#1452 = DIRECTION('',(0.,2.22044604925E-16,1.));
#1453 = ADVANCED_FACE('',(#1454),#1472,.T.);
#1454 = FACE_BOUND('',#1455,.T.);
#1455 = EDGE_LOOP('',(#1456,#1457,#1465,#1471));
#1456 = ORIENTED_EDGE('',*,*,#599,.T.);
#1457 = ORIENTED_EDGE('',*,*,#1458,.T.);
#1458 = EDGE_CURVE('',#592,#1459,#1461,.T.);
#1459 = VERTEX_POINT('',#1460);
#1460 = CARTESIAN_POINT('',(6.68,-32.5,20.55));
#1461 = LINE('',#1462,#1463);
#1462 = CARTESIAN_POINT('',(6.68,-32.5,21.75));
#1463 = VECTOR('',#1464,1.);
#1464 = DIRECTION('',(0.,-2.22044604925E-16,-1.));
#1465 = ORIENTED_EDGE('',*,*,#1466,.T.);
#1466 = EDGE_CURVE('',#1459,#1434,#1467,.T.);
#1467 = LINE('',#1468,#1469);
#1468 = CARTESIAN_POINT('',(6.68,-32.5,20.55));
#1469 = VECTOR('',#1470,1.);
#1470 = DIRECTION('',(-1.,0.,0.));
#1471 = ORIENTED_EDGE('',*,*,#1433,.T.);
#1472 = PLANE('',#1473);
#1473 = AXIS2_PLACEMENT_3D('',#1474,#1475,#1476);
#1474 = CARTESIAN_POINT('',(4.365079365079E-02,-32.5,1.846428571429));
#1475 = DIRECTION('',(0.,1.,-2.22044604925E-16));
#1476 = DIRECTION('',(-1.,0.,0.));
#1477 = ADVANCED_FACE('',(#1478),#1489,.T.);
#1478 = FACE_BOUND('',#1479,.T.);
#1479 = EDGE_LOOP('',(#1480,#1481,#1482,#1483));
#1480 = ORIENTED_EDGE('',*,*,#1458,.F.);
#1481 = ORIENTED_EDGE('',*,*,#591,.T.);
#1482 = ORIENTED_EDGE('',*,*,#912,.T.);
#1483 = ORIENTED_EDGE('',*,*,#1484,.F.);
#1484 = EDGE_CURVE('',#1459,#905,#1485,.T.);
#1485 = LINE('',#1486,#1487);
#1486 = CARTESIAN_POINT('',(6.68,-32.5,20.55));
#1487 = VECTOR('',#1488,1.);
#1488 = DIRECTION('',(0.,-1.,2.22044604925E-16));
#1489 = PLANE('',#1490);
#1490 = AXIS2_PLACEMENT_3D('',#1491,#1492,#1493);
#1491 = CARTESIAN_POINT('',(6.68,-32.5,21.75));
#1492 = DIRECTION('',(1.,0.,0.));
#1493 = DIRECTION('',(0.,-2.22044604925E-16,-1.));
#1494 = ADVANCED_FACE('',(#1495),#1513,.T.);
#1495 = FACE_BOUND('',#1496,.T.);
#1496 = EDGE_LOOP('',(#1497,#1505,#1511,#1512));
#1497 = ORIENTED_EDGE('',*,*,#1498,.F.);
#1498 = EDGE_CURVE('',#1499,#568,#1501,.T.);
#1499 = VERTEX_POINT('',#1500);
#1500 = CARTESIAN_POINT('',(8.32,-32.5,20.55));
#1501 = LINE('',#1502,#1503);
#1502 = CARTESIAN_POINT('',(8.32,-32.5,20.55));
#1503 = VECTOR('',#1504,1.);
#1504 = DIRECTION('',(0.,2.22044604925E-16,1.));
#1505 = ORIENTED_EDGE('',*,*,#1506,.T.);
#1506 = EDGE_CURVE('',#1499,#920,#1507,.T.);
#1507 = LINE('',#1508,#1509);
#1508 = CARTESIAN_POINT('',(8.32,-32.5,20.55));
#1509 = VECTOR('',#1510,1.);
#1510 = DIRECTION('',(0.,-1.,2.22044604925E-16));
#1511 = ORIENTED_EDGE('',*,*,#919,.T.);
#1512 = ORIENTED_EDGE('',*,*,#575,.F.);
#1513 = PLANE('',#1514);
#1514 = AXIS2_PLACEMENT_3D('',#1515,#1516,#1517);
#1515 = CARTESIAN_POINT('',(8.32,-32.5,20.55));
#1516 = DIRECTION('',(-1.,0.,0.));
#1517 = DIRECTION('',(0.,2.22044604925E-16,1.));
#1518 = ADVANCED_FACE('',(#1519),#1537,.T.);
#1519 = FACE_BOUND('',#1520,.T.);
#1520 = EDGE_LOOP('',(#1521,#1522,#1530,#1536));
#1521 = ORIENTED_EDGE('',*,*,#567,.T.);
#1522 = ORIENTED_EDGE('',*,*,#1523,.T.);
#1523 = EDGE_CURVE('',#560,#1524,#1526,.T.);
#1524 = VERTEX_POINT('',#1525);
#1525 = CARTESIAN_POINT('',(9.32,-32.5,20.55));
#1526 = LINE('',#1527,#1528);
#1527 = CARTESIAN_POINT('',(9.32,-32.5,21.75));
#1528 = VECTOR('',#1529,1.);
#1529 = DIRECTION('',(0.,-2.22044604925E-16,-1.));
#1530 = ORIENTED_EDGE('',*,*,#1531,.T.);
#1531 = EDGE_CURVE('',#1524,#1499,#1532,.T.);
#1532 = LINE('',#1533,#1534);
#1533 = CARTESIAN_POINT('',(9.32,-32.5,20.55));
#1534 = VECTOR('',#1535,1.);
#1535 = DIRECTION('',(-1.,0.,0.));
#1536 = ORIENTED_EDGE('',*,*,#1498,.T.);
#1537 = PLANE('',#1538);
#1538 = AXIS2_PLACEMENT_3D('',#1539,#1540,#1541);
#1539 = CARTESIAN_POINT('',(4.365079365079E-02,-32.5,1.846428571429));
#1540 = DIRECTION('',(0.,1.,-2.22044604925E-16));
#1541 = DIRECTION('',(-1.,0.,0.));
#1542 = ADVANCED_FACE('',(#1543),#1554,.T.);
#1543 = FACE_BOUND('',#1544,.T.);
#1544 = EDGE_LOOP('',(#1545,#1546,#1547,#1548));
#1545 = ORIENTED_EDGE('',*,*,#1523,.F.);
#1546 = ORIENTED_EDGE('',*,*,#559,.T.);
#1547 = ORIENTED_EDGE('',*,*,#935,.T.);
#1548 = ORIENTED_EDGE('',*,*,#1549,.F.);
#1549 = EDGE_CURVE('',#1524,#928,#1550,.T.);
#1550 = LINE('',#1551,#1552);
#1551 = CARTESIAN_POINT('',(9.32,-32.5,20.55));
#1552 = VECTOR('',#1553,1.);
#1553 = DIRECTION('',(0.,-1.,2.22044604925E-16));
#1554 = PLANE('',#1555);
#1555 = AXIS2_PLACEMENT_3D('',#1556,#1557,#1558);
#1556 = CARTESIAN_POINT('',(9.32,-32.5,21.75));
#1557 = DIRECTION('',(1.,0.,0.));
#1558 = DIRECTION('',(0.,-2.22044604925E-16,-1.));
#1559 = ADVANCED_FACE('',(#1560),#1566,.T.);
#1560 = FACE_BOUND('',#1561,.F.);
#1561 = EDGE_LOOP('',(#1562,#1563,#1564,#1565));
#1562 = ORIENTED_EDGE('',*,*,#1264,.F.);
#1563 = ORIENTED_EDGE('',*,*,#1248,.T.);
#1564 = ORIENTED_EDGE('',*,*,#1021,.T.);
#1565 = ORIENTED_EDGE('',*,*,#1287,.F.);
#1566 = PLANE('',#1567);
#1567 = AXIS2_PLACEMENT_3D('',#1568,#1569,#1570);
#1568 = CARTESIAN_POINT('',(-7.32,-32.5,-20.55));
#1569 = DIRECTION('',(0.,-2.22044604925E-16,1.));
#1570 = DIRECTION('',(1.,0.,0.));
#1571 = ADVANCED_FACE('',(#1572),#1578,.T.);
#1572 = FACE_BOUND('',#1573,.F.);
#1573 = EDGE_LOOP('',(#1574,#1575,#1576,#1577));
#1574 = ORIENTED_EDGE('',*,*,#1199,.F.);
#1575 = ORIENTED_EDGE('',*,*,#1183,.T.);
#1576 = ORIENTED_EDGE('',*,*,#998,.T.);
#1577 = ORIENTED_EDGE('',*,*,#1222,.F.);
#1578 = PLANE('',#1579);
#1579 = AXIS2_PLACEMENT_3D('',#1580,#1581,#1582);
#1580 = CARTESIAN_POINT('',(-4.68,-32.5,-20.55));
#1581 = DIRECTION('',(0.,-2.22044604925E-16,1.));
#1582 = DIRECTION('',(1.,0.,0.));
#1583 = ADVANCED_FACE('',(#1584),#1590,.T.);
#1584 = FACE_BOUND('',#1585,.F.);
#1585 = EDGE_LOOP('',(#1586,#1587,#1588,#1589));
#1586 = ORIENTED_EDGE('',*,*,#1134,.F.);
#1587 = ORIENTED_EDGE('',*,*,#1118,.T.);
#1588 = ORIENTED_EDGE('',*,*,#975,.T.);
#1589 = ORIENTED_EDGE('',*,*,#1157,.F.);
#1590 = PLANE('',#1591);
#1591 = AXIS2_PLACEMENT_3D('',#1592,#1593,#1594);
#1592 = CARTESIAN_POINT('',(6.68,-32.5,-20.55));
#1593 = DIRECTION('',(0.,-2.22044604925E-16,1.));
#1594 = DIRECTION('',(1.,0.,0.));
#1595 = ADVANCED_FACE('',(#1596),#1602,.T.);
#1596 = FACE_BOUND('',#1597,.F.);
#1597 = EDGE_LOOP('',(#1598,#1599,#1600,#1601));
#1598 = ORIENTED_EDGE('',*,*,#1069,.F.);
#1599 = ORIENTED_EDGE('',*,*,#1053,.T.);
#1600 = ORIENTED_EDGE('',*,*,#952,.T.);
#1601 = ORIENTED_EDGE('',*,*,#1092,.F.);
#1602 = PLANE('',#1603);
#1603 = AXIS2_PLACEMENT_3D('',#1604,#1605,#1606);
#1604 = CARTESIAN_POINT('',(9.32,-32.5,-20.55));
#1605 = DIRECTION('',(0.,-2.22044604925E-16,1.));
#1606 = DIRECTION('',(1.,0.,0.));
#1607 = ADVANCED_FACE('',(#1608),#1614,.T.);
#1608 = FACE_BOUND('',#1609,.T.);
#1609 = EDGE_LOOP('',(#1610,#1611,#1612,#1613));
#1610 = ORIENTED_EDGE('',*,*,#1531,.F.);
#1611 = ORIENTED_EDGE('',*,*,#1549,.T.);
#1612 = ORIENTED_EDGE('',*,*,#927,.T.);
#1613 = ORIENTED_EDGE('',*,*,#1506,.F.);
#1614 = PLANE('',#1615);
#1615 = AXIS2_PLACEMENT_3D('',#1616,#1617,#1618);
#1616 = CARTESIAN_POINT('',(9.32,-32.5,20.55));
#1617 = DIRECTION('',(-0.,-2.22044604925E-16,-1.));
#1618 = DIRECTION('',(-1.,0.,0.));
#1619 = ADVANCED_FACE('',(#1620),#1626,.T.);
#1620 = FACE_BOUND('',#1621,.T.);
#1621 = EDGE_LOOP('',(#1622,#1623,#1624,#1625));
#1622 = ORIENTED_EDGE('',*,*,#1466,.F.);
#1623 = ORIENTED_EDGE('',*,*,#1484,.T.);
#1624 = ORIENTED_EDGE('',*,*,#904,.T.);
#1625 = ORIENTED_EDGE('',*,*,#1441,.F.);
#1626 = PLANE('',#1627);
#1627 = AXIS2_PLACEMENT_3D('',#1628,#1629,#1630);
#1628 = CARTESIAN_POINT('',(6.68,-32.5,20.55));
#1629 = DIRECTION('',(-0.,-2.22044604925E-16,-1.));
#1630 = DIRECTION('',(-1.,0.,0.));
#1631 = ADVANCED_FACE('',(#1632),#1638,.T.);
#1632 = FACE_BOUND('',#1633,.T.);
#1633 = EDGE_LOOP('',(#1634,#1635,#1636,#1637));
#1634 = ORIENTED_EDGE('',*,*,#1401,.F.);
#1635 = ORIENTED_EDGE('',*,*,#1419,.T.);
#1636 = ORIENTED_EDGE('',*,*,#881,.T.);
#1637 = ORIENTED_EDGE('',*,*,#1376,.F.);
#1638 = PLANE('',#1639);
#1639 = AXIS2_PLACEMENT_3D('',#1640,#1641,#1642);
#1640 = CARTESIAN_POINT('',(-4.68,-32.5,20.55));
#1641 = DIRECTION('',(-0.,-2.22044604925E-16,-1.));
#1642 = DIRECTION('',(-1.,0.,0.));
#1643 = ADVANCED_FACE('',(#1644),#1650,.T.);
#1644 = FACE_BOUND('',#1645,.T.);
#1645 = EDGE_LOOP('',(#1646,#1647,#1648,#1649));
#1646 = ORIENTED_EDGE('',*,*,#1336,.F.);
#1647 = ORIENTED_EDGE('',*,*,#1354,.T.);
#1648 = ORIENTED_EDGE('',*,*,#858,.T.);
#1649 = ORIENTED_EDGE('',*,*,#1311,.F.);
#1650 = PLANE('',#1651);
#1651 = AXIS2_PLACEMENT_3D('',#1652,#1653,#1654);
#1652 = CARTESIAN_POINT('',(-7.32,-32.5,20.55));
#1653 = DIRECTION('',(-0.,-2.22044604925E-16,-1.));
#1654 = DIRECTION('',(-1.,0.,0.));
#1655 = ( GEOMETRIC_REPRESENTATION_CONTEXT(3) 
GLOBAL_UNCERTAINTY_ASSIGNED_CONTEXT((#1659)) 
GLOBAL_UNIT_ASSIGNED_CONTEXT((#1656,#1657,#1658)) REPRESENTATION_CONTEXT
('Context #1','3D Context with UNIT and UNCERTAINTY') );
#1656 = ( LENGTH_UNIT() NAMED_UNIT(*) SI_UNIT(.MILLI.,.METRE.) );
#1657 = ( NAMED_UNIT(*) PLANE_ANGLE_UNIT() SI_UNIT($,.RADIAN.) );
#1658 = ( NAMED_UNIT(*) SI_UNIT($,.STERADIAN.) SOLID_ANGLE_UNIT() );
#1659 = UNCERTAINTY_MEASURE_WITH_UNIT(LENGTH_MEASURE(1.E-07),#1656,
  'distance_accuracy_value','confusion accuracy');
#1660 = PRODUCT_RELATED_PRODUCT_CATEGORY('part',$,(#7));
#1661 = MECHANICAL_DESIGN_GEOMETRIC_PRESENTATION_REPRESENTATION('',(
    #1662),#1655);
#1662 = STYLED_ITEM('color',(#1663),#15);
#1663 = PRESENTATION_STYLE_ASSIGNMENT((#1664,#1670));
#1664 = SURFACE_STYLE_USAGE(.BOTH.,#1665);
#1665 = SURFACE_SIDE_STYLE('',(#1666));
#1666 = SURFACE_STYLE_FILL_AREA(#1667);
#1667 = FILL_AREA_STYLE('',(#1668));
#1668 = FILL_AREA_STYLE_COLOUR('',#1669);
#1669 = COLOUR_RGB('',0.678430976034,0.709803998361,0.741176010593);
#1670 = CURVE_STYLE('',#1671,POSITIVE_LENGTH_MEASURE(0.1),#1672);
#1671 = DRAUGHTING_PRE_DEFINED_CURVE_FONT('continuous');
#1672 = COLOUR_RGB('',9.803921802644E-02,9.803921802644E-02,
  9.803921802644E-02);
ENDSEC;
END-ISO-10303-21;
