ISO-10303-21;
HEADER;
FILE_DESCRIPTION(('FreeCAD Model'),'2;1');
FILE_NAME('Open CASCADE Shape Model','2026-08-17T00:14:26',(''),(''),
  'Open CASCADE STEP processor 7.8','FreeCAD','Unknown');
FILE_SCHEMA(('AUTOMOTIVE_DESIGN { 1 0 10303 214 1 1 1 1 }'));
ENDSEC;
DATA;
#1 = APPLICATION_PROTOCOL_DEFINITION('international standard',
  'automotive_design',2000,#2);
#2 = APPLICATION_CONTEXT(
  'core data for automotive mechanical design processes');
#3 = SHAPE_DEFINITION_REPRESENTATION(#4,#10);
#4 = PRODUCT_DEFINITION_SHAPE('','',#5);
#5 = PRODUCT_DEFINITION('design','',#6,#9);
#6 = PRODUCT_DEFINITION_FORMATION('','',#7);
#7 = PRODUCT('Body','Body','',(#8));
#8 = PRODUCT_CONTEXT('',#2,'mechanical');
#9 = PRODUCT_DEFINITION_CONTEXT('part definition',#2,'design');
#10 = ADVANCED_BREP_SHAPE_REPRESENTATION('',(#11,#15),#897);
#11 = AXIS2_PLACEMENT_3D('',#12,#13,#14);
#12 = CARTESIAN_POINT('',(0.,0.,0.));
#13 = DIRECTION('',(0.,0.,1.));
#14 = DIRECTION('',(1.,0.,-0.));
#15 = MANIFOLD_SOLID_BREP('',#16);
#16 = CLOSED_SHELL('',(#17,#144,#175,#200,#225,#250,#275,#300,#346,#377,
    #401,#432,#478,#503,#528,#570,#656,#680,#705,#730,#755,#780,#805,
    #822,#848,#879));
#17 = ADVANCED_FACE('',(#18,#84,#95,#106,#117,#128),#139,.T.);
#18 = FACE_BOUND('',#19,.T.);
#19 = EDGE_LOOP('',(#20,#30,#38,#46,#54,#62,#70,#78));
#20 = ORIENTED_EDGE('',*,*,#21,.T.);
#21 = EDGE_CURVE('',#22,#24,#26,.T.);
#22 = VERTEX_POINT('',#23);
#23 = CARTESIAN_POINT('',(32.,0.,-33.));
#24 = VERTEX_POINT('',#25);
#25 = CARTESIAN_POINT('',(32.,0.,33.));
#26 = LINE('',#27,#28);
#27 = CARTESIAN_POINT('',(32.,0.,-33.));
#28 = VECTOR('',#29,1.);
#29 = DIRECTION('',(0.,0.,1.));
#30 = ORIENTED_EDGE('',*,*,#31,.T.);
#31 = EDGE_CURVE('',#24,#32,#34,.T.);
#32 = VERTEX_POINT('',#33);
#33 = CARTESIAN_POINT('',(-32.,0.,33.));
#34 = LINE('',#35,#36);
#35 = CARTESIAN_POINT('',(32.,0.,33.));
#36 = VECTOR('',#37,1.);
#37 = DIRECTION('',(-1.,0.,0.));
#38 = ORIENTED_EDGE('',*,*,#39,.T.);
#39 = EDGE_CURVE('',#32,#40,#42,.T.);
#40 = VERTEX_POINT('',#41);
#41 = CARTESIAN_POINT('',(-32.,0.,-33.));
#42 = LINE('',#43,#44);
#43 = CARTESIAN_POINT('',(-32.,0.,33.));
#44 = VECTOR('',#45,1.);
#45 = DIRECTION('',(0.,0.,-1.));
#46 = ORIENTED_EDGE('',*,*,#47,.T.);
#47 = EDGE_CURVE('',#40,#48,#50,.T.);
#48 = VERTEX_POINT('',#49);
#49 = CARTESIAN_POINT('',(-30.,0.,-33.));
#50 = LINE('',#51,#52);
#51 = CARTESIAN_POINT('',(-32.,0.,-33.));
#52 = VECTOR('',#53,1.);
#53 = DIRECTION('',(1.,0.,0.));
#54 = ORIENTED_EDGE('',*,*,#55,.F.);
#55 = EDGE_CURVE('',#56,#48,#58,.T.);
#56 = VERTEX_POINT('',#57);
#57 = CARTESIAN_POINT('',(-30.,-5.E-15,-30.));
#58 = LINE('',#59,#60);
#59 = CARTESIAN_POINT('',(-30.,-6.44E-15,-29.));
#60 = VECTOR('',#61,1.);
#61 = DIRECTION('',(0.,-2.2E-16,-1.));
#62 = ORIENTED_EDGE('',*,*,#63,.F.);
#63 = EDGE_CURVE('',#64,#56,#66,.T.);
#64 = VERTEX_POINT('',#65);
#65 = CARTESIAN_POINT('',(30.,-5.E-15,-30.));
#66 = LINE('',#67,#68);
#67 = CARTESIAN_POINT('',(30.,1.7763568394E-15,-30.));
#68 = VECTOR('',#69,1.);
#69 = DIRECTION('',(-1.,0.,0.));
#70 = ORIENTED_EDGE('',*,*,#71,.F.);
#71 = EDGE_CURVE('',#72,#64,#74,.T.);
#72 = VERTEX_POINT('',#73);
#73 = CARTESIAN_POINT('',(30.,0.,-33.));
#74 = LINE('',#75,#76);
#75 = CARTESIAN_POINT('',(30.,-6.44E-15,-29.));
#76 = VECTOR('',#77,1.);
#77 = DIRECTION('',(0.,2.2E-16,1.));
#78 = ORIENTED_EDGE('',*,*,#79,.F.);
#79 = EDGE_CURVE('',#22,#72,#80,.T.);
#80 = LINE('',#81,#82);
#81 = CARTESIAN_POINT('',(32.,0.,-33.));
#82 = VECTOR('',#83,1.);
#83 = DIRECTION('',(-1.,0.,0.));
#84 = FACE_BOUND('',#85,.T.);
#85 = EDGE_LOOP('',(#86));
#86 = ORIENTED_EDGE('',*,*,#87,.F.);
#87 = EDGE_CURVE('',#88,#88,#90,.T.);
#88 = VERTEX_POINT('',#89);
#89 = CARTESIAN_POINT('',(29.,2.E-15,1.));
#90 = CIRCLE('',#91,29.);
#91 = AXIS2_PLACEMENT_3D('',#92,#93,#94);
#92 = CARTESIAN_POINT('',(0.,1.7763568394E-15,1.));
#93 = DIRECTION('',(0.,-1.,0.));
#94 = DIRECTION('',(1.,0.,0.));
#95 = FACE_BOUND('',#96,.T.);
#96 = EDGE_LOOP('',(#97));
#97 = ORIENTED_EDGE('',*,*,#98,.F.);
#98 = EDGE_CURVE('',#99,#99,#101,.T.);
#99 = VERTEX_POINT('',#100);
#100 = CARTESIAN_POINT('',(-23.75,8.E-15,26.));
#101 = CIRCLE('',#102,1.25);
#102 = AXIS2_PLACEMENT_3D('',#103,#104,#105);
#103 = CARTESIAN_POINT('',(-25.,1.7763568394E-15,26.));
#104 = DIRECTION('',(0.,-1.,0.));
#105 = DIRECTION('',(1.,0.,0.));
#106 = FACE_BOUND('',#107,.T.);
#107 = EDGE_LOOP('',(#108));
#108 = ORIENTED_EDGE('',*,*,#109,.F.);
#109 = EDGE_CURVE('',#110,#110,#112,.T.);
#110 = VERTEX_POINT('',#111);
#111 = CARTESIAN_POINT('',(26.25,8.E-15,26.));
#112 = CIRCLE('',#113,1.25);
#113 = AXIS2_PLACEMENT_3D('',#114,#115,#116);
#114 = CARTESIAN_POINT('',(25.,1.7763568394E-15,26.));
#115 = DIRECTION('',(0.,-1.,0.));
#116 = DIRECTION('',(1.,0.,0.));
#117 = FACE_BOUND('',#118,.T.);
#118 = EDGE_LOOP('',(#119));
#119 = ORIENTED_EDGE('',*,*,#120,.F.);
#120 = EDGE_CURVE('',#121,#121,#123,.T.);
#121 = VERTEX_POINT('',#122);
#122 = CARTESIAN_POINT('',(26.25,-4.E-15,-24.));
#123 = CIRCLE('',#124,1.25);
#124 = AXIS2_PLACEMENT_3D('',#125,#126,#127);
#125 = CARTESIAN_POINT('',(25.,1.7763568394E-15,-24.));
#126 = DIRECTION('',(0.,-1.,0.));
#127 = DIRECTION('',(1.,0.,0.));
#128 = FACE_BOUND('',#129,.T.);
#129 = EDGE_LOOP('',(#130));
#130 = ORIENTED_EDGE('',*,*,#131,.F.);
#131 = EDGE_CURVE('',#132,#132,#134,.T.);
#132 = VERTEX_POINT('',#133);
#133 = CARTESIAN_POINT('',(-23.75,-4.E-15,-24.));
#134 = CIRCLE('',#135,1.25);
#135 = AXIS2_PLACEMENT_3D('',#136,#137,#138);
#136 = CARTESIAN_POINT('',(-25.,1.7763568394E-15,-24.));
#137 = DIRECTION('',(0.,-1.,0.));
#138 = DIRECTION('',(1.,0.,0.));
#139 = PLANE('',#140);
#140 = AXIS2_PLACEMENT_3D('',#141,#142,#143);
#141 = CARTESIAN_POINT('',(2.458E-14,-1.26E-15,-3.383458646634E-02));
#142 = DIRECTION('',(-0.,-1.,-0.));
#143 = DIRECTION('',(0.,0.,-1.));
#144 = ADVANCED_FACE('',(#145),#170,.T.);
#145 = FACE_BOUND('',#146,.T.);
#146 = EDGE_LOOP('',(#147,#155,#156,#164));
#147 = ORIENTED_EDGE('',*,*,#148,.T.);
#148 = EDGE_CURVE('',#149,#64,#151,.T.);
#149 = VERTEX_POINT('',#150);
#150 = CARTESIAN_POINT('',(30.,5.,-30.));
#151 = LINE('',#152,#153);
#152 = CARTESIAN_POINT('',(30.,5.,-30.));
#153 = VECTOR('',#154,1.);
#154 = DIRECTION('',(0.,-1.,2.2E-16));
#155 = ORIENTED_EDGE('',*,*,#63,.T.);
#156 = ORIENTED_EDGE('',*,*,#157,.F.);
#157 = EDGE_CURVE('',#158,#56,#160,.T.);
#158 = VERTEX_POINT('',#159);
#159 = CARTESIAN_POINT('',(-30.,5.,-30.));
#160 = LINE('',#161,#162);
#161 = CARTESIAN_POINT('',(-30.,5.,-30.));
#162 = VECTOR('',#163,1.);
#163 = DIRECTION('',(0.,-1.,2.2E-16));
#164 = ORIENTED_EDGE('',*,*,#165,.F.);
#165 = EDGE_CURVE('',#149,#158,#166,.T.);
#166 = LINE('',#167,#168);
#167 = CARTESIAN_POINT('',(30.,5.,-30.));
#168 = VECTOR('',#169,1.);
#169 = DIRECTION('',(-1.,0.,0.));
#170 = PLANE('',#171);
#171 = AXIS2_PLACEMENT_3D('',#172,#173,#174);
#172 = CARTESIAN_POINT('',(30.,5.,-30.));
#173 = DIRECTION('',(-0.,-2.2E-16,-1.));
#174 = DIRECTION('',(-1.,0.,0.));
#175 = ADVANCED_FACE('',(#176),#195,.F.);
#176 = FACE_BOUND('',#177,.T.);
#177 = EDGE_LOOP('',(#178,#186,#187,#188));
#178 = ORIENTED_EDGE('',*,*,#179,.T.);
#179 = EDGE_CURVE('',#180,#88,#182,.T.);
#180 = VERTEX_POINT('',#181);
#181 = CARTESIAN_POINT('',(29.,5.,1.));
#182 = LINE('',#183,#184);
#183 = CARTESIAN_POINT('',(29.,5.,1.));
#184 = VECTOR('',#185,1.);
#185 = DIRECTION('',(0.,-1.,2.2E-16));
#186 = ORIENTED_EDGE('',*,*,#87,.T.);
#187 = ORIENTED_EDGE('',*,*,#179,.F.);
#188 = ORIENTED_EDGE('',*,*,#189,.F.);
#189 = EDGE_CURVE('',#180,#180,#190,.T.);
#190 = CIRCLE('',#191,29.);
#191 = AXIS2_PLACEMENT_3D('',#192,#193,#194);
#192 = CARTESIAN_POINT('',(0.,5.,1.));
#193 = DIRECTION('',(0.,-1.,0.));
#194 = DIRECTION('',(1.,0.,0.));
#195 = CYLINDRICAL_SURFACE('',#196,29.);
#196 = AXIS2_PLACEMENT_3D('',#197,#198,#199);
#197 = CARTESIAN_POINT('',(0.,5.,1.));
#198 = DIRECTION('',(0.,1.,-2.2E-16));
#199 = DIRECTION('',(1.,0.,0.));
#200 = ADVANCED_FACE('',(#201),#220,.F.);
#201 = FACE_BOUND('',#202,.T.);
#202 = EDGE_LOOP('',(#203,#211,#212,#213));
#203 = ORIENTED_EDGE('',*,*,#204,.T.);
#204 = EDGE_CURVE('',#205,#99,#207,.T.);
#205 = VERTEX_POINT('',#206);
#206 = CARTESIAN_POINT('',(-23.75,5.,26.));
#207 = LINE('',#208,#209);
#208 = CARTESIAN_POINT('',(-23.75,5.,26.));
#209 = VECTOR('',#210,1.);
#210 = DIRECTION('',(0.,-1.,2.2E-16));
#211 = ORIENTED_EDGE('',*,*,#98,.T.);
#212 = ORIENTED_EDGE('',*,*,#204,.F.);
#213 = ORIENTED_EDGE('',*,*,#214,.F.);
#214 = EDGE_CURVE('',#205,#205,#215,.T.);
#215 = CIRCLE('',#216,1.25);
#216 = AXIS2_PLACEMENT_3D('',#217,#218,#219);
#217 = CARTESIAN_POINT('',(-25.,5.,26.));
#218 = DIRECTION('',(0.,-1.,0.));
#219 = DIRECTION('',(1.,0.,0.));
#220 = CYLINDRICAL_SURFACE('',#221,1.25);
#221 = AXIS2_PLACEMENT_3D('',#222,#223,#224);
#222 = CARTESIAN_POINT('',(-25.,5.,26.));
#223 = DIRECTION('',(0.,1.,-2.2E-16));
#224 = DIRECTION('',(1.,0.,0.));
#225 = ADVANCED_FACE('',(#226),#245,.F.);
#226 = FACE_BOUND('',#227,.T.);
#227 = EDGE_LOOP('',(#228,#236,#237,#238));
#228 = ORIENTED_EDGE('',*,*,#229,.T.);
#229 = EDGE_CURVE('',#230,#110,#232,.T.);
#230 = VERTEX_POINT('',#231);
#231 = CARTESIAN_POINT('',(26.25,5.,26.));
#232 = LINE('',#233,#234);
#233 = CARTESIAN_POINT('',(26.25,5.,26.));
#234 = VECTOR('',#235,1.);
#235 = DIRECTION('',(0.,-1.,2.2E-16));
#236 = ORIENTED_EDGE('',*,*,#109,.T.);
#237 = ORIENTED_EDGE('',*,*,#229,.F.);
#238 = ORIENTED_EDGE('',*,*,#239,.F.);
#239 = EDGE_CURVE('',#230,#230,#240,.T.);
#240 = CIRCLE('',#241,1.25);
#241 = AXIS2_PLACEMENT_3D('',#242,#243,#244);
#242 = CARTESIAN_POINT('',(25.,5.,26.));
#243 = DIRECTION('',(0.,-1.,0.));
#244 = DIRECTION('',(1.,0.,0.));
#245 = CYLINDRICAL_SURFACE('',#246,1.25);
#246 = AXIS2_PLACEMENT_3D('',#247,#248,#249);
#247 = CARTESIAN_POINT('',(25.,5.,26.));
#248 = DIRECTION('',(0.,1.,-2.2E-16));
#249 = DIRECTION('',(1.,0.,0.));
#250 = ADVANCED_FACE('',(#251),#270,.F.);
#251 = FACE_BOUND('',#252,.T.);
#252 = EDGE_LOOP('',(#253,#261,#262,#263));
#253 = ORIENTED_EDGE('',*,*,#254,.T.);
#254 = EDGE_CURVE('',#255,#121,#257,.T.);
#255 = VERTEX_POINT('',#256);
#256 = CARTESIAN_POINT('',(26.25,5.,-24.));
#257 = LINE('',#258,#259);
#258 = CARTESIAN_POINT('',(26.25,5.,-24.));
#259 = VECTOR('',#260,1.);
#260 = DIRECTION('',(0.,-1.,2.2E-16));
#261 = ORIENTED_EDGE('',*,*,#120,.T.);
#262 = ORIENTED_EDGE('',*,*,#254,.F.);
#263 = ORIENTED_EDGE('',*,*,#264,.F.);
#264 = EDGE_CURVE('',#255,#255,#265,.T.);
#265 = CIRCLE('',#266,1.25);
#266 = AXIS2_PLACEMENT_3D('',#267,#268,#269);
#267 = CARTESIAN_POINT('',(25.,5.,-24.));
#268 = DIRECTION('',(0.,-1.,0.));
#269 = DIRECTION('',(1.,0.,0.));
#270 = CYLINDRICAL_SURFACE('',#271,1.25);
#271 = AXIS2_PLACEMENT_3D('',#272,#273,#274);
#272 = CARTESIAN_POINT('',(25.,5.,-24.));
#273 = DIRECTION('',(0.,1.,-2.2E-16));
#274 = DIRECTION('',(1.,0.,0.));
#275 = ADVANCED_FACE('',(#276),#295,.F.);
#276 = FACE_BOUND('',#277,.T.);
#277 = EDGE_LOOP('',(#278,#286,#287,#288));
#278 = ORIENTED_EDGE('',*,*,#279,.T.);
#279 = EDGE_CURVE('',#280,#132,#282,.T.);
#280 = VERTEX_POINT('',#281);
#281 = CARTESIAN_POINT('',(-23.75,5.,-24.));
#282 = LINE('',#283,#284);
#283 = CARTESIAN_POINT('',(-23.75,5.,-24.));
#284 = VECTOR('',#285,1.);
#285 = DIRECTION('',(0.,-1.,2.2E-16));
#286 = ORIENTED_EDGE('',*,*,#131,.T.);
#287 = ORIENTED_EDGE('',*,*,#279,.F.);
#288 = ORIENTED_EDGE('',*,*,#289,.F.);
#289 = EDGE_CURVE('',#280,#280,#290,.T.);
#290 = CIRCLE('',#291,1.25);
#291 = AXIS2_PLACEMENT_3D('',#292,#293,#294);
#292 = CARTESIAN_POINT('',(-25.,5.,-24.));
#293 = DIRECTION('',(0.,-1.,0.));
#294 = DIRECTION('',(1.,0.,0.));
#295 = CYLINDRICAL_SURFACE('',#296,1.25);
#296 = AXIS2_PLACEMENT_3D('',#297,#298,#299);
#297 = CARTESIAN_POINT('',(-25.,5.,-24.));
#298 = DIRECTION('',(0.,1.,-2.2E-16));
#299 = DIRECTION('',(1.,0.,0.));
#300 = ADVANCED_FACE('',(#301,#326,#329,#332,#335,#338),#341,.T.);
#301 = FACE_BOUND('',#302,.F.);
#302 = EDGE_LOOP('',(#303,#311,#319,#325));
#303 = ORIENTED_EDGE('',*,*,#304,.T.);
#304 = EDGE_CURVE('',#149,#305,#307,.T.);
#305 = VERTEX_POINT('',#306);
#306 = CARTESIAN_POINT('',(30.,5.,31.));
#307 = LINE('',#308,#309);
#308 = CARTESIAN_POINT('',(30.,5.,-29.));
#309 = VECTOR('',#310,1.);
#310 = DIRECTION('',(0.,2.2E-16,1.));
#311 = ORIENTED_EDGE('',*,*,#312,.T.);
#312 = EDGE_CURVE('',#305,#313,#315,.T.);
#313 = VERTEX_POINT('',#314);
#314 = CARTESIAN_POINT('',(-30.,5.,31.));
#315 = LINE('',#316,#317);
#316 = CARTESIAN_POINT('',(30.,5.,31.));
#317 = VECTOR('',#318,1.);
#318 = DIRECTION('',(-1.,0.,0.));
#319 = ORIENTED_EDGE('',*,*,#320,.F.);
#320 = EDGE_CURVE('',#158,#313,#321,.T.);
#321 = LINE('',#322,#323);
#322 = CARTESIAN_POINT('',(-30.,5.,-30.));
#323 = VECTOR('',#324,1.);
#324 = DIRECTION('',(0.,2.2E-16,1.));
#325 = ORIENTED_EDGE('',*,*,#165,.F.);
#326 = FACE_BOUND('',#327,.T.);
#327 = EDGE_LOOP('',(#328));
#328 = ORIENTED_EDGE('',*,*,#189,.T.);
#329 = FACE_BOUND('',#330,.T.);
#330 = EDGE_LOOP('',(#331));
#331 = ORIENTED_EDGE('',*,*,#214,.T.);
#332 = FACE_BOUND('',#333,.T.);
#333 = EDGE_LOOP('',(#334));
#334 = ORIENTED_EDGE('',*,*,#239,.T.);
#335 = FACE_BOUND('',#336,.T.);
#336 = EDGE_LOOP('',(#337));
#337 = ORIENTED_EDGE('',*,*,#264,.T.);
#338 = FACE_BOUND('',#339,.T.);
#339 = EDGE_LOOP('',(#340));
#340 = ORIENTED_EDGE('',*,*,#289,.T.);
#341 = PLANE('',#342);
#342 = AXIS2_PLACEMENT_3D('',#343,#344,#345);
#343 = CARTESIAN_POINT('',(-4.1E-16,5.,0.71098899777));
#344 = DIRECTION('',(0.,1.,-2.3E-16));
#345 = DIRECTION('',(0.,2.3E-16,1.));
#346 = ADVANCED_FACE('',(#347),#372,.T.);
#347 = FACE_BOUND('',#348,.T.);
#348 = EDGE_LOOP('',(#349,#357,#365,#371));
#349 = ORIENTED_EDGE('',*,*,#350,.T.);
#350 = EDGE_CURVE('',#22,#351,#353,.T.);
#351 = VERTEX_POINT('',#352);
#352 = CARTESIAN_POINT('',(32.,100.,-33.));
#353 = LINE('',#354,#355);
#354 = CARTESIAN_POINT('',(32.,-7.33E-15,-33.));
#355 = VECTOR('',#356,1.);
#356 = DIRECTION('',(0.,1.,-2.2E-16));
#357 = ORIENTED_EDGE('',*,*,#358,.T.);
#358 = EDGE_CURVE('',#351,#359,#361,.T.);
#359 = VERTEX_POINT('',#360);
#360 = CARTESIAN_POINT('',(32.,100.,33.));
#361 = LINE('',#362,#363);
#362 = CARTESIAN_POINT('',(32.,100.,-33.));
#363 = VECTOR('',#364,1.);
#364 = DIRECTION('',(0.,4.4E-16,1.));
#365 = ORIENTED_EDGE('',*,*,#366,.T.);
#366 = EDGE_CURVE('',#359,#24,#367,.T.);
#367 = LINE('',#368,#369);
#368 = CARTESIAN_POINT('',(32.,100.,33.));
#369 = VECTOR('',#370,1.);
#370 = DIRECTION('',(0.,-1.,2.2E-16));
#371 = ORIENTED_EDGE('',*,*,#21,.F.);
#372 = PLANE('',#373);
#373 = AXIS2_PLACEMENT_3D('',#374,#375,#376);
#374 = CARTESIAN_POINT('',(32.,50.,-1.8149E-13));
#375 = DIRECTION('',(1.,0.,0.));
#376 = DIRECTION('',(0.,0.,1.));
#377 = ADVANCED_FACE('',(#378),#396,.T.);
#378 = FACE_BOUND('',#379,.T.);
#379 = EDGE_LOOP('',(#380,#381,#382,#390));
#380 = ORIENTED_EDGE('',*,*,#350,.F.);
#381 = ORIENTED_EDGE('',*,*,#79,.T.);
#382 = ORIENTED_EDGE('',*,*,#383,.T.);
#383 = EDGE_CURVE('',#72,#384,#386,.T.);
#384 = VERTEX_POINT('',#385);
#385 = CARTESIAN_POINT('',(30.,100.,-33.));
#386 = LINE('',#387,#388);
#387 = CARTESIAN_POINT('',(30.,-7.33E-15,-33.));
#388 = VECTOR('',#389,1.);
#389 = DIRECTION('',(0.,1.,-2.2E-16));
#390 = ORIENTED_EDGE('',*,*,#391,.F.);
#391 = EDGE_CURVE('',#351,#384,#392,.T.);
#392 = LINE('',#393,#394);
#393 = CARTESIAN_POINT('',(32.,100.,-33.));
#394 = VECTOR('',#395,1.);
#395 = DIRECTION('',(-1.,0.,-0.));
#396 = PLANE('',#397);
#397 = AXIS2_PLACEMENT_3D('',#398,#399,#400);
#398 = CARTESIAN_POINT('',(31.,50.,-33.));
#399 = DIRECTION('',(-0.,-0.,-1.));
#400 = DIRECTION('',(-1.,0.,0.));
#401 = ADVANCED_FACE('',(#402),#427,.T.);
#402 = FACE_BOUND('',#403,.T.);
#403 = EDGE_LOOP('',(#404,#412,#420,#426));
#404 = ORIENTED_EDGE('',*,*,#405,.T.);
#405 = EDGE_CURVE('',#40,#406,#408,.T.);
#406 = VERTEX_POINT('',#407);
#407 = CARTESIAN_POINT('',(-32.,100.,-33.));
#408 = LINE('',#409,#410);
#409 = CARTESIAN_POINT('',(-32.,-7.33E-15,-33.));
#410 = VECTOR('',#411,1.);
#411 = DIRECTION('',(0.,1.,-2.2E-16));
#412 = ORIENTED_EDGE('',*,*,#413,.T.);
#413 = EDGE_CURVE('',#406,#414,#416,.T.);
#414 = VERTEX_POINT('',#415);
#415 = CARTESIAN_POINT('',(-30.,100.,-33.));
#416 = LINE('',#417,#418);
#417 = CARTESIAN_POINT('',(-32.,100.,-33.));
#418 = VECTOR('',#419,1.);
#419 = DIRECTION('',(1.,0.,0.));
#420 = ORIENTED_EDGE('',*,*,#421,.T.);
#421 = EDGE_CURVE('',#414,#48,#422,.T.);
#422 = LINE('',#423,#424);
#423 = CARTESIAN_POINT('',(-30.,100.,-33.));
#424 = VECTOR('',#425,1.);
#425 = DIRECTION('',(0.,-1.,2.2E-16));
#426 = ORIENTED_EDGE('',*,*,#47,.F.);
#427 = PLANE('',#428);
#428 = AXIS2_PLACEMENT_3D('',#429,#430,#431);
#429 = CARTESIAN_POINT('',(-31.,50.,-33.));
#430 = DIRECTION('',(-0.,-0.,-1.));
#431 = DIRECTION('',(-1.,0.,0.));
#432 = ADVANCED_FACE('',(#433,#451,#462),#473,.T.);
#433 = FACE_BOUND('',#434,.T.);
#434 = EDGE_LOOP('',(#435,#436,#444,#450));
#435 = ORIENTED_EDGE('',*,*,#366,.F.);
#436 = ORIENTED_EDGE('',*,*,#437,.T.);
#437 = EDGE_CURVE('',#359,#438,#440,.T.);
#438 = VERTEX_POINT('',#439);
#439 = CARTESIAN_POINT('',(-32.,100.,33.));
#440 = LINE('',#441,#442);
#441 = CARTESIAN_POINT('',(32.,100.,33.));
#442 = VECTOR('',#443,1.);
#443 = DIRECTION('',(-1.,0.,-0.));
#444 = ORIENTED_EDGE('',*,*,#445,.T.);
#445 = EDGE_CURVE('',#438,#32,#446,.T.);
#446 = LINE('',#447,#448);
#447 = CARTESIAN_POINT('',(-32.,100.,33.));
#448 = VECTOR('',#449,1.);
#449 = DIRECTION('',(0.,-1.,2.2E-16));
#450 = ORIENTED_EDGE('',*,*,#31,.F.);
#451 = FACE_BOUND('',#452,.T.);
#452 = EDGE_LOOP('',(#453));
#453 = ORIENTED_EDGE('',*,*,#454,.T.);
#454 = EDGE_CURVE('',#455,#455,#457,.T.);
#455 = VERTEX_POINT('',#456);
#456 = CARTESIAN_POINT('',(8.05,65.,33.));
#457 = CIRCLE('',#458,8.05);
#458 = AXIS2_PLACEMENT_3D('',#459,#460,#461);
#459 = CARTESIAN_POINT('',(3.2E-14,65.,33.));
#460 = DIRECTION('',(0.,-4.4E-16,-1.));
#461 = DIRECTION('',(1.,0.,0.));
#462 = FACE_BOUND('',#463,.T.);
#463 = EDGE_LOOP('',(#464));
#464 = ORIENTED_EDGE('',*,*,#465,.F.);
#465 = EDGE_CURVE('',#466,#466,#468,.T.);
#466 = VERTEX_POINT('',#467);
#467 = CARTESIAN_POINT('',(8.05,35.,33.));
#468 = CIRCLE('',#469,8.05);
#469 = AXIS2_PLACEMENT_3D('',#470,#471,#472);
#470 = CARTESIAN_POINT('',(3.2E-14,35.,33.));
#471 = DIRECTION('',(0.,0.,1.));
#472 = DIRECTION('',(1.,0.,0.));
#473 = PLANE('',#474);
#474 = AXIS2_PLACEMENT_3D('',#475,#476,#477);
#475 = CARTESIAN_POINT('',(3.223E-14,50.,33.));
#476 = DIRECTION('',(0.,0.,1.));
#477 = DIRECTION('',(1.,0.,-0.));
#478 = ADVANCED_FACE('',(#479),#498,.F.);
#479 = FACE_BOUND('',#480,.F.);
#480 = EDGE_LOOP('',(#481,#489,#490,#491));
#481 = ORIENTED_EDGE('',*,*,#482,.F.);
#482 = EDGE_CURVE('',#455,#483,#485,.T.);
#483 = VERTEX_POINT('',#484);
#484 = CARTESIAN_POINT('',(8.05,65.,31.));
#485 = LINE('',#486,#487);
#486 = CARTESIAN_POINT('',(8.05,65.,33.));
#487 = VECTOR('',#488,1.);
#488 = DIRECTION('',(-0.,-4.4E-16,-1.));
#489 = ORIENTED_EDGE('',*,*,#454,.T.);
#490 = ORIENTED_EDGE('',*,*,#482,.T.);
#491 = ORIENTED_EDGE('',*,*,#492,.F.);
#492 = EDGE_CURVE('',#483,#483,#493,.T.);
#493 = CIRCLE('',#494,8.05);
#494 = AXIS2_PLACEMENT_3D('',#495,#496,#497);
#495 = CARTESIAN_POINT('',(3.186E-14,65.,31.));
#496 = DIRECTION('',(0.,-4.4E-16,-1.));
#497 = DIRECTION('',(1.,0.,0.));
#498 = CYLINDRICAL_SURFACE('',#499,8.05);
#499 = AXIS2_PLACEMENT_3D('',#500,#501,#502);
#500 = CARTESIAN_POINT('',(3.2E-14,65.,33.));
#501 = DIRECTION('',(-0.,-4.4E-16,-1.));
#502 = DIRECTION('',(1.,0.,0.));
#503 = ADVANCED_FACE('',(#504),#523,.F.);
#504 = FACE_BOUND('',#505,.T.);
#505 = EDGE_LOOP('',(#506,#514,#515,#516));
#506 = ORIENTED_EDGE('',*,*,#507,.F.);
#507 = EDGE_CURVE('',#466,#508,#510,.T.);
#508 = VERTEX_POINT('',#509);
#509 = CARTESIAN_POINT('',(8.05,35.,31.));
#510 = LINE('',#511,#512);
#511 = CARTESIAN_POINT('',(8.05,35.,33.));
#512 = VECTOR('',#513,1.);
#513 = DIRECTION('',(0.,0.,-1.));
#514 = ORIENTED_EDGE('',*,*,#465,.T.);
#515 = ORIENTED_EDGE('',*,*,#507,.T.);
#516 = ORIENTED_EDGE('',*,*,#517,.T.);
#517 = EDGE_CURVE('',#508,#508,#518,.T.);
#518 = CIRCLE('',#519,8.05);
#519 = AXIS2_PLACEMENT_3D('',#520,#521,#522);
#520 = CARTESIAN_POINT('',(3.186E-14,35.,31.));
#521 = DIRECTION('',(0.,0.,-1.));
#522 = DIRECTION('',(1.,0.,0.));
#523 = CYLINDRICAL_SURFACE('',#524,8.05);
#524 = AXIS2_PLACEMENT_3D('',#525,#526,#527);
#525 = CARTESIAN_POINT('',(3.2E-14,35.,33.));
#526 = DIRECTION('',(-0.,-0.,-1.));
#527 = DIRECTION('',(1.,0.,0.));
#528 = ADVANCED_FACE('',(#529),#565,.T.);
#529 = FACE_BOUND('',#530,.T.);
#530 = EDGE_LOOP('',(#531,#532,#540,#548,#556,#562,#563,#564));
#531 = ORIENTED_EDGE('',*,*,#304,.T.);
#532 = ORIENTED_EDGE('',*,*,#533,.T.);
#533 = EDGE_CURVE('',#305,#534,#536,.T.);
#534 = VERTEX_POINT('',#535);
#535 = CARTESIAN_POINT('',(30.,95.,31.));
#536 = LINE('',#537,#538);
#537 = CARTESIAN_POINT('',(30.,6.88E-15,31.));
#538 = VECTOR('',#539,1.);
#539 = DIRECTION('',(0.,1.,-2.2E-16));
#540 = ORIENTED_EDGE('',*,*,#541,.F.);
#541 = EDGE_CURVE('',#542,#534,#544,.T.);
#542 = VERTEX_POINT('',#543);
#543 = CARTESIAN_POINT('',(30.,95.,-30.));
#544 = LINE('',#545,#546);
#545 = CARTESIAN_POINT('',(30.,95.,-29.));
#546 = VECTOR('',#547,1.);
#547 = DIRECTION('',(0.,2.2E-16,1.));
#548 = ORIENTED_EDGE('',*,*,#549,.T.);
#549 = EDGE_CURVE('',#542,#550,#552,.T.);
#550 = VERTEX_POINT('',#551);
#551 = CARTESIAN_POINT('',(30.,100.,-30.));
#552 = LINE('',#553,#554);
#553 = CARTESIAN_POINT('',(30.,95.,-30.));
#554 = VECTOR('',#555,1.);
#555 = DIRECTION('',(0.,1.,-2.2E-16));
#556 = ORIENTED_EDGE('',*,*,#557,.F.);
#557 = EDGE_CURVE('',#384,#550,#558,.T.);
#558 = LINE('',#559,#560);
#559 = CARTESIAN_POINT('',(30.,100.,-29.));
#560 = VECTOR('',#561,1.);
#561 = DIRECTION('',(0.,2.2E-16,1.));
#562 = ORIENTED_EDGE('',*,*,#383,.F.);
#563 = ORIENTED_EDGE('',*,*,#71,.T.);
#564 = ORIENTED_EDGE('',*,*,#148,.F.);
#565 = PLANE('',#566);
#566 = AXIS2_PLACEMENT_3D('',#567,#568,#569);
#567 = CARTESIAN_POINT('',(30.,50.,-2.859756097561));
#568 = DIRECTION('',(-1.,-0.,-0.));
#569 = DIRECTION('',(0.,0.,-1.));
#570 = ADVANCED_FACE('',(#571,#596,#607,#618,#629,#640),#651,.T.);
#571 = FACE_BOUND('',#572,.T.);
#572 = EDGE_LOOP('',(#573,#574,#582,#590));
#573 = ORIENTED_EDGE('',*,*,#541,.T.);
#574 = ORIENTED_EDGE('',*,*,#575,.T.);
#575 = EDGE_CURVE('',#534,#576,#578,.T.);
#576 = VERTEX_POINT('',#577);
#577 = CARTESIAN_POINT('',(-30.,95.,31.));
#578 = LINE('',#579,#580);
#579 = CARTESIAN_POINT('',(30.,95.,31.));
#580 = VECTOR('',#581,1.);
#581 = DIRECTION('',(-1.,0.,-0.));
#582 = ORIENTED_EDGE('',*,*,#583,.F.);
#583 = EDGE_CURVE('',#584,#576,#586,.T.);
#584 = VERTEX_POINT('',#585);
#585 = CARTESIAN_POINT('',(-30.,95.,-30.));
#586 = LINE('',#587,#588);
#587 = CARTESIAN_POINT('',(-30.,95.,-30.));
#588 = VECTOR('',#589,1.);
#589 = DIRECTION('',(0.,2.2E-16,1.));
#590 = ORIENTED_EDGE('',*,*,#591,.F.);
#591 = EDGE_CURVE('',#542,#584,#592,.T.);
#592 = LINE('',#593,#594);
#593 = CARTESIAN_POINT('',(30.,95.,-30.));
#594 = VECTOR('',#595,1.);
#595 = DIRECTION('',(-1.,0.,-0.));
#596 = FACE_BOUND('',#597,.F.);
#597 = EDGE_LOOP('',(#598));
#598 = ORIENTED_EDGE('',*,*,#599,.T.);
#599 = EDGE_CURVE('',#600,#600,#602,.T.);
#600 = VERTEX_POINT('',#601);
#601 = CARTESIAN_POINT('',(29.,95.,1.));
#602 = CIRCLE('',#603,29.);
#603 = AXIS2_PLACEMENT_3D('',#604,#605,#606);
#604 = CARTESIAN_POINT('',(0.,95.,1.));
#605 = DIRECTION('',(0.,-1.,0.));
#606 = DIRECTION('',(1.,0.,0.));
#607 = FACE_BOUND('',#608,.F.);
#608 = EDGE_LOOP('',(#609));
#609 = ORIENTED_EDGE('',*,*,#610,.T.);
#610 = EDGE_CURVE('',#611,#611,#613,.T.);
#611 = VERTEX_POINT('',#612);
#612 = CARTESIAN_POINT('',(-23.75,95.,26.));
#613 = CIRCLE('',#614,1.25);
#614 = AXIS2_PLACEMENT_3D('',#615,#616,#617);
#615 = CARTESIAN_POINT('',(-25.,95.,26.));
#616 = DIRECTION('',(0.,-1.,0.));
#617 = DIRECTION('',(1.,0.,0.));
#618 = FACE_BOUND('',#619,.F.);
#619 = EDGE_LOOP('',(#620));
#620 = ORIENTED_EDGE('',*,*,#621,.T.);
#621 = EDGE_CURVE('',#622,#622,#624,.T.);
#622 = VERTEX_POINT('',#623);
#623 = CARTESIAN_POINT('',(26.25,95.,26.));
#624 = CIRCLE('',#625,1.25);
#625 = AXIS2_PLACEMENT_3D('',#626,#627,#628);
#626 = CARTESIAN_POINT('',(25.,95.,26.));
#627 = DIRECTION('',(0.,-1.,0.));
#628 = DIRECTION('',(1.,0.,0.));
#629 = FACE_BOUND('',#630,.F.);
#630 = EDGE_LOOP('',(#631));
#631 = ORIENTED_EDGE('',*,*,#632,.T.);
#632 = EDGE_CURVE('',#633,#633,#635,.T.);
#633 = VERTEX_POINT('',#634);
#634 = CARTESIAN_POINT('',(26.25,95.,-24.));
#635 = CIRCLE('',#636,1.25);
#636 = AXIS2_PLACEMENT_3D('',#637,#638,#639);
#637 = CARTESIAN_POINT('',(25.,95.,-24.));
#638 = DIRECTION('',(0.,-1.,0.));
#639 = DIRECTION('',(1.,0.,0.));
#640 = FACE_BOUND('',#641,.F.);
#641 = EDGE_LOOP('',(#642));
#642 = ORIENTED_EDGE('',*,*,#643,.T.);
#643 = EDGE_CURVE('',#644,#644,#646,.T.);
#644 = VERTEX_POINT('',#645);
#645 = CARTESIAN_POINT('',(-23.75,95.,-24.));
#646 = CIRCLE('',#647,1.25);
#647 = AXIS2_PLACEMENT_3D('',#648,#649,#650);
#648 = CARTESIAN_POINT('',(-25.,95.,-24.));
#649 = DIRECTION('',(0.,-1.,0.));
#650 = DIRECTION('',(1.,0.,0.));
#651 = PLANE('',#652);
#652 = AXIS2_PLACEMENT_3D('',#653,#654,#655);
#653 = CARTESIAN_POINT('',(-4.1E-16,95.,0.71098899777));
#654 = DIRECTION('',(0.,-1.,2.2E-16));
#655 = DIRECTION('',(-0.,-2.2E-16,-1.));
#656 = ADVANCED_FACE('',(#657),#675,.T.);
#657 = FACE_BOUND('',#658,.F.);
#658 = EDGE_LOOP('',(#659,#660,#668,#674));
#659 = ORIENTED_EDGE('',*,*,#549,.T.);
#660 = ORIENTED_EDGE('',*,*,#661,.T.);
#661 = EDGE_CURVE('',#550,#662,#664,.T.);
#662 = VERTEX_POINT('',#663);
#663 = CARTESIAN_POINT('',(-30.,100.,-30.));
#664 = LINE('',#665,#666);
#665 = CARTESIAN_POINT('',(30.,100.,-30.));
#666 = VECTOR('',#667,1.);
#667 = DIRECTION('',(-1.,0.,-0.));
#668 = ORIENTED_EDGE('',*,*,#669,.F.);
#669 = EDGE_CURVE('',#584,#662,#670,.T.);
#670 = LINE('',#671,#672);
#671 = CARTESIAN_POINT('',(-30.,95.,-30.));
#672 = VECTOR('',#673,1.);
#673 = DIRECTION('',(0.,1.,-2.2E-16));
#674 = ORIENTED_EDGE('',*,*,#591,.F.);
#675 = PLANE('',#676);
#676 = AXIS2_PLACEMENT_3D('',#677,#678,#679);
#677 = CARTESIAN_POINT('',(30.,95.,-30.));
#678 = DIRECTION('',(-0.,-2.2E-16,-1.));
#679 = DIRECTION('',(1.,0.,0.));
#680 = ADVANCED_FACE('',(#681),#700,.F.);
#681 = FACE_BOUND('',#682,.F.);
#682 = EDGE_LOOP('',(#683,#691,#698,#699));
#683 = ORIENTED_EDGE('',*,*,#684,.T.);
#684 = EDGE_CURVE('',#600,#685,#687,.T.);
#685 = VERTEX_POINT('',#686);
#686 = CARTESIAN_POINT('',(29.,100.,1.));
#687 = LINE('',#688,#689);
#688 = CARTESIAN_POINT('',(29.,95.,1.));
#689 = VECTOR('',#690,1.);
#690 = DIRECTION('',(0.,1.,-2.2E-16));
#691 = ORIENTED_EDGE('',*,*,#692,.T.);
#692 = EDGE_CURVE('',#685,#685,#693,.T.);
#693 = CIRCLE('',#694,29.);
#694 = AXIS2_PLACEMENT_3D('',#695,#696,#697);
#695 = CARTESIAN_POINT('',(0.,100.,1.));
#696 = DIRECTION('',(0.,-1.,0.));
#697 = DIRECTION('',(1.,0.,0.));
#698 = ORIENTED_EDGE('',*,*,#684,.F.);
#699 = ORIENTED_EDGE('',*,*,#599,.F.);
#700 = CYLINDRICAL_SURFACE('',#701,29.);
#701 = AXIS2_PLACEMENT_3D('',#702,#703,#704);
#702 = CARTESIAN_POINT('',(0.,95.,1.));
#703 = DIRECTION('',(0.,-1.,2.2E-16));
#704 = DIRECTION('',(1.,0.,0.));
#705 = ADVANCED_FACE('',(#706),#725,.F.);
#706 = FACE_BOUND('',#707,.F.);
#707 = EDGE_LOOP('',(#708,#716,#723,#724));
#708 = ORIENTED_EDGE('',*,*,#709,.T.);
#709 = EDGE_CURVE('',#611,#710,#712,.T.);
#710 = VERTEX_POINT('',#711);
#711 = CARTESIAN_POINT('',(-23.75,100.,26.));
#712 = LINE('',#713,#714);
#713 = CARTESIAN_POINT('',(-23.75,95.,26.));
#714 = VECTOR('',#715,1.);
#715 = DIRECTION('',(0.,1.,-2.2E-16));
#716 = ORIENTED_EDGE('',*,*,#717,.T.);
#717 = EDGE_CURVE('',#710,#710,#718,.T.);
#718 = CIRCLE('',#719,1.25);
#719 = AXIS2_PLACEMENT_3D('',#720,#721,#722);
#720 = CARTESIAN_POINT('',(-25.,100.,26.));
#721 = DIRECTION('',(0.,-1.,0.));
#722 = DIRECTION('',(1.,0.,0.));
#723 = ORIENTED_EDGE('',*,*,#709,.F.);
#724 = ORIENTED_EDGE('',*,*,#610,.F.);
#725 = CYLINDRICAL_SURFACE('',#726,1.25);
#726 = AXIS2_PLACEMENT_3D('',#727,#728,#729);
#727 = CARTESIAN_POINT('',(-25.,95.,26.));
#728 = DIRECTION('',(0.,-1.,2.2E-16));
#729 = DIRECTION('',(1.,0.,0.));
#730 = ADVANCED_FACE('',(#731),#750,.F.);
#731 = FACE_BOUND('',#732,.F.);
#732 = EDGE_LOOP('',(#733,#741,#748,#749));
#733 = ORIENTED_EDGE('',*,*,#734,.T.);
#734 = EDGE_CURVE('',#622,#735,#737,.T.);
#735 = VERTEX_POINT('',#736);
#736 = CARTESIAN_POINT('',(26.25,100.,26.));
#737 = LINE('',#738,#739);
#738 = CARTESIAN_POINT('',(26.25,95.,26.));
#739 = VECTOR('',#740,1.);
#740 = DIRECTION('',(0.,1.,-2.2E-16));
#741 = ORIENTED_EDGE('',*,*,#742,.T.);
#742 = EDGE_CURVE('',#735,#735,#743,.T.);
#743 = CIRCLE('',#744,1.25);
#744 = AXIS2_PLACEMENT_3D('',#745,#746,#747);
#745 = CARTESIAN_POINT('',(25.,100.,26.));
#746 = DIRECTION('',(0.,-1.,0.));
#747 = DIRECTION('',(1.,0.,0.));
#748 = ORIENTED_EDGE('',*,*,#734,.F.);
#749 = ORIENTED_EDGE('',*,*,#621,.F.);
#750 = CYLINDRICAL_SURFACE('',#751,1.25);
#751 = AXIS2_PLACEMENT_3D('',#752,#753,#754);
#752 = CARTESIAN_POINT('',(25.,95.,26.));
#753 = DIRECTION('',(0.,-1.,2.2E-16));
#754 = DIRECTION('',(1.,0.,0.));
#755 = ADVANCED_FACE('',(#756),#775,.F.);
#756 = FACE_BOUND('',#757,.F.);
#757 = EDGE_LOOP('',(#758,#766,#773,#774));
#758 = ORIENTED_EDGE('',*,*,#759,.T.);
#759 = EDGE_CURVE('',#633,#760,#762,.T.);
#760 = VERTEX_POINT('',#761);
#761 = CARTESIAN_POINT('',(26.25,100.,-24.));
#762 = LINE('',#763,#764);
#763 = CARTESIAN_POINT('',(26.25,95.,-24.));
#764 = VECTOR('',#765,1.);
#765 = DIRECTION('',(0.,1.,-2.2E-16));
#766 = ORIENTED_EDGE('',*,*,#767,.T.);
#767 = EDGE_CURVE('',#760,#760,#768,.T.);
#768 = CIRCLE('',#769,1.25);
#769 = AXIS2_PLACEMENT_3D('',#770,#771,#772);
#770 = CARTESIAN_POINT('',(25.,100.,-24.));
#771 = DIRECTION('',(0.,-1.,0.));
#772 = DIRECTION('',(1.,0.,0.));
#773 = ORIENTED_EDGE('',*,*,#759,.F.);
#774 = ORIENTED_EDGE('',*,*,#632,.F.);
#775 = CYLINDRICAL_SURFACE('',#776,1.25);
#776 = AXIS2_PLACEMENT_3D('',#777,#778,#779);
#777 = CARTESIAN_POINT('',(25.,95.,-24.));
#778 = DIRECTION('',(0.,-1.,2.2E-16));
#779 = DIRECTION('',(1.,0.,0.));
#780 = ADVANCED_FACE('',(#781),#800,.F.);
#781 = FACE_BOUND('',#782,.F.);
#782 = EDGE_LOOP('',(#783,#791,#798,#799));
#783 = ORIENTED_EDGE('',*,*,#784,.T.);
#784 = EDGE_CURVE('',#644,#785,#787,.T.);
#785 = VERTEX_POINT('',#786);
#786 = CARTESIAN_POINT('',(-23.75,100.,-24.));
#787 = LINE('',#788,#789);
#788 = CARTESIAN_POINT('',(-23.75,95.,-24.));
#789 = VECTOR('',#790,1.);
#790 = DIRECTION('',(0.,1.,-2.2E-16));
#791 = ORIENTED_EDGE('',*,*,#792,.T.);
#792 = EDGE_CURVE('',#785,#785,#793,.T.);
#793 = CIRCLE('',#794,1.25);
#794 = AXIS2_PLACEMENT_3D('',#795,#796,#797);
#795 = CARTESIAN_POINT('',(-25.,100.,-24.));
#796 = DIRECTION('',(0.,-1.,0.));
#797 = DIRECTION('',(1.,0.,0.));
#798 = ORIENTED_EDGE('',*,*,#784,.F.);
#799 = ORIENTED_EDGE('',*,*,#643,.F.);
#800 = CYLINDRICAL_SURFACE('',#801,1.25);
#801 = AXIS2_PLACEMENT_3D('',#802,#803,#804);
#802 = CARTESIAN_POINT('',(-25.,95.,-24.));
#803 = DIRECTION('',(0.,-1.,2.2E-16));
#804 = DIRECTION('',(1.,0.,0.));
#805 = ADVANCED_FACE('',(#806),#817,.T.);
#806 = FACE_BOUND('',#807,.T.);
#807 = EDGE_LOOP('',(#808,#809,#815,#816));
#808 = ORIENTED_EDGE('',*,*,#445,.F.);
#809 = ORIENTED_EDGE('',*,*,#810,.T.);
#810 = EDGE_CURVE('',#438,#406,#811,.T.);
#811 = LINE('',#812,#813);
#812 = CARTESIAN_POINT('',(-32.,100.,33.));
#813 = VECTOR('',#814,1.);
#814 = DIRECTION('',(0.,-4.4E-16,-1.));
#815 = ORIENTED_EDGE('',*,*,#405,.F.);
#816 = ORIENTED_EDGE('',*,*,#39,.F.);
#817 = PLANE('',#818);
#818 = AXIS2_PLACEMENT_3D('',#819,#820,#821);
#819 = CARTESIAN_POINT('',(-32.,50.,-1.8149E-13));
#820 = DIRECTION('',(-1.,-0.,-0.));
#821 = DIRECTION('',(0.,0.,-1.));
#822 = ADVANCED_FACE('',(#823),#843,.T.);
#823 = FACE_BOUND('',#824,.T.);
#824 = EDGE_LOOP('',(#825,#826,#827,#833,#834,#835,#841,#842));
#825 = ORIENTED_EDGE('',*,*,#55,.T.);
#826 = ORIENTED_EDGE('',*,*,#421,.F.);
#827 = ORIENTED_EDGE('',*,*,#828,.F.);
#828 = EDGE_CURVE('',#662,#414,#829,.T.);
#829 = LINE('',#830,#831);
#830 = CARTESIAN_POINT('',(-30.,100.,-29.));
#831 = VECTOR('',#832,1.);
#832 = DIRECTION('',(0.,-2.2E-16,-1.));
#833 = ORIENTED_EDGE('',*,*,#669,.F.);
#834 = ORIENTED_EDGE('',*,*,#583,.T.);
#835 = ORIENTED_EDGE('',*,*,#836,.T.);
#836 = EDGE_CURVE('',#576,#313,#837,.T.);
#837 = LINE('',#838,#839);
#838 = CARTESIAN_POINT('',(-30.,100.,31.));
#839 = VECTOR('',#840,1.);
#840 = DIRECTION('',(0.,-1.,2.2E-16));
#841 = ORIENTED_EDGE('',*,*,#320,.F.);
#842 = ORIENTED_EDGE('',*,*,#157,.T.);
#843 = PLANE('',#844);
#844 = AXIS2_PLACEMENT_3D('',#845,#846,#847);
#845 = CARTESIAN_POINT('',(-30.,50.,-2.859756097561));
#846 = DIRECTION('',(1.,0.,0.));
#847 = DIRECTION('',(0.,0.,1.));
#848 = ADVANCED_FACE('',(#849,#859,#862,#865,#868,#871),#874,.T.);
#849 = FACE_BOUND('',#850,.T.);
#850 = EDGE_LOOP('',(#851,#852,#853,#854,#855,#856,#857,#858));
#851 = ORIENTED_EDGE('',*,*,#358,.F.);
#852 = ORIENTED_EDGE('',*,*,#391,.T.);
#853 = ORIENTED_EDGE('',*,*,#557,.T.);
#854 = ORIENTED_EDGE('',*,*,#661,.T.);
#855 = ORIENTED_EDGE('',*,*,#828,.T.);
#856 = ORIENTED_EDGE('',*,*,#413,.F.);
#857 = ORIENTED_EDGE('',*,*,#810,.F.);
#858 = ORIENTED_EDGE('',*,*,#437,.F.);
#859 = FACE_BOUND('',#860,.T.);
#860 = EDGE_LOOP('',(#861));
#861 = ORIENTED_EDGE('',*,*,#692,.T.);
#862 = FACE_BOUND('',#863,.T.);
#863 = EDGE_LOOP('',(#864));
#864 = ORIENTED_EDGE('',*,*,#717,.T.);
#865 = FACE_BOUND('',#866,.T.);
#866 = EDGE_LOOP('',(#867));
#867 = ORIENTED_EDGE('',*,*,#742,.T.);
#868 = FACE_BOUND('',#869,.T.);
#869 = EDGE_LOOP('',(#870));
#870 = ORIENTED_EDGE('',*,*,#767,.T.);
#871 = FACE_BOUND('',#872,.T.);
#872 = EDGE_LOOP('',(#873));
#873 = ORIENTED_EDGE('',*,*,#792,.T.);
#874 = PLANE('',#875);
#875 = AXIS2_PLACEMENT_3D('',#876,#877,#878);
#876 = CARTESIAN_POINT('',(2.265E-14,100.,-3.383458646636E-02));
#877 = DIRECTION('',(0.,1.,-3.4E-16));
#878 = DIRECTION('',(0.,3.4E-16,1.));
#879 = ADVANCED_FACE('',(#880,#886,#889),#892,.T.);
#880 = FACE_BOUND('',#881,.T.);
#881 = EDGE_LOOP('',(#882,#883,#884,#885));
#882 = ORIENTED_EDGE('',*,*,#312,.T.);
#883 = ORIENTED_EDGE('',*,*,#836,.F.);
#884 = ORIENTED_EDGE('',*,*,#575,.F.);
#885 = ORIENTED_EDGE('',*,*,#533,.F.);
#886 = FACE_BOUND('',#887,.T.);
#887 = EDGE_LOOP('',(#888));
#888 = ORIENTED_EDGE('',*,*,#517,.F.);
#889 = FACE_BOUND('',#890,.T.);
#890 = EDGE_LOOP('',(#891));
#891 = ORIENTED_EDGE('',*,*,#492,.F.);
#892 = PLANE('',#893);
#893 = AXIS2_PLACEMENT_3D('',#894,#895,#896);
#894 = CARTESIAN_POINT('',(1.971E-14,50.,31.));
#895 = DIRECTION('',(-0.,-2.4E-16,-1.));
#896 = DIRECTION('',(0.,-1.,2.4E-16));
#897 = ( GEOMETRIC_REPRESENTATION_CONTEXT(3) 
GLOBAL_UNCERTAINTY_ASSIGNED_CONTEXT((#901)) GLOBAL_UNIT_ASSIGNED_CONTEXT
((#898,#899,#900)) REPRESENTATION_CONTEXT('Context #1',
  '3D Context with UNIT and UNCERTAINTY') );
#898 = ( LENGTH_UNIT() NAMED_UNIT(*) SI_UNIT(.MILLI.,.METRE.) );
#899 = ( NAMED_UNIT(*) PLANE_ANGLE_UNIT() SI_UNIT($,.RADIAN.) );
#900 = ( NAMED_UNIT(*) SI_UNIT($,.STERADIAN.) SOLID_ANGLE_UNIT() );
#901 = UNCERTAINTY_MEASURE_WITH_UNIT(LENGTH_MEASURE(1.E-07),#898,
  'distance_accuracy_value','confusion accuracy');
#902 = PRODUCT_RELATED_PRODUCT_CATEGORY('part',$,(#7));
#903 = MECHANICAL_DESIGN_GEOMETRIC_PRESENTATION_REPRESENTATION('',(#904)
  ,#897);
#904 = STYLED_ITEM('color',(#905),#15);
#905 = PRESENTATION_STYLE_ASSIGNMENT((#906,#912));
#906 = SURFACE_STYLE_USAGE(.BOTH.,#907);
#907 = SURFACE_SIDE_STYLE('',(#908));
#908 = SURFACE_STYLE_FILL_AREA(#909);
#909 = FILL_AREA_STYLE('',(#910));
#910 = FILL_AREA_STYLE_COLOUR('',#911);
#911 = COLOUR_RGB('',0.678431390124,0.709803936702,0.741176476869);
#912 = CURVE_STYLE('',#913,POSITIVE_LENGTH_MEASURE(0.1),#914);
#913 = DRAUGHTING_PRE_DEFINED_CURVE_FONT('continuous');
#914 = COLOUR_RGB('',9.803921802644E-02,9.803921802644E-02,
  9.803921802644E-02);
ENDSEC;
END-ISO-10303-21;
