ISO-10303-21;
HEADER;
FILE_DESCRIPTION(('FreeCAD Model'),'2;1');
FILE_NAME('Open CASCADE Shape Model','2026-08-16T20:21:40',(''),(''),
  'Open CASCADE STEP processor 7.8','FreeCAD','Unknown');
FILE_SCHEMA(('AUTOMOTIVE_DESIGN { 1 0 10303 214 1 1 1 1 }'));
ENDSEC;
DATA;
#1 = APPLICATION_PROTOCOL_DEFINITION('international standard',
  'automotive_design',2000,#2);
#2 = APPLICATION_CONTEXT(
  'core data for automotive mechanical design processes');
#3 = SHAPE_DEFINITION_REPRESENTATION(#4,#10);
#4 = PRODUCT_DEFINITION_SHAPE('','',#5);
#5 = PRODUCT_DEFINITION('design','',#6,#9);
#6 = PRODUCT_DEFINITION_FORMATION('','',#7);
#7 = PRODUCT('Slice.1','Slice.1','',(#8));
#8 = PRODUCT_CONTEXT('',#2,'mechanical');
#9 = PRODUCT_DEFINITION_CONTEXT('part definition',#2,'design');
#10 = ADVANCED_BREP_SHAPE_REPRESENTATION('',(#11,#15),#1915);
#11 = AXIS2_PLACEMENT_3D('',#12,#13,#14);
#12 = CARTESIAN_POINT('',(0.,0.,0.));
#13 = DIRECTION('',(0.,0.,1.));
#14 = DIRECTION('',(1.,0.,-0.));
#15 = MANIFOLD_SOLID_BREP('',#16);
#16 = CLOSED_SHELL('',(#17,#185,#470,#494,#518,#535,#559,#583,#600,#624,
    #648,#665,#689,#713,#730,#826,#918,#935,#966,#990,#1086,#1103,#1115,
    #1127,#1139,#1151,#1255,#1279,#1303,#1320,#1344,#1368,#1385,#1409,
    #1433,#1450,#1474,#1498,#1515,#1537,#1554,#1571,#1583,#1605,#1622,
    #1639,#1651,#1682,#1706,#1730,#1747,#1778,#1802,#1826,#1843,#1867,
    #1879,#1891,#1903));
#17 = ADVANCED_FACE('',(#18),#180,.T.);
#18 = FACE_BOUND('',#19,.T.);
#19 = EDGE_LOOP('',(#20,#30,#38,#46,#54,#62,#70,#78,#86,#94,#102,#110,
    #118,#126,#134,#142,#150,#158,#166,#174));
#20 = ORIENTED_EDGE('',*,*,#21,.F.);
#21 = EDGE_CURVE('',#22,#24,#26,.T.);
#22 = VERTEX_POINT('',#23);
#23 = CARTESIAN_POINT('',(-21.75,-57.9,-21.75));
#24 = VERTEX_POINT('',#25);
#25 = CARTESIAN_POINT('',(-8.32,-57.9,-21.75));
#26 = LINE('',#27,#28);
#27 = CARTESIAN_POINT('',(-10.875,-57.9,-21.75));
#28 = VECTOR('',#29,1.);
#29 = DIRECTION('',(1.,0.,0.));
#30 = ORIENTED_EDGE('',*,*,#31,.T.);
#31 = EDGE_CURVE('',#22,#32,#34,.T.);
#32 = VERTEX_POINT('',#33);
#33 = CARTESIAN_POINT('',(-21.75,-89.9,-21.75));
#34 = LINE('',#35,#36);
#35 = CARTESIAN_POINT('',(-21.75,-4.5,-21.75));
#36 = VECTOR('',#37,1.);
#37 = DIRECTION('',(0.,-1.,2.22044604925E-16));
#38 = ORIENTED_EDGE('',*,*,#39,.T.);
#39 = EDGE_CURVE('',#32,#40,#42,.T.);
#40 = VERTEX_POINT('',#41);
#41 = CARTESIAN_POINT('',(21.75,-89.9,-21.75));
#42 = LINE('',#43,#44);
#43 = CARTESIAN_POINT('',(-21.75,-89.9,-21.75));
#44 = VECTOR('',#45,1.);
#45 = DIRECTION('',(1.,0.,0.));
#46 = ORIENTED_EDGE('',*,*,#47,.F.);
#47 = EDGE_CURVE('',#48,#40,#50,.T.);
#48 = VERTEX_POINT('',#49);
#49 = CARTESIAN_POINT('',(21.75,-57.9,-21.75));
#50 = LINE('',#51,#52);
#51 = CARTESIAN_POINT('',(21.75,-4.5,-21.75));
#52 = VECTOR('',#53,1.);
#53 = DIRECTION('',(0.,-1.,2.22044604925E-16));
#54 = ORIENTED_EDGE('',*,*,#55,.F.);
#55 = EDGE_CURVE('',#56,#48,#58,.T.);
#56 = VERTEX_POINT('',#57);
#57 = CARTESIAN_POINT('',(9.32,-57.9,-21.75));
#58 = LINE('',#59,#60);
#59 = CARTESIAN_POINT('',(-10.875,-57.9,-21.75));
#60 = VECTOR('',#61,1.);
#61 = DIRECTION('',(1.,0.,0.));
#62 = ORIENTED_EDGE('',*,*,#63,.T.);
#63 = EDGE_CURVE('',#56,#64,#66,.T.);
#64 = VERTEX_POINT('',#65);
#65 = CARTESIAN_POINT('',(9.32,-76.5,-21.75));
#66 = LINE('',#67,#68);
#67 = CARTESIAN_POINT('',(9.32,-32.5,-21.75));
#68 = VECTOR('',#69,1.);
#69 = DIRECTION('',(-0.,-1.,-2.22044604925E-16));
#70 = ORIENTED_EDGE('',*,*,#71,.F.);
#71 = EDGE_CURVE('',#72,#64,#74,.T.);
#72 = VERTEX_POINT('',#73);
#73 = CARTESIAN_POINT('',(8.32,-76.5,-21.75));
#74 = LINE('',#75,#76);
#75 = CARTESIAN_POINT('',(8.32,-76.5,-21.75));
#76 = VECTOR('',#77,1.);
#77 = DIRECTION('',(1.,-0.,0.));
#78 = ORIENTED_EDGE('',*,*,#79,.F.);
#79 = EDGE_CURVE('',#80,#72,#82,.T.);
#80 = VERTEX_POINT('',#81);
#81 = CARTESIAN_POINT('',(8.32,-57.9,-21.75));
#82 = LINE('',#83,#84);
#83 = CARTESIAN_POINT('',(8.32,-32.5,-21.75));
#84 = VECTOR('',#85,1.);
#85 = DIRECTION('',(-0.,-1.,-2.22044604925E-16));
#86 = ORIENTED_EDGE('',*,*,#87,.F.);
#87 = EDGE_CURVE('',#88,#80,#90,.T.);
#88 = VERTEX_POINT('',#89);
#89 = CARTESIAN_POINT('',(6.68,-57.9,-21.75));
#90 = LINE('',#91,#92);
#91 = CARTESIAN_POINT('',(-10.875,-57.9,-21.75));
#92 = VECTOR('',#93,1.);
#93 = DIRECTION('',(1.,0.,0.));
#94 = ORIENTED_EDGE('',*,*,#95,.T.);
#95 = EDGE_CURVE('',#88,#96,#98,.T.);
#96 = VERTEX_POINT('',#97);
#97 = CARTESIAN_POINT('',(6.68,-76.5,-21.75));
#98 = LINE('',#99,#100);
#99 = CARTESIAN_POINT('',(6.68,-32.5,-21.75));
#100 = VECTOR('',#101,1.);
#101 = DIRECTION('',(-0.,-1.,-2.22044604925E-16));
#102 = ORIENTED_EDGE('',*,*,#103,.F.);
#103 = EDGE_CURVE('',#104,#96,#106,.T.);
#104 = VERTEX_POINT('',#105);
#105 = CARTESIAN_POINT('',(5.68,-76.5,-21.75));
#106 = LINE('',#107,#108);
#107 = CARTESIAN_POINT('',(5.68,-76.5,-21.75));
#108 = VECTOR('',#109,1.);
#109 = DIRECTION('',(1.,-0.,0.));
#110 = ORIENTED_EDGE('',*,*,#111,.F.);
#111 = EDGE_CURVE('',#112,#104,#114,.T.);
#112 = VERTEX_POINT('',#113);
#113 = CARTESIAN_POINT('',(5.68,-57.9,-21.75));
#114 = LINE('',#115,#116);
#115 = CARTESIAN_POINT('',(5.68,-32.5,-21.75));
#116 = VECTOR('',#117,1.);
#117 = DIRECTION('',(-0.,-1.,-2.22044604925E-16));
#118 = ORIENTED_EDGE('',*,*,#119,.F.);
#119 = EDGE_CURVE('',#120,#112,#122,.T.);
#120 = VERTEX_POINT('',#121);
#121 = CARTESIAN_POINT('',(-4.68,-57.9,-21.75));
#122 = LINE('',#123,#124);
#123 = CARTESIAN_POINT('',(-10.875,-57.9,-21.75));
#124 = VECTOR('',#125,1.);
#125 = DIRECTION('',(1.,0.,0.));
#126 = ORIENTED_EDGE('',*,*,#127,.T.);
#127 = EDGE_CURVE('',#120,#128,#130,.T.);
#128 = VERTEX_POINT('',#129);
#129 = CARTESIAN_POINT('',(-4.68,-76.5,-21.75));
#130 = LINE('',#131,#132);
#131 = CARTESIAN_POINT('',(-4.68,-32.5,-21.75));
#132 = VECTOR('',#133,1.);
#133 = DIRECTION('',(-0.,-1.,-2.22044604925E-16));
#134 = ORIENTED_EDGE('',*,*,#135,.F.);
#135 = EDGE_CURVE('',#136,#128,#138,.T.);
#136 = VERTEX_POINT('',#137);
#137 = CARTESIAN_POINT('',(-5.68,-76.5,-21.75));
#138 = LINE('',#139,#140);
#139 = CARTESIAN_POINT('',(-5.68,-76.5,-21.75));
#140 = VECTOR('',#141,1.);
#141 = DIRECTION('',(1.,-0.,0.));
#142 = ORIENTED_EDGE('',*,*,#143,.F.);
#143 = EDGE_CURVE('',#144,#136,#146,.T.);
#144 = VERTEX_POINT('',#145);
#145 = CARTESIAN_POINT('',(-5.68,-57.9,-21.75));
#146 = LINE('',#147,#148);
#147 = CARTESIAN_POINT('',(-5.68,-32.5,-21.75));
#148 = VECTOR('',#149,1.);
#149 = DIRECTION('',(-0.,-1.,-2.22044604925E-16));
#150 = ORIENTED_EDGE('',*,*,#151,.F.);
#151 = EDGE_CURVE('',#152,#144,#154,.T.);
#152 = VERTEX_POINT('',#153);
#153 = CARTESIAN_POINT('',(-7.32,-57.9,-21.75));
#154 = LINE('',#155,#156);
#155 = CARTESIAN_POINT('',(-10.875,-57.9,-21.75));
#156 = VECTOR('',#157,1.);
#157 = DIRECTION('',(1.,0.,0.));
#158 = ORIENTED_EDGE('',*,*,#159,.T.);
#159 = EDGE_CURVE('',#152,#160,#162,.T.);
#160 = VERTEX_POINT('',#161);
#161 = CARTESIAN_POINT('',(-7.32,-76.5,-21.75));
#162 = LINE('',#163,#164);
#163 = CARTESIAN_POINT('',(-7.32,-32.5,-21.75));
#164 = VECTOR('',#165,1.);
#165 = DIRECTION('',(-0.,-1.,-2.22044604925E-16));
#166 = ORIENTED_EDGE('',*,*,#167,.F.);
#167 = EDGE_CURVE('',#168,#160,#170,.T.);
#168 = VERTEX_POINT('',#169);
#169 = CARTESIAN_POINT('',(-8.32,-76.5,-21.75));
#170 = LINE('',#171,#172);
#171 = CARTESIAN_POINT('',(-8.32,-76.5,-21.75));
#172 = VECTOR('',#173,1.);
#173 = DIRECTION('',(1.,-0.,0.));
#174 = ORIENTED_EDGE('',*,*,#175,.F.);
#175 = EDGE_CURVE('',#24,#168,#176,.T.);
#176 = LINE('',#177,#178);
#177 = CARTESIAN_POINT('',(-8.32,-32.5,-21.75));
#178 = VECTOR('',#179,1.);
#179 = DIRECTION('',(-0.,-1.,-2.22044604925E-16));
#180 = PLANE('',#181);
#181 = AXIS2_PLACEMENT_3D('',#182,#183,#184);
#182 = CARTESIAN_POINT('',(-21.75,-4.5,-21.75));
#183 = DIRECTION('',(0.,2.22044604925E-16,1.));
#184 = DIRECTION('',(1.,0.,0.));
#185 = ADVANCED_FACE('',(#186,#220),#465,.F.);
#186 = FACE_BOUND('',#187,.F.);
#187 = EDGE_LOOP('',(#188,#198,#206,#214));
#188 = ORIENTED_EDGE('',*,*,#189,.F.);
#189 = EDGE_CURVE('',#190,#192,#194,.T.);
#190 = VERTEX_POINT('',#191);
#191 = CARTESIAN_POINT('',(-23.,-57.9,-23.));
#192 = VERTEX_POINT('',#193);
#193 = CARTESIAN_POINT('',(-23.,-57.9,23.));
#194 = LINE('',#195,#196);
#195 = CARTESIAN_POINT('',(-23.,-57.9,1.144730422828E-14));
#196 = VECTOR('',#197,1.);
#197 = DIRECTION('',(0.,2.22044604925E-16,1.));
#198 = ORIENTED_EDGE('',*,*,#199,.F.);
#199 = EDGE_CURVE('',#200,#190,#202,.T.);
#200 = VERTEX_POINT('',#201);
#201 = CARTESIAN_POINT('',(23.,-57.9,-23.));
#202 = LINE('',#203,#204);
#203 = CARTESIAN_POINT('',(0.,-57.9,-23.));
#204 = VECTOR('',#205,1.);
#205 = DIRECTION('',(-1.,0.,0.));
#206 = ORIENTED_EDGE('',*,*,#207,.F.);
#207 = EDGE_CURVE('',#208,#200,#210,.T.);
#208 = VERTEX_POINT('',#209);
#209 = CARTESIAN_POINT('',(23.,-57.9,23.));
#210 = LINE('',#211,#212);
#211 = CARTESIAN_POINT('',(23.,-57.9,1.123182500591E-14));
#212 = VECTOR('',#213,1.);
#213 = DIRECTION('',(0.,-2.22044604925E-16,-1.));
#214 = ORIENTED_EDGE('',*,*,#215,.F.);
#215 = EDGE_CURVE('',#192,#208,#216,.T.);
#216 = LINE('',#217,#218);
#217 = CARTESIAN_POINT('',(0.,-57.9,23.));
#218 = VECTOR('',#219,1.);
#219 = DIRECTION('',(1.,0.,0.));
#220 = FACE_BOUND('',#221,.F.);
#221 = EDGE_LOOP('',(#222,#223,#231,#239,#247,#255,#263,#271,#279,#287,
    #295,#303,#311,#319,#327,#335,#343,#351,#359,#367,#373,#374,#382,
    #390,#396,#397,#405,#413,#419,#420,#428,#436,#442,#443,#451,#459));
#222 = ORIENTED_EDGE('',*,*,#21,.F.);
#223 = ORIENTED_EDGE('',*,*,#224,.F.);
#224 = EDGE_CURVE('',#225,#22,#227,.T.);
#225 = VERTEX_POINT('',#226);
#226 = CARTESIAN_POINT('',(-21.75,-57.9,21.75));
#227 = LINE('',#228,#229);
#228 = CARTESIAN_POINT('',(-21.75,-57.9,10.875));
#229 = VECTOR('',#230,1.);
#230 = DIRECTION('',(0.,-2.22044604925E-16,-1.));
#231 = ORIENTED_EDGE('',*,*,#232,.F.);
#232 = EDGE_CURVE('',#233,#225,#235,.T.);
#233 = VERTEX_POINT('',#234);
#234 = CARTESIAN_POINT('',(-8.32,-57.9,21.75));
#235 = LINE('',#236,#237);
#236 = CARTESIAN_POINT('',(10.875,-57.9,21.75));
#237 = VECTOR('',#238,1.);
#238 = DIRECTION('',(-1.,0.,0.));
#239 = ORIENTED_EDGE('',*,*,#240,.F.);
#240 = EDGE_CURVE('',#241,#233,#243,.T.);
#241 = VERTEX_POINT('',#242);
#242 = CARTESIAN_POINT('',(-8.32,-57.9,20.55));
#243 = LINE('',#244,#245);
#244 = CARTESIAN_POINT('',(-8.32,-57.9,10.275));
#245 = VECTOR('',#246,1.);
#246 = DIRECTION('',(0.,2.22044604925E-16,1.));
#247 = ORIENTED_EDGE('',*,*,#248,.F.);
#248 = EDGE_CURVE('',#249,#241,#251,.T.);
#249 = VERTEX_POINT('',#250);
#250 = CARTESIAN_POINT('',(-7.32,-57.9,20.55));
#251 = LINE('',#252,#253);
#252 = CARTESIAN_POINT('',(-3.66,-57.9,20.55));
#253 = VECTOR('',#254,1.);
#254 = DIRECTION('',(-1.,0.,0.));
#255 = ORIENTED_EDGE('',*,*,#256,.F.);
#256 = EDGE_CURVE('',#257,#249,#259,.T.);
#257 = VERTEX_POINT('',#258);
#258 = CARTESIAN_POINT('',(-7.32,-57.9,21.75));
#259 = LINE('',#260,#261);
#260 = CARTESIAN_POINT('',(-7.32,-57.9,10.875));
#261 = VECTOR('',#262,1.);
#262 = DIRECTION('',(0.,-2.22044604925E-16,-1.));
#263 = ORIENTED_EDGE('',*,*,#264,.F.);
#264 = EDGE_CURVE('',#265,#257,#267,.T.);
#265 = VERTEX_POINT('',#266);
#266 = CARTESIAN_POINT('',(-5.68,-57.9,21.75));
#267 = LINE('',#268,#269);
#268 = CARTESIAN_POINT('',(10.875,-57.9,21.75));
#269 = VECTOR('',#270,1.);
#270 = DIRECTION('',(-1.,0.,0.));
#271 = ORIENTED_EDGE('',*,*,#272,.F.);
#272 = EDGE_CURVE('',#273,#265,#275,.T.);
#273 = VERTEX_POINT('',#274);
#274 = CARTESIAN_POINT('',(-5.68,-57.9,20.55));
#275 = LINE('',#276,#277);
#276 = CARTESIAN_POINT('',(-5.68,-57.9,10.275));
#277 = VECTOR('',#278,1.);
#278 = DIRECTION('',(0.,2.22044604925E-16,1.));
#279 = ORIENTED_EDGE('',*,*,#280,.F.);
#280 = EDGE_CURVE('',#281,#273,#283,.T.);
#281 = VERTEX_POINT('',#282);
#282 = CARTESIAN_POINT('',(-4.68,-57.9,20.55));
#283 = LINE('',#284,#285);
#284 = CARTESIAN_POINT('',(-2.34,-57.9,20.55));
#285 = VECTOR('',#286,1.);
#286 = DIRECTION('',(-1.,0.,0.));
#287 = ORIENTED_EDGE('',*,*,#288,.F.);
#288 = EDGE_CURVE('',#289,#281,#291,.T.);
#289 = VERTEX_POINT('',#290);
#290 = CARTESIAN_POINT('',(-4.68,-57.9,21.75));
#291 = LINE('',#292,#293);
#292 = CARTESIAN_POINT('',(-4.68,-57.9,10.875));
#293 = VECTOR('',#294,1.);
#294 = DIRECTION('',(0.,-2.22044604925E-16,-1.));
#295 = ORIENTED_EDGE('',*,*,#296,.F.);
#296 = EDGE_CURVE('',#297,#289,#299,.T.);
#297 = VERTEX_POINT('',#298);
#298 = CARTESIAN_POINT('',(5.68,-57.9,21.75));
#299 = LINE('',#300,#301);
#300 = CARTESIAN_POINT('',(10.875,-57.9,21.75));
#301 = VECTOR('',#302,1.);
#302 = DIRECTION('',(-1.,0.,0.));
#303 = ORIENTED_EDGE('',*,*,#304,.F.);
#304 = EDGE_CURVE('',#305,#297,#307,.T.);
#305 = VERTEX_POINT('',#306);
#306 = CARTESIAN_POINT('',(5.68,-57.9,20.55));
#307 = LINE('',#308,#309);
#308 = CARTESIAN_POINT('',(5.68,-57.9,10.275));
#309 = VECTOR('',#310,1.);
#310 = DIRECTION('',(0.,2.22044604925E-16,1.));
#311 = ORIENTED_EDGE('',*,*,#312,.F.);
#312 = EDGE_CURVE('',#313,#305,#315,.T.);
#313 = VERTEX_POINT('',#314);
#314 = CARTESIAN_POINT('',(6.68,-57.9,20.55));
#315 = LINE('',#316,#317);
#316 = CARTESIAN_POINT('',(3.34,-57.9,20.55));
#317 = VECTOR('',#318,1.);
#318 = DIRECTION('',(-1.,0.,0.));
#319 = ORIENTED_EDGE('',*,*,#320,.F.);
#320 = EDGE_CURVE('',#321,#313,#323,.T.);
#321 = VERTEX_POINT('',#322);
#322 = CARTESIAN_POINT('',(6.68,-57.9,21.75));
#323 = LINE('',#324,#325);
#324 = CARTESIAN_POINT('',(6.68,-57.9,10.875));
#325 = VECTOR('',#326,1.);
#326 = DIRECTION('',(0.,-2.22044604925E-16,-1.));
#327 = ORIENTED_EDGE('',*,*,#328,.F.);
#328 = EDGE_CURVE('',#329,#321,#331,.T.);
#329 = VERTEX_POINT('',#330);
#330 = CARTESIAN_POINT('',(8.32,-57.9,21.75));
#331 = LINE('',#332,#333);
#332 = CARTESIAN_POINT('',(10.875,-57.9,21.75));
#333 = VECTOR('',#334,1.);
#334 = DIRECTION('',(-1.,0.,0.));
#335 = ORIENTED_EDGE('',*,*,#336,.F.);
#336 = EDGE_CURVE('',#337,#329,#339,.T.);
#337 = VERTEX_POINT('',#338);
#338 = CARTESIAN_POINT('',(8.32,-57.9,20.55));
#339 = LINE('',#340,#341);
#340 = CARTESIAN_POINT('',(8.32,-57.9,10.275));
#341 = VECTOR('',#342,1.);
#342 = DIRECTION('',(0.,2.22044604925E-16,1.));
#343 = ORIENTED_EDGE('',*,*,#344,.F.);
#344 = EDGE_CURVE('',#345,#337,#347,.T.);
#345 = VERTEX_POINT('',#346);
#346 = CARTESIAN_POINT('',(9.32,-57.9,20.55));
#347 = LINE('',#348,#349);
#348 = CARTESIAN_POINT('',(4.66,-57.9,20.55));
#349 = VECTOR('',#350,1.);
#350 = DIRECTION('',(-1.,0.,0.));
#351 = ORIENTED_EDGE('',*,*,#352,.F.);
#352 = EDGE_CURVE('',#353,#345,#355,.T.);
#353 = VERTEX_POINT('',#354);
#354 = CARTESIAN_POINT('',(9.32,-57.9,21.75));
#355 = LINE('',#356,#357);
#356 = CARTESIAN_POINT('',(9.32,-57.9,10.875));
#357 = VECTOR('',#358,1.);
#358 = DIRECTION('',(0.,-2.22044604925E-16,-1.));
#359 = ORIENTED_EDGE('',*,*,#360,.F.);
#360 = EDGE_CURVE('',#361,#353,#363,.T.);
#361 = VERTEX_POINT('',#362);
#362 = CARTESIAN_POINT('',(21.75,-57.9,21.75));
#363 = LINE('',#364,#365);
#364 = CARTESIAN_POINT('',(10.875,-57.9,21.75));
#365 = VECTOR('',#366,1.);
#366 = DIRECTION('',(-1.,0.,0.));
#367 = ORIENTED_EDGE('',*,*,#368,.F.);
#368 = EDGE_CURVE('',#48,#361,#369,.T.);
#369 = LINE('',#370,#371);
#370 = CARTESIAN_POINT('',(21.75,-57.9,-10.875));
#371 = VECTOR('',#372,1.);
#372 = DIRECTION('',(0.,2.22044604925E-16,1.));
#373 = ORIENTED_EDGE('',*,*,#55,.F.);
#374 = ORIENTED_EDGE('',*,*,#375,.T.);
#375 = EDGE_CURVE('',#56,#376,#378,.T.);
#376 = VERTEX_POINT('',#377);
#377 = CARTESIAN_POINT('',(9.32,-57.9,-20.55));
#378 = LINE('',#379,#380);
#379 = CARTESIAN_POINT('',(9.32,-57.9,-10.875));
#380 = VECTOR('',#381,1.);
#381 = DIRECTION('',(0.,2.22044604925E-16,1.));
#382 = ORIENTED_EDGE('',*,*,#383,.T.);
#383 = EDGE_CURVE('',#376,#384,#386,.T.);
#384 = VERTEX_POINT('',#385);
#385 = CARTESIAN_POINT('',(8.32,-57.9,-20.55));
#386 = LINE('',#387,#388);
#387 = CARTESIAN_POINT('',(4.66,-57.9,-20.55));
#388 = VECTOR('',#389,1.);
#389 = DIRECTION('',(-1.,0.,0.));
#390 = ORIENTED_EDGE('',*,*,#391,.T.);
#391 = EDGE_CURVE('',#384,#80,#392,.T.);
#392 = LINE('',#393,#394);
#393 = CARTESIAN_POINT('',(8.32,-57.9,-10.275));
#394 = VECTOR('',#395,1.);
#395 = DIRECTION('',(0.,-2.22044604925E-16,-1.));
#396 = ORIENTED_EDGE('',*,*,#87,.F.);
#397 = ORIENTED_EDGE('',*,*,#398,.T.);
#398 = EDGE_CURVE('',#88,#399,#401,.T.);
#399 = VERTEX_POINT('',#400);
#400 = CARTESIAN_POINT('',(6.68,-57.9,-20.55));
#401 = LINE('',#402,#403);
#402 = CARTESIAN_POINT('',(6.68,-57.9,-10.875));
#403 = VECTOR('',#404,1.);
#404 = DIRECTION('',(0.,2.22044604925E-16,1.));
#405 = ORIENTED_EDGE('',*,*,#406,.T.);
#406 = EDGE_CURVE('',#399,#407,#409,.T.);
#407 = VERTEX_POINT('',#408);
#408 = CARTESIAN_POINT('',(5.68,-57.9,-20.55));
#409 = LINE('',#410,#411);
#410 = CARTESIAN_POINT('',(3.34,-57.9,-20.55));
#411 = VECTOR('',#412,1.);
#412 = DIRECTION('',(-1.,0.,0.));
#413 = ORIENTED_EDGE('',*,*,#414,.T.);
#414 = EDGE_CURVE('',#407,#112,#415,.T.);
#415 = LINE('',#416,#417);
#416 = CARTESIAN_POINT('',(5.68,-57.9,-10.275));
#417 = VECTOR('',#418,1.);
#418 = DIRECTION('',(0.,-2.22044604925E-16,-1.));
#419 = ORIENTED_EDGE('',*,*,#119,.F.);
#420 = ORIENTED_EDGE('',*,*,#421,.T.);
#421 = EDGE_CURVE('',#120,#422,#424,.T.);
#422 = VERTEX_POINT('',#423);
#423 = CARTESIAN_POINT('',(-4.68,-57.9,-20.55));
#424 = LINE('',#425,#426);
#425 = CARTESIAN_POINT('',(-4.68,-57.9,-10.875));
#426 = VECTOR('',#427,1.);
#427 = DIRECTION('',(0.,2.22044604925E-16,1.));
#428 = ORIENTED_EDGE('',*,*,#429,.T.);
#429 = EDGE_CURVE('',#422,#430,#432,.T.);
#430 = VERTEX_POINT('',#431);
#431 = CARTESIAN_POINT('',(-5.68,-57.9,-20.55));
#432 = LINE('',#433,#434);
#433 = CARTESIAN_POINT('',(-2.34,-57.9,-20.55));
#434 = VECTOR('',#435,1.);
#435 = DIRECTION('',(-1.,0.,0.));
#436 = ORIENTED_EDGE('',*,*,#437,.T.);
#437 = EDGE_CURVE('',#430,#144,#438,.T.);
#438 = LINE('',#439,#440);
#439 = CARTESIAN_POINT('',(-5.68,-57.9,-10.275));
#440 = VECTOR('',#441,1.);
#441 = DIRECTION('',(0.,-2.22044604925E-16,-1.));
#442 = ORIENTED_EDGE('',*,*,#151,.F.);
#443 = ORIENTED_EDGE('',*,*,#444,.T.);
#444 = EDGE_CURVE('',#152,#445,#447,.T.);
#445 = VERTEX_POINT('',#446);
#446 = CARTESIAN_POINT('',(-7.32,-57.9,-20.55));
#447 = LINE('',#448,#449);
#448 = CARTESIAN_POINT('',(-7.32,-57.9,-10.875));
#449 = VECTOR('',#450,1.);
#450 = DIRECTION('',(0.,2.22044604925E-16,1.));
#451 = ORIENTED_EDGE('',*,*,#452,.T.);
#452 = EDGE_CURVE('',#445,#453,#455,.T.);
#453 = VERTEX_POINT('',#454);
#454 = CARTESIAN_POINT('',(-8.32,-57.9,-20.55));
#455 = LINE('',#456,#457);
#456 = CARTESIAN_POINT('',(-3.66,-57.9,-20.55));
#457 = VECTOR('',#458,1.);
#458 = DIRECTION('',(-1.,0.,0.));
#459 = ORIENTED_EDGE('',*,*,#460,.T.);
#460 = EDGE_CURVE('',#453,#24,#461,.T.);
#461 = LINE('',#462,#463);
#462 = CARTESIAN_POINT('',(-8.32,-57.9,-10.275));
#463 = VECTOR('',#464,1.);
#464 = DIRECTION('',(0.,-2.22044604925E-16,-1.));
#465 = PLANE('',#466);
#466 = AXIS2_PLACEMENT_3D('',#467,#468,#469);
#467 = CARTESIAN_POINT('',(0.,-57.9,1.1857181903E-14));
#468 = DIRECTION('',(0.,-1.,2.22044604925E-16));
#469 = DIRECTION('',(1.,0.,0.));
#470 = ADVANCED_FACE('',(#471),#489,.T.);
#471 = FACE_BOUND('',#472,.F.);
#472 = EDGE_LOOP('',(#473,#474,#482,#488));
#473 = ORIENTED_EDGE('',*,*,#460,.F.);
#474 = ORIENTED_EDGE('',*,*,#475,.T.);
#475 = EDGE_CURVE('',#453,#476,#478,.T.);
#476 = VERTEX_POINT('',#477);
#477 = CARTESIAN_POINT('',(-8.32,-76.5,-20.55));
#478 = LINE('',#479,#480);
#479 = CARTESIAN_POINT('',(-8.32,-32.5,-20.55));
#480 = VECTOR('',#481,1.);
#481 = DIRECTION('',(-0.,-1.,-2.22044604925E-16));
#482 = ORIENTED_EDGE('',*,*,#483,.T.);
#483 = EDGE_CURVE('',#476,#168,#484,.T.);
#484 = LINE('',#485,#486);
#485 = CARTESIAN_POINT('',(-8.32,-76.5,-20.55));
#486 = VECTOR('',#487,1.);
#487 = DIRECTION('',(0.,2.22044604925E-16,-1.));
#488 = ORIENTED_EDGE('',*,*,#175,.F.);
#489 = PLANE('',#490);
#490 = AXIS2_PLACEMENT_3D('',#491,#492,#493);
#491 = CARTESIAN_POINT('',(-8.32,-32.5,-20.55));
#492 = DIRECTION('',(-1.,-0.,-0.));
#493 = DIRECTION('',(0.,-2.22044604925E-16,1.));
#494 = ADVANCED_FACE('',(#495),#513,.F.);
#495 = FACE_BOUND('',#496,.T.);
#496 = EDGE_LOOP('',(#497,#498,#506,#512));
#497 = ORIENTED_EDGE('',*,*,#167,.T.);
#498 = ORIENTED_EDGE('',*,*,#499,.T.);
#499 = EDGE_CURVE('',#160,#500,#502,.T.);
#500 = VERTEX_POINT('',#501);
#501 = CARTESIAN_POINT('',(-7.32,-76.5,-20.55));
#502 = LINE('',#503,#504);
#503 = CARTESIAN_POINT('',(-7.32,-76.5,-21.75));
#504 = VECTOR('',#505,1.);
#505 = DIRECTION('',(0.,-2.22044604925E-16,1.));
#506 = ORIENTED_EDGE('',*,*,#507,.T.);
#507 = EDGE_CURVE('',#500,#476,#508,.T.);
#508 = LINE('',#509,#510);
#509 = CARTESIAN_POINT('',(-7.32,-76.5,-20.55));
#510 = VECTOR('',#511,1.);
#511 = DIRECTION('',(-1.,0.,0.));
#512 = ORIENTED_EDGE('',*,*,#483,.T.);
#513 = PLANE('',#514);
#514 = AXIS2_PLACEMENT_3D('',#515,#516,#517);
#515 = CARTESIAN_POINT('',(4.365079365079E-02,-76.5,-1.846428571429));
#516 = DIRECTION('',(0.,1.,2.22044604925E-16));
#517 = DIRECTION('',(1.,-0.,0.));
#518 = ADVANCED_FACE('',(#519),#530,.T.);
#519 = FACE_BOUND('',#520,.F.);
#520 = EDGE_LOOP('',(#521,#522,#523,#524));
#521 = ORIENTED_EDGE('',*,*,#444,.F.);
#522 = ORIENTED_EDGE('',*,*,#159,.T.);
#523 = ORIENTED_EDGE('',*,*,#499,.T.);
#524 = ORIENTED_EDGE('',*,*,#525,.F.);
#525 = EDGE_CURVE('',#445,#500,#526,.T.);
#526 = LINE('',#527,#528);
#527 = CARTESIAN_POINT('',(-7.32,-32.5,-20.55));
#528 = VECTOR('',#529,1.);
#529 = DIRECTION('',(-0.,-1.,-2.22044604925E-16));
#530 = PLANE('',#531);
#531 = AXIS2_PLACEMENT_3D('',#532,#533,#534);
#532 = CARTESIAN_POINT('',(-7.32,-32.5,-21.75));
#533 = DIRECTION('',(1.,0.,0.));
#534 = DIRECTION('',(0.,2.22044604925E-16,-1.));
#535 = ADVANCED_FACE('',(#536),#554,.T.);
#536 = FACE_BOUND('',#537,.F.);
#537 = EDGE_LOOP('',(#538,#539,#547,#553));
#538 = ORIENTED_EDGE('',*,*,#437,.F.);
#539 = ORIENTED_EDGE('',*,*,#540,.T.);
#540 = EDGE_CURVE('',#430,#541,#543,.T.);
#541 = VERTEX_POINT('',#542);
#542 = CARTESIAN_POINT('',(-5.68,-76.5,-20.55));
#543 = LINE('',#544,#545);
#544 = CARTESIAN_POINT('',(-5.68,-32.5,-20.55));
#545 = VECTOR('',#546,1.);
#546 = DIRECTION('',(-0.,-1.,-2.22044604925E-16));
#547 = ORIENTED_EDGE('',*,*,#548,.T.);
#548 = EDGE_CURVE('',#541,#136,#549,.T.);
#549 = LINE('',#550,#551);
#550 = CARTESIAN_POINT('',(-5.68,-76.5,-20.55));
#551 = VECTOR('',#552,1.);
#552 = DIRECTION('',(0.,2.22044604925E-16,-1.));
#553 = ORIENTED_EDGE('',*,*,#143,.F.);
#554 = PLANE('',#555);
#555 = AXIS2_PLACEMENT_3D('',#556,#557,#558);
#556 = CARTESIAN_POINT('',(-5.68,-32.5,-20.55));
#557 = DIRECTION('',(-1.,-0.,-0.));
#558 = DIRECTION('',(0.,-2.22044604925E-16,1.));
#559 = ADVANCED_FACE('',(#560),#578,.F.);
#560 = FACE_BOUND('',#561,.T.);
#561 = EDGE_LOOP('',(#562,#563,#571,#577));
#562 = ORIENTED_EDGE('',*,*,#135,.T.);
#563 = ORIENTED_EDGE('',*,*,#564,.T.);
#564 = EDGE_CURVE('',#128,#565,#567,.T.);
#565 = VERTEX_POINT('',#566);
#566 = CARTESIAN_POINT('',(-4.68,-76.5,-20.55));
#567 = LINE('',#568,#569);
#568 = CARTESIAN_POINT('',(-4.68,-76.5,-21.75));
#569 = VECTOR('',#570,1.);
#570 = DIRECTION('',(0.,-2.22044604925E-16,1.));
#571 = ORIENTED_EDGE('',*,*,#572,.T.);
#572 = EDGE_CURVE('',#565,#541,#573,.T.);
#573 = LINE('',#574,#575);
#574 = CARTESIAN_POINT('',(-4.68,-76.5,-20.55));
#575 = VECTOR('',#576,1.);
#576 = DIRECTION('',(-1.,0.,0.));
#577 = ORIENTED_EDGE('',*,*,#548,.T.);
#578 = PLANE('',#579);
#579 = AXIS2_PLACEMENT_3D('',#580,#581,#582);
#580 = CARTESIAN_POINT('',(4.365079365079E-02,-76.5,-1.846428571429));
#581 = DIRECTION('',(0.,1.,2.22044604925E-16));
#582 = DIRECTION('',(1.,-0.,0.));
#583 = ADVANCED_FACE('',(#584),#595,.T.);
#584 = FACE_BOUND('',#585,.F.);
#585 = EDGE_LOOP('',(#586,#587,#588,#589));
#586 = ORIENTED_EDGE('',*,*,#421,.F.);
#587 = ORIENTED_EDGE('',*,*,#127,.T.);
#588 = ORIENTED_EDGE('',*,*,#564,.T.);
#589 = ORIENTED_EDGE('',*,*,#590,.F.);
#590 = EDGE_CURVE('',#422,#565,#591,.T.);
#591 = LINE('',#592,#593);
#592 = CARTESIAN_POINT('',(-4.68,-32.5,-20.55));
#593 = VECTOR('',#594,1.);
#594 = DIRECTION('',(-0.,-1.,-2.22044604925E-16));
#595 = PLANE('',#596);
#596 = AXIS2_PLACEMENT_3D('',#597,#598,#599);
#597 = CARTESIAN_POINT('',(-4.68,-32.5,-21.75));
#598 = DIRECTION('',(1.,0.,0.));
#599 = DIRECTION('',(0.,2.22044604925E-16,-1.));
#600 = ADVANCED_FACE('',(#601),#619,.T.);
#601 = FACE_BOUND('',#602,.F.);
#602 = EDGE_LOOP('',(#603,#604,#612,#618));
#603 = ORIENTED_EDGE('',*,*,#414,.F.);
#604 = ORIENTED_EDGE('',*,*,#605,.T.);
#605 = EDGE_CURVE('',#407,#606,#608,.T.);
#606 = VERTEX_POINT('',#607);
#607 = CARTESIAN_POINT('',(5.68,-76.5,-20.55));
#608 = LINE('',#609,#610);
#609 = CARTESIAN_POINT('',(5.68,-32.5,-20.55));
#610 = VECTOR('',#611,1.);
#611 = DIRECTION('',(-0.,-1.,-2.22044604925E-16));
#612 = ORIENTED_EDGE('',*,*,#613,.T.);
#613 = EDGE_CURVE('',#606,#104,#614,.T.);
#614 = LINE('',#615,#616);
#615 = CARTESIAN_POINT('',(5.68,-76.5,-20.55));
#616 = VECTOR('',#617,1.);
#617 = DIRECTION('',(0.,2.22044604925E-16,-1.));
#618 = ORIENTED_EDGE('',*,*,#111,.F.);
#619 = PLANE('',#620);
#620 = AXIS2_PLACEMENT_3D('',#621,#622,#623);
#621 = CARTESIAN_POINT('',(5.68,-32.5,-20.55));
#622 = DIRECTION('',(-1.,-0.,-0.));
#623 = DIRECTION('',(0.,-2.22044604925E-16,1.));
#624 = ADVANCED_FACE('',(#625),#643,.F.);
#625 = FACE_BOUND('',#626,.T.);
#626 = EDGE_LOOP('',(#627,#628,#636,#642));
#627 = ORIENTED_EDGE('',*,*,#103,.T.);
#628 = ORIENTED_EDGE('',*,*,#629,.T.);
#629 = EDGE_CURVE('',#96,#630,#632,.T.);
#630 = VERTEX_POINT('',#631);
#631 = CARTESIAN_POINT('',(6.68,-76.5,-20.55));
#632 = LINE('',#633,#634);
#633 = CARTESIAN_POINT('',(6.68,-76.5,-21.75));
#634 = VECTOR('',#635,1.);
#635 = DIRECTION('',(0.,-2.22044604925E-16,1.));
#636 = ORIENTED_EDGE('',*,*,#637,.T.);
#637 = EDGE_CURVE('',#630,#606,#638,.T.);
#638 = LINE('',#639,#640);
#639 = CARTESIAN_POINT('',(6.68,-76.5,-20.55));
#640 = VECTOR('',#641,1.);
#641 = DIRECTION('',(-1.,0.,0.));
#642 = ORIENTED_EDGE('',*,*,#613,.T.);
#643 = PLANE('',#644);
#644 = AXIS2_PLACEMENT_3D('',#645,#646,#647);
#645 = CARTESIAN_POINT('',(4.365079365079E-02,-76.5,-1.846428571429));
#646 = DIRECTION('',(0.,1.,2.22044604925E-16));
#647 = DIRECTION('',(1.,-0.,0.));
#648 = ADVANCED_FACE('',(#649),#660,.T.);
#649 = FACE_BOUND('',#650,.F.);
#650 = EDGE_LOOP('',(#651,#652,#653,#654));
#651 = ORIENTED_EDGE('',*,*,#398,.F.);
#652 = ORIENTED_EDGE('',*,*,#95,.T.);
#653 = ORIENTED_EDGE('',*,*,#629,.T.);
#654 = ORIENTED_EDGE('',*,*,#655,.F.);
#655 = EDGE_CURVE('',#399,#630,#656,.T.);
#656 = LINE('',#657,#658);
#657 = CARTESIAN_POINT('',(6.68,-32.5,-20.55));
#658 = VECTOR('',#659,1.);
#659 = DIRECTION('',(-0.,-1.,-2.22044604925E-16));
#660 = PLANE('',#661);
#661 = AXIS2_PLACEMENT_3D('',#662,#663,#664);
#662 = CARTESIAN_POINT('',(6.68,-32.5,-21.75));
#663 = DIRECTION('',(1.,0.,0.));
#664 = DIRECTION('',(0.,2.22044604925E-16,-1.));
#665 = ADVANCED_FACE('',(#666),#684,.T.);
#666 = FACE_BOUND('',#667,.F.);
#667 = EDGE_LOOP('',(#668,#669,#677,#683));
#668 = ORIENTED_EDGE('',*,*,#391,.F.);
#669 = ORIENTED_EDGE('',*,*,#670,.T.);
#670 = EDGE_CURVE('',#384,#671,#673,.T.);
#671 = VERTEX_POINT('',#672);
#672 = CARTESIAN_POINT('',(8.32,-76.5,-20.55));
#673 = LINE('',#674,#675);
#674 = CARTESIAN_POINT('',(8.32,-32.5,-20.55));
#675 = VECTOR('',#676,1.);
#676 = DIRECTION('',(-0.,-1.,-2.22044604925E-16));
#677 = ORIENTED_EDGE('',*,*,#678,.T.);
#678 = EDGE_CURVE('',#671,#72,#679,.T.);
#679 = LINE('',#680,#681);
#680 = CARTESIAN_POINT('',(8.32,-76.5,-20.55));
#681 = VECTOR('',#682,1.);
#682 = DIRECTION('',(0.,2.22044604925E-16,-1.));
#683 = ORIENTED_EDGE('',*,*,#79,.F.);
#684 = PLANE('',#685);
#685 = AXIS2_PLACEMENT_3D('',#686,#687,#688);
#686 = CARTESIAN_POINT('',(8.32,-32.5,-20.55));
#687 = DIRECTION('',(-1.,-0.,-0.));
#688 = DIRECTION('',(0.,-2.22044604925E-16,1.));
#689 = ADVANCED_FACE('',(#690),#708,.F.);
#690 = FACE_BOUND('',#691,.T.);
#691 = EDGE_LOOP('',(#692,#693,#701,#707));
#692 = ORIENTED_EDGE('',*,*,#71,.T.);
#693 = ORIENTED_EDGE('',*,*,#694,.T.);
#694 = EDGE_CURVE('',#64,#695,#697,.T.);
#695 = VERTEX_POINT('',#696);
#696 = CARTESIAN_POINT('',(9.32,-76.5,-20.55));
#697 = LINE('',#698,#699);
#698 = CARTESIAN_POINT('',(9.32,-76.5,-21.75));
#699 = VECTOR('',#700,1.);
#700 = DIRECTION('',(0.,-2.22044604925E-16,1.));
#701 = ORIENTED_EDGE('',*,*,#702,.T.);
#702 = EDGE_CURVE('',#695,#671,#703,.T.);
#703 = LINE('',#704,#705);
#704 = CARTESIAN_POINT('',(9.32,-76.5,-20.55));
#705 = VECTOR('',#706,1.);
#706 = DIRECTION('',(-1.,0.,0.));
#707 = ORIENTED_EDGE('',*,*,#678,.T.);
#708 = PLANE('',#709);
#709 = AXIS2_PLACEMENT_3D('',#710,#711,#712);
#710 = CARTESIAN_POINT('',(4.365079365079E-02,-76.5,-1.846428571429));
#711 = DIRECTION('',(0.,1.,2.22044604925E-16));
#712 = DIRECTION('',(1.,-0.,0.));
#713 = ADVANCED_FACE('',(#714),#725,.T.);
#714 = FACE_BOUND('',#715,.F.);
#715 = EDGE_LOOP('',(#716,#717,#718,#719));
#716 = ORIENTED_EDGE('',*,*,#375,.F.);
#717 = ORIENTED_EDGE('',*,*,#63,.T.);
#718 = ORIENTED_EDGE('',*,*,#694,.T.);
#719 = ORIENTED_EDGE('',*,*,#720,.F.);
#720 = EDGE_CURVE('',#376,#695,#721,.T.);
#721 = LINE('',#722,#723);
#722 = CARTESIAN_POINT('',(9.32,-32.5,-20.55));
#723 = VECTOR('',#724,1.);
#724 = DIRECTION('',(-0.,-1.,-2.22044604925E-16));
#725 = PLANE('',#726);
#726 = AXIS2_PLACEMENT_3D('',#727,#728,#729);
#727 = CARTESIAN_POINT('',(9.32,-32.5,-21.75));
#728 = DIRECTION('',(1.,0.,0.));
#729 = DIRECTION('',(0.,2.22044604925E-16,-1.));
#730 = ADVANCED_FACE('',(#731,#749,#785),#821,.T.);
#731 = FACE_BOUND('',#732,.T.);
#732 = EDGE_LOOP('',(#733,#734,#735,#743));
#733 = ORIENTED_EDGE('',*,*,#368,.F.);
#734 = ORIENTED_EDGE('',*,*,#47,.T.);
#735 = ORIENTED_EDGE('',*,*,#736,.T.);
#736 = EDGE_CURVE('',#40,#737,#739,.T.);
#737 = VERTEX_POINT('',#738);
#738 = CARTESIAN_POINT('',(21.75,-89.9,21.75));
#739 = LINE('',#740,#741);
#740 = CARTESIAN_POINT('',(21.75,-89.9,-21.75));
#741 = VECTOR('',#742,1.);
#742 = DIRECTION('',(0.,2.22044604925E-16,1.));
#743 = ORIENTED_EDGE('',*,*,#744,.F.);
#744 = EDGE_CURVE('',#361,#737,#745,.T.);
#745 = LINE('',#746,#747);
#746 = CARTESIAN_POINT('',(21.75,-4.5,21.75));
#747 = VECTOR('',#748,1.);
#748 = DIRECTION('',(0.,-1.,2.22044604925E-16));
#749 = FACE_BOUND('',#750,.T.);
#750 = EDGE_LOOP('',(#751,#762,#770,#779));
#751 = ORIENTED_EDGE('',*,*,#752,.T.);
#752 = EDGE_CURVE('',#753,#755,#757,.T.);
#753 = VERTEX_POINT('',#754);
#754 = CARTESIAN_POINT('',(21.75,-87.1,-0.9));
#755 = VERTEX_POINT('',#756);
#756 = CARTESIAN_POINT('',(21.75,-84.6,-0.9));
#757 = CIRCLE('',#758,1.25);
#758 = AXIS2_PLACEMENT_3D('',#759,#760,#761);
#759 = CARTESIAN_POINT('',(21.75,-85.85,-0.9));
#760 = DIRECTION('',(1.,0.,0.));
#761 = DIRECTION('',(0.,1.,0.));
#762 = ORIENTED_EDGE('',*,*,#763,.T.);
#763 = EDGE_CURVE('',#755,#764,#766,.T.);
#764 = VERTEX_POINT('',#765);
#765 = CARTESIAN_POINT('',(21.75,-84.6,19.5));
#766 = LINE('',#767,#768);
#767 = CARTESIAN_POINT('',(21.75,-84.6,-1.125));
#768 = VECTOR('',#769,1.);
#769 = DIRECTION('',(0.,0.,1.));
#770 = ORIENTED_EDGE('',*,*,#771,.T.);
#771 = EDGE_CURVE('',#764,#772,#774,.T.);
#772 = VERTEX_POINT('',#773);
#773 = CARTESIAN_POINT('',(21.75,-87.1,19.5));
#774 = CIRCLE('',#775,1.25);
#775 = AXIS2_PLACEMENT_3D('',#776,#777,#778);
#776 = CARTESIAN_POINT('',(21.75,-85.85,19.5));
#777 = DIRECTION('',(1.,0.,0.));
#778 = DIRECTION('',(0.,1.,0.));
#779 = ORIENTED_EDGE('',*,*,#780,.F.);
#780 = EDGE_CURVE('',#753,#772,#781,.T.);
#781 = LINE('',#782,#783);
#782 = CARTESIAN_POINT('',(21.75,-87.1,-1.125));
#783 = VECTOR('',#784,1.);
#784 = DIRECTION('',(0.,0.,1.));
#785 = FACE_BOUND('',#786,.T.);
#786 = EDGE_LOOP('',(#787,#798,#806,#815));
#787 = ORIENTED_EDGE('',*,*,#788,.T.);
#788 = EDGE_CURVE('',#789,#791,#793,.T.);
#789 = VERTEX_POINT('',#790);
#790 = CARTESIAN_POINT('',(21.75,-85.15,-18.73));
#791 = VERTEX_POINT('',#792);
#792 = CARTESIAN_POINT('',(21.75,-81.95,-18.73));
#793 = CIRCLE('',#794,1.6);
#794 = AXIS2_PLACEMENT_3D('',#795,#796,#797);
#795 = CARTESIAN_POINT('',(21.75,-83.55,-18.73));
#796 = DIRECTION('',(1.,0.,0.));
#797 = DIRECTION('',(0.,1.,0.));
#798 = ORIENTED_EDGE('',*,*,#799,.T.);
#799 = EDGE_CURVE('',#791,#800,#802,.T.);
#800 = VERTEX_POINT('',#801);
#801 = CARTESIAN_POINT('',(21.75,-81.95,-7.3));
#802 = LINE('',#803,#804);
#803 = CARTESIAN_POINT('',(21.75,-81.95,-14.525));
#804 = VECTOR('',#805,1.);
#805 = DIRECTION('',(0.,0.,1.));
#806 = ORIENTED_EDGE('',*,*,#807,.T.);
#807 = EDGE_CURVE('',#800,#808,#810,.T.);
#808 = VERTEX_POINT('',#809);
#809 = CARTESIAN_POINT('',(21.75,-85.15,-7.3));
#810 = CIRCLE('',#811,1.6);
#811 = AXIS2_PLACEMENT_3D('',#812,#813,#814);
#812 = CARTESIAN_POINT('',(21.75,-83.55,-7.3));
#813 = DIRECTION('',(1.,0.,0.));
#814 = DIRECTION('',(0.,1.,0.));
#815 = ORIENTED_EDGE('',*,*,#816,.F.);
#816 = EDGE_CURVE('',#789,#808,#817,.T.);
#817 = LINE('',#818,#819);
#818 = CARTESIAN_POINT('',(21.75,-85.15,-14.525));
#819 = VECTOR('',#820,1.);
#820 = DIRECTION('',(0.,0.,1.));
#821 = PLANE('',#822);
#822 = AXIS2_PLACEMENT_3D('',#823,#824,#825);
#823 = CARTESIAN_POINT('',(21.75,-4.5,-21.75));
#824 = DIRECTION('',(-1.,0.,0.));
#825 = DIRECTION('',(0.,2.22044604925E-16,1.));
#826 = ADVANCED_FACE('',(#827,#845,#879),#913,.F.);
#827 = FACE_BOUND('',#828,.F.);
#828 = EDGE_LOOP('',(#829,#837,#838,#839));
#829 = ORIENTED_EDGE('',*,*,#830,.T.);
#830 = EDGE_CURVE('',#831,#32,#833,.T.);
#831 = VERTEX_POINT('',#832);
#832 = CARTESIAN_POINT('',(-21.75,-89.9,21.75));
#833 = LINE('',#834,#835);
#834 = CARTESIAN_POINT('',(-21.75,-89.9,21.75));
#835 = VECTOR('',#836,1.);
#836 = DIRECTION('',(0.,-2.22044604925E-16,-1.));
#837 = ORIENTED_EDGE('',*,*,#39,.T.);
#838 = ORIENTED_EDGE('',*,*,#736,.T.);
#839 = ORIENTED_EDGE('',*,*,#840,.T.);
#840 = EDGE_CURVE('',#737,#831,#841,.T.);
#841 = LINE('',#842,#843);
#842 = CARTESIAN_POINT('',(21.75,-89.9,21.75));
#843 = VECTOR('',#844,1.);
#844 = DIRECTION('',(-1.,0.,0.));
#845 = FACE_BOUND('',#846,.F.);
#846 = EDGE_LOOP('',(#847,#857,#865,#873));
#847 = ORIENTED_EDGE('',*,*,#848,.F.);
#848 = EDGE_CURVE('',#849,#851,#853,.T.);
#849 = VERTEX_POINT('',#850);
#850 = CARTESIAN_POINT('',(9.3,-89.9,20.25));
#851 = VERTEX_POINT('',#852);
#852 = CARTESIAN_POINT('',(9.3,-89.9,-20.75));
#853 = LINE('',#854,#855);
#854 = CARTESIAN_POINT('',(9.3,-89.9,10.125));
#855 = VECTOR('',#856,1.);
#856 = DIRECTION('',(0.,-2.22044604925E-16,-1.));
#857 = ORIENTED_EDGE('',*,*,#858,.F.);
#858 = EDGE_CURVE('',#859,#849,#861,.T.);
#859 = VERTEX_POINT('',#860);
#860 = CARTESIAN_POINT('',(14.8,-89.9,20.25));
#861 = LINE('',#862,#863);
#862 = CARTESIAN_POINT('',(7.4,-89.9,20.25));
#863 = VECTOR('',#864,1.);
#864 = DIRECTION('',(-1.,0.,0.));
#865 = ORIENTED_EDGE('',*,*,#866,.F.);
#866 = EDGE_CURVE('',#867,#859,#869,.T.);
#867 = VERTEX_POINT('',#868);
#868 = CARTESIAN_POINT('',(14.8,-89.9,-20.75));
#869 = LINE('',#870,#871);
#870 = CARTESIAN_POINT('',(14.8,-89.9,-10.375));
#871 = VECTOR('',#872,1.);
#872 = DIRECTION('',(0.,2.22044604925E-16,1.));
#873 = ORIENTED_EDGE('',*,*,#874,.F.);
#874 = EDGE_CURVE('',#851,#867,#875,.T.);
#875 = LINE('',#876,#877);
#876 = CARTESIAN_POINT('',(4.65,-89.9,-20.75));
#877 = VECTOR('',#878,1.);
#878 = DIRECTION('',(1.,0.,0.));
#879 = FACE_BOUND('',#880,.F.);
#880 = EDGE_LOOP('',(#881,#891,#899,#907));
#881 = ORIENTED_EDGE('',*,*,#882,.F.);
#882 = EDGE_CURVE('',#883,#885,#887,.T.);
#883 = VERTEX_POINT('',#884);
#884 = CARTESIAN_POINT('',(-15.5,-89.9,21.2));
#885 = VERTEX_POINT('',#886);
#886 = CARTESIAN_POINT('',(-15.5,-89.9,-18.8));
#887 = LINE('',#888,#889);
#888 = CARTESIAN_POINT('',(-15.5,-89.9,10.6));
#889 = VECTOR('',#890,1.);
#890 = DIRECTION('',(0.,-2.22044604925E-16,-1.));
#891 = ORIENTED_EDGE('',*,*,#892,.F.);
#892 = EDGE_CURVE('',#893,#883,#895,.T.);
#893 = VERTEX_POINT('',#894);
#894 = CARTESIAN_POINT('',(-2.5,-89.9,21.2));
#895 = LINE('',#896,#897);
#896 = CARTESIAN_POINT('',(-1.25,-89.9,21.2));
#897 = VECTOR('',#898,1.);
#898 = DIRECTION('',(-1.,0.,0.));
#899 = ORIENTED_EDGE('',*,*,#900,.F.);
#900 = EDGE_CURVE('',#901,#893,#903,.T.);
#901 = VERTEX_POINT('',#902);
#902 = CARTESIAN_POINT('',(-2.5,-89.9,-18.8));
#903 = LINE('',#904,#905);
#904 = CARTESIAN_POINT('',(-2.5,-89.9,-9.4));
#905 = VECTOR('',#906,1.);
#906 = DIRECTION('',(0.,2.22044604925E-16,1.));
#907 = ORIENTED_EDGE('',*,*,#908,.F.);
#908 = EDGE_CURVE('',#885,#901,#909,.T.);
#909 = LINE('',#910,#911);
#910 = CARTESIAN_POINT('',(-7.75,-89.9,-18.8));
#911 = VECTOR('',#912,1.);
#912 = DIRECTION('',(1.,0.,0.));
#913 = PLANE('',#914);
#914 = AXIS2_PLACEMENT_3D('',#915,#916,#917);
#915 = CARTESIAN_POINT('',(0.,-89.9,1.89626092606E-14));
#916 = DIRECTION('',(0.,-1.,2.22044604925E-16));
#917 = DIRECTION('',(1.,0.,0.));
#918 = ADVANCED_FACE('',(#919),#930,.T.);
#919 = FACE_BOUND('',#920,.T.);
#920 = EDGE_LOOP('',(#921,#922,#928,#929));
#921 = ORIENTED_EDGE('',*,*,#224,.F.);
#922 = ORIENTED_EDGE('',*,*,#923,.T.);
#923 = EDGE_CURVE('',#225,#831,#924,.T.);
#924 = LINE('',#925,#926);
#925 = CARTESIAN_POINT('',(-21.75,-4.5,21.75));
#926 = VECTOR('',#927,1.);
#927 = DIRECTION('',(0.,-1.,2.22044604925E-16));
#928 = ORIENTED_EDGE('',*,*,#830,.T.);
#929 = ORIENTED_EDGE('',*,*,#31,.F.);
#930 = PLANE('',#931);
#931 = AXIS2_PLACEMENT_3D('',#932,#933,#934);
#932 = CARTESIAN_POINT('',(-21.75,-4.5,21.75));
#933 = DIRECTION('',(1.,0.,0.));
#934 = DIRECTION('',(0.,-2.22044604925E-16,-1.));
#935 = ADVANCED_FACE('',(#936),#961,.T.);
#936 = FACE_BOUND('',#937,.T.);
#937 = EDGE_LOOP('',(#938,#946,#947,#955));
#938 = ORIENTED_EDGE('',*,*,#939,.F.);
#939 = EDGE_CURVE('',#192,#940,#942,.T.);
#940 = VERTEX_POINT('',#941);
#941 = CARTESIAN_POINT('',(-23.,-91.9,23.));
#942 = LINE('',#943,#944);
#943 = CARTESIAN_POINT('',(-23.,-89.9,23.));
#944 = VECTOR('',#945,1.);
#945 = DIRECTION('',(0.,-1.,2.22044604925E-16));
#946 = ORIENTED_EDGE('',*,*,#189,.F.);
#947 = ORIENTED_EDGE('',*,*,#948,.T.);
#948 = EDGE_CURVE('',#190,#949,#951,.T.);
#949 = VERTEX_POINT('',#950);
#950 = CARTESIAN_POINT('',(-23.,-91.9,-23.));
#951 = LINE('',#952,#953);
#952 = CARTESIAN_POINT('',(-23.,-4.5,-23.));
#953 = VECTOR('',#954,1.);
#954 = DIRECTION('',(0.,-1.,2.22044604925E-16));
#955 = ORIENTED_EDGE('',*,*,#956,.F.);
#956 = EDGE_CURVE('',#940,#949,#957,.T.);
#957 = LINE('',#958,#959);
#958 = CARTESIAN_POINT('',(-23.,-91.9,23.));
#959 = VECTOR('',#960,1.);
#960 = DIRECTION('',(0.,-2.22044604925E-16,-1.));
#961 = PLANE('',#962);
#962 = AXIS2_PLACEMENT_3D('',#963,#964,#965);
#963 = CARTESIAN_POINT('',(-23.,-48.95,9.050127339477E-15));
#964 = DIRECTION('',(-1.,-0.,-0.));
#965 = DIRECTION('',(0.,0.,-1.));
#966 = ADVANCED_FACE('',(#967),#985,.T.);
#967 = FACE_BOUND('',#968,.T.);
#968 = EDGE_LOOP('',(#969,#977,#978,#979));
#969 = ORIENTED_EDGE('',*,*,#970,.F.);
#970 = EDGE_CURVE('',#208,#971,#973,.T.);
#971 = VERTEX_POINT('',#972);
#972 = CARTESIAN_POINT('',(23.,-91.9,23.));
#973 = LINE('',#974,#975);
#974 = CARTESIAN_POINT('',(23.,-89.9,23.));
#975 = VECTOR('',#976,1.);
#976 = DIRECTION('',(0.,-1.,2.22044604925E-16));
#977 = ORIENTED_EDGE('',*,*,#215,.F.);
#978 = ORIENTED_EDGE('',*,*,#939,.T.);
#979 = ORIENTED_EDGE('',*,*,#980,.F.);
#980 = EDGE_CURVE('',#971,#940,#981,.T.);
#981 = LINE('',#982,#983);
#982 = CARTESIAN_POINT('',(23.,-91.9,23.));
#983 = VECTOR('',#984,1.);
#984 = DIRECTION('',(-1.,0.,0.));
#985 = PLANE('',#986);
#986 = AXIS2_PLACEMENT_3D('',#987,#988,#989);
#987 = CARTESIAN_POINT('',(0.,-48.95,23.));
#988 = DIRECTION('',(0.,0.,1.));
#989 = DIRECTION('',(1.,0.,0.));
#990 = ADVANCED_FACE('',(#991,#1009,#1045),#1081,.T.);
#991 = FACE_BOUND('',#992,.T.);
#992 = EDGE_LOOP('',(#993,#1001,#1002,#1003));
#993 = ORIENTED_EDGE('',*,*,#994,.F.);
#994 = EDGE_CURVE('',#200,#995,#997,.T.);
#995 = VERTEX_POINT('',#996);
#996 = CARTESIAN_POINT('',(23.,-91.9,-23.));
#997 = LINE('',#998,#999);
#998 = CARTESIAN_POINT('',(23.,-4.5,-23.));
#999 = VECTOR('',#1000,1.);
#1000 = DIRECTION('',(0.,-1.,2.22044604925E-16));
#1001 = ORIENTED_EDGE('',*,*,#207,.F.);
#1002 = ORIENTED_EDGE('',*,*,#970,.T.);
#1003 = ORIENTED_EDGE('',*,*,#1004,.F.);
#1004 = EDGE_CURVE('',#995,#971,#1005,.T.);
#1005 = LINE('',#1006,#1007);
#1006 = CARTESIAN_POINT('',(23.,-91.9,-23.));
#1007 = VECTOR('',#1008,1.);
#1008 = DIRECTION('',(0.,2.22044604925E-16,1.));
#1009 = FACE_BOUND('',#1010,.T.);
#1010 = EDGE_LOOP('',(#1011,#1021,#1030,#1038));
#1011 = ORIENTED_EDGE('',*,*,#1012,.T.);
#1012 = EDGE_CURVE('',#1013,#1015,#1017,.T.);
#1013 = VERTEX_POINT('',#1014);
#1014 = CARTESIAN_POINT('',(23.,-81.95,-7.3));
#1015 = VERTEX_POINT('',#1016);
#1016 = CARTESIAN_POINT('',(23.,-81.95,-18.73));
#1017 = LINE('',#1018,#1019);
#1018 = CARTESIAN_POINT('',(23.,-81.95,-7.3));
#1019 = VECTOR('',#1020,1.);
#1020 = DIRECTION('',(0.,0.,-1.));
#1021 = ORIENTED_EDGE('',*,*,#1022,.F.);
#1022 = EDGE_CURVE('',#1023,#1015,#1025,.T.);
#1023 = VERTEX_POINT('',#1024);
#1024 = CARTESIAN_POINT('',(23.,-85.15,-18.73));
#1025 = CIRCLE('',#1026,1.6);
#1026 = AXIS2_PLACEMENT_3D('',#1027,#1028,#1029);
#1027 = CARTESIAN_POINT('',(23.,-83.55,-18.73));
#1028 = DIRECTION('',(1.,0.,0.));
#1029 = DIRECTION('',(0.,1.,0.));
#1030 = ORIENTED_EDGE('',*,*,#1031,.F.);
#1031 = EDGE_CURVE('',#1032,#1023,#1034,.T.);
#1032 = VERTEX_POINT('',#1033);
#1033 = CARTESIAN_POINT('',(23.,-85.15,-7.3));
#1034 = LINE('',#1035,#1036);
#1035 = CARTESIAN_POINT('',(23.,-85.15,-7.3));
#1036 = VECTOR('',#1037,1.);
#1037 = DIRECTION('',(0.,0.,-1.));
#1038 = ORIENTED_EDGE('',*,*,#1039,.F.);
#1039 = EDGE_CURVE('',#1013,#1032,#1040,.T.);
#1040 = CIRCLE('',#1041,1.6);
#1041 = AXIS2_PLACEMENT_3D('',#1042,#1043,#1044);
#1042 = CARTESIAN_POINT('',(23.,-83.55,-7.3));
#1043 = DIRECTION('',(1.,0.,0.));
#1044 = DIRECTION('',(0.,1.,0.));
#1045 = FACE_BOUND('',#1046,.T.);
#1046 = EDGE_LOOP('',(#1047,#1057,#1066,#1074));
#1047 = ORIENTED_EDGE('',*,*,#1048,.T.);
#1048 = EDGE_CURVE('',#1049,#1051,#1053,.T.);
#1049 = VERTEX_POINT('',#1050);
#1050 = CARTESIAN_POINT('',(23.,-84.6,19.5));
#1051 = VERTEX_POINT('',#1052);
#1052 = CARTESIAN_POINT('',(23.,-84.6,-0.9));
#1053 = LINE('',#1054,#1055);
#1054 = CARTESIAN_POINT('',(23.,-84.6,19.5));
#1055 = VECTOR('',#1056,1.);
#1056 = DIRECTION('',(0.,0.,-1.));
#1057 = ORIENTED_EDGE('',*,*,#1058,.F.);
#1058 = EDGE_CURVE('',#1059,#1051,#1061,.T.);
#1059 = VERTEX_POINT('',#1060);
#1060 = CARTESIAN_POINT('',(23.,-87.1,-0.9));
#1061 = CIRCLE('',#1062,1.25);
#1062 = AXIS2_PLACEMENT_3D('',#1063,#1064,#1065);
#1063 = CARTESIAN_POINT('',(23.,-85.85,-0.9));
#1064 = DIRECTION('',(1.,0.,0.));
#1065 = DIRECTION('',(0.,1.,0.));
#1066 = ORIENTED_EDGE('',*,*,#1067,.F.);
#1067 = EDGE_CURVE('',#1068,#1059,#1070,.T.);
#1068 = VERTEX_POINT('',#1069);
#1069 = CARTESIAN_POINT('',(23.,-87.1,19.5));
#1070 = LINE('',#1071,#1072);
#1071 = CARTESIAN_POINT('',(23.,-87.1,19.5));
#1072 = VECTOR('',#1073,1.);
#1073 = DIRECTION('',(0.,0.,-1.));
#1074 = ORIENTED_EDGE('',*,*,#1075,.F.);
#1075 = EDGE_CURVE('',#1049,#1068,#1076,.T.);
#1076 = CIRCLE('',#1077,1.25);
#1077 = AXIS2_PLACEMENT_3D('',#1078,#1079,#1080);
#1078 = CARTESIAN_POINT('',(23.,-85.85,19.5));
#1079 = DIRECTION('',(1.,0.,0.));
#1080 = DIRECTION('',(0.,1.,0.));
#1081 = PLANE('',#1082);
#1082 = AXIS2_PLACEMENT_3D('',#1083,#1084,#1085);
#1083 = CARTESIAN_POINT('',(23.,-48.95,8.61916889474E-15));
#1084 = DIRECTION('',(1.,0.,0.));
#1085 = DIRECTION('',(0.,0.,1.));
#1086 = ADVANCED_FACE('',(#1087),#1098,.T.);
#1087 = FACE_BOUND('',#1088,.T.);
#1088 = EDGE_LOOP('',(#1089,#1090,#1091,#1092));
#1089 = ORIENTED_EDGE('',*,*,#948,.F.);
#1090 = ORIENTED_EDGE('',*,*,#199,.F.);
#1091 = ORIENTED_EDGE('',*,*,#994,.T.);
#1092 = ORIENTED_EDGE('',*,*,#1093,.F.);
#1093 = EDGE_CURVE('',#949,#995,#1094,.T.);
#1094 = LINE('',#1095,#1096);
#1095 = CARTESIAN_POINT('',(-23.,-91.9,-23.));
#1096 = VECTOR('',#1097,1.);
#1097 = DIRECTION('',(1.,0.,0.));
#1098 = PLANE('',#1099);
#1099 = AXIS2_PLACEMENT_3D('',#1100,#1101,#1102);
#1100 = CARTESIAN_POINT('',(0.,-48.95,-23.));
#1101 = DIRECTION('',(-0.,-0.,-1.));
#1102 = DIRECTION('',(-1.,0.,0.));
#1103 = ADVANCED_FACE('',(#1104),#1110,.T.);
#1104 = FACE_BOUND('',#1105,.F.);
#1105 = EDGE_LOOP('',(#1106,#1107,#1108,#1109));
#1106 = ORIENTED_EDGE('',*,*,#452,.F.);
#1107 = ORIENTED_EDGE('',*,*,#525,.T.);
#1108 = ORIENTED_EDGE('',*,*,#507,.T.);
#1109 = ORIENTED_EDGE('',*,*,#475,.F.);
#1110 = PLANE('',#1111);
#1111 = AXIS2_PLACEMENT_3D('',#1112,#1113,#1114);
#1112 = CARTESIAN_POINT('',(-7.32,-32.5,-20.55));
#1113 = DIRECTION('',(0.,-2.22044604925E-16,1.));
#1114 = DIRECTION('',(1.,0.,0.));
#1115 = ADVANCED_FACE('',(#1116),#1122,.T.);
#1116 = FACE_BOUND('',#1117,.F.);
#1117 = EDGE_LOOP('',(#1118,#1119,#1120,#1121));
#1118 = ORIENTED_EDGE('',*,*,#429,.F.);
#1119 = ORIENTED_EDGE('',*,*,#590,.T.);
#1120 = ORIENTED_EDGE('',*,*,#572,.T.);
#1121 = ORIENTED_EDGE('',*,*,#540,.F.);
#1122 = PLANE('',#1123);
#1123 = AXIS2_PLACEMENT_3D('',#1124,#1125,#1126);
#1124 = CARTESIAN_POINT('',(-4.68,-32.5,-20.55));
#1125 = DIRECTION('',(0.,-2.22044604925E-16,1.));
#1126 = DIRECTION('',(1.,0.,0.));
#1127 = ADVANCED_FACE('',(#1128),#1134,.T.);
#1128 = FACE_BOUND('',#1129,.F.);
#1129 = EDGE_LOOP('',(#1130,#1131,#1132,#1133));
#1130 = ORIENTED_EDGE('',*,*,#406,.F.);
#1131 = ORIENTED_EDGE('',*,*,#655,.T.);
#1132 = ORIENTED_EDGE('',*,*,#637,.T.);
#1133 = ORIENTED_EDGE('',*,*,#605,.F.);
#1134 = PLANE('',#1135);
#1135 = AXIS2_PLACEMENT_3D('',#1136,#1137,#1138);
#1136 = CARTESIAN_POINT('',(6.68,-32.5,-20.55));
#1137 = DIRECTION('',(0.,-2.22044604925E-16,1.));
#1138 = DIRECTION('',(1.,0.,0.));
#1139 = ADVANCED_FACE('',(#1140),#1146,.T.);
#1140 = FACE_BOUND('',#1141,.F.);
#1141 = EDGE_LOOP('',(#1142,#1143,#1144,#1145));
#1142 = ORIENTED_EDGE('',*,*,#383,.F.);
#1143 = ORIENTED_EDGE('',*,*,#720,.T.);
#1144 = ORIENTED_EDGE('',*,*,#702,.T.);
#1145 = ORIENTED_EDGE('',*,*,#670,.F.);
#1146 = PLANE('',#1147);
#1147 = AXIS2_PLACEMENT_3D('',#1148,#1149,#1150);
#1148 = CARTESIAN_POINT('',(9.32,-32.5,-20.55));
#1149 = DIRECTION('',(0.,-2.22044604925E-16,1.));
#1150 = DIRECTION('',(1.,0.,0.));
#1151 = ADVANCED_FACE('',(#1152),#1250,.T.);
#1152 = FACE_BOUND('',#1153,.T.);
#1153 = EDGE_LOOP('',(#1154,#1155,#1156,#1157,#1158,#1159,#1167,#1175,
    #1181,#1182,#1190,#1198,#1204,#1205,#1213,#1221,#1227,#1228,#1236,
    #1244));
#1154 = ORIENTED_EDGE('',*,*,#360,.F.);
#1155 = ORIENTED_EDGE('',*,*,#744,.T.);
#1156 = ORIENTED_EDGE('',*,*,#840,.T.);
#1157 = ORIENTED_EDGE('',*,*,#923,.F.);
#1158 = ORIENTED_EDGE('',*,*,#232,.F.);
#1159 = ORIENTED_EDGE('',*,*,#1160,.T.);
#1160 = EDGE_CURVE('',#233,#1161,#1163,.T.);
#1161 = VERTEX_POINT('',#1162);
#1162 = CARTESIAN_POINT('',(-8.32,-76.5,21.75));
#1163 = LINE('',#1164,#1165);
#1164 = CARTESIAN_POINT('',(-8.32,-32.5,21.75));
#1165 = VECTOR('',#1166,1.);
#1166 = DIRECTION('',(0.,-1.,2.22044604925E-16));
#1167 = ORIENTED_EDGE('',*,*,#1168,.T.);
#1168 = EDGE_CURVE('',#1161,#1169,#1171,.T.);
#1169 = VERTEX_POINT('',#1170);
#1170 = CARTESIAN_POINT('',(-7.32,-76.5,21.75));
#1171 = LINE('',#1172,#1173);
#1172 = CARTESIAN_POINT('',(-8.32,-76.5,21.75));
#1173 = VECTOR('',#1174,1.);
#1174 = DIRECTION('',(1.,0.,0.));
#1175 = ORIENTED_EDGE('',*,*,#1176,.F.);
#1176 = EDGE_CURVE('',#257,#1169,#1177,.T.);
#1177 = LINE('',#1178,#1179);
#1178 = CARTESIAN_POINT('',(-7.32,-32.5,21.75));
#1179 = VECTOR('',#1180,1.);
#1180 = DIRECTION('',(0.,-1.,2.22044604925E-16));
#1181 = ORIENTED_EDGE('',*,*,#264,.F.);
#1182 = ORIENTED_EDGE('',*,*,#1183,.T.);
#1183 = EDGE_CURVE('',#265,#1184,#1186,.T.);
#1184 = VERTEX_POINT('',#1185);
#1185 = CARTESIAN_POINT('',(-5.68,-76.5,21.75));
#1186 = LINE('',#1187,#1188);
#1187 = CARTESIAN_POINT('',(-5.68,-32.5,21.75));
#1188 = VECTOR('',#1189,1.);
#1189 = DIRECTION('',(0.,-1.,2.22044604925E-16));
#1190 = ORIENTED_EDGE('',*,*,#1191,.T.);
#1191 = EDGE_CURVE('',#1184,#1192,#1194,.T.);
#1192 = VERTEX_POINT('',#1193);
#1193 = CARTESIAN_POINT('',(-4.68,-76.5,21.75));
#1194 = LINE('',#1195,#1196);
#1195 = CARTESIAN_POINT('',(-5.68,-76.5,21.75));
#1196 = VECTOR('',#1197,1.);
#1197 = DIRECTION('',(1.,0.,0.));
#1198 = ORIENTED_EDGE('',*,*,#1199,.F.);
#1199 = EDGE_CURVE('',#289,#1192,#1200,.T.);
#1200 = LINE('',#1201,#1202);
#1201 = CARTESIAN_POINT('',(-4.68,-32.5,21.75));
#1202 = VECTOR('',#1203,1.);
#1203 = DIRECTION('',(0.,-1.,2.22044604925E-16));
#1204 = ORIENTED_EDGE('',*,*,#296,.F.);
#1205 = ORIENTED_EDGE('',*,*,#1206,.T.);
#1206 = EDGE_CURVE('',#297,#1207,#1209,.T.);
#1207 = VERTEX_POINT('',#1208);
#1208 = CARTESIAN_POINT('',(5.68,-76.5,21.75));
#1209 = LINE('',#1210,#1211);
#1210 = CARTESIAN_POINT('',(5.68,-32.5,21.75));
#1211 = VECTOR('',#1212,1.);
#1212 = DIRECTION('',(0.,-1.,2.22044604925E-16));
#1213 = ORIENTED_EDGE('',*,*,#1214,.T.);
#1214 = EDGE_CURVE('',#1207,#1215,#1217,.T.);
#1215 = VERTEX_POINT('',#1216);
#1216 = CARTESIAN_POINT('',(6.68,-76.5,21.75));
#1217 = LINE('',#1218,#1219);
#1218 = CARTESIAN_POINT('',(5.68,-76.5,21.75));
#1219 = VECTOR('',#1220,1.);
#1220 = DIRECTION('',(1.,0.,0.));
#1221 = ORIENTED_EDGE('',*,*,#1222,.F.);
#1222 = EDGE_CURVE('',#321,#1215,#1223,.T.);
#1223 = LINE('',#1224,#1225);
#1224 = CARTESIAN_POINT('',(6.68,-32.5,21.75));
#1225 = VECTOR('',#1226,1.);
#1226 = DIRECTION('',(0.,-1.,2.22044604925E-16));
#1227 = ORIENTED_EDGE('',*,*,#328,.F.);
#1228 = ORIENTED_EDGE('',*,*,#1229,.T.);
#1229 = EDGE_CURVE('',#329,#1230,#1232,.T.);
#1230 = VERTEX_POINT('',#1231);
#1231 = CARTESIAN_POINT('',(8.32,-76.5,21.75));
#1232 = LINE('',#1233,#1234);
#1233 = CARTESIAN_POINT('',(8.32,-32.5,21.75));
#1234 = VECTOR('',#1235,1.);
#1235 = DIRECTION('',(0.,-1.,2.22044604925E-16));
#1236 = ORIENTED_EDGE('',*,*,#1237,.T.);
#1237 = EDGE_CURVE('',#1230,#1238,#1240,.T.);
#1238 = VERTEX_POINT('',#1239);
#1239 = CARTESIAN_POINT('',(9.32,-76.5,21.75));
#1240 = LINE('',#1241,#1242);
#1241 = CARTESIAN_POINT('',(8.32,-76.5,21.75));
#1242 = VECTOR('',#1243,1.);
#1243 = DIRECTION('',(1.,0.,0.));
#1244 = ORIENTED_EDGE('',*,*,#1245,.F.);
#1245 = EDGE_CURVE('',#353,#1238,#1246,.T.);
#1246 = LINE('',#1247,#1248);
#1247 = CARTESIAN_POINT('',(9.32,-32.5,21.75));
#1248 = VECTOR('',#1249,1.);
#1249 = DIRECTION('',(0.,-1.,2.22044604925E-16));
#1250 = PLANE('',#1251);
#1251 = AXIS2_PLACEMENT_3D('',#1252,#1253,#1254);
#1252 = CARTESIAN_POINT('',(21.75,-4.5,21.75));
#1253 = DIRECTION('',(-0.,-2.22044604925E-16,-1.));
#1254 = DIRECTION('',(-1.,0.,0.));
#1255 = ADVANCED_FACE('',(#1256),#1274,.T.);
#1256 = FACE_BOUND('',#1257,.T.);
#1257 = EDGE_LOOP('',(#1258,#1259,#1260,#1268));
#1258 = ORIENTED_EDGE('',*,*,#352,.F.);
#1259 = ORIENTED_EDGE('',*,*,#1245,.T.);
#1260 = ORIENTED_EDGE('',*,*,#1261,.T.);
#1261 = EDGE_CURVE('',#1238,#1262,#1264,.T.);
#1262 = VERTEX_POINT('',#1263);
#1263 = CARTESIAN_POINT('',(9.32,-76.5,20.55));
#1264 = LINE('',#1265,#1266);
#1265 = CARTESIAN_POINT('',(9.32,-76.5,21.75));
#1266 = VECTOR('',#1267,1.);
#1267 = DIRECTION('',(0.,-2.22044604925E-16,-1.));
#1268 = ORIENTED_EDGE('',*,*,#1269,.F.);
#1269 = EDGE_CURVE('',#345,#1262,#1270,.T.);
#1270 = LINE('',#1271,#1272);
#1271 = CARTESIAN_POINT('',(9.32,-32.5,20.55));
#1272 = VECTOR('',#1273,1.);
#1273 = DIRECTION('',(0.,-1.,2.22044604925E-16));
#1274 = PLANE('',#1275);
#1275 = AXIS2_PLACEMENT_3D('',#1276,#1277,#1278);
#1276 = CARTESIAN_POINT('',(9.32,-32.5,21.75));
#1277 = DIRECTION('',(1.,0.,0.));
#1278 = DIRECTION('',(0.,-2.22044604925E-16,-1.));
#1279 = ADVANCED_FACE('',(#1280),#1298,.T.);
#1280 = FACE_BOUND('',#1281,.T.);
#1281 = EDGE_LOOP('',(#1282,#1283,#1284,#1292));
#1282 = ORIENTED_EDGE('',*,*,#344,.F.);
#1283 = ORIENTED_EDGE('',*,*,#1269,.T.);
#1284 = ORIENTED_EDGE('',*,*,#1285,.T.);
#1285 = EDGE_CURVE('',#1262,#1286,#1288,.T.);
#1286 = VERTEX_POINT('',#1287);
#1287 = CARTESIAN_POINT('',(8.32,-76.5,20.55));
#1288 = LINE('',#1289,#1290);
#1289 = CARTESIAN_POINT('',(9.32,-76.5,20.55));
#1290 = VECTOR('',#1291,1.);
#1291 = DIRECTION('',(-1.,0.,0.));
#1292 = ORIENTED_EDGE('',*,*,#1293,.F.);
#1293 = EDGE_CURVE('',#337,#1286,#1294,.T.);
#1294 = LINE('',#1295,#1296);
#1295 = CARTESIAN_POINT('',(8.32,-32.5,20.55));
#1296 = VECTOR('',#1297,1.);
#1297 = DIRECTION('',(0.,-1.,2.22044604925E-16));
#1298 = PLANE('',#1299);
#1299 = AXIS2_PLACEMENT_3D('',#1300,#1301,#1302);
#1300 = CARTESIAN_POINT('',(9.32,-32.5,20.55));
#1301 = DIRECTION('',(-0.,-2.22044604925E-16,-1.));
#1302 = DIRECTION('',(-1.,0.,0.));
#1303 = ADVANCED_FACE('',(#1304),#1315,.T.);
#1304 = FACE_BOUND('',#1305,.T.);
#1305 = EDGE_LOOP('',(#1306,#1307,#1308,#1314));
#1306 = ORIENTED_EDGE('',*,*,#336,.F.);
#1307 = ORIENTED_EDGE('',*,*,#1293,.T.);
#1308 = ORIENTED_EDGE('',*,*,#1309,.T.);
#1309 = EDGE_CURVE('',#1286,#1230,#1310,.T.);
#1310 = LINE('',#1311,#1312);
#1311 = CARTESIAN_POINT('',(8.32,-76.5,20.55));
#1312 = VECTOR('',#1313,1.);
#1313 = DIRECTION('',(0.,2.22044604925E-16,1.));
#1314 = ORIENTED_EDGE('',*,*,#1229,.F.);
#1315 = PLANE('',#1316);
#1316 = AXIS2_PLACEMENT_3D('',#1317,#1318,#1319);
#1317 = CARTESIAN_POINT('',(8.32,-32.5,20.55));
#1318 = DIRECTION('',(-1.,0.,0.));
#1319 = DIRECTION('',(0.,2.22044604925E-16,1.));
#1320 = ADVANCED_FACE('',(#1321),#1339,.T.);
#1321 = FACE_BOUND('',#1322,.T.);
#1322 = EDGE_LOOP('',(#1323,#1324,#1325,#1333));
#1323 = ORIENTED_EDGE('',*,*,#320,.F.);
#1324 = ORIENTED_EDGE('',*,*,#1222,.T.);
#1325 = ORIENTED_EDGE('',*,*,#1326,.T.);
#1326 = EDGE_CURVE('',#1215,#1327,#1329,.T.);
#1327 = VERTEX_POINT('',#1328);
#1328 = CARTESIAN_POINT('',(6.68,-76.5,20.55));
#1329 = LINE('',#1330,#1331);
#1330 = CARTESIAN_POINT('',(6.68,-76.5,21.75));
#1331 = VECTOR('',#1332,1.);
#1332 = DIRECTION('',(0.,-2.22044604925E-16,-1.));
#1333 = ORIENTED_EDGE('',*,*,#1334,.F.);
#1334 = EDGE_CURVE('',#313,#1327,#1335,.T.);
#1335 = LINE('',#1336,#1337);
#1336 = CARTESIAN_POINT('',(6.68,-32.5,20.55));
#1337 = VECTOR('',#1338,1.);
#1338 = DIRECTION('',(0.,-1.,2.22044604925E-16));
#1339 = PLANE('',#1340);
#1340 = AXIS2_PLACEMENT_3D('',#1341,#1342,#1343);
#1341 = CARTESIAN_POINT('',(6.68,-32.5,21.75));
#1342 = DIRECTION('',(1.,0.,0.));
#1343 = DIRECTION('',(0.,-2.22044604925E-16,-1.));
#1344 = ADVANCED_FACE('',(#1345),#1363,.T.);
#1345 = FACE_BOUND('',#1346,.T.);
#1346 = EDGE_LOOP('',(#1347,#1348,#1349,#1357));
#1347 = ORIENTED_EDGE('',*,*,#312,.F.);
#1348 = ORIENTED_EDGE('',*,*,#1334,.T.);
#1349 = ORIENTED_EDGE('',*,*,#1350,.T.);
#1350 = EDGE_CURVE('',#1327,#1351,#1353,.T.);
#1351 = VERTEX_POINT('',#1352);
#1352 = CARTESIAN_POINT('',(5.68,-76.5,20.55));
#1353 = LINE('',#1354,#1355);
#1354 = CARTESIAN_POINT('',(6.68,-76.5,20.55));
#1355 = VECTOR('',#1356,1.);
#1356 = DIRECTION('',(-1.,0.,0.));
#1357 = ORIENTED_EDGE('',*,*,#1358,.F.);
#1358 = EDGE_CURVE('',#305,#1351,#1359,.T.);
#1359 = LINE('',#1360,#1361);
#1360 = CARTESIAN_POINT('',(5.68,-32.5,20.55));
#1361 = VECTOR('',#1362,1.);
#1362 = DIRECTION('',(0.,-1.,2.22044604925E-16));
#1363 = PLANE('',#1364);
#1364 = AXIS2_PLACEMENT_3D('',#1365,#1366,#1367);
#1365 = CARTESIAN_POINT('',(6.68,-32.5,20.55));
#1366 = DIRECTION('',(-0.,-2.22044604925E-16,-1.));
#1367 = DIRECTION('',(-1.,0.,0.));
#1368 = ADVANCED_FACE('',(#1369),#1380,.T.);
#1369 = FACE_BOUND('',#1370,.T.);
#1370 = EDGE_LOOP('',(#1371,#1372,#1373,#1379));
#1371 = ORIENTED_EDGE('',*,*,#304,.F.);
#1372 = ORIENTED_EDGE('',*,*,#1358,.T.);
#1373 = ORIENTED_EDGE('',*,*,#1374,.T.);
#1374 = EDGE_CURVE('',#1351,#1207,#1375,.T.);
#1375 = LINE('',#1376,#1377);
#1376 = CARTESIAN_POINT('',(5.68,-76.5,20.55));
#1377 = VECTOR('',#1378,1.);
#1378 = DIRECTION('',(0.,2.22044604925E-16,1.));
#1379 = ORIENTED_EDGE('',*,*,#1206,.F.);
#1380 = PLANE('',#1381);
#1381 = AXIS2_PLACEMENT_3D('',#1382,#1383,#1384);
#1382 = CARTESIAN_POINT('',(5.68,-32.5,20.55));
#1383 = DIRECTION('',(-1.,0.,0.));
#1384 = DIRECTION('',(0.,2.22044604925E-16,1.));
#1385 = ADVANCED_FACE('',(#1386),#1404,.T.);
#1386 = FACE_BOUND('',#1387,.T.);
#1387 = EDGE_LOOP('',(#1388,#1389,#1390,#1398));
#1388 = ORIENTED_EDGE('',*,*,#288,.F.);
#1389 = ORIENTED_EDGE('',*,*,#1199,.T.);
#1390 = ORIENTED_EDGE('',*,*,#1391,.T.);
#1391 = EDGE_CURVE('',#1192,#1392,#1394,.T.);
#1392 = VERTEX_POINT('',#1393);
#1393 = CARTESIAN_POINT('',(-4.68,-76.5,20.55));
#1394 = LINE('',#1395,#1396);
#1395 = CARTESIAN_POINT('',(-4.68,-76.5,21.75));
#1396 = VECTOR('',#1397,1.);
#1397 = DIRECTION('',(0.,-2.22044604925E-16,-1.));
#1398 = ORIENTED_EDGE('',*,*,#1399,.F.);
#1399 = EDGE_CURVE('',#281,#1392,#1400,.T.);
#1400 = LINE('',#1401,#1402);
#1401 = CARTESIAN_POINT('',(-4.68,-32.5,20.55));
#1402 = VECTOR('',#1403,1.);
#1403 = DIRECTION('',(0.,-1.,2.22044604925E-16));
#1404 = PLANE('',#1405);
#1405 = AXIS2_PLACEMENT_3D('',#1406,#1407,#1408);
#1406 = CARTESIAN_POINT('',(-4.68,-32.5,21.75));
#1407 = DIRECTION('',(1.,0.,0.));
#1408 = DIRECTION('',(0.,-2.22044604925E-16,-1.));
#1409 = ADVANCED_FACE('',(#1410),#1428,.T.);
#1410 = FACE_BOUND('',#1411,.T.);
#1411 = EDGE_LOOP('',(#1412,#1413,#1414,#1422));
#1412 = ORIENTED_EDGE('',*,*,#280,.F.);
#1413 = ORIENTED_EDGE('',*,*,#1399,.T.);
#1414 = ORIENTED_EDGE('',*,*,#1415,.T.);
#1415 = EDGE_CURVE('',#1392,#1416,#1418,.T.);
#1416 = VERTEX_POINT('',#1417);
#1417 = CARTESIAN_POINT('',(-5.68,-76.5,20.55));
#1418 = LINE('',#1419,#1420);
#1419 = CARTESIAN_POINT('',(-4.68,-76.5,20.55));
#1420 = VECTOR('',#1421,1.);
#1421 = DIRECTION('',(-1.,0.,0.));
#1422 = ORIENTED_EDGE('',*,*,#1423,.F.);
#1423 = EDGE_CURVE('',#273,#1416,#1424,.T.);
#1424 = LINE('',#1425,#1426);
#1425 = CARTESIAN_POINT('',(-5.68,-32.5,20.55));
#1426 = VECTOR('',#1427,1.);
#1427 = DIRECTION('',(0.,-1.,2.22044604925E-16));
#1428 = PLANE('',#1429);
#1429 = AXIS2_PLACEMENT_3D('',#1430,#1431,#1432);
#1430 = CARTESIAN_POINT('',(-4.68,-32.5,20.55));
#1431 = DIRECTION('',(-0.,-2.22044604925E-16,-1.));
#1432 = DIRECTION('',(-1.,0.,0.));
#1433 = ADVANCED_FACE('',(#1434),#1445,.T.);
#1434 = FACE_BOUND('',#1435,.T.);
#1435 = EDGE_LOOP('',(#1436,#1437,#1438,#1444));
#1436 = ORIENTED_EDGE('',*,*,#272,.F.);
#1437 = ORIENTED_EDGE('',*,*,#1423,.T.);
#1438 = ORIENTED_EDGE('',*,*,#1439,.T.);
#1439 = EDGE_CURVE('',#1416,#1184,#1440,.T.);
#1440 = LINE('',#1441,#1442);
#1441 = CARTESIAN_POINT('',(-5.68,-76.5,20.55));
#1442 = VECTOR('',#1443,1.);
#1443 = DIRECTION('',(0.,2.22044604925E-16,1.));
#1444 = ORIENTED_EDGE('',*,*,#1183,.F.);
#1445 = PLANE('',#1446);
#1446 = AXIS2_PLACEMENT_3D('',#1447,#1448,#1449);
#1447 = CARTESIAN_POINT('',(-5.68,-32.5,20.55));
#1448 = DIRECTION('',(-1.,0.,0.));
#1449 = DIRECTION('',(0.,2.22044604925E-16,1.));
#1450 = ADVANCED_FACE('',(#1451),#1469,.T.);
#1451 = FACE_BOUND('',#1452,.T.);
#1452 = EDGE_LOOP('',(#1453,#1454,#1455,#1463));
#1453 = ORIENTED_EDGE('',*,*,#256,.F.);
#1454 = ORIENTED_EDGE('',*,*,#1176,.T.);
#1455 = ORIENTED_EDGE('',*,*,#1456,.T.);
#1456 = EDGE_CURVE('',#1169,#1457,#1459,.T.);
#1457 = VERTEX_POINT('',#1458);
#1458 = CARTESIAN_POINT('',(-7.32,-76.5,20.55));
#1459 = LINE('',#1460,#1461);
#1460 = CARTESIAN_POINT('',(-7.32,-76.5,21.75));
#1461 = VECTOR('',#1462,1.);
#1462 = DIRECTION('',(0.,-2.22044604925E-16,-1.));
#1463 = ORIENTED_EDGE('',*,*,#1464,.F.);
#1464 = EDGE_CURVE('',#249,#1457,#1465,.T.);
#1465 = LINE('',#1466,#1467);
#1466 = CARTESIAN_POINT('',(-7.32,-32.5,20.55));
#1467 = VECTOR('',#1468,1.);
#1468 = DIRECTION('',(0.,-1.,2.22044604925E-16));
#1469 = PLANE('',#1470);
#1470 = AXIS2_PLACEMENT_3D('',#1471,#1472,#1473);
#1471 = CARTESIAN_POINT('',(-7.32,-32.5,21.75));
#1472 = DIRECTION('',(1.,0.,0.));
#1473 = DIRECTION('',(0.,-2.22044604925E-16,-1.));
#1474 = ADVANCED_FACE('',(#1475),#1493,.T.);
#1475 = FACE_BOUND('',#1476,.T.);
#1476 = EDGE_LOOP('',(#1477,#1478,#1479,#1487));
#1477 = ORIENTED_EDGE('',*,*,#248,.F.);
#1478 = ORIENTED_EDGE('',*,*,#1464,.T.);
#1479 = ORIENTED_EDGE('',*,*,#1480,.T.);
#1480 = EDGE_CURVE('',#1457,#1481,#1483,.T.);
#1481 = VERTEX_POINT('',#1482);
#1482 = CARTESIAN_POINT('',(-8.32,-76.5,20.55));
#1483 = LINE('',#1484,#1485);
#1484 = CARTESIAN_POINT('',(-7.32,-76.5,20.55));
#1485 = VECTOR('',#1486,1.);
#1486 = DIRECTION('',(-1.,0.,0.));
#1487 = ORIENTED_EDGE('',*,*,#1488,.F.);
#1488 = EDGE_CURVE('',#241,#1481,#1489,.T.);
#1489 = LINE('',#1490,#1491);
#1490 = CARTESIAN_POINT('',(-8.32,-32.5,20.55));
#1491 = VECTOR('',#1492,1.);
#1492 = DIRECTION('',(0.,-1.,2.22044604925E-16));
#1493 = PLANE('',#1494);
#1494 = AXIS2_PLACEMENT_3D('',#1495,#1496,#1497);
#1495 = CARTESIAN_POINT('',(-7.32,-32.5,20.55));
#1496 = DIRECTION('',(-0.,-2.22044604925E-16,-1.));
#1497 = DIRECTION('',(-1.,0.,0.));
#1498 = ADVANCED_FACE('',(#1499),#1510,.T.);
#1499 = FACE_BOUND('',#1500,.T.);
#1500 = EDGE_LOOP('',(#1501,#1502,#1503,#1509));
#1501 = ORIENTED_EDGE('',*,*,#240,.F.);
#1502 = ORIENTED_EDGE('',*,*,#1488,.T.);
#1503 = ORIENTED_EDGE('',*,*,#1504,.T.);
#1504 = EDGE_CURVE('',#1481,#1161,#1505,.T.);
#1505 = LINE('',#1506,#1507);
#1506 = CARTESIAN_POINT('',(-8.32,-76.5,20.55));
#1507 = VECTOR('',#1508,1.);
#1508 = DIRECTION('',(0.,2.22044604925E-16,1.));
#1509 = ORIENTED_EDGE('',*,*,#1160,.F.);
#1510 = PLANE('',#1511);
#1511 = AXIS2_PLACEMENT_3D('',#1512,#1513,#1514);
#1512 = CARTESIAN_POINT('',(-8.32,-32.5,20.55));
#1513 = DIRECTION('',(-1.,0.,0.));
#1514 = DIRECTION('',(0.,2.22044604925E-16,1.));
#1515 = ADVANCED_FACE('',(#1516),#1532,.F.);
#1516 = FACE_BOUND('',#1517,.F.);
#1517 = EDGE_LOOP('',(#1518,#1519,#1525,#1526));
#1518 = ORIENTED_EDGE('',*,*,#1058,.F.);
#1519 = ORIENTED_EDGE('',*,*,#1520,.T.);
#1520 = EDGE_CURVE('',#1059,#753,#1521,.T.);
#1521 = LINE('',#1522,#1523);
#1522 = CARTESIAN_POINT('',(23.,-87.1,-0.9));
#1523 = VECTOR('',#1524,1.);
#1524 = DIRECTION('',(-1.,-0.,-0.));
#1525 = ORIENTED_EDGE('',*,*,#752,.T.);
#1526 = ORIENTED_EDGE('',*,*,#1527,.F.);
#1527 = EDGE_CURVE('',#1051,#755,#1528,.T.);
#1528 = LINE('',#1529,#1530);
#1529 = CARTESIAN_POINT('',(23.,-84.6,-0.9));
#1530 = VECTOR('',#1531,1.);
#1531 = DIRECTION('',(-1.,-0.,-0.));
#1532 = CYLINDRICAL_SURFACE('',#1533,1.25);
#1533 = AXIS2_PLACEMENT_3D('',#1534,#1535,#1536);
#1534 = CARTESIAN_POINT('',(23.,-85.85,-0.9));
#1535 = DIRECTION('',(1.,0.,0.));
#1536 = DIRECTION('',(0.,1.,0.));
#1537 = ADVANCED_FACE('',(#1538),#1549,.F.);
#1538 = FACE_BOUND('',#1539,.F.);
#1539 = EDGE_LOOP('',(#1540,#1541,#1547,#1548));
#1540 = ORIENTED_EDGE('',*,*,#1067,.F.);
#1541 = ORIENTED_EDGE('',*,*,#1542,.T.);
#1542 = EDGE_CURVE('',#1068,#772,#1543,.T.);
#1543 = LINE('',#1544,#1545);
#1544 = CARTESIAN_POINT('',(23.,-87.1,19.5));
#1545 = VECTOR('',#1546,1.);
#1546 = DIRECTION('',(-1.,-0.,-0.));
#1547 = ORIENTED_EDGE('',*,*,#780,.F.);
#1548 = ORIENTED_EDGE('',*,*,#1520,.F.);
#1549 = PLANE('',#1550);
#1550 = AXIS2_PLACEMENT_3D('',#1551,#1552,#1553);
#1551 = CARTESIAN_POINT('',(23.,-87.1,19.5));
#1552 = DIRECTION('',(0.,-1.,0.));
#1553 = DIRECTION('',(0.,0.,-1.));
#1554 = ADVANCED_FACE('',(#1555),#1566,.T.);
#1555 = FACE_BOUND('',#1556,.T.);
#1556 = EDGE_LOOP('',(#1557,#1558,#1564,#1565));
#1557 = ORIENTED_EDGE('',*,*,#1048,.F.);
#1558 = ORIENTED_EDGE('',*,*,#1559,.T.);
#1559 = EDGE_CURVE('',#1049,#764,#1560,.T.);
#1560 = LINE('',#1561,#1562);
#1561 = CARTESIAN_POINT('',(23.,-84.6,19.5));
#1562 = VECTOR('',#1563,1.);
#1563 = DIRECTION('',(-1.,-0.,-0.));
#1564 = ORIENTED_EDGE('',*,*,#763,.F.);
#1565 = ORIENTED_EDGE('',*,*,#1527,.F.);
#1566 = PLANE('',#1567);
#1567 = AXIS2_PLACEMENT_3D('',#1568,#1569,#1570);
#1568 = CARTESIAN_POINT('',(23.,-84.6,19.5));
#1569 = DIRECTION('',(0.,-1.,0.));
#1570 = DIRECTION('',(0.,0.,-1.));
#1571 = ADVANCED_FACE('',(#1572),#1578,.F.);
#1572 = FACE_BOUND('',#1573,.F.);
#1573 = EDGE_LOOP('',(#1574,#1575,#1576,#1577));
#1574 = ORIENTED_EDGE('',*,*,#1075,.F.);
#1575 = ORIENTED_EDGE('',*,*,#1559,.T.);
#1576 = ORIENTED_EDGE('',*,*,#771,.T.);
#1577 = ORIENTED_EDGE('',*,*,#1542,.F.);
#1578 = CYLINDRICAL_SURFACE('',#1579,1.25);
#1579 = AXIS2_PLACEMENT_3D('',#1580,#1581,#1582);
#1580 = CARTESIAN_POINT('',(23.,-85.85,19.5));
#1581 = DIRECTION('',(1.,0.,0.));
#1582 = DIRECTION('',(0.,1.,0.));
#1583 = ADVANCED_FACE('',(#1584),#1600,.F.);
#1584 = FACE_BOUND('',#1585,.F.);
#1585 = EDGE_LOOP('',(#1586,#1587,#1593,#1594));
#1586 = ORIENTED_EDGE('',*,*,#1022,.F.);
#1587 = ORIENTED_EDGE('',*,*,#1588,.T.);
#1588 = EDGE_CURVE('',#1023,#789,#1589,.T.);
#1589 = LINE('',#1590,#1591);
#1590 = CARTESIAN_POINT('',(23.,-85.15,-18.73));
#1591 = VECTOR('',#1592,1.);
#1592 = DIRECTION('',(-1.,-0.,-0.));
#1593 = ORIENTED_EDGE('',*,*,#788,.T.);
#1594 = ORIENTED_EDGE('',*,*,#1595,.F.);
#1595 = EDGE_CURVE('',#1015,#791,#1596,.T.);
#1596 = LINE('',#1597,#1598);
#1597 = CARTESIAN_POINT('',(23.,-81.95,-18.73));
#1598 = VECTOR('',#1599,1.);
#1599 = DIRECTION('',(-1.,-0.,-0.));
#1600 = CYLINDRICAL_SURFACE('',#1601,1.6);
#1601 = AXIS2_PLACEMENT_3D('',#1602,#1603,#1604);
#1602 = CARTESIAN_POINT('',(23.,-83.55,-18.73));
#1603 = DIRECTION('',(1.,0.,0.));
#1604 = DIRECTION('',(0.,1.,0.));
#1605 = ADVANCED_FACE('',(#1606),#1617,.F.);
#1606 = FACE_BOUND('',#1607,.F.);
#1607 = EDGE_LOOP('',(#1608,#1609,#1615,#1616));
#1608 = ORIENTED_EDGE('',*,*,#1031,.F.);
#1609 = ORIENTED_EDGE('',*,*,#1610,.T.);
#1610 = EDGE_CURVE('',#1032,#808,#1611,.T.);
#1611 = LINE('',#1612,#1613);
#1612 = CARTESIAN_POINT('',(23.,-85.15,-7.3));
#1613 = VECTOR('',#1614,1.);
#1614 = DIRECTION('',(-1.,-0.,-0.));
#1615 = ORIENTED_EDGE('',*,*,#816,.F.);
#1616 = ORIENTED_EDGE('',*,*,#1588,.F.);
#1617 = PLANE('',#1618);
#1618 = AXIS2_PLACEMENT_3D('',#1619,#1620,#1621);
#1619 = CARTESIAN_POINT('',(23.,-85.15,-7.3));
#1620 = DIRECTION('',(0.,-1.,0.));
#1621 = DIRECTION('',(0.,0.,-1.));
#1622 = ADVANCED_FACE('',(#1623),#1634,.T.);
#1623 = FACE_BOUND('',#1624,.T.);
#1624 = EDGE_LOOP('',(#1625,#1626,#1632,#1633));
#1625 = ORIENTED_EDGE('',*,*,#1012,.F.);
#1626 = ORIENTED_EDGE('',*,*,#1627,.T.);
#1627 = EDGE_CURVE('',#1013,#800,#1628,.T.);
#1628 = LINE('',#1629,#1630);
#1629 = CARTESIAN_POINT('',(23.,-81.95,-7.3));
#1630 = VECTOR('',#1631,1.);
#1631 = DIRECTION('',(-1.,-0.,-0.));
#1632 = ORIENTED_EDGE('',*,*,#799,.F.);
#1633 = ORIENTED_EDGE('',*,*,#1595,.F.);
#1634 = PLANE('',#1635);
#1635 = AXIS2_PLACEMENT_3D('',#1636,#1637,#1638);
#1636 = CARTESIAN_POINT('',(23.,-81.95,-7.3));
#1637 = DIRECTION('',(0.,-1.,0.));
#1638 = DIRECTION('',(0.,0.,-1.));
#1639 = ADVANCED_FACE('',(#1640),#1646,.F.);
#1640 = FACE_BOUND('',#1641,.F.);
#1641 = EDGE_LOOP('',(#1642,#1643,#1644,#1645));
#1642 = ORIENTED_EDGE('',*,*,#1039,.F.);
#1643 = ORIENTED_EDGE('',*,*,#1627,.T.);
#1644 = ORIENTED_EDGE('',*,*,#807,.T.);
#1645 = ORIENTED_EDGE('',*,*,#1610,.F.);
#1646 = CYLINDRICAL_SURFACE('',#1647,1.6);
#1647 = AXIS2_PLACEMENT_3D('',#1648,#1649,#1650);
#1648 = CARTESIAN_POINT('',(23.,-83.55,-7.3));
#1649 = DIRECTION('',(1.,0.,0.));
#1650 = DIRECTION('',(0.,1.,0.));
#1651 = ADVANCED_FACE('',(#1652),#1677,.F.);
#1652 = FACE_BOUND('',#1653,.F.);
#1653 = EDGE_LOOP('',(#1654,#1664,#1670,#1671));
#1654 = ORIENTED_EDGE('',*,*,#1655,.F.);
#1655 = EDGE_CURVE('',#1656,#1658,#1660,.T.);
#1656 = VERTEX_POINT('',#1657);
#1657 = CARTESIAN_POINT('',(9.3,-91.9,20.25));
#1658 = VERTEX_POINT('',#1659);
#1659 = CARTESIAN_POINT('',(9.3,-91.9,-20.75));
#1660 = LINE('',#1661,#1662);
#1661 = CARTESIAN_POINT('',(9.3,-91.9,20.25));
#1662 = VECTOR('',#1663,1.);
#1663 = DIRECTION('',(0.,-2.22044604925E-16,-1.));
#1664 = ORIENTED_EDGE('',*,*,#1665,.T.);
#1665 = EDGE_CURVE('',#1656,#849,#1666,.T.);
#1666 = LINE('',#1667,#1668);
#1667 = CARTESIAN_POINT('',(9.3,-91.9,20.25));
#1668 = VECTOR('',#1669,1.);
#1669 = DIRECTION('',(0.,1.,-2.22044604925E-16));
#1670 = ORIENTED_EDGE('',*,*,#848,.T.);
#1671 = ORIENTED_EDGE('',*,*,#1672,.F.);
#1672 = EDGE_CURVE('',#1658,#851,#1673,.T.);
#1673 = LINE('',#1674,#1675);
#1674 = CARTESIAN_POINT('',(9.3,-91.9,-20.75));
#1675 = VECTOR('',#1676,1.);
#1676 = DIRECTION('',(0.,1.,-2.22044604925E-16));
#1677 = PLANE('',#1678);
#1678 = AXIS2_PLACEMENT_3D('',#1679,#1680,#1681);
#1679 = CARTESIAN_POINT('',(9.3,-91.9,20.25));
#1680 = DIRECTION('',(-1.,0.,0.));
#1681 = DIRECTION('',(0.,-2.22044604925E-16,-1.));
#1682 = ADVANCED_FACE('',(#1683),#1701,.F.);
#1683 = FACE_BOUND('',#1684,.F.);
#1684 = EDGE_LOOP('',(#1685,#1693,#1694,#1695));
#1685 = ORIENTED_EDGE('',*,*,#1686,.F.);
#1686 = EDGE_CURVE('',#1658,#1687,#1689,.T.);
#1687 = VERTEX_POINT('',#1688);
#1688 = CARTESIAN_POINT('',(14.8,-91.9,-20.75));
#1689 = LINE('',#1690,#1691);
#1690 = CARTESIAN_POINT('',(9.3,-91.9,-20.75));
#1691 = VECTOR('',#1692,1.);
#1692 = DIRECTION('',(1.,0.,0.));
#1693 = ORIENTED_EDGE('',*,*,#1672,.T.);
#1694 = ORIENTED_EDGE('',*,*,#874,.T.);
#1695 = ORIENTED_EDGE('',*,*,#1696,.F.);
#1696 = EDGE_CURVE('',#1687,#867,#1697,.T.);
#1697 = LINE('',#1698,#1699);
#1698 = CARTESIAN_POINT('',(14.8,-91.9,-20.75));
#1699 = VECTOR('',#1700,1.);
#1700 = DIRECTION('',(0.,1.,-2.22044604925E-16));
#1701 = PLANE('',#1702);
#1702 = AXIS2_PLACEMENT_3D('',#1703,#1704,#1705);
#1703 = CARTESIAN_POINT('',(9.3,-91.9,-20.75));
#1704 = DIRECTION('',(0.,-2.22044604925E-16,-1.));
#1705 = DIRECTION('',(1.,0.,0.));
#1706 = ADVANCED_FACE('',(#1707),#1725,.F.);
#1707 = FACE_BOUND('',#1708,.F.);
#1708 = EDGE_LOOP('',(#1709,#1717,#1718,#1719));
#1709 = ORIENTED_EDGE('',*,*,#1710,.F.);
#1710 = EDGE_CURVE('',#1687,#1711,#1713,.T.);
#1711 = VERTEX_POINT('',#1712);
#1712 = CARTESIAN_POINT('',(14.8,-91.9,20.25));
#1713 = LINE('',#1714,#1715);
#1714 = CARTESIAN_POINT('',(14.8,-91.9,-20.75));
#1715 = VECTOR('',#1716,1.);
#1716 = DIRECTION('',(0.,2.22044604925E-16,1.));
#1717 = ORIENTED_EDGE('',*,*,#1696,.T.);
#1718 = ORIENTED_EDGE('',*,*,#866,.T.);
#1719 = ORIENTED_EDGE('',*,*,#1720,.F.);
#1720 = EDGE_CURVE('',#1711,#859,#1721,.T.);
#1721 = LINE('',#1722,#1723);
#1722 = CARTESIAN_POINT('',(14.8,-91.9,20.25));
#1723 = VECTOR('',#1724,1.);
#1724 = DIRECTION('',(0.,1.,-2.22044604925E-16));
#1725 = PLANE('',#1726);
#1726 = AXIS2_PLACEMENT_3D('',#1727,#1728,#1729);
#1727 = CARTESIAN_POINT('',(14.8,-91.9,-20.75));
#1728 = DIRECTION('',(1.,0.,0.));
#1729 = DIRECTION('',(0.,2.22044604925E-16,1.));
#1730 = ADVANCED_FACE('',(#1731),#1742,.F.);
#1731 = FACE_BOUND('',#1732,.F.);
#1732 = EDGE_LOOP('',(#1733,#1739,#1740,#1741));
#1733 = ORIENTED_EDGE('',*,*,#1734,.F.);
#1734 = EDGE_CURVE('',#1711,#1656,#1735,.T.);
#1735 = LINE('',#1736,#1737);
#1736 = CARTESIAN_POINT('',(14.8,-91.9,20.25));
#1737 = VECTOR('',#1738,1.);
#1738 = DIRECTION('',(-1.,0.,0.));
#1739 = ORIENTED_EDGE('',*,*,#1720,.T.);
#1740 = ORIENTED_EDGE('',*,*,#858,.T.);
#1741 = ORIENTED_EDGE('',*,*,#1665,.F.);
#1742 = PLANE('',#1743);
#1743 = AXIS2_PLACEMENT_3D('',#1744,#1745,#1746);
#1744 = CARTESIAN_POINT('',(14.8,-91.9,20.25));
#1745 = DIRECTION('',(0.,2.22044604925E-16,1.));
#1746 = DIRECTION('',(-1.,0.,0.));
#1747 = ADVANCED_FACE('',(#1748),#1773,.F.);
#1748 = FACE_BOUND('',#1749,.F.);
#1749 = EDGE_LOOP('',(#1750,#1760,#1766,#1767));
#1750 = ORIENTED_EDGE('',*,*,#1751,.F.);
#1751 = EDGE_CURVE('',#1752,#1754,#1756,.T.);
#1752 = VERTEX_POINT('',#1753);
#1753 = CARTESIAN_POINT('',(-15.5,-91.9,21.2));
#1754 = VERTEX_POINT('',#1755);
#1755 = CARTESIAN_POINT('',(-15.5,-91.9,-18.8));
#1756 = LINE('',#1757,#1758);
#1757 = CARTESIAN_POINT('',(-15.5,-91.9,21.2));
#1758 = VECTOR('',#1759,1.);
#1759 = DIRECTION('',(0.,-2.22044604925E-16,-1.));
#1760 = ORIENTED_EDGE('',*,*,#1761,.T.);
#1761 = EDGE_CURVE('',#1752,#883,#1762,.T.);
#1762 = LINE('',#1763,#1764);
#1763 = CARTESIAN_POINT('',(-15.5,-91.9,21.2));
#1764 = VECTOR('',#1765,1.);
#1765 = DIRECTION('',(0.,1.,-2.22044604925E-16));
#1766 = ORIENTED_EDGE('',*,*,#882,.T.);
#1767 = ORIENTED_EDGE('',*,*,#1768,.F.);
#1768 = EDGE_CURVE('',#1754,#885,#1769,.T.);
#1769 = LINE('',#1770,#1771);
#1770 = CARTESIAN_POINT('',(-15.5,-91.9,-18.8));
#1771 = VECTOR('',#1772,1.);
#1772 = DIRECTION('',(0.,1.,-2.22044604925E-16));
#1773 = PLANE('',#1774);
#1774 = AXIS2_PLACEMENT_3D('',#1775,#1776,#1777);
#1775 = CARTESIAN_POINT('',(-15.5,-91.9,21.2));
#1776 = DIRECTION('',(-1.,0.,0.));
#1777 = DIRECTION('',(0.,-2.22044604925E-16,-1.));
#1778 = ADVANCED_FACE('',(#1779),#1797,.F.);
#1779 = FACE_BOUND('',#1780,.F.);
#1780 = EDGE_LOOP('',(#1781,#1789,#1790,#1791));
#1781 = ORIENTED_EDGE('',*,*,#1782,.F.);
#1782 = EDGE_CURVE('',#1754,#1783,#1785,.T.);
#1783 = VERTEX_POINT('',#1784);
#1784 = CARTESIAN_POINT('',(-2.5,-91.9,-18.8));
#1785 = LINE('',#1786,#1787);
#1786 = CARTESIAN_POINT('',(-15.5,-91.9,-18.8));
#1787 = VECTOR('',#1788,1.);
#1788 = DIRECTION('',(1.,0.,0.));
#1789 = ORIENTED_EDGE('',*,*,#1768,.T.);
#1790 = ORIENTED_EDGE('',*,*,#908,.T.);
#1791 = ORIENTED_EDGE('',*,*,#1792,.F.);
#1792 = EDGE_CURVE('',#1783,#901,#1793,.T.);
#1793 = LINE('',#1794,#1795);
#1794 = CARTESIAN_POINT('',(-2.5,-91.9,-18.8));
#1795 = VECTOR('',#1796,1.);
#1796 = DIRECTION('',(0.,1.,-2.22044604925E-16));
#1797 = PLANE('',#1798);
#1798 = AXIS2_PLACEMENT_3D('',#1799,#1800,#1801);
#1799 = CARTESIAN_POINT('',(-15.5,-91.9,-18.8));
#1800 = DIRECTION('',(0.,-2.22044604925E-16,-1.));
#1801 = DIRECTION('',(1.,0.,0.));
#1802 = ADVANCED_FACE('',(#1803),#1821,.F.);
#1803 = FACE_BOUND('',#1804,.F.);
#1804 = EDGE_LOOP('',(#1805,#1813,#1814,#1815));
#1805 = ORIENTED_EDGE('',*,*,#1806,.F.);
#1806 = EDGE_CURVE('',#1783,#1807,#1809,.T.);
#1807 = VERTEX_POINT('',#1808);
#1808 = CARTESIAN_POINT('',(-2.5,-91.9,21.2));
#1809 = LINE('',#1810,#1811);
#1810 = CARTESIAN_POINT('',(-2.5,-91.9,-18.8));
#1811 = VECTOR('',#1812,1.);
#1812 = DIRECTION('',(0.,2.22044604925E-16,1.));
#1813 = ORIENTED_EDGE('',*,*,#1792,.T.);
#1814 = ORIENTED_EDGE('',*,*,#900,.T.);
#1815 = ORIENTED_EDGE('',*,*,#1816,.F.);
#1816 = EDGE_CURVE('',#1807,#893,#1817,.T.);
#1817 = LINE('',#1818,#1819);
#1818 = CARTESIAN_POINT('',(-2.5,-91.9,21.2));
#1819 = VECTOR('',#1820,1.);
#1820 = DIRECTION('',(0.,1.,-2.22044604925E-16));
#1821 = PLANE('',#1822);
#1822 = AXIS2_PLACEMENT_3D('',#1823,#1824,#1825);
#1823 = CARTESIAN_POINT('',(-2.5,-91.9,-18.8));
#1824 = DIRECTION('',(1.,0.,0.));
#1825 = DIRECTION('',(0.,2.22044604925E-16,1.));
#1826 = ADVANCED_FACE('',(#1827),#1838,.F.);
#1827 = FACE_BOUND('',#1828,.F.);
#1828 = EDGE_LOOP('',(#1829,#1835,#1836,#1837));
#1829 = ORIENTED_EDGE('',*,*,#1830,.F.);
#1830 = EDGE_CURVE('',#1807,#1752,#1831,.T.);
#1831 = LINE('',#1832,#1833);
#1832 = CARTESIAN_POINT('',(-2.5,-91.9,21.2));
#1833 = VECTOR('',#1834,1.);
#1834 = DIRECTION('',(-1.,0.,0.));
#1835 = ORIENTED_EDGE('',*,*,#1816,.T.);
#1836 = ORIENTED_EDGE('',*,*,#892,.T.);
#1837 = ORIENTED_EDGE('',*,*,#1761,.F.);
#1838 = PLANE('',#1839);
#1839 = AXIS2_PLACEMENT_3D('',#1840,#1841,#1842);
#1840 = CARTESIAN_POINT('',(-2.5,-91.9,21.2));
#1841 = DIRECTION('',(0.,2.22044604925E-16,1.));
#1842 = DIRECTION('',(-1.,0.,0.));
#1843 = ADVANCED_FACE('',(#1844,#1850,#1856),#1862,.T.);
#1844 = FACE_BOUND('',#1845,.T.);
#1845 = EDGE_LOOP('',(#1846,#1847,#1848,#1849));
#1846 = ORIENTED_EDGE('',*,*,#956,.T.);
#1847 = ORIENTED_EDGE('',*,*,#1093,.T.);
#1848 = ORIENTED_EDGE('',*,*,#1004,.T.);
#1849 = ORIENTED_EDGE('',*,*,#980,.T.);
#1850 = FACE_BOUND('',#1851,.T.);
#1851 = EDGE_LOOP('',(#1852,#1853,#1854,#1855));
#1852 = ORIENTED_EDGE('',*,*,#1655,.F.);
#1853 = ORIENTED_EDGE('',*,*,#1734,.F.);
#1854 = ORIENTED_EDGE('',*,*,#1710,.F.);
#1855 = ORIENTED_EDGE('',*,*,#1686,.F.);
#1856 = FACE_BOUND('',#1857,.T.);
#1857 = EDGE_LOOP('',(#1858,#1859,#1860,#1861));
#1858 = ORIENTED_EDGE('',*,*,#1751,.F.);
#1859 = ORIENTED_EDGE('',*,*,#1830,.F.);
#1860 = ORIENTED_EDGE('',*,*,#1806,.F.);
#1861 = ORIENTED_EDGE('',*,*,#1782,.F.);
#1862 = PLANE('',#1863);
#1863 = AXIS2_PLACEMENT_3D('',#1864,#1865,#1866);
#1864 = CARTESIAN_POINT('',(0.,-91.9,1.940669847045E-14));
#1865 = DIRECTION('',(0.,-1.,2.22044604925E-16));
#1866 = DIRECTION('',(1.,0.,0.));
#1867 = ADVANCED_FACE('',(#1868),#1874,.F.);
#1868 = FACE_BOUND('',#1869,.F.);
#1869 = EDGE_LOOP('',(#1870,#1871,#1872,#1873));
#1870 = ORIENTED_EDGE('',*,*,#1237,.T.);
#1871 = ORIENTED_EDGE('',*,*,#1261,.T.);
#1872 = ORIENTED_EDGE('',*,*,#1285,.T.);
#1873 = ORIENTED_EDGE('',*,*,#1309,.T.);
#1874 = PLANE('',#1875);
#1875 = AXIS2_PLACEMENT_3D('',#1876,#1877,#1878);
#1876 = CARTESIAN_POINT('',(4.365079365079E-02,-76.5,1.846428571429));
#1877 = DIRECTION('',(0.,1.,-2.22044604925E-16));
#1878 = DIRECTION('',(-1.,0.,0.));
#1879 = ADVANCED_FACE('',(#1880),#1886,.F.);
#1880 = FACE_BOUND('',#1881,.F.);
#1881 = EDGE_LOOP('',(#1882,#1883,#1884,#1885));
#1882 = ORIENTED_EDGE('',*,*,#1214,.T.);
#1883 = ORIENTED_EDGE('',*,*,#1326,.T.);
#1884 = ORIENTED_EDGE('',*,*,#1350,.T.);
#1885 = ORIENTED_EDGE('',*,*,#1374,.T.);
#1886 = PLANE('',#1887);
#1887 = AXIS2_PLACEMENT_3D('',#1888,#1889,#1890);
#1888 = CARTESIAN_POINT('',(4.365079365079E-02,-76.5,1.846428571429));
#1889 = DIRECTION('',(0.,1.,-2.22044604925E-16));
#1890 = DIRECTION('',(-1.,0.,0.));
#1891 = ADVANCED_FACE('',(#1892),#1898,.F.);
#1892 = FACE_BOUND('',#1893,.F.);
#1893 = EDGE_LOOP('',(#1894,#1895,#1896,#1897));
#1894 = ORIENTED_EDGE('',*,*,#1191,.T.);
#1895 = ORIENTED_EDGE('',*,*,#1391,.T.);
#1896 = ORIENTED_EDGE('',*,*,#1415,.T.);
#1897 = ORIENTED_EDGE('',*,*,#1439,.T.);
#1898 = PLANE('',#1899);
#1899 = AXIS2_PLACEMENT_3D('',#1900,#1901,#1902);
#1900 = CARTESIAN_POINT('',(4.365079365079E-02,-76.5,1.846428571429));
#1901 = DIRECTION('',(0.,1.,-2.22044604925E-16));
#1902 = DIRECTION('',(-1.,0.,0.));
#1903 = ADVANCED_FACE('',(#1904),#1910,.F.);
#1904 = FACE_BOUND('',#1905,.F.);
#1905 = EDGE_LOOP('',(#1906,#1907,#1908,#1909));
#1906 = ORIENTED_EDGE('',*,*,#1168,.T.);
#1907 = ORIENTED_EDGE('',*,*,#1456,.T.);
#1908 = ORIENTED_EDGE('',*,*,#1480,.T.);
#1909 = ORIENTED_EDGE('',*,*,#1504,.T.);
#1910 = PLANE('',#1911);
#1911 = AXIS2_PLACEMENT_3D('',#1912,#1913,#1914);
#1912 = CARTESIAN_POINT('',(4.365079365079E-02,-76.5,1.846428571429));
#1913 = DIRECTION('',(0.,1.,-2.22044604925E-16));
#1914 = DIRECTION('',(-1.,0.,0.));
#1915 = ( GEOMETRIC_REPRESENTATION_CONTEXT(3) 
GLOBAL_UNCERTAINTY_ASSIGNED_CONTEXT((#1919)) 
GLOBAL_UNIT_ASSIGNED_CONTEXT((#1916,#1917,#1918)) REPRESENTATION_CONTEXT
('Context #1','3D Context with UNIT and UNCERTAINTY') );
#1916 = ( LENGTH_UNIT() NAMED_UNIT(*) SI_UNIT(.MILLI.,.METRE.) );
#1917 = ( NAMED_UNIT(*) PLANE_ANGLE_UNIT() SI_UNIT($,.RADIAN.) );
#1918 = ( NAMED_UNIT(*) SI_UNIT($,.STERADIAN.) SOLID_ANGLE_UNIT() );
#1919 = UNCERTAINTY_MEASURE_WITH_UNIT(LENGTH_MEASURE(1.E-05),#1916,
  'distance_accuracy_value','confusion accuracy');
#1920 = PRODUCT_RELATED_PRODUCT_CATEGORY('part',$,(#7));
#1921 = MECHANICAL_DESIGN_GEOMETRIC_PRESENTATION_REPRESENTATION('',(
    #1922),#1915);
#1922 = STYLED_ITEM('color',(#1923),#15);
#1923 = PRESENTATION_STYLE_ASSIGNMENT((#1924,#1930));
#1924 = SURFACE_STYLE_USAGE(.BOTH.,#1925);
#1925 = SURFACE_SIDE_STYLE('',(#1926));
#1926 = SURFACE_STYLE_FILL_AREA(#1927);
#1927 = FILL_AREA_STYLE('',(#1928));
#1928 = FILL_AREA_STYLE_COLOUR('',#1929);
#1929 = COLOUR_RGB('',0.678430976034,0.709803998361,0.741176010593);
#1930 = CURVE_STYLE('',#1931,POSITIVE_LENGTH_MEASURE(0.1),#1932);
#1931 = DRAUGHTING_PRE_DEFINED_CURVE_FONT('continuous');
#1932 = COLOUR_RGB('',9.803921802644E-02,9.803921802644E-02,
  9.803921802644E-02);
ENDSEC;
END-ISO-10303-21;
