ISO-10303-21;
HEADER;
FILE_DESCRIPTION(('FreeCAD Model'),'2;1');
FILE_NAME('Open CASCADE Shape Model','2026-08-13T15:49:15',(''),(''),
  'Open CASCADE STEP processor 7.8','FreeCAD','Unknown');
FILE_SCHEMA(('AUTOMOTIVE_DESIGN { 1 0 10303 214 1 1 1 1 }'));
ENDSEC;
DATA;
#1 = APPLICATION_PROTOCOL_DEFINITION('international standard',
  'automotive_design',2000,#2);
#2 = APPLICATION_CONTEXT(
  'core data for automotive mechanical design processes');
#3 = SHAPE_DEFINITION_REPRESENTATION(#4,#10);
#4 = PRODUCT_DEFINITION_SHAPE('','',#5);
#5 = PRODUCT_DEFINITION('design','',#6,#9);
#6 = PRODUCT_DEFINITION_FORMATION('','',#7);
#7 = PRODUCT('Facade','Facade','',(#8));
#8 = PRODUCT_CONTEXT('',#2,'mechanical');
#9 = PRODUCT_DEFINITION_CONTEXT('part definition',#2,'design');
#10 = ADVANCED_BREP_SHAPE_REPRESENTATION('',(#11,#15),#1261);
#11 = AXIS2_PLACEMENT_3D('',#12,#13,#14);
#12 = CARTESIAN_POINT('',(0.,0.,0.));
#13 = DIRECTION('',(0.,0.,1.));
#14 = DIRECTION('',(1.,0.,-0.));
#15 = MANIFOLD_SOLID_BREP('',#16);
#16 = CLOSED_SHELL('',(#17,#57,#122,#146,#303,#320,#332,#363,#387,#411,
    #428,#459,#483,#507,#524,#549,#574,#599,#624,#649,#674,#699,#724,
    #749,#795,#841,#850,#870,#890,#899,#908,#928,#937,#946,#955,#986,
    #1010,#1034,#1051,#1082,#1106,#1130,#1147,#1172,#1197,#1222,#1243,
    #1252));
#17 = ADVANCED_FACE('',(#18),#52,.T.);
#18 = FACE_BOUND('',#19,.T.);
#19 = EDGE_LOOP('',(#20,#30,#38,#46));
#20 = ORIENTED_EDGE('',*,*,#21,.F.);
#21 = EDGE_CURVE('',#22,#24,#26,.T.);
#22 = VERTEX_POINT('',#23);
#23 = CARTESIAN_POINT('',(-14.45,-3.25,17.4));
#24 = VERTEX_POINT('',#25);
#25 = CARTESIAN_POINT('',(-14.45,-3.25,-6.6));
#26 = LINE('',#27,#28);
#27 = CARTESIAN_POINT('',(-14.45,-3.25,17.4));
#28 = VECTOR('',#29,1.);
#29 = DIRECTION('',(0.,-2.22044604925E-16,-1.));
#30 = ORIENTED_EDGE('',*,*,#31,.T.);
#31 = EDGE_CURVE('',#22,#32,#34,.T.);
#32 = VERTEX_POINT('',#33);
#33 = CARTESIAN_POINT('',(-14.45,-4.5,17.4));
#34 = LINE('',#35,#36);
#35 = CARTESIAN_POINT('',(-14.45,3.863576125696E-15,17.4));
#36 = VECTOR('',#37,1.);
#37 = DIRECTION('',(0.,-1.,2.22044604925E-16));
#38 = ORIENTED_EDGE('',*,*,#39,.T.);
#39 = EDGE_CURVE('',#32,#40,#42,.T.);
#40 = VERTEX_POINT('',#41);
#41 = CARTESIAN_POINT('',(-14.45,-4.5,-6.6));
#42 = LINE('',#43,#44);
#43 = CARTESIAN_POINT('',(-14.45,-4.5,17.4));
#44 = VECTOR('',#45,1.);
#45 = DIRECTION('',(0.,-2.22044604925E-16,-1.));
#46 = ORIENTED_EDGE('',*,*,#47,.F.);
#47 = EDGE_CURVE('',#24,#40,#48,.T.);
#48 = LINE('',#49,#50);
#49 = CARTESIAN_POINT('',(-14.45,-1.465494392505E-15,-6.6));
#50 = VECTOR('',#51,1.);
#51 = DIRECTION('',(0.,-1.,2.22044604925E-16));
#52 = PLANE('',#53);
#53 = AXIS2_PLACEMENT_3D('',#54,#55,#56);
#54 = CARTESIAN_POINT('',(-14.45,3.863576125696E-15,17.4));
#55 = DIRECTION('',(1.,0.,0.));
#56 = DIRECTION('',(0.,-2.22044604925E-16,-1.));
#57 = ADVANCED_FACE('',(#58,#83),#117,.T.);
#58 = FACE_BOUND('',#59,.T.);
#59 = EDGE_LOOP('',(#60,#61,#69,#77));
#60 = ORIENTED_EDGE('',*,*,#21,.T.);
#61 = ORIENTED_EDGE('',*,*,#62,.T.);
#62 = EDGE_CURVE('',#24,#63,#65,.T.);
#63 = VERTEX_POINT('',#64);
#64 = CARTESIAN_POINT('',(15.55,-3.25,-6.6));
#65 = LINE('',#66,#67);
#66 = CARTESIAN_POINT('',(-14.45,-3.25,-6.6));
#67 = VECTOR('',#68,1.);
#68 = DIRECTION('',(1.,0.,0.));
#69 = ORIENTED_EDGE('',*,*,#70,.T.);
#70 = EDGE_CURVE('',#63,#71,#73,.T.);
#71 = VERTEX_POINT('',#72);
#72 = CARTESIAN_POINT('',(15.55,-3.25,17.4));
#73 = LINE('',#74,#75);
#74 = CARTESIAN_POINT('',(15.55,-3.25,-6.6));
#75 = VECTOR('',#76,1.);
#76 = DIRECTION('',(0.,2.22044604925E-16,1.));
#77 = ORIENTED_EDGE('',*,*,#78,.T.);
#78 = EDGE_CURVE('',#71,#22,#79,.T.);
#79 = LINE('',#80,#81);
#80 = CARTESIAN_POINT('',(15.55,-3.25,17.4));
#81 = VECTOR('',#82,1.);
#82 = DIRECTION('',(-1.,0.,0.));
#83 = FACE_BOUND('',#84,.F.);
#84 = EDGE_LOOP('',(#85,#95,#103,#111));
#85 = ORIENTED_EDGE('',*,*,#86,.T.);
#86 = EDGE_CURVE('',#87,#89,#91,.T.);
#87 = VERTEX_POINT('',#88);
#88 = CARTESIAN_POINT('',(-13.,-3.25,15.5));
#89 = VERTEX_POINT('',#90);
#90 = CARTESIAN_POINT('',(-13.,-3.25,-4.5));
#91 = LINE('',#92,#93);
#92 = CARTESIAN_POINT('',(-13.,-3.25,15.5));
#93 = VECTOR('',#94,1.);
#94 = DIRECTION('',(0.,-2.22044604925E-16,-1.));
#95 = ORIENTED_EDGE('',*,*,#96,.T.);
#96 = EDGE_CURVE('',#89,#97,#99,.T.);
#97 = VERTEX_POINT('',#98);
#98 = CARTESIAN_POINT('',(13.,-3.25,-4.5));
#99 = LINE('',#100,#101);
#100 = CARTESIAN_POINT('',(-13.,-3.25,-4.5));
#101 = VECTOR('',#102,1.);
#102 = DIRECTION('',(1.,0.,0.));
#103 = ORIENTED_EDGE('',*,*,#104,.T.);
#104 = EDGE_CURVE('',#97,#105,#107,.T.);
#105 = VERTEX_POINT('',#106);
#106 = CARTESIAN_POINT('',(13.,-3.25,15.5));
#107 = LINE('',#108,#109);
#108 = CARTESIAN_POINT('',(13.,-3.25,-4.5));
#109 = VECTOR('',#110,1.);
#110 = DIRECTION('',(0.,2.22044604925E-16,1.));
#111 = ORIENTED_EDGE('',*,*,#112,.T.);
#112 = EDGE_CURVE('',#105,#87,#113,.T.);
#113 = LINE('',#114,#115);
#114 = CARTESIAN_POINT('',(13.,-3.25,15.5));
#115 = VECTOR('',#116,1.);
#116 = DIRECTION('',(-1.,0.,0.));
#117 = PLANE('',#118);
#118 = AXIS2_PLACEMENT_3D('',#119,#120,#121);
#119 = CARTESIAN_POINT('',(2.905437141645E-02,-3.25,-9.030170603661E-03)
  );
#120 = DIRECTION('',(0.,-1.,2.22044604925E-16));
#121 = DIRECTION('',(1.,0.,0.));
#122 = ADVANCED_FACE('',(#123),#141,.T.);
#123 = FACE_BOUND('',#124,.T.);
#124 = EDGE_LOOP('',(#125,#126,#127,#135));
#125 = ORIENTED_EDGE('',*,*,#62,.F.);
#126 = ORIENTED_EDGE('',*,*,#47,.T.);
#127 = ORIENTED_EDGE('',*,*,#128,.T.);
#128 = EDGE_CURVE('',#40,#129,#131,.T.);
#129 = VERTEX_POINT('',#130);
#130 = CARTESIAN_POINT('',(15.55,-4.5,-6.6));
#131 = LINE('',#132,#133);
#132 = CARTESIAN_POINT('',(-14.45,-4.5,-6.6));
#133 = VECTOR('',#134,1.);
#134 = DIRECTION('',(1.,0.,0.));
#135 = ORIENTED_EDGE('',*,*,#136,.F.);
#136 = EDGE_CURVE('',#63,#129,#137,.T.);
#137 = LINE('',#138,#139);
#138 = CARTESIAN_POINT('',(15.55,-1.465494392505E-15,-6.6));
#139 = VECTOR('',#140,1.);
#140 = DIRECTION('',(0.,-1.,2.22044604925E-16));
#141 = PLANE('',#142);
#142 = AXIS2_PLACEMENT_3D('',#143,#144,#145);
#143 = CARTESIAN_POINT('',(-14.45,-1.465494392505E-15,-6.6));
#144 = DIRECTION('',(0.,2.22044604925E-16,1.));
#145 = DIRECTION('',(1.,0.,0.));
#146 = ADVANCED_FACE('',(#147,#181,#192,#203,#214,#225,#236,#254,#265,
    #276,#287),#298,.T.);
#147 = FACE_BOUND('',#148,.T.);
#148 = EDGE_LOOP('',(#149,#159,#167,#175));
#149 = ORIENTED_EDGE('',*,*,#150,.T.);
#150 = EDGE_CURVE('',#151,#153,#155,.T.);
#151 = VERTEX_POINT('',#152);
#152 = CARTESIAN_POINT('',(-28.,-4.5,28.));
#153 = VERTEX_POINT('',#154);
#154 = CARTESIAN_POINT('',(-28.,-4.5,-28.));
#155 = LINE('',#156,#157);
#156 = CARTESIAN_POINT('',(-28.,-4.5,28.));
#157 = VECTOR('',#158,1.);
#158 = DIRECTION('',(0.,-2.22044604925E-16,-1.));
#159 = ORIENTED_EDGE('',*,*,#160,.T.);
#160 = EDGE_CURVE('',#153,#161,#163,.T.);
#161 = VERTEX_POINT('',#162);
#162 = CARTESIAN_POINT('',(28.,-4.5,-28.));
#163 = LINE('',#164,#165);
#164 = CARTESIAN_POINT('',(-28.,-4.5,-28.));
#165 = VECTOR('',#166,1.);
#166 = DIRECTION('',(1.,0.,0.));
#167 = ORIENTED_EDGE('',*,*,#168,.T.);
#168 = EDGE_CURVE('',#161,#169,#171,.T.);
#169 = VERTEX_POINT('',#170);
#170 = CARTESIAN_POINT('',(28.,-4.5,28.));
#171 = LINE('',#172,#173);
#172 = CARTESIAN_POINT('',(28.,-4.5,-28.));
#173 = VECTOR('',#174,1.);
#174 = DIRECTION('',(0.,2.22044604925E-16,1.));
#175 = ORIENTED_EDGE('',*,*,#176,.T.);
#176 = EDGE_CURVE('',#169,#151,#177,.T.);
#177 = LINE('',#178,#179);
#178 = CARTESIAN_POINT('',(28.,-4.5,28.));
#179 = VECTOR('',#180,1.);
#180 = DIRECTION('',(-1.,0.,0.));
#181 = FACE_BOUND('',#182,.T.);
#182 = EDGE_LOOP('',(#183));
#183 = ORIENTED_EDGE('',*,*,#184,.F.);
#184 = EDGE_CURVE('',#185,#185,#187,.T.);
#185 = VERTEX_POINT('',#186);
#186 = CARTESIAN_POINT('',(26.95,-4.5,-25.7));
#187 = CIRCLE('',#188,1.25);
#188 = AXIS2_PLACEMENT_3D('',#189,#190,#191);
#189 = CARTESIAN_POINT('',(25.7,-4.5,-25.7));
#190 = DIRECTION('',(0.,-1.,2.22044604925E-16));
#191 = DIRECTION('',(1.,0.,0.));
#192 = FACE_BOUND('',#193,.T.);
#193 = EDGE_LOOP('',(#194));
#194 = ORIENTED_EDGE('',*,*,#195,.T.);
#195 = EDGE_CURVE('',#196,#196,#198,.T.);
#196 = VERTEX_POINT('',#197);
#197 = CARTESIAN_POINT('',(22.11,-4.5,-18.61));
#198 = CIRCLE('',#199,3.5);
#199 = AXIS2_PLACEMENT_3D('',#200,#201,#202);
#200 = CARTESIAN_POINT('',(18.61,-4.5,-18.61));
#201 = DIRECTION('',(0.,1.,-2.22044604925E-16));
#202 = DIRECTION('',(1.,0.,0.));
#203 = FACE_BOUND('',#204,.T.);
#204 = EDGE_LOOP('',(#205));
#205 = ORIENTED_EDGE('',*,*,#206,.F.);
#206 = EDGE_CURVE('',#207,#207,#209,.T.);
#207 = VERTEX_POINT('',#208);
#208 = CARTESIAN_POINT('',(3.5,-4.5,-13.61));
#209 = CIRCLE('',#210,3.5);
#210 = AXIS2_PLACEMENT_3D('',#211,#212,#213);
#211 = CARTESIAN_POINT('',(0.,-4.5,-13.61));
#212 = DIRECTION('',(0.,-1.,2.22044604925E-16));
#213 = DIRECTION('',(1.,0.,0.));
#214 = FACE_BOUND('',#215,.T.);
#215 = EDGE_LOOP('',(#216));
#216 = ORIENTED_EDGE('',*,*,#217,.F.);
#217 = EDGE_CURVE('',#218,#218,#220,.T.);
#218 = VERTEX_POINT('',#219);
#219 = CARTESIAN_POINT('',(22.5,-4.5,19.5));
#220 = CIRCLE('',#221,1.25);
#221 = AXIS2_PLACEMENT_3D('',#222,#223,#224);
#222 = CARTESIAN_POINT('',(21.25,-4.5,19.5));
#223 = DIRECTION('',(0.,-1.,2.22044604925E-16));
#224 = DIRECTION('',(1.,0.,0.));
#225 = FACE_BOUND('',#226,.T.);
#226 = EDGE_LOOP('',(#227));
#227 = ORIENTED_EDGE('',*,*,#228,.F.);
#228 = EDGE_CURVE('',#229,#229,#231,.T.);
#229 = VERTEX_POINT('',#230);
#230 = CARTESIAN_POINT('',(26.95,-4.5,25.7));
#231 = CIRCLE('',#232,1.25);
#232 = AXIS2_PLACEMENT_3D('',#233,#234,#235);
#233 = CARTESIAN_POINT('',(25.7,-4.5,25.7));
#234 = DIRECTION('',(0.,-1.,2.22044604925E-16));
#235 = DIRECTION('',(1.,0.,0.));
#236 = FACE_BOUND('',#237,.T.);
#237 = EDGE_LOOP('',(#238,#239,#247,#253));
#238 = ORIENTED_EDGE('',*,*,#39,.F.);
#239 = ORIENTED_EDGE('',*,*,#240,.F.);
#240 = EDGE_CURVE('',#241,#32,#243,.T.);
#241 = VERTEX_POINT('',#242);
#242 = CARTESIAN_POINT('',(15.55,-4.5,17.4));
#243 = LINE('',#244,#245);
#244 = CARTESIAN_POINT('',(15.55,-4.5,17.4));
#245 = VECTOR('',#246,1.);
#246 = DIRECTION('',(-1.,0.,0.));
#247 = ORIENTED_EDGE('',*,*,#248,.F.);
#248 = EDGE_CURVE('',#129,#241,#249,.T.);
#249 = LINE('',#250,#251);
#250 = CARTESIAN_POINT('',(15.55,-4.5,-6.6));
#251 = VECTOR('',#252,1.);
#252 = DIRECTION('',(0.,2.22044604925E-16,1.));
#253 = ORIENTED_EDGE('',*,*,#128,.F.);
#254 = FACE_BOUND('',#255,.T.);
#255 = EDGE_LOOP('',(#256));
#256 = ORIENTED_EDGE('',*,*,#257,.T.);
#257 = EDGE_CURVE('',#258,#258,#260,.T.);
#258 = VERTEX_POINT('',#259);
#259 = CARTESIAN_POINT('',(-15.11,-4.5,-18.61));
#260 = CIRCLE('',#261,3.5);
#261 = AXIS2_PLACEMENT_3D('',#262,#263,#264);
#262 = CARTESIAN_POINT('',(-18.61,-4.5,-18.61));
#263 = DIRECTION('',(0.,1.,-2.22044604925E-16));
#264 = DIRECTION('',(1.,0.,0.));
#265 = FACE_BOUND('',#266,.T.);
#266 = EDGE_LOOP('',(#267));
#267 = ORIENTED_EDGE('',*,*,#268,.F.);
#268 = EDGE_CURVE('',#269,#269,#271,.T.);
#269 = VERTEX_POINT('',#270);
#270 = CARTESIAN_POINT('',(-24.45,-4.5,-25.7));
#271 = CIRCLE('',#272,1.25);
#272 = AXIS2_PLACEMENT_3D('',#273,#274,#275);
#273 = CARTESIAN_POINT('',(-25.7,-4.5,-25.7));
#274 = DIRECTION('',(0.,-1.,2.22044604925E-16));
#275 = DIRECTION('',(1.,0.,0.));
#276 = FACE_BOUND('',#277,.T.);
#277 = EDGE_LOOP('',(#278));
#278 = ORIENTED_EDGE('',*,*,#279,.F.);
#279 = EDGE_CURVE('',#280,#280,#282,.T.);
#280 = VERTEX_POINT('',#281);
#281 = CARTESIAN_POINT('',(-19.5,-4.5,19.5));
#282 = CIRCLE('',#283,1.5);
#283 = AXIS2_PLACEMENT_3D('',#284,#285,#286);
#284 = CARTESIAN_POINT('',(-21.,-4.5,19.5));
#285 = DIRECTION('',(0.,-1.,2.22044604925E-16));
#286 = DIRECTION('',(1.,0.,0.));
#287 = FACE_BOUND('',#288,.T.);
#288 = EDGE_LOOP('',(#289));
#289 = ORIENTED_EDGE('',*,*,#290,.F.);
#290 = EDGE_CURVE('',#291,#291,#293,.T.);
#291 = VERTEX_POINT('',#292);
#292 = CARTESIAN_POINT('',(-24.45,-4.5,25.7));
#293 = CIRCLE('',#294,1.25);
#294 = AXIS2_PLACEMENT_3D('',#295,#296,#297);
#295 = CARTESIAN_POINT('',(-25.7,-4.5,25.7));
#296 = DIRECTION('',(0.,-1.,2.22044604925E-16));
#297 = DIRECTION('',(1.,0.,0.));
#298 = PLANE('',#299);
#299 = AXIS2_PLACEMENT_3D('',#300,#301,#302);
#300 = CARTESIAN_POINT('',(-1.015061051086E-15,-4.5,3.061043482181E-15)
  );
#301 = DIRECTION('',(0.,-1.,2.22044604925E-16));
#302 = DIRECTION('',(0.,2.22044604925E-16,1.));
#303 = ADVANCED_FACE('',(#304),#315,.T.);
#304 = FACE_BOUND('',#305,.T.);
#305 = EDGE_LOOP('',(#306,#307,#313,#314));
#306 = ORIENTED_EDGE('',*,*,#78,.F.);
#307 = ORIENTED_EDGE('',*,*,#308,.T.);
#308 = EDGE_CURVE('',#71,#241,#309,.T.);
#309 = LINE('',#310,#311);
#310 = CARTESIAN_POINT('',(15.55,3.863576125696E-15,17.4));
#311 = VECTOR('',#312,1.);
#312 = DIRECTION('',(0.,-1.,2.22044604925E-16));
#313 = ORIENTED_EDGE('',*,*,#240,.T.);
#314 = ORIENTED_EDGE('',*,*,#31,.F.);
#315 = PLANE('',#316);
#316 = AXIS2_PLACEMENT_3D('',#317,#318,#319);
#317 = CARTESIAN_POINT('',(15.55,3.863576125696E-15,17.4));
#318 = DIRECTION('',(0.,-2.22044604925E-16,-1.));
#319 = DIRECTION('',(-1.,0.,0.));
#320 = ADVANCED_FACE('',(#321),#327,.T.);
#321 = FACE_BOUND('',#322,.T.);
#322 = EDGE_LOOP('',(#323,#324,#325,#326));
#323 = ORIENTED_EDGE('',*,*,#70,.F.);
#324 = ORIENTED_EDGE('',*,*,#136,.T.);
#325 = ORIENTED_EDGE('',*,*,#248,.T.);
#326 = ORIENTED_EDGE('',*,*,#308,.F.);
#327 = PLANE('',#328);
#328 = AXIS2_PLACEMENT_3D('',#329,#330,#331);
#329 = CARTESIAN_POINT('',(15.55,-1.465494392505E-15,-6.6));
#330 = DIRECTION('',(-1.,0.,0.));
#331 = DIRECTION('',(0.,2.22044604925E-16,1.));
#332 = ADVANCED_FACE('',(#333),#358,.T.);
#333 = FACE_BOUND('',#334,.T.);
#334 = EDGE_LOOP('',(#335,#345,#351,#352));
#335 = ORIENTED_EDGE('',*,*,#336,.T.);
#336 = EDGE_CURVE('',#337,#339,#341,.T.);
#337 = VERTEX_POINT('',#338);
#338 = CARTESIAN_POINT('',(-13.,-1.25,-4.5));
#339 = VERTEX_POINT('',#340);
#340 = CARTESIAN_POINT('',(-13.,-1.25,15.5));
#341 = LINE('',#342,#343);
#342 = CARTESIAN_POINT('',(-13.,-1.25,10.5));
#343 = VECTOR('',#344,1.);
#344 = DIRECTION('',(0.,-2.22044604925E-16,1.));
#345 = ORIENTED_EDGE('',*,*,#346,.T.);
#346 = EDGE_CURVE('',#339,#87,#347,.T.);
#347 = LINE('',#348,#349);
#348 = CARTESIAN_POINT('',(-13.,3.441691376338E-15,15.5));
#349 = VECTOR('',#350,1.);
#350 = DIRECTION('',(0.,-1.,2.22044604925E-16));
#351 = ORIENTED_EDGE('',*,*,#86,.T.);
#352 = ORIENTED_EDGE('',*,*,#353,.F.);
#353 = EDGE_CURVE('',#337,#89,#354,.T.);
#354 = LINE('',#355,#356);
#355 = CARTESIAN_POINT('',(-13.,-9.992007221626E-16,-4.5));
#356 = VECTOR('',#357,1.);
#357 = DIRECTION('',(0.,-1.,2.22044604925E-16));
#358 = PLANE('',#359);
#359 = AXIS2_PLACEMENT_3D('',#360,#361,#362);
#360 = CARTESIAN_POINT('',(-13.,3.441691376338E-15,15.5));
#361 = DIRECTION('',(1.,0.,0.));
#362 = DIRECTION('',(0.,-2.22044604925E-16,-1.));
#363 = ADVANCED_FACE('',(#364),#382,.T.);
#364 = FACE_BOUND('',#365,.T.);
#365 = EDGE_LOOP('',(#366,#374,#375,#376));
#366 = ORIENTED_EDGE('',*,*,#367,.T.);
#367 = EDGE_CURVE('',#368,#337,#370,.T.);
#368 = VERTEX_POINT('',#369);
#369 = CARTESIAN_POINT('',(13.,-1.25,-4.5));
#370 = LINE('',#371,#372);
#371 = CARTESIAN_POINT('',(-6.5,-1.25,-4.5));
#372 = VECTOR('',#373,1.);
#373 = DIRECTION('',(-1.,-0.,0.));
#374 = ORIENTED_EDGE('',*,*,#353,.T.);
#375 = ORIENTED_EDGE('',*,*,#96,.T.);
#376 = ORIENTED_EDGE('',*,*,#377,.F.);
#377 = EDGE_CURVE('',#368,#97,#378,.T.);
#378 = LINE('',#379,#380);
#379 = CARTESIAN_POINT('',(13.,-9.992007221626E-16,-4.5));
#380 = VECTOR('',#381,1.);
#381 = DIRECTION('',(0.,-1.,2.22044604925E-16));
#382 = PLANE('',#383);
#383 = AXIS2_PLACEMENT_3D('',#384,#385,#386);
#384 = CARTESIAN_POINT('',(-13.,-9.992007221626E-16,-4.5));
#385 = DIRECTION('',(0.,2.22044604925E-16,1.));
#386 = DIRECTION('',(1.,0.,0.));
#387 = ADVANCED_FACE('',(#388),#406,.T.);
#388 = FACE_BOUND('',#389,.T.);
#389 = EDGE_LOOP('',(#390,#398,#399,#400));
#390 = ORIENTED_EDGE('',*,*,#391,.T.);
#391 = EDGE_CURVE('',#392,#368,#394,.T.);
#392 = VERTEX_POINT('',#393);
#393 = CARTESIAN_POINT('',(13.,-1.25,15.5));
#394 = LINE('',#395,#396);
#395 = CARTESIAN_POINT('',(13.,-1.25,0.5));
#396 = VECTOR('',#397,1.);
#397 = DIRECTION('',(-0.,2.22044604925E-16,-1.));
#398 = ORIENTED_EDGE('',*,*,#377,.T.);
#399 = ORIENTED_EDGE('',*,*,#104,.T.);
#400 = ORIENTED_EDGE('',*,*,#401,.F.);
#401 = EDGE_CURVE('',#392,#105,#402,.T.);
#402 = LINE('',#403,#404);
#403 = CARTESIAN_POINT('',(13.,3.441691376338E-15,15.5));
#404 = VECTOR('',#405,1.);
#405 = DIRECTION('',(0.,-1.,2.22044604925E-16));
#406 = PLANE('',#407);
#407 = AXIS2_PLACEMENT_3D('',#408,#409,#410);
#408 = CARTESIAN_POINT('',(13.,-9.992007221626E-16,-4.5));
#409 = DIRECTION('',(-1.,0.,0.));
#410 = DIRECTION('',(0.,2.22044604925E-16,1.));
#411 = ADVANCED_FACE('',(#412),#423,.T.);
#412 = FACE_BOUND('',#413,.T.);
#413 = EDGE_LOOP('',(#414,#420,#421,#422));
#414 = ORIENTED_EDGE('',*,*,#415,.T.);
#415 = EDGE_CURVE('',#339,#392,#416,.T.);
#416 = LINE('',#417,#418);
#417 = CARTESIAN_POINT('',(6.5,-1.25,15.5));
#418 = VECTOR('',#419,1.);
#419 = DIRECTION('',(1.,0.,0.));
#420 = ORIENTED_EDGE('',*,*,#401,.T.);
#421 = ORIENTED_EDGE('',*,*,#112,.T.);
#422 = ORIENTED_EDGE('',*,*,#346,.F.);
#423 = PLANE('',#424);
#424 = AXIS2_PLACEMENT_3D('',#425,#426,#427);
#425 = CARTESIAN_POINT('',(13.,3.441691376338E-15,15.5));
#426 = DIRECTION('',(0.,-2.22044604925E-16,-1.));
#427 = DIRECTION('',(-1.,0.,0.));
#428 = ADVANCED_FACE('',(#429),#454,.T.);
#429 = FACE_BOUND('',#430,.T.);
#430 = EDGE_LOOP('',(#431,#432,#440,#448));
#431 = ORIENTED_EDGE('',*,*,#150,.F.);
#432 = ORIENTED_EDGE('',*,*,#433,.T.);
#433 = EDGE_CURVE('',#151,#434,#436,.T.);
#434 = VERTEX_POINT('',#435);
#435 = CARTESIAN_POINT('',(-28.,-6.,28.));
#436 = LINE('',#437,#438);
#437 = CARTESIAN_POINT('',(-28.,6.217248937901E-15,28.));
#438 = VECTOR('',#439,1.);
#439 = DIRECTION('',(0.,-1.,2.22044604925E-16));
#440 = ORIENTED_EDGE('',*,*,#441,.T.);
#441 = EDGE_CURVE('',#434,#442,#444,.T.);
#442 = VERTEX_POINT('',#443);
#443 = CARTESIAN_POINT('',(-28.,-6.,-28.));
#444 = LINE('',#445,#446);
#445 = CARTESIAN_POINT('',(-28.,-6.,28.));
#446 = VECTOR('',#447,1.);
#447 = DIRECTION('',(0.,-2.22044604925E-16,-1.));
#448 = ORIENTED_EDGE('',*,*,#449,.F.);
#449 = EDGE_CURVE('',#153,#442,#450,.T.);
#450 = LINE('',#451,#452);
#451 = CARTESIAN_POINT('',(-28.,-6.217248937901E-15,-28.));
#452 = VECTOR('',#453,1.);
#453 = DIRECTION('',(0.,-1.,2.22044604925E-16));
#454 = PLANE('',#455);
#455 = AXIS2_PLACEMENT_3D('',#456,#457,#458);
#456 = CARTESIAN_POINT('',(-28.,6.217248937901E-15,28.));
#457 = DIRECTION('',(1.,0.,0.));
#458 = DIRECTION('',(0.,-2.22044604925E-16,-1.));
#459 = ADVANCED_FACE('',(#460),#478,.T.);
#460 = FACE_BOUND('',#461,.T.);
#461 = EDGE_LOOP('',(#462,#463,#471,#477));
#462 = ORIENTED_EDGE('',*,*,#176,.F.);
#463 = ORIENTED_EDGE('',*,*,#464,.T.);
#464 = EDGE_CURVE('',#169,#465,#467,.T.);
#465 = VERTEX_POINT('',#466);
#466 = CARTESIAN_POINT('',(28.,-6.,28.));
#467 = LINE('',#468,#469);
#468 = CARTESIAN_POINT('',(28.,6.217248937901E-15,28.));
#469 = VECTOR('',#470,1.);
#470 = DIRECTION('',(0.,-1.,2.22044604925E-16));
#471 = ORIENTED_EDGE('',*,*,#472,.T.);
#472 = EDGE_CURVE('',#465,#434,#473,.T.);
#473 = LINE('',#474,#475);
#474 = CARTESIAN_POINT('',(28.,-6.,28.));
#475 = VECTOR('',#476,1.);
#476 = DIRECTION('',(-1.,0.,0.));
#477 = ORIENTED_EDGE('',*,*,#433,.F.);
#478 = PLANE('',#479);
#479 = AXIS2_PLACEMENT_3D('',#480,#481,#482);
#480 = CARTESIAN_POINT('',(28.,6.217248937901E-15,28.));
#481 = DIRECTION('',(0.,-2.22044604925E-16,-1.));
#482 = DIRECTION('',(-1.,0.,0.));
#483 = ADVANCED_FACE('',(#484),#502,.T.);
#484 = FACE_BOUND('',#485,.T.);
#485 = EDGE_LOOP('',(#486,#487,#488,#496));
#486 = ORIENTED_EDGE('',*,*,#160,.F.);
#487 = ORIENTED_EDGE('',*,*,#449,.T.);
#488 = ORIENTED_EDGE('',*,*,#489,.T.);
#489 = EDGE_CURVE('',#442,#490,#492,.T.);
#490 = VERTEX_POINT('',#491);
#491 = CARTESIAN_POINT('',(28.,-6.,-28.));
#492 = LINE('',#493,#494);
#493 = CARTESIAN_POINT('',(-28.,-6.,-28.));
#494 = VECTOR('',#495,1.);
#495 = DIRECTION('',(1.,0.,0.));
#496 = ORIENTED_EDGE('',*,*,#497,.F.);
#497 = EDGE_CURVE('',#161,#490,#498,.T.);
#498 = LINE('',#499,#500);
#499 = CARTESIAN_POINT('',(28.,-6.217248937901E-15,-28.));
#500 = VECTOR('',#501,1.);
#501 = DIRECTION('',(0.,-1.,2.22044604925E-16));
#502 = PLANE('',#503);
#503 = AXIS2_PLACEMENT_3D('',#504,#505,#506);
#504 = CARTESIAN_POINT('',(-28.,-6.217248937901E-15,-28.));
#505 = DIRECTION('',(0.,2.22044604925E-16,1.));
#506 = DIRECTION('',(1.,0.,0.));
#507 = ADVANCED_FACE('',(#508),#519,.T.);
#508 = FACE_BOUND('',#509,.T.);
#509 = EDGE_LOOP('',(#510,#511,#512,#518));
#510 = ORIENTED_EDGE('',*,*,#168,.F.);
#511 = ORIENTED_EDGE('',*,*,#497,.T.);
#512 = ORIENTED_EDGE('',*,*,#513,.T.);
#513 = EDGE_CURVE('',#490,#465,#514,.T.);
#514 = LINE('',#515,#516);
#515 = CARTESIAN_POINT('',(28.,-6.,-28.));
#516 = VECTOR('',#517,1.);
#517 = DIRECTION('',(0.,2.22044604925E-16,1.));
#518 = ORIENTED_EDGE('',*,*,#464,.F.);
#519 = PLANE('',#520);
#520 = AXIS2_PLACEMENT_3D('',#521,#522,#523);
#521 = CARTESIAN_POINT('',(28.,-6.217248937901E-15,-28.));
#522 = DIRECTION('',(-1.,0.,0.));
#523 = DIRECTION('',(0.,2.22044604925E-16,1.));
#524 = ADVANCED_FACE('',(#525),#544,.F.);
#525 = FACE_BOUND('',#526,.T.);
#526 = EDGE_LOOP('',(#527,#536,#542,#543));
#527 = ORIENTED_EDGE('',*,*,#528,.F.);
#528 = EDGE_CURVE('',#529,#529,#531,.T.);
#529 = VERTEX_POINT('',#530);
#530 = CARTESIAN_POINT('',(26.95,-1.,-25.7));
#531 = CIRCLE('',#532,1.25);
#532 = AXIS2_PLACEMENT_3D('',#533,#534,#535);
#533 = CARTESIAN_POINT('',(25.7,-1.,-25.7));
#534 = DIRECTION('',(0.,-1.,2.22044604925E-16));
#535 = DIRECTION('',(1.,0.,0.));
#536 = ORIENTED_EDGE('',*,*,#537,.T.);
#537 = EDGE_CURVE('',#529,#185,#538,.T.);
#538 = LINE('',#539,#540);
#539 = CARTESIAN_POINT('',(26.95,-5.706546346573E-15,-25.7));
#540 = VECTOR('',#541,1.);
#541 = DIRECTION('',(0.,-1.,2.22044604925E-16));
#542 = ORIENTED_EDGE('',*,*,#184,.T.);
#543 = ORIENTED_EDGE('',*,*,#537,.F.);
#544 = CYLINDRICAL_SURFACE('',#545,1.25);
#545 = AXIS2_PLACEMENT_3D('',#546,#547,#548);
#546 = CARTESIAN_POINT('',(25.7,-5.706546346573E-15,-25.7));
#547 = DIRECTION('',(0.,1.,-2.22044604925E-16));
#548 = DIRECTION('',(1.,0.,0.));
#549 = ADVANCED_FACE('',(#550),#569,.T.);
#550 = FACE_BOUND('',#551,.F.);
#551 = EDGE_LOOP('',(#552,#553,#561,#568));
#552 = ORIENTED_EDGE('',*,*,#195,.T.);
#553 = ORIENTED_EDGE('',*,*,#554,.T.);
#554 = EDGE_CURVE('',#196,#555,#557,.T.);
#555 = VERTEX_POINT('',#556);
#556 = CARTESIAN_POINT('',(22.11,-15.5,-18.61));
#557 = LINE('',#558,#559);
#558 = CARTESIAN_POINT('',(22.11,-4.132250097655E-15,-18.61));
#559 = VECTOR('',#560,1.);
#560 = DIRECTION('',(0.,-1.,2.22044604925E-16));
#561 = ORIENTED_EDGE('',*,*,#562,.T.);
#562 = EDGE_CURVE('',#555,#555,#563,.T.);
#563 = CIRCLE('',#564,3.5);
#564 = AXIS2_PLACEMENT_3D('',#565,#566,#567);
#565 = CARTESIAN_POINT('',(18.61,-15.5,-18.61));
#566 = DIRECTION('',(0.,-1.,2.22044604925E-16));
#567 = DIRECTION('',(1.,0.,0.));
#568 = ORIENTED_EDGE('',*,*,#554,.F.);
#569 = CYLINDRICAL_SURFACE('',#570,3.5);
#570 = AXIS2_PLACEMENT_3D('',#571,#572,#573);
#571 = CARTESIAN_POINT('',(18.61,-4.132250097655E-15,-18.61));
#572 = DIRECTION('',(0.,1.,-2.22044604925E-16));
#573 = DIRECTION('',(1.,0.,0.));
#574 = ADVANCED_FACE('',(#575),#594,.F.);
#575 = FACE_BOUND('',#576,.T.);
#576 = EDGE_LOOP('',(#577,#586,#592,#593));
#577 = ORIENTED_EDGE('',*,*,#578,.F.);
#578 = EDGE_CURVE('',#579,#579,#581,.T.);
#579 = VERTEX_POINT('',#580);
#580 = CARTESIAN_POINT('',(3.5,-1.,-13.61));
#581 = CIRCLE('',#582,3.5);
#582 = AXIS2_PLACEMENT_3D('',#583,#584,#585);
#583 = CARTESIAN_POINT('',(0.,-1.,-13.61));
#584 = DIRECTION('',(0.,-1.,2.22044604925E-16));
#585 = DIRECTION('',(1.,0.,0.));
#586 = ORIENTED_EDGE('',*,*,#587,.T.);
#587 = EDGE_CURVE('',#579,#207,#588,.T.);
#588 = LINE('',#589,#590);
#589 = CARTESIAN_POINT('',(3.5,-3.02202707303E-15,-13.61));
#590 = VECTOR('',#591,1.);
#591 = DIRECTION('',(0.,-1.,2.22044604925E-16));
#592 = ORIENTED_EDGE('',*,*,#206,.T.);
#593 = ORIENTED_EDGE('',*,*,#587,.F.);
#594 = CYLINDRICAL_SURFACE('',#595,3.5);
#595 = AXIS2_PLACEMENT_3D('',#596,#597,#598);
#596 = CARTESIAN_POINT('',(0.,-3.02202707303E-15,-13.61));
#597 = DIRECTION('',(0.,1.,-2.22044604925E-16));
#598 = DIRECTION('',(1.,0.,0.));
#599 = ADVANCED_FACE('',(#600),#619,.T.);
#600 = FACE_BOUND('',#601,.F.);
#601 = EDGE_LOOP('',(#602,#603,#611,#618));
#602 = ORIENTED_EDGE('',*,*,#217,.F.);
#603 = ORIENTED_EDGE('',*,*,#604,.T.);
#604 = EDGE_CURVE('',#218,#605,#607,.T.);
#605 = VERTEX_POINT('',#606);
#606 = CARTESIAN_POINT('',(22.5,-15.5,19.5));
#607 = LINE('',#608,#609);
#608 = CARTESIAN_POINT('',(22.5,4.329869796038E-15,19.5));
#609 = VECTOR('',#610,1.);
#610 = DIRECTION('',(0.,-1.,2.22044604925E-16));
#611 = ORIENTED_EDGE('',*,*,#612,.T.);
#612 = EDGE_CURVE('',#605,#605,#613,.T.);
#613 = CIRCLE('',#614,1.25);
#614 = AXIS2_PLACEMENT_3D('',#615,#616,#617);
#615 = CARTESIAN_POINT('',(21.25,-15.5,19.5));
#616 = DIRECTION('',(0.,-1.,2.22044604925E-16));
#617 = DIRECTION('',(1.,0.,0.));
#618 = ORIENTED_EDGE('',*,*,#604,.F.);
#619 = CYLINDRICAL_SURFACE('',#620,1.25);
#620 = AXIS2_PLACEMENT_3D('',#621,#622,#623);
#621 = CARTESIAN_POINT('',(21.25,4.329869796038E-15,19.5));
#622 = DIRECTION('',(0.,1.,-2.22044604925E-16));
#623 = DIRECTION('',(1.,0.,0.));
#624 = ADVANCED_FACE('',(#625),#644,.F.);
#625 = FACE_BOUND('',#626,.T.);
#626 = EDGE_LOOP('',(#627,#636,#642,#643));
#627 = ORIENTED_EDGE('',*,*,#628,.F.);
#628 = EDGE_CURVE('',#629,#629,#631,.T.);
#629 = VERTEX_POINT('',#630);
#630 = CARTESIAN_POINT('',(26.95,-1.,25.7));
#631 = CIRCLE('',#632,1.25);
#632 = AXIS2_PLACEMENT_3D('',#633,#634,#635);
#633 = CARTESIAN_POINT('',(25.7,-1.,25.7));
#634 = DIRECTION('',(0.,-1.,2.22044604925E-16));
#635 = DIRECTION('',(1.,0.,0.));
#636 = ORIENTED_EDGE('',*,*,#637,.T.);
#637 = EDGE_CURVE('',#629,#229,#638,.T.);
#638 = LINE('',#639,#640);
#639 = CARTESIAN_POINT('',(26.95,5.706546346573E-15,25.7));
#640 = VECTOR('',#641,1.);
#641 = DIRECTION('',(0.,-1.,2.22044604925E-16));
#642 = ORIENTED_EDGE('',*,*,#228,.T.);
#643 = ORIENTED_EDGE('',*,*,#637,.F.);
#644 = CYLINDRICAL_SURFACE('',#645,1.25);
#645 = AXIS2_PLACEMENT_3D('',#646,#647,#648);
#646 = CARTESIAN_POINT('',(25.7,5.706546346573E-15,25.7));
#647 = DIRECTION('',(0.,1.,-2.22044604925E-16));
#648 = DIRECTION('',(1.,0.,0.));
#649 = ADVANCED_FACE('',(#650),#669,.T.);
#650 = FACE_BOUND('',#651,.F.);
#651 = EDGE_LOOP('',(#652,#653,#661,#668));
#652 = ORIENTED_EDGE('',*,*,#257,.T.);
#653 = ORIENTED_EDGE('',*,*,#654,.T.);
#654 = EDGE_CURVE('',#258,#655,#657,.T.);
#655 = VERTEX_POINT('',#656);
#656 = CARTESIAN_POINT('',(-15.11,-15.5,-18.61));
#657 = LINE('',#658,#659);
#658 = CARTESIAN_POINT('',(-15.11,-4.132250097655E-15,-18.61));
#659 = VECTOR('',#660,1.);
#660 = DIRECTION('',(0.,-1.,2.22044604925E-16));
#661 = ORIENTED_EDGE('',*,*,#662,.T.);
#662 = EDGE_CURVE('',#655,#655,#663,.T.);
#663 = CIRCLE('',#664,3.5);
#664 = AXIS2_PLACEMENT_3D('',#665,#666,#667);
#665 = CARTESIAN_POINT('',(-18.61,-15.5,-18.61));
#666 = DIRECTION('',(0.,-1.,2.22044604925E-16));
#667 = DIRECTION('',(1.,0.,0.));
#668 = ORIENTED_EDGE('',*,*,#654,.F.);
#669 = CYLINDRICAL_SURFACE('',#670,3.5);
#670 = AXIS2_PLACEMENT_3D('',#671,#672,#673);
#671 = CARTESIAN_POINT('',(-18.61,-4.132250097655E-15,-18.61));
#672 = DIRECTION('',(0.,1.,-2.22044604925E-16));
#673 = DIRECTION('',(1.,0.,0.));
#674 = ADVANCED_FACE('',(#675),#694,.F.);
#675 = FACE_BOUND('',#676,.T.);
#676 = EDGE_LOOP('',(#677,#686,#692,#693));
#677 = ORIENTED_EDGE('',*,*,#678,.F.);
#678 = EDGE_CURVE('',#679,#679,#681,.T.);
#679 = VERTEX_POINT('',#680);
#680 = CARTESIAN_POINT('',(-24.45,-1.,-25.7));
#681 = CIRCLE('',#682,1.25);
#682 = AXIS2_PLACEMENT_3D('',#683,#684,#685);
#683 = CARTESIAN_POINT('',(-25.7,-1.,-25.7));
#684 = DIRECTION('',(0.,-1.,2.22044604925E-16));
#685 = DIRECTION('',(1.,0.,0.));
#686 = ORIENTED_EDGE('',*,*,#687,.T.);
#687 = EDGE_CURVE('',#679,#269,#688,.T.);
#688 = LINE('',#689,#690);
#689 = CARTESIAN_POINT('',(-24.45,-5.706546346573E-15,-25.7));
#690 = VECTOR('',#691,1.);
#691 = DIRECTION('',(0.,-1.,2.22044604925E-16));
#692 = ORIENTED_EDGE('',*,*,#268,.T.);
#693 = ORIENTED_EDGE('',*,*,#687,.F.);
#694 = CYLINDRICAL_SURFACE('',#695,1.25);
#695 = AXIS2_PLACEMENT_3D('',#696,#697,#698);
#696 = CARTESIAN_POINT('',(-25.7,-5.706546346573E-15,-25.7));
#697 = DIRECTION('',(0.,1.,-2.22044604925E-16));
#698 = DIRECTION('',(1.,0.,0.));
#699 = ADVANCED_FACE('',(#700),#719,.T.);
#700 = FACE_BOUND('',#701,.F.);
#701 = EDGE_LOOP('',(#702,#703,#711,#718));
#702 = ORIENTED_EDGE('',*,*,#279,.F.);
#703 = ORIENTED_EDGE('',*,*,#704,.T.);
#704 = EDGE_CURVE('',#280,#705,#707,.T.);
#705 = VERTEX_POINT('',#706);
#706 = CARTESIAN_POINT('',(-19.5,-15.5,19.5));
#707 = LINE('',#708,#709);
#708 = CARTESIAN_POINT('',(-19.5,4.329869796038E-15,19.5));
#709 = VECTOR('',#710,1.);
#710 = DIRECTION('',(0.,-1.,2.22044604925E-16));
#711 = ORIENTED_EDGE('',*,*,#712,.T.);
#712 = EDGE_CURVE('',#705,#705,#713,.T.);
#713 = CIRCLE('',#714,1.5);
#714 = AXIS2_PLACEMENT_3D('',#715,#716,#717);
#715 = CARTESIAN_POINT('',(-21.,-15.5,19.5));
#716 = DIRECTION('',(0.,-1.,2.22044604925E-16));
#717 = DIRECTION('',(1.,0.,0.));
#718 = ORIENTED_EDGE('',*,*,#704,.F.);
#719 = CYLINDRICAL_SURFACE('',#720,1.5);
#720 = AXIS2_PLACEMENT_3D('',#721,#722,#723);
#721 = CARTESIAN_POINT('',(-21.,4.329869796038E-15,19.5));
#722 = DIRECTION('',(0.,1.,-2.22044604925E-16));
#723 = DIRECTION('',(1.,0.,0.));
#724 = ADVANCED_FACE('',(#725),#744,.F.);
#725 = FACE_BOUND('',#726,.T.);
#726 = EDGE_LOOP('',(#727,#736,#742,#743));
#727 = ORIENTED_EDGE('',*,*,#728,.F.);
#728 = EDGE_CURVE('',#729,#729,#731,.T.);
#729 = VERTEX_POINT('',#730);
#730 = CARTESIAN_POINT('',(-24.45,-1.,25.7));
#731 = CIRCLE('',#732,1.25);
#732 = AXIS2_PLACEMENT_3D('',#733,#734,#735);
#733 = CARTESIAN_POINT('',(-25.7,-1.,25.7));
#734 = DIRECTION('',(0.,-1.,2.22044604925E-16));
#735 = DIRECTION('',(1.,0.,0.));
#736 = ORIENTED_EDGE('',*,*,#737,.T.);
#737 = EDGE_CURVE('',#729,#291,#738,.T.);
#738 = LINE('',#739,#740);
#739 = CARTESIAN_POINT('',(-24.45,5.706546346573E-15,25.7));
#740 = VECTOR('',#741,1.);
#741 = DIRECTION('',(0.,-1.,2.22044604925E-16));
#742 = ORIENTED_EDGE('',*,*,#290,.T.);
#743 = ORIENTED_EDGE('',*,*,#737,.F.);
#744 = CYLINDRICAL_SURFACE('',#745,1.25);
#745 = AXIS2_PLACEMENT_3D('',#746,#747,#748);
#746 = CARTESIAN_POINT('',(-25.7,5.706546346573E-15,25.7));
#747 = DIRECTION('',(0.,1.,-2.22044604925E-16));
#748 = DIRECTION('',(1.,0.,0.));
#749 = ADVANCED_FACE('',(#750,#784),#790,.T.);
#750 = FACE_BOUND('',#751,.T.);
#751 = EDGE_LOOP('',(#752,#762,#770,#778));
#752 = ORIENTED_EDGE('',*,*,#753,.T.);
#753 = EDGE_CURVE('',#754,#756,#758,.T.);
#754 = VERTEX_POINT('',#755);
#755 = CARTESIAN_POINT('',(-15.,-1.25,-9.5));
#756 = VERTEX_POINT('',#757);
#757 = CARTESIAN_POINT('',(-15.,-1.25,20.5));
#758 = LINE('',#759,#760);
#759 = CARTESIAN_POINT('',(-15.,-1.25,-9.5));
#760 = VECTOR('',#761,1.);
#761 = DIRECTION('',(0.,-2.22044604925E-16,1.));
#762 = ORIENTED_EDGE('',*,*,#763,.T.);
#763 = EDGE_CURVE('',#756,#764,#766,.T.);
#764 = VERTEX_POINT('',#765);
#765 = CARTESIAN_POINT('',(15.,-1.25,20.5));
#766 = LINE('',#767,#768);
#767 = CARTESIAN_POINT('',(-15.,-1.25,20.5));
#768 = VECTOR('',#769,1.);
#769 = DIRECTION('',(1.,0.,0.));
#770 = ORIENTED_EDGE('',*,*,#771,.T.);
#771 = EDGE_CURVE('',#764,#772,#774,.T.);
#772 = VERTEX_POINT('',#773);
#773 = CARTESIAN_POINT('',(15.,-1.25,-9.5));
#774 = LINE('',#775,#776);
#775 = CARTESIAN_POINT('',(15.,-1.25,20.5));
#776 = VECTOR('',#777,1.);
#777 = DIRECTION('',(0.,2.22044604925E-16,-1.));
#778 = ORIENTED_EDGE('',*,*,#779,.T.);
#779 = EDGE_CURVE('',#772,#754,#780,.T.);
#780 = LINE('',#781,#782);
#781 = CARTESIAN_POINT('',(15.,-1.25,-9.5));
#782 = VECTOR('',#783,1.);
#783 = DIRECTION('',(-1.,0.,-0.));
#784 = FACE_BOUND('',#785,.T.);
#785 = EDGE_LOOP('',(#786,#787,#788,#789));
#786 = ORIENTED_EDGE('',*,*,#336,.F.);
#787 = ORIENTED_EDGE('',*,*,#367,.F.);
#788 = ORIENTED_EDGE('',*,*,#391,.F.);
#789 = ORIENTED_EDGE('',*,*,#415,.F.);
#790 = PLANE('',#791);
#791 = AXIS2_PLACEMENT_3D('',#792,#793,#794);
#792 = CARTESIAN_POINT('',(0.,-1.25,5.5));
#793 = DIRECTION('',(0.,1.,2.22044604925E-16));
#794 = DIRECTION('',(1.,0.,0.));
#795 = ADVANCED_FACE('',(#796,#830),#836,.T.);
#796 = FACE_BOUND('',#797,.T.);
#797 = EDGE_LOOP('',(#798,#808,#816,#824));
#798 = ORIENTED_EDGE('',*,*,#799,.T.);
#799 = EDGE_CURVE('',#800,#802,#804,.T.);
#800 = VERTEX_POINT('',#801);
#801 = CARTESIAN_POINT('',(-30.,-6.,30.));
#802 = VERTEX_POINT('',#803);
#803 = CARTESIAN_POINT('',(-30.,-6.,-30.));
#804 = LINE('',#805,#806);
#805 = CARTESIAN_POINT('',(-30.,-6.,30.));
#806 = VECTOR('',#807,1.);
#807 = DIRECTION('',(0.,-2.22044604925E-16,-1.));
#808 = ORIENTED_EDGE('',*,*,#809,.T.);
#809 = EDGE_CURVE('',#802,#810,#812,.T.);
#810 = VERTEX_POINT('',#811);
#811 = CARTESIAN_POINT('',(30.,-6.,-30.));
#812 = LINE('',#813,#814);
#813 = CARTESIAN_POINT('',(-30.,-6.,-30.));
#814 = VECTOR('',#815,1.);
#815 = DIRECTION('',(1.,0.,0.));
#816 = ORIENTED_EDGE('',*,*,#817,.T.);
#817 = EDGE_CURVE('',#810,#818,#820,.T.);
#818 = VERTEX_POINT('',#819);
#819 = CARTESIAN_POINT('',(30.,-6.,30.));
#820 = LINE('',#821,#822);
#821 = CARTESIAN_POINT('',(30.,-6.,-30.));
#822 = VECTOR('',#823,1.);
#823 = DIRECTION('',(0.,2.22044604925E-16,1.));
#824 = ORIENTED_EDGE('',*,*,#825,.T.);
#825 = EDGE_CURVE('',#818,#800,#826,.T.);
#826 = LINE('',#827,#828);
#827 = CARTESIAN_POINT('',(30.,-6.,30.));
#828 = VECTOR('',#829,1.);
#829 = DIRECTION('',(-1.,0.,0.));
#830 = FACE_BOUND('',#831,.F.);
#831 = EDGE_LOOP('',(#832,#833,#834,#835));
#832 = ORIENTED_EDGE('',*,*,#441,.T.);
#833 = ORIENTED_EDGE('',*,*,#489,.T.);
#834 = ORIENTED_EDGE('',*,*,#513,.T.);
#835 = ORIENTED_EDGE('',*,*,#472,.T.);
#836 = PLANE('',#837);
#837 = AXIS2_PLACEMENT_3D('',#838,#839,#840);
#838 = CARTESIAN_POINT('',(2.905437141645E-02,-6.,-9.03017060366E-03));
#839 = DIRECTION('',(0.,-1.,2.22044604925E-16));
#840 = DIRECTION('',(1.,0.,0.));
#841 = ADVANCED_FACE('',(#842),#845,.T.);
#842 = FACE_BOUND('',#843,.T.);
#843 = EDGE_LOOP('',(#844));
#844 = ORIENTED_EDGE('',*,*,#528,.T.);
#845 = PLANE('',#846);
#846 = AXIS2_PLACEMENT_3D('',#847,#848,#849);
#847 = CARTESIAN_POINT('',(2.905437141645E-02,-1.,-9.030170603661E-03));
#848 = DIRECTION('',(0.,-1.,2.22044604925E-16));
#849 = DIRECTION('',(1.,0.,0.));
#850 = ADVANCED_FACE('',(#851,#854),#865,.T.);
#851 = FACE_BOUND('',#852,.T.);
#852 = EDGE_LOOP('',(#853));
#853 = ORIENTED_EDGE('',*,*,#562,.T.);
#854 = FACE_BOUND('',#855,.F.);
#855 = EDGE_LOOP('',(#856));
#856 = ORIENTED_EDGE('',*,*,#857,.T.);
#857 = EDGE_CURVE('',#858,#858,#860,.T.);
#858 = VERTEX_POINT('',#859);
#859 = CARTESIAN_POINT('',(19.86,-15.5,-18.61));
#860 = CIRCLE('',#861,1.25);
#861 = AXIS2_PLACEMENT_3D('',#862,#863,#864);
#862 = CARTESIAN_POINT('',(18.61,-15.5,-18.61));
#863 = DIRECTION('',(0.,-1.,2.22044604925E-16));
#864 = DIRECTION('',(1.,0.,0.));
#865 = PLANE('',#866);
#866 = AXIS2_PLACEMENT_3D('',#867,#868,#869);
#867 = CARTESIAN_POINT('',(2.905437141645E-02,-15.5,-9.030170603658E-03)
  );
#868 = DIRECTION('',(0.,-1.,2.22044604925E-16));
#869 = DIRECTION('',(1.,0.,0.));
#870 = ADVANCED_FACE('',(#871,#874),#885,.T.);
#871 = FACE_BOUND('',#872,.T.);
#872 = EDGE_LOOP('',(#873));
#873 = ORIENTED_EDGE('',*,*,#578,.T.);
#874 = FACE_BOUND('',#875,.F.);
#875 = EDGE_LOOP('',(#876));
#876 = ORIENTED_EDGE('',*,*,#877,.T.);
#877 = EDGE_CURVE('',#878,#878,#880,.T.);
#878 = VERTEX_POINT('',#879);
#879 = CARTESIAN_POINT('',(3.,-1.,-13.61));
#880 = CIRCLE('',#881,3.);
#881 = AXIS2_PLACEMENT_3D('',#882,#883,#884);
#882 = CARTESIAN_POINT('',(0.,-1.,-13.61));
#883 = DIRECTION('',(0.,-1.,2.22044604925E-16));
#884 = DIRECTION('',(1.,0.,0.));
#885 = PLANE('',#886);
#886 = AXIS2_PLACEMENT_3D('',#887,#888,#889);
#887 = CARTESIAN_POINT('',(2.905437141645E-02,-1.,-9.030170603661E-03));
#888 = DIRECTION('',(0.,-1.,2.22044604925E-16));
#889 = DIRECTION('',(1.,0.,0.));
#890 = ADVANCED_FACE('',(#891),#894,.T.);
#891 = FACE_BOUND('',#892,.T.);
#892 = EDGE_LOOP('',(#893));
#893 = ORIENTED_EDGE('',*,*,#612,.T.);
#894 = PLANE('',#895);
#895 = AXIS2_PLACEMENT_3D('',#896,#897,#898);
#896 = CARTESIAN_POINT('',(2.905437141645E-02,-15.5,-9.030170603658E-03)
  );
#897 = DIRECTION('',(0.,-1.,2.22044604925E-16));
#898 = DIRECTION('',(1.,0.,0.));
#899 = ADVANCED_FACE('',(#900),#903,.T.);
#900 = FACE_BOUND('',#901,.T.);
#901 = EDGE_LOOP('',(#902));
#902 = ORIENTED_EDGE('',*,*,#628,.T.);
#903 = PLANE('',#904);
#904 = AXIS2_PLACEMENT_3D('',#905,#906,#907);
#905 = CARTESIAN_POINT('',(2.905437141645E-02,-1.,-9.030170603661E-03));
#906 = DIRECTION('',(0.,-1.,2.22044604925E-16));
#907 = DIRECTION('',(1.,0.,0.));
#908 = ADVANCED_FACE('',(#909,#912),#923,.T.);
#909 = FACE_BOUND('',#910,.T.);
#910 = EDGE_LOOP('',(#911));
#911 = ORIENTED_EDGE('',*,*,#662,.T.);
#912 = FACE_BOUND('',#913,.F.);
#913 = EDGE_LOOP('',(#914));
#914 = ORIENTED_EDGE('',*,*,#915,.T.);
#915 = EDGE_CURVE('',#916,#916,#918,.T.);
#916 = VERTEX_POINT('',#917);
#917 = CARTESIAN_POINT('',(-17.36,-15.5,-18.61));
#918 = CIRCLE('',#919,1.25);
#919 = AXIS2_PLACEMENT_3D('',#920,#921,#922);
#920 = CARTESIAN_POINT('',(-18.61,-15.5,-18.61));
#921 = DIRECTION('',(0.,-1.,2.22044604925E-16));
#922 = DIRECTION('',(1.,0.,0.));
#923 = PLANE('',#924);
#924 = AXIS2_PLACEMENT_3D('',#925,#926,#927);
#925 = CARTESIAN_POINT('',(2.905437141645E-02,-15.5,-9.030170603658E-03)
  );
#926 = DIRECTION('',(0.,-1.,2.22044604925E-16));
#927 = DIRECTION('',(1.,0.,0.));
#928 = ADVANCED_FACE('',(#929),#932,.T.);
#929 = FACE_BOUND('',#930,.T.);
#930 = EDGE_LOOP('',(#931));
#931 = ORIENTED_EDGE('',*,*,#678,.T.);
#932 = PLANE('',#933);
#933 = AXIS2_PLACEMENT_3D('',#934,#935,#936);
#934 = CARTESIAN_POINT('',(2.905437141645E-02,-1.,-9.030170603661E-03));
#935 = DIRECTION('',(0.,-1.,2.22044604925E-16));
#936 = DIRECTION('',(1.,0.,0.));
#937 = ADVANCED_FACE('',(#938),#941,.T.);
#938 = FACE_BOUND('',#939,.T.);
#939 = EDGE_LOOP('',(#940));
#940 = ORIENTED_EDGE('',*,*,#712,.T.);
#941 = PLANE('',#942);
#942 = AXIS2_PLACEMENT_3D('',#943,#944,#945);
#943 = CARTESIAN_POINT('',(2.905437141645E-02,-15.5,-9.030170603658E-03)
  );
#944 = DIRECTION('',(0.,-1.,2.22044604925E-16));
#945 = DIRECTION('',(1.,0.,0.));
#946 = ADVANCED_FACE('',(#947),#950,.T.);
#947 = FACE_BOUND('',#948,.T.);
#948 = EDGE_LOOP('',(#949));
#949 = ORIENTED_EDGE('',*,*,#728,.T.);
#950 = PLANE('',#951);
#951 = AXIS2_PLACEMENT_3D('',#952,#953,#954);
#952 = CARTESIAN_POINT('',(2.905437141645E-02,-1.,-9.030170603661E-03));
#953 = DIRECTION('',(0.,-1.,2.22044604925E-16));
#954 = DIRECTION('',(1.,0.,0.));
#955 = ADVANCED_FACE('',(#956),#981,.F.);
#956 = FACE_BOUND('',#957,.F.);
#957 = EDGE_LOOP('',(#958,#966,#967,#975));
#958 = ORIENTED_EDGE('',*,*,#959,.T.);
#959 = EDGE_CURVE('',#960,#754,#962,.T.);
#960 = VERTEX_POINT('',#961);
#961 = CARTESIAN_POINT('',(-15.,2.109423746788E-15,-9.5));
#962 = LINE('',#963,#964);
#963 = CARTESIAN_POINT('',(-15.,2.109423746788E-15,-9.5));
#964 = VECTOR('',#965,1.);
#965 = DIRECTION('',(0.,-1.,-2.22044604925E-16));
#966 = ORIENTED_EDGE('',*,*,#753,.T.);
#967 = ORIENTED_EDGE('',*,*,#968,.F.);
#968 = EDGE_CURVE('',#969,#756,#971,.T.);
#969 = VERTEX_POINT('',#970);
#970 = CARTESIAN_POINT('',(-15.,-4.551914400963E-15,20.5));
#971 = LINE('',#972,#973);
#972 = CARTESIAN_POINT('',(-15.,-4.551914400963E-15,20.5));
#973 = VECTOR('',#974,1.);
#974 = DIRECTION('',(0.,-1.,-2.22044604925E-16));
#975 = ORIENTED_EDGE('',*,*,#976,.F.);
#976 = EDGE_CURVE('',#960,#969,#977,.T.);
#977 = LINE('',#978,#979);
#978 = CARTESIAN_POINT('',(-15.,2.109423746788E-15,-9.5));
#979 = VECTOR('',#980,1.);
#980 = DIRECTION('',(0.,-2.22044604925E-16,1.));
#981 = PLANE('',#982);
#982 = AXIS2_PLACEMENT_3D('',#983,#984,#985);
#983 = CARTESIAN_POINT('',(-15.,2.109423746788E-15,-9.5));
#984 = DIRECTION('',(-1.,0.,0.));
#985 = DIRECTION('',(0.,-2.22044604925E-16,1.));
#986 = ADVANCED_FACE('',(#987),#1005,.F.);
#987 = FACE_BOUND('',#988,.F.);
#988 = EDGE_LOOP('',(#989,#997,#998,#999));
#989 = ORIENTED_EDGE('',*,*,#990,.T.);
#990 = EDGE_CURVE('',#991,#772,#993,.T.);
#991 = VERTEX_POINT('',#992);
#992 = CARTESIAN_POINT('',(15.,2.109423746788E-15,-9.5));
#993 = LINE('',#994,#995);
#994 = CARTESIAN_POINT('',(15.,2.109423746788E-15,-9.5));
#995 = VECTOR('',#996,1.);
#996 = DIRECTION('',(0.,-1.,-2.22044604925E-16));
#997 = ORIENTED_EDGE('',*,*,#779,.T.);
#998 = ORIENTED_EDGE('',*,*,#959,.F.);
#999 = ORIENTED_EDGE('',*,*,#1000,.F.);
#1000 = EDGE_CURVE('',#991,#960,#1001,.T.);
#1001 = LINE('',#1002,#1003);
#1002 = CARTESIAN_POINT('',(15.,2.109423746788E-15,-9.5));
#1003 = VECTOR('',#1004,1.);
#1004 = DIRECTION('',(-1.,0.,-0.));
#1005 = PLANE('',#1006);
#1006 = AXIS2_PLACEMENT_3D('',#1007,#1008,#1009);
#1007 = CARTESIAN_POINT('',(15.,2.109423746788E-15,-9.5));
#1008 = DIRECTION('',(0.,2.22044604925E-16,-1.));
#1009 = DIRECTION('',(-1.,-0.,0.));
#1010 = ADVANCED_FACE('',(#1011),#1029,.F.);
#1011 = FACE_BOUND('',#1012,.F.);
#1012 = EDGE_LOOP('',(#1013,#1014,#1015,#1023));
#1013 = ORIENTED_EDGE('',*,*,#968,.T.);
#1014 = ORIENTED_EDGE('',*,*,#763,.T.);
#1015 = ORIENTED_EDGE('',*,*,#1016,.F.);
#1016 = EDGE_CURVE('',#1017,#764,#1019,.T.);
#1017 = VERTEX_POINT('',#1018);
#1018 = CARTESIAN_POINT('',(15.,-4.551914400963E-15,20.5));
#1019 = LINE('',#1020,#1021);
#1020 = CARTESIAN_POINT('',(15.,-4.551914400963E-15,20.5));
#1021 = VECTOR('',#1022,1.);
#1022 = DIRECTION('',(0.,-1.,-2.22044604925E-16));
#1023 = ORIENTED_EDGE('',*,*,#1024,.F.);
#1024 = EDGE_CURVE('',#969,#1017,#1025,.T.);
#1025 = LINE('',#1026,#1027);
#1026 = CARTESIAN_POINT('',(-15.,-4.551914400963E-15,20.5));
#1027 = VECTOR('',#1028,1.);
#1028 = DIRECTION('',(1.,0.,0.));
#1029 = PLANE('',#1030);
#1030 = AXIS2_PLACEMENT_3D('',#1031,#1032,#1033);
#1031 = CARTESIAN_POINT('',(-15.,-4.551914400963E-15,20.5));
#1032 = DIRECTION('',(0.,-2.22044604925E-16,1.));
#1033 = DIRECTION('',(1.,0.,0.));
#1034 = ADVANCED_FACE('',(#1035),#1046,.F.);
#1035 = FACE_BOUND('',#1036,.F.);
#1036 = EDGE_LOOP('',(#1037,#1038,#1039,#1040));
#1037 = ORIENTED_EDGE('',*,*,#1016,.T.);
#1038 = ORIENTED_EDGE('',*,*,#771,.T.);
#1039 = ORIENTED_EDGE('',*,*,#990,.F.);
#1040 = ORIENTED_EDGE('',*,*,#1041,.F.);
#1041 = EDGE_CURVE('',#1017,#991,#1042,.T.);
#1042 = LINE('',#1043,#1044);
#1043 = CARTESIAN_POINT('',(15.,-4.551914400963E-15,20.5));
#1044 = VECTOR('',#1045,1.);
#1045 = DIRECTION('',(0.,2.22044604925E-16,-1.));
#1046 = PLANE('',#1047);
#1047 = AXIS2_PLACEMENT_3D('',#1048,#1049,#1050);
#1048 = CARTESIAN_POINT('',(15.,-4.551914400963E-15,20.5));
#1049 = DIRECTION('',(1.,0.,0.));
#1050 = DIRECTION('',(0.,2.22044604925E-16,-1.));
#1051 = ADVANCED_FACE('',(#1052),#1077,.F.);
#1052 = FACE_BOUND('',#1053,.F.);
#1053 = EDGE_LOOP('',(#1054,#1062,#1063,#1071));
#1054 = ORIENTED_EDGE('',*,*,#1055,.T.);
#1055 = EDGE_CURVE('',#1056,#800,#1058,.T.);
#1056 = VERTEX_POINT('',#1057);
#1057 = CARTESIAN_POINT('',(-30.,6.661338147751E-15,30.));
#1058 = LINE('',#1059,#1060);
#1059 = CARTESIAN_POINT('',(-30.,6.661338147751E-15,30.));
#1060 = VECTOR('',#1061,1.);
#1061 = DIRECTION('',(0.,-1.,2.22044604925E-16));
#1062 = ORIENTED_EDGE('',*,*,#799,.T.);
#1063 = ORIENTED_EDGE('',*,*,#1064,.F.);
#1064 = EDGE_CURVE('',#1065,#802,#1067,.T.);
#1065 = VERTEX_POINT('',#1066);
#1066 = CARTESIAN_POINT('',(-30.,-6.661338147751E-15,-30.));
#1067 = LINE('',#1068,#1069);
#1068 = CARTESIAN_POINT('',(-30.,-6.661338147751E-15,-30.));
#1069 = VECTOR('',#1070,1.);
#1070 = DIRECTION('',(0.,-1.,2.22044604925E-16));
#1071 = ORIENTED_EDGE('',*,*,#1072,.F.);
#1072 = EDGE_CURVE('',#1056,#1065,#1073,.T.);
#1073 = LINE('',#1074,#1075);
#1074 = CARTESIAN_POINT('',(-30.,6.661338147751E-15,30.));
#1075 = VECTOR('',#1076,1.);
#1076 = DIRECTION('',(0.,-2.22044604925E-16,-1.));
#1077 = PLANE('',#1078);
#1078 = AXIS2_PLACEMENT_3D('',#1079,#1080,#1081);
#1079 = CARTESIAN_POINT('',(-30.,6.661338147751E-15,30.));
#1080 = DIRECTION('',(1.,0.,0.));
#1081 = DIRECTION('',(0.,-2.22044604925E-16,-1.));
#1082 = ADVANCED_FACE('',(#1083),#1101,.F.);
#1083 = FACE_BOUND('',#1084,.F.);
#1084 = EDGE_LOOP('',(#1085,#1086,#1087,#1095));
#1085 = ORIENTED_EDGE('',*,*,#1064,.T.);
#1086 = ORIENTED_EDGE('',*,*,#809,.T.);
#1087 = ORIENTED_EDGE('',*,*,#1088,.F.);
#1088 = EDGE_CURVE('',#1089,#810,#1091,.T.);
#1089 = VERTEX_POINT('',#1090);
#1090 = CARTESIAN_POINT('',(30.,-6.661338147751E-15,-30.));
#1091 = LINE('',#1092,#1093);
#1092 = CARTESIAN_POINT('',(30.,-6.661338147751E-15,-30.));
#1093 = VECTOR('',#1094,1.);
#1094 = DIRECTION('',(0.,-1.,2.22044604925E-16));
#1095 = ORIENTED_EDGE('',*,*,#1096,.F.);
#1096 = EDGE_CURVE('',#1065,#1089,#1097,.T.);
#1097 = LINE('',#1098,#1099);
#1098 = CARTESIAN_POINT('',(-30.,-6.661338147751E-15,-30.));
#1099 = VECTOR('',#1100,1.);
#1100 = DIRECTION('',(1.,0.,0.));
#1101 = PLANE('',#1102);
#1102 = AXIS2_PLACEMENT_3D('',#1103,#1104,#1105);
#1103 = CARTESIAN_POINT('',(-30.,-6.661338147751E-15,-30.));
#1104 = DIRECTION('',(0.,2.22044604925E-16,1.));
#1105 = DIRECTION('',(1.,0.,0.));
#1106 = ADVANCED_FACE('',(#1107),#1125,.F.);
#1107 = FACE_BOUND('',#1108,.F.);
#1108 = EDGE_LOOP('',(#1109,#1110,#1111,#1119));
#1109 = ORIENTED_EDGE('',*,*,#1088,.T.);
#1110 = ORIENTED_EDGE('',*,*,#817,.T.);
#1111 = ORIENTED_EDGE('',*,*,#1112,.F.);
#1112 = EDGE_CURVE('',#1113,#818,#1115,.T.);
#1113 = VERTEX_POINT('',#1114);
#1114 = CARTESIAN_POINT('',(30.,6.661338147751E-15,30.));
#1115 = LINE('',#1116,#1117);
#1116 = CARTESIAN_POINT('',(30.,6.661338147751E-15,30.));
#1117 = VECTOR('',#1118,1.);
#1118 = DIRECTION('',(0.,-1.,2.22044604925E-16));
#1119 = ORIENTED_EDGE('',*,*,#1120,.F.);
#1120 = EDGE_CURVE('',#1089,#1113,#1121,.T.);
#1121 = LINE('',#1122,#1123);
#1122 = CARTESIAN_POINT('',(30.,-6.661338147751E-15,-30.));
#1123 = VECTOR('',#1124,1.);
#1124 = DIRECTION('',(0.,2.22044604925E-16,1.));
#1125 = PLANE('',#1126);
#1126 = AXIS2_PLACEMENT_3D('',#1127,#1128,#1129);
#1127 = CARTESIAN_POINT('',(30.,-6.661338147751E-15,-30.));
#1128 = DIRECTION('',(-1.,0.,0.));
#1129 = DIRECTION('',(0.,2.22044604925E-16,1.));
#1130 = ADVANCED_FACE('',(#1131),#1142,.F.);
#1131 = FACE_BOUND('',#1132,.F.);
#1132 = EDGE_LOOP('',(#1133,#1134,#1135,#1136));
#1133 = ORIENTED_EDGE('',*,*,#1112,.T.);
#1134 = ORIENTED_EDGE('',*,*,#825,.T.);
#1135 = ORIENTED_EDGE('',*,*,#1055,.F.);
#1136 = ORIENTED_EDGE('',*,*,#1137,.F.);
#1137 = EDGE_CURVE('',#1113,#1056,#1138,.T.);
#1138 = LINE('',#1139,#1140);
#1139 = CARTESIAN_POINT('',(30.,6.661338147751E-15,30.));
#1140 = VECTOR('',#1141,1.);
#1141 = DIRECTION('',(-1.,0.,0.));
#1142 = PLANE('',#1143);
#1143 = AXIS2_PLACEMENT_3D('',#1144,#1145,#1146);
#1144 = CARTESIAN_POINT('',(30.,6.661338147751E-15,30.));
#1145 = DIRECTION('',(0.,-2.22044604925E-16,-1.));
#1146 = DIRECTION('',(-1.,0.,0.));
#1147 = ADVANCED_FACE('',(#1148),#1167,.F.);
#1148 = FACE_BOUND('',#1149,.T.);
#1149 = EDGE_LOOP('',(#1150,#1159,#1165,#1166));
#1150 = ORIENTED_EDGE('',*,*,#1151,.T.);
#1151 = EDGE_CURVE('',#1152,#1152,#1154,.T.);
#1152 = VERTEX_POINT('',#1153);
#1153 = CARTESIAN_POINT('',(19.86,-4.5,-18.61));
#1154 = CIRCLE('',#1155,1.25);
#1155 = AXIS2_PLACEMENT_3D('',#1156,#1157,#1158);
#1156 = CARTESIAN_POINT('',(18.61,-4.5,-18.61));
#1157 = DIRECTION('',(0.,1.,-2.22044604925E-16));
#1158 = DIRECTION('',(1.,0.,0.));
#1159 = ORIENTED_EDGE('',*,*,#1160,.T.);
#1160 = EDGE_CURVE('',#1152,#858,#1161,.T.);
#1161 = LINE('',#1162,#1163);
#1162 = CARTESIAN_POINT('',(19.86,-4.132250097655E-15,-18.61));
#1163 = VECTOR('',#1164,1.);
#1164 = DIRECTION('',(0.,-1.,2.22044604925E-16));
#1165 = ORIENTED_EDGE('',*,*,#857,.T.);
#1166 = ORIENTED_EDGE('',*,*,#1160,.F.);
#1167 = CYLINDRICAL_SURFACE('',#1168,1.25);
#1168 = AXIS2_PLACEMENT_3D('',#1169,#1170,#1171);
#1169 = CARTESIAN_POINT('',(18.61,-4.132250097655E-15,-18.61));
#1170 = DIRECTION('',(0.,1.,-2.22044604925E-16));
#1171 = DIRECTION('',(1.,0.,0.));
#1172 = ADVANCED_FACE('',(#1173),#1192,.F.);
#1173 = FACE_BOUND('',#1174,.T.);
#1174 = EDGE_LOOP('',(#1175,#1183,#1184,#1185));
#1175 = ORIENTED_EDGE('',*,*,#1176,.T.);
#1176 = EDGE_CURVE('',#1177,#878,#1179,.T.);
#1177 = VERTEX_POINT('',#1178);
#1178 = CARTESIAN_POINT('',(3.,-3.02202707303E-15,-13.61));
#1179 = LINE('',#1180,#1181);
#1180 = CARTESIAN_POINT('',(3.,-3.02202707303E-15,-13.61));
#1181 = VECTOR('',#1182,1.);
#1182 = DIRECTION('',(0.,-1.,2.22044604925E-16));
#1183 = ORIENTED_EDGE('',*,*,#877,.T.);
#1184 = ORIENTED_EDGE('',*,*,#1176,.F.);
#1185 = ORIENTED_EDGE('',*,*,#1186,.F.);
#1186 = EDGE_CURVE('',#1177,#1177,#1187,.T.);
#1187 = CIRCLE('',#1188,3.);
#1188 = AXIS2_PLACEMENT_3D('',#1189,#1190,#1191);
#1189 = CARTESIAN_POINT('',(0.,-3.02202707303E-15,-13.61));
#1190 = DIRECTION('',(0.,-1.,2.22044604925E-16));
#1191 = DIRECTION('',(1.,0.,0.));
#1192 = CYLINDRICAL_SURFACE('',#1193,3.);
#1193 = AXIS2_PLACEMENT_3D('',#1194,#1195,#1196);
#1194 = CARTESIAN_POINT('',(0.,-3.02202707303E-15,-13.61));
#1195 = DIRECTION('',(0.,1.,-2.22044604925E-16));
#1196 = DIRECTION('',(1.,0.,0.));
#1197 = ADVANCED_FACE('',(#1198),#1217,.F.);
#1198 = FACE_BOUND('',#1199,.T.);
#1199 = EDGE_LOOP('',(#1200,#1209,#1215,#1216));
#1200 = ORIENTED_EDGE('',*,*,#1201,.T.);
#1201 = EDGE_CURVE('',#1202,#1202,#1204,.T.);
#1202 = VERTEX_POINT('',#1203);
#1203 = CARTESIAN_POINT('',(-17.36,-4.5,-18.61));
#1204 = CIRCLE('',#1205,1.25);
#1205 = AXIS2_PLACEMENT_3D('',#1206,#1207,#1208);
#1206 = CARTESIAN_POINT('',(-18.61,-4.5,-18.61));
#1207 = DIRECTION('',(0.,1.,-2.22044604925E-16));
#1208 = DIRECTION('',(1.,0.,0.));
#1209 = ORIENTED_EDGE('',*,*,#1210,.T.);
#1210 = EDGE_CURVE('',#1202,#916,#1211,.T.);
#1211 = LINE('',#1212,#1213);
#1212 = CARTESIAN_POINT('',(-17.36,-4.132250097655E-15,-18.61));
#1213 = VECTOR('',#1214,1.);
#1214 = DIRECTION('',(0.,-1.,2.22044604925E-16));
#1215 = ORIENTED_EDGE('',*,*,#915,.T.);
#1216 = ORIENTED_EDGE('',*,*,#1210,.F.);
#1217 = CYLINDRICAL_SURFACE('',#1218,1.25);
#1218 = AXIS2_PLACEMENT_3D('',#1219,#1220,#1221);
#1219 = CARTESIAN_POINT('',(-18.61,-4.132250097655E-15,-18.61));
#1220 = DIRECTION('',(0.,1.,-2.22044604925E-16));
#1221 = DIRECTION('',(1.,0.,0.));
#1222 = ADVANCED_FACE('',(#1223,#1229,#1235),#1238,.T.);
#1223 = FACE_BOUND('',#1224,.T.);
#1224 = EDGE_LOOP('',(#1225,#1226,#1227,#1228));
#1225 = ORIENTED_EDGE('',*,*,#1072,.F.);
#1226 = ORIENTED_EDGE('',*,*,#1137,.F.);
#1227 = ORIENTED_EDGE('',*,*,#1120,.F.);
#1228 = ORIENTED_EDGE('',*,*,#1096,.F.);
#1229 = FACE_BOUND('',#1230,.T.);
#1230 = EDGE_LOOP('',(#1231,#1232,#1233,#1234));
#1231 = ORIENTED_EDGE('',*,*,#976,.F.);
#1232 = ORIENTED_EDGE('',*,*,#1000,.F.);
#1233 = ORIENTED_EDGE('',*,*,#1041,.F.);
#1234 = ORIENTED_EDGE('',*,*,#1024,.F.);
#1235 = FACE_BOUND('',#1236,.T.);
#1236 = EDGE_LOOP('',(#1237));
#1237 = ORIENTED_EDGE('',*,*,#1186,.T.);
#1238 = PLANE('',#1239);
#1239 = AXIS2_PLACEMENT_3D('',#1240,#1241,#1242);
#1240 = CARTESIAN_POINT('',(0.,0.,0.));
#1241 = DIRECTION('',(0.,1.,-2.22044604925E-16));
#1242 = DIRECTION('',(0.,-2.22044604925E-16,-1.));
#1243 = ADVANCED_FACE('',(#1244),#1247,.T.);
#1244 = FACE_BOUND('',#1245,.T.);
#1245 = EDGE_LOOP('',(#1246));
#1246 = ORIENTED_EDGE('',*,*,#1151,.F.);
#1247 = PLANE('',#1248);
#1248 = AXIS2_PLACEMENT_3D('',#1249,#1250,#1251);
#1249 = CARTESIAN_POINT('',(-1.015061051086E-15,-4.5,3.061043482181E-15)
  );
#1250 = DIRECTION('',(0.,-1.,2.22044604925E-16));
#1251 = DIRECTION('',(0.,2.22044604925E-16,1.));
#1252 = ADVANCED_FACE('',(#1253),#1256,.T.);
#1253 = FACE_BOUND('',#1254,.T.);
#1254 = EDGE_LOOP('',(#1255));
#1255 = ORIENTED_EDGE('',*,*,#1201,.F.);
#1256 = PLANE('',#1257);
#1257 = AXIS2_PLACEMENT_3D('',#1258,#1259,#1260);
#1258 = CARTESIAN_POINT('',(-1.015061051086E-15,-4.5,3.061043482181E-15)
  );
#1259 = DIRECTION('',(0.,-1.,2.22044604925E-16));
#1260 = DIRECTION('',(0.,2.22044604925E-16,1.));
#1261 = ( GEOMETRIC_REPRESENTATION_CONTEXT(3) 
GLOBAL_UNCERTAINTY_ASSIGNED_CONTEXT((#1265)) 
GLOBAL_UNIT_ASSIGNED_CONTEXT((#1262,#1263,#1264)) REPRESENTATION_CONTEXT
('Context #1','3D Context with UNIT and UNCERTAINTY') );
#1262 = ( LENGTH_UNIT() NAMED_UNIT(*) SI_UNIT(.MILLI.,.METRE.) );
#1263 = ( NAMED_UNIT(*) PLANE_ANGLE_UNIT() SI_UNIT($,.RADIAN.) );
#1264 = ( NAMED_UNIT(*) SI_UNIT($,.STERADIAN.) SOLID_ANGLE_UNIT() );
#1265 = UNCERTAINTY_MEASURE_WITH_UNIT(LENGTH_MEASURE(2.E-06),#1262,
  'distance_accuracy_value','confusion accuracy');
#1266 = PRODUCT_RELATED_PRODUCT_CATEGORY('part',$,(#7));
#1267 = MECHANICAL_DESIGN_GEOMETRIC_PRESENTATION_REPRESENTATION('',(
    #1268),#1261);
#1268 = STYLED_ITEM('color',(#1269),#15);
#1269 = PRESENTATION_STYLE_ASSIGNMENT((#1270,#1276));
#1270 = SURFACE_STYLE_USAGE(.BOTH.,#1271);
#1271 = SURFACE_SIDE_STYLE('',(#1272));
#1272 = SURFACE_STYLE_FILL_AREA(#1273);
#1273 = FILL_AREA_STYLE('',(#1274));
#1274 = FILL_AREA_STYLE_COLOUR('',#1275);
#1275 = COLOUR_RGB('',0.678431390124,0.709803936702,0.741176476869);
#1276 = CURVE_STYLE('',#1277,POSITIVE_LENGTH_MEASURE(0.1),#1278);
#1277 = DRAUGHTING_PRE_DEFINED_CURVE_FONT('continuous');
#1278 = COLOUR_RGB('',9.803921802644E-02,9.803921802644E-02,
  9.803921802644E-02);
ENDSEC;
END-ISO-10303-21;
